<?xml version="1.0" encoding="UTF-8"?>
<svg version="1.1" xmlns="http://www.w3.org/2000/svg" width="33" height="38">
<path d="M0 0 C1.62490954 -0.02698189 3.24994633 -0.04638757 4.875 -0.0625 C5.77992187 -0.07410156 6.68484375 -0.08570312 7.6171875 -0.09765625 C10 0 10 0 12 1 C12.625 3.0625 12.625 3.0625 13 5 C12.01 5.66 11.02 6.32 10 7 C10 7.66 10 8.32 10 9 C9.34 9 8.68 9 8 9 C8 9.66 8 10.32 8 11 C7.01 11 6.02 11 5 11 C5.33 11.99 5.66 12.98 6 14 C5.34 14 4.68 14 4 14 C3.67 13.34 3.34 12.68 3 12 C2.67 12.66 2.34 13.32 2 14 C0.68 14 -0.64 14 -2 14 C-0.125 9.125 -0.125 9.125 1 8 C-0.65 7.67 -2.3 7.34 -4 7 C-4 6.34 -4 5.68 -4 5 C-3.34 5 -2.68 5 -2 5 C-1.34 3.35 -0.68 1.7 0 0 Z " fill="#EDC20E" transform="translate(20,2)"/>
<path d="M0 0 C6.75 -0.125 6.75 -0.125 9 1 C9.625 3.0625 9.625 3.0625 10 5 C9.01 5.66 8.02 6.32 7 7 C7 7.66 7 8.32 7 9 C6.34 9 5.68 9 5 9 C5 9.66 5 10.32 5 11 C4.01 11 3.02 11 2 11 C2.33 11.99 2.66 12.98 3 14 C2.34 14 1.68 14 1 14 C1.875 9.25 1.875 9.25 3 7 C2.34 7 1.68 7 1 7 C1.875 3.125 1.875 3.125 3 2 C2.01 1.34 1.02 0.68 0 0 Z " fill="#E1AF14" transform="translate(23,2)"/>
<path d="M0 0 C6.75 -0.125 6.75 -0.125 9 1 C9.625 3.0625 9.625 3.0625 10 5 C8.68 5.33 7.36 5.66 6 6 C5.67 4.68 5.34 3.36 5 2 C3.35 1.67 1.7 1.34 0 1 C0 0.67 0 0.34 0 0 Z " fill="#160F09" transform="translate(23,2)"/>
<path d="M0 0 C0.99 0.33 1.98 0.66 3 1 C2.34 2.98 1.68 4.96 1 7 C-0.65 7 -2.3 7 -4 7 C-4 6.34 -4 5.68 -4 5 C-3.34 5 -2.68 5 -2 5 C-1.34 3.35 -0.68 1.7 0 0 Z " fill="#403612" transform="translate(20,2)"/>
<path d="M0 0 C0.99 0 1.98 0 3 0 C3 0.66 3 1.32 3 2 C2.34 2 1.68 2 1 2 C1 2.66 1 3.32 1 4 C0.01 4 -0.98 4 -2 4 C-1.67 4.99 -1.34 5.98 -1 7 C-1.66 7 -2.32 7 -3 7 C-2.25 2.25 -2.25 2.25 0 0 Z " fill="#0C0706" transform="translate(27,9)"/>
<path d="M0 0 C1.32 0.33 2.64 0.66 4 1 C3.67 1.99 3.34 2.98 3 4 C2.01 3.67 1.02 3.34 0 3 C0 2.01 0 1.02 0 0 Z " fill="#191807" transform="translate(13,27)"/>
<path d="M0 0 C0.33 0.99 0.66 1.98 1 3 C0.34 3 -0.32 3 -1 3 C-0.67 2.01 -0.34 1.02 0 0 Z " fill="#100E0E" transform="translate(3,32)"/>
<path d="M0 0 C0.66 0.66 1.32 1.32 2 2 C1.01 2 0.02 2 -1 2 C-0.67 1.34 -0.34 0.68 0 0 Z " fill="#000002" transform="translate(17,23)"/>
<path d="M0 0 C0.66 0.33 1.32 0.66 2 1 C1.01 1 0.02 1 -1 1 C-0.67 0.67 -0.34 0.34 0 0 Z " fill="#000004" transform="translate(11,34)"/>
<path d="M0 0 C0.66 0.66 1.32 1.32 2 2 C1.01 2.495 1.01 2.495 0 3 C0 2.01 0 1.02 0 0 Z " fill="#050302" transform="translate(7,21)"/>
<path d="M0 0 C0.33 0.99 0.66 1.98 1 3 C0.34 2.67 -0.32 2.34 -1 2 C-0.67 1.34 -0.34 0.68 0 0 Z " fill="#CDC621" transform="translate(14,18)"/>
<path d="M0 0 C0 3 0 3 0 3 Z " fill="#010004" transform="translate(9,18)"/>
<path d="M0 0 C3 1 3 1 3 1 Z " fill="#B2C529" transform="translate(9,28)"/>
<path d="M0 0 C3 1 3 1 3 1 Z " fill="#C9C720" transform="translate(13,22)"/>
<path d="M0 0 C3 1 3 1 3 1 Z " fill="#010001" transform="translate(24,0)"/>
<path d="" fill="#040000" transform="translate(0,0)"/>
<path d="M0 0 C2 1 2 1 2 1 Z " fill="#E2C717" transform="translate(16,20)"/>
<path d="M0 0 C2 1 2 1 2 1 Z " fill="#040205" transform="translate(20,19)"/>
<path d="" fill="#010003" transform="translate(0,0)"/>
<path d="" fill="#000001" transform="translate(0,0)"/>
<path d="" fill="#000001" transform="translate(0,0)"/>
<path d="" fill="#B5C82D" transform="translate(0,0)"/>
<path d="" fill="#010005" transform="translate(0,0)"/>
<path d="" fill="#CAC325" transform="translate(0,0)"/>
<path d="" fill="#020001" transform="translate(0,0)"/>
<path d="" fill="#CCCA55" transform="translate(0,0)"/>
<path d="" fill="#CAC325" transform="translate(0,0)"/>
<path d="" fill="#010104" transform="translate(0,0)"/>
<path d="" fill="#DAC715" transform="translate(0,0)"/>
<path d="" fill="#3E3112" transform="translate(0,0)"/>
<path d="" fill="#010009" transform="translate(0,0)"/>
<path d="" fill="#E8CA43" transform="translate(0,0)"/>
<path d="" fill="#080000" transform="translate(0,0)"/>
<path d="" fill="#000001" transform="translate(0,0)"/>
</svg>
