<?xml version="1.0" encoding="UTF-8"?>
<svg version="1.1" xmlns="http://www.w3.org/2000/svg" width="46" height="99">
<path d="M0 0 C0.66 0.66 1.32 1.32 2 2 C4.58354218 2.16687448 4.58354218 2.16687448 7 2 C7.33 1.34 7.66 0.68 8 0 C10.97 0.495 10.97 0.495 14 1 C15.07526882 12.69354839 15.07526882 12.69354839 15 17.125 C14.78571015 19.9440983 14.78571015 19.9440983 16 22 C15.34 22 14.68 22 14 22 C13.945652 24.0622048 13.90705039 26.12482816 13.875 28.1875 C13.84019531 29.91033203 13.84019531 29.91033203 13.8046875 31.66796875 C14.06465241 36.1029701 15.30943211 38.92578328 17.6875 42.625 C18.120625 43.40875 18.55375 44.1925 19 45 C18.67 45.99 18.34 46.98 18 48 C17.01 48 16.02 48 15 48 C14.34 48.66 13.68 49.32 13 50 C9.58591823 50.55363488 8.22568533 50.13848873 5.25 48.3125 C2.78965038 45.78380733 2.28819649 44.45835793 2 41 C1.34 41 0.68 41 0 41 C-0.02888146 37.68751813 -0.04675799 34.37506833 -0.0625 31.0625 C-0.07087891 30.11697266 -0.07925781 29.17144531 -0.08789062 28.19726562 C-0.09111328 27.29814453 -0.09433594 26.39902344 -0.09765625 25.47265625 C-0.10289307 24.64000244 -0.10812988 23.80734863 -0.11352539 22.94946289 C0 21 0 21 1 20 C1.15349136 17.52642763 1.23159885 15.09995481 1.25 12.625 C1.270625 11.93921875 1.29125 11.2534375 1.3125 10.546875 C1.36568556 6.49320996 1.36568556 6.49320996 -0.515625 3.0234375 C-1.00546875 2.68570313 -1.4953125 2.34796875 -2 2 C-1.34 1.34 -0.68 0.68 0 0 Z M3 13 C4 15 4 15 4 15 Z M2 21 C3 23 3 23 3 23 Z " fill="#E79811" transform="translate(27,49)"/>
<path d="M0 0 C4 4 4 4 4.16357422 7.43652344 C4.13610913 8.91099823 4.0991454 10.38531471 4.0546875 11.859375 C4.02938074 13.466137 4.00465988 15.07290832 3.98046875 16.6796875 C3.93095565 19.21220916 3.87515234 21.74424679 3.80810547 24.27636719 C3.7474026 26.72073311 3.71205408 29.164492 3.6796875 31.609375 C3.65276825 32.35958923 3.625849 33.10980347 3.59811401 33.88275146 C3.54880268 39.09182134 4.62671332 42.04199018 8 46 C11.10935018 47.42779274 11.10935018 47.42779274 14 48 C13.67 48.66 13.34 49.32 13 50 C9.61510691 50.38684492 8.2009146 50.12328851 5.25 48.3125 C2.78965038 45.78380733 2.28819649 44.45835793 2 41 C1.34 41 0.68 41 0 41 C-0.02888146 37.68751813 -0.04675799 34.37506833 -0.0625 31.0625 C-0.07087891 30.11697266 -0.07925781 29.17144531 -0.08789062 28.19726562 C-0.09111328 27.29814453 -0.09433594 26.39902344 -0.09765625 25.47265625 C-0.10289307 24.64000244 -0.10812988 23.80734863 -0.11352539 22.94946289 C0 21 0 21 1 20 C1.15349136 17.52642763 1.23159885 15.09995481 1.25 12.625 C1.270625 11.93921875 1.29125 11.2534375 1.3125 10.546875 C1.36568556 6.49320996 1.36568556 6.49320996 -0.515625 3.0234375 C-1.00546875 2.68570313 -1.4953125 2.34796875 -2 2 C-1.34 1.34 -0.68 0.68 0 0 Z M2 21 C3 23 3 23 3 23 Z " fill="#080405" transform="translate(27,49)"/>
<path d="M0 0 C0.99 0.33 1.98 0.66 3 1 C4.07526882 12.69354839 4.07526882 12.69354839 4 17.125 C3.78571015 19.9440983 3.78571015 19.9440983 5 22 C4.34 22 3.68 22 3 22 C2.97282308 24.06242617 2.9535242 26.12495703 2.9375 28.1875 C2.92589844 29.33605469 2.91429687 30.48460938 2.90234375 31.66796875 C2.98807168 34.59300586 3.32150977 37.16316291 4 40 C2.515 40.495 2.515 40.495 1 41 C-1.61152506 38.38847494 -1.23779913 36.56118146 -1.25224304 33.00535583 C-1.24505753 32.18761185 -1.23787201 31.36986786 -1.23046875 30.52734375 C-1.23001053 29.68909561 -1.22955231 28.85084747 -1.2290802 27.98719788 C-1.22605724 26.21435125 -1.21816963 24.44150729 -1.20581055 22.66870117 C-1.18755065 19.94505478 -1.18530085 17.22174808 -1.18554688 14.49804688 C-1.18063192 12.77864287 -1.1748037 11.05924119 -1.16796875 9.33984375 C-1.16685593 8.52007553 -1.1657431 7.70030731 -1.16459656 6.85569763 C-1.11604801 1.11604801 -1.11604801 1.11604801 0 0 Z " fill="#2A1307" transform="translate(38,49)"/>
<path d="M0 0 C0.33 0 0.66 0 1 0 C1.33 2.31 1.66 4.62 2 7 C2.94875 7.2475 3.8975 7.495 4.875 7.75 C8 9 8 9 9.4375 10.9375 C10 13 10 13 9 16 C1.35386169 16.89954568 1.35386169 16.89954568 -1.74609375 14.83984375 C-3.125 13.3125 -3.125 13.3125 -5 10 C-4.8125 7.125 -4.8125 7.125 -4 5 C-2.68 4.67 -1.36 4.34 0 4 C0 2.68 0 1.36 0 0 Z " fill="#E79310" transform="translate(36,81)"/>
<path d="M0 0 C0.99 0.33 1.98 0.66 3 1 C4.07526882 12.69354839 4.07526882 12.69354839 4 17.125 C3.78571015 19.9440983 3.78571015 19.9440983 5 22 C4.34 22 3.68 22 3 22 C3 23.65 3 25.3 3 27 C2.34 27.33 1.68 27.66 1 28 C1.03480469 26.45892578 1.03480469 26.45892578 1.0703125 24.88671875 C1.18601592 17.35141994 1.02626207 10.33739769 -0.66015625 2.94140625 C-0.77230469 2.30074219 -0.88445313 1.66007812 -1 1 C-0.67 0.67 -0.34 0.34 0 0 Z " fill="#010005" transform="translate(38,49)"/>
<path d="M0 0 C0.33 0 0.66 0 1 0 C1.02715383 1.74991334 1.04646551 3.49994945 1.0625 5.25 C1.07410156 6.22453125 1.08570313 7.1990625 1.09765625 8.203125 C1.01195577 10.65758678 0.70706066 12.66168914 0 15 C-0.99 14.67 -1.98 14.34 -3 14 C-3.33 11.03 -3.66 8.06 -4 5 C-3.01 4.34 -2.02 3.68 -1 3 C-0.67 2.01 -0.34 1.02 0 0 Z " fill="#FCA001" transform="translate(36,70)"/>
<path d="M0 0 C0.33 0 0.66 0 1 0 C1.144375 1.0725 1.28875 2.145 1.4375 3.25 C1.88858511 6.77595708 1.88858511 6.77595708 2.625 9.25 C3 11 3 11 2 14 C1.34 14.99 0.68 15.98 0 17 C-1.75559942 15.24440058 -1.13221919 12.96417558 -1.13671875 10.62890625 C-1.13285156 9.92636719 -1.12898438 9.22382812 -1.125 8.5 C-1.12886719 7.79746094 -1.13273437 7.09492187 -1.13671875 6.37109375 C-1.12661378 1.12661378 -1.12661378 1.12661378 0 0 Z " fill="#D99A1E" transform="translate(31,73)"/>
<path d="M0 0 C0.99 0.33 1.98 0.66 3 1 C3.125 3.875 3.125 3.875 3 7 C2.34 7.66 1.68 8.32 1 9 C0.63877119 7.68942607 0.28619689 6.37646376 -0.0625 5.0625 C-0.35833984 3.96615234 -0.35833984 3.96615234 -0.66015625 2.84765625 C-0.77230469 2.23792969 -0.88445313 1.62820312 -1 1 C-0.67 0.67 -0.34 0.34 0 0 Z " fill="#100505" transform="translate(38,49)"/>
<path d="M0 0 C2.0625 1.75 2.0625 1.75 4 4 C3.75 6.25 3.75 6.25 3 8 C2.01 7.67 1.02 7.34 0 7 C-0.38133299 5.0085944 -0.71325582 3.00720923 -1 1 C-0.67 0.67 -0.34 0.34 0 0 Z " fill="#130603" transform="translate(42,89)"/>
<path d="M0 0 C4 4 4 4 4.125 6.625 C4.08375 7.40875 4.0425 8.1925 4 9 C2 8 2 8 1 5 C-0.49985609 3.33289654 -0.49985609 3.33289654 -2 2 C-1.34 1.34 -0.68 0.68 0 0 Z " fill="#120C08" transform="translate(27,49)"/>
<path d="M0 0 C0.99 0 1.98 0 3 0 C3.33 1.65 3.66 3.3 4 5 C3.01 5.33 2.02 5.66 1 6 C0 5 0 5 -0.0625 2.4375 C-0.041875 1.633125 -0.02125 0.82875 0 0 Z " fill="#040003" transform="translate(38,84)"/>
<path d="M0 0 C2 2 2 2 2 4 C0.35 4.66 -1.3 5.32 -3 6 C-2 4 -1 2 0 0 Z " fill="#9D8518" transform="translate(10,91)"/>
<path d="M0 0 C0.66 0 1.32 0 2 0 C2.33 0.99 2.66 1.98 3 3 C1.68 2.67 0.36 2.34 -1 2 C-0.67 1.34 -0.34 0.68 0 0 Z " fill="#E1C611" transform="translate(7,71)"/>
<path d="M0 0 C0.99 0.495 0.99 0.495 2 1 C1.34 2.32 0.68 3.64 0 5 C0 3.35 0 1.7 0 0 Z " fill="#EBC620" transform="translate(10,83)"/>
<path d="M0 0 C0.99 0 1.98 0 3 0 C2.67 0.99 2.34 1.98 2 3 C1.34 2.67 0.68 2.34 0 2 C0 1.34 0 0.68 0 0 Z " fill="#594107" transform="translate(18,71)"/>
<path d="M0 0 C0.99 0.33 1.98 0.66 3 1 C2.34 1.66 1.68 2.32 1 3 C0.67 2.01 0.34 1.02 0 0 Z " fill="#DFC221" transform="translate(7,66)"/>
<path d="M0 0 C0.66 0.33 1.32 0.66 2 1 C0.68 1.33 -0.64 1.66 -2 2 C-1.34 1.34 -0.68 0.68 0 0 Z " fill="#1E1209" transform="translate(35,43)"/>
<path d="M0 0 C1.485 0.99 1.485 0.99 3 2 C2.01 2 1.02 2 0 2 C0 1.34 0 0.68 0 0 Z " fill="#000001" transform="translate(32,41)"/>
<path d="" fill="#C4C626" transform="translate(0,0)"/>
<path d="M0 0 C3 1 3 1 3 1 Z " fill="#422C1D" transform="translate(19,67)"/>
<path d="" fill="#000100" transform="translate(0,0)"/>
<path d="M0 0 C2 1 2 1 2 1 Z " fill="#301F08" transform="translate(16,96)"/>
<path d="M0 0 C2 1 2 1 2 1 Z " fill="#D9C419" transform="translate(6,75)"/>
<path d="" fill="#F9C322" transform="translate(0,0)"/>
<path d="" fill="#000000" transform="translate(0,0)"/>
<path d="" fill="#F9AB06" transform="translate(0,0)"/>
<path d="M0 0 C2 1 2 1 2 1 Z " fill="#070002" transform="translate(36,46)"/>
<path d="" fill="#010003" transform="translate(0,0)"/>
<path d="" fill="#E8C50D" transform="translate(0,0)"/>
<path d="" fill="#B1C427" transform="translate(0,0)"/>
<path d="" fill="#010101" transform="translate(0,0)"/>
<path d="" fill="#000001" transform="translate(0,0)"/>
<path d="" fill="#CEC820" transform="translate(0,0)"/>
<path d="" fill="#040000" transform="translate(0,0)"/>
<path d="" fill="#CEC820" transform="translate(0,0)"/>
<path d="" fill="#FCC402" transform="translate(0,0)"/>
<path d="" fill="#000100" transform="translate(0,0)"/>
<path d="" fill="#ECC232" transform="translate(0,0)"/>
<path d="" fill="#040000" transform="translate(0,0)"/>
<path d="" fill="#5A561D" transform="translate(0,0)"/>
<path d="" fill="#FEA501" transform="translate(0,0)"/>
<path d="" fill="#020001" transform="translate(0,0)"/>
<path d="" fill="#FEA501" transform="translate(0,0)"/>
<path d="" fill="#F6AE08" transform="translate(0,0)"/>
<path d="" fill="#FEA501" transform="translate(0,0)"/>
<path d="" fill="#030001" transform="translate(0,0)"/>
<path d="" fill="#FCA905" transform="translate(0,0)"/>
<path d="" fill="#030001" transform="translate(0,0)"/>
<path d="" fill="#000001" transform="translate(0,0)"/>
<path d="" fill="#000001" transform="translate(0,0)"/>
<path d="" fill="#4B2206" transform="translate(0,0)"/>
</svg>
