<?xml version="1.0" encoding="UTF-8"?>
<svg version="1.1" xmlns="http://www.w3.org/2000/svg" width="146" height="109">
<path d="M0 0 C0.53625 0.309375 1.0725 0.61875 1.625 0.9375 C1.625 2.5875 1.625 4.2375 1.625 5.9375 C0.635 6.4325 0.635 6.4325 -0.375 6.9375 C-1.05972665 8.82514903 -1.05972665 8.82514903 -1.5 11 C-1.66757813 11.73347656 -1.83515625 12.46695313 -2.0078125 13.22265625 C-2.12898438 13.78855469 -2.25015625 14.35445312 -2.375 14.9375 C-1.715 14.9375 -1.055 14.9375 -0.375 14.9375 C-0.375 15.5975 -0.375 16.2575 -0.375 16.9375 C-1.365 16.9375 -2.355 16.9375 -3.375 16.9375 C-3.705 18.9175 -4.035 20.8975 -4.375 22.9375 C-3.715 22.9375 -3.055 22.9375 -2.375 22.9375 C-2.375 24.9375 -2.375 24.9375 -4.375 27.0625 C-5.035 27.68125 -5.695 28.3 -6.375 28.9375 C-5.715 28.9375 -5.055 28.9375 -4.375 28.9375 C-4.375 29.9275 -4.375 30.9175 -4.375 31.9375 C-5.035 31.9375 -5.695 31.9375 -6.375 31.9375 C-6.87 31.4425 -6.87 31.4425 -7.375 30.9375 C-7.045 32.9175 -6.715 34.8975 -6.375 36.9375 C-7.365 36.9375 -8.355 36.9375 -9.375 36.9375 C-10.06596471 40.92149958 -10.06596471 40.92149958 -10.375 44.9375 C-10.375 45.5975 -10.375 46.2575 -10.375 46.9375 C-11.86 47.4325 -11.86 47.4325 -13.375 47.9375 C-13.705 48.5975 -14.035 49.2575 -14.375 49.9375 C-13.715 49.9375 -13.055 49.9375 -12.375 49.9375 C-12.375 50.5975 -12.375 51.2575 -12.375 51.9375 C-13.695 52.5975 -15.015 53.2575 -16.375 53.9375 C-16.375 54.9275 -16.375 55.9175 -16.375 56.9375 C-18.375 59.125 -18.375 59.125 -20.375 60.9375 C-21.035 60.6075 -21.695 60.2775 -22.375 59.9375 C-22.375 58.6175 -22.375 57.2975 -22.375 55.9375 C-24.355 55.6075 -26.335 55.2775 -28.375 54.9375 C-28.375 53.9475 -28.375 52.9575 -28.375 51.9375 C-29.035 51.6075 -29.695 51.2775 -30.375 50.9375 C-30.375 50.2775 -30.375 49.6175 -30.375 48.9375 C-27.405 48.4425 -27.405 48.4425 -24.375 47.9375 C-25.695 47.6075 -27.015 47.2775 -28.375 46.9375 C-28.375 46.2775 -28.375 45.6175 -28.375 44.9375 C-27.570625 44.710625 -26.76625 44.48375 -25.9375 44.25 C-25.091875 43.816875 -24.24625 43.38375 -23.375 42.9375 C-22.48113836 40.38974694 -22.48113836 40.38974694 -22.375 37.9375 C-23.035 37.9375 -23.695 37.9375 -24.375 37.9375 C-24.375 37.2775 -24.375 36.6175 -24.375 35.9375 C-22.395 35.4425 -22.395 35.4425 -20.375 34.9375 C-20.375 34.2775 -20.375 33.6175 -20.375 32.9375 C-21.035 32.9375 -21.695 32.9375 -22.375 32.9375 C-22.375 32.2775 -22.375 31.6175 -22.375 30.9375 C-21.055 30.9375 -19.735 30.9375 -18.375 30.9375 C-18.375 29.9475 -18.375 28.9575 -18.375 27.9375 C-19.035 27.6075 -19.695 27.2775 -20.375 26.9375 C-20.375 24.9375 -20.375 24.9375 -18.375 22.8125 C-17.715 22.19375 -17.055 21.575 -16.375 20.9375 C-17.035 20.9375 -17.695 20.9375 -18.375 20.9375 C-18.375 19.6175 -18.375 18.2975 -18.375 16.9375 C-17.715 16.9375 -17.055 16.9375 -16.375 16.9375 C-16.045 17.2675 -15.715 17.5975 -15.375 17.9375 C-15.045 15.6275 -14.715 13.3175 -14.375 10.9375 C-15.035 10.9375 -15.695 10.9375 -16.375 10.9375 C-16.375 10.2775 -16.375 9.6175 -16.375 8.9375 C-15.715 8.9375 -15.055 8.9375 -14.375 8.9375 C-13.715 6.9575 -13.055 4.9775 -12.375 2.9375 C-13.035 2.6075 -13.695 2.2775 -14.375 1.9375 C-14.375 1.2775 -14.375 0.6175 -14.375 -0.0625 C-9.00046682 -2.23790629 -5.32195774 -2.38087583 0 0 Z M-17.375 24.9375 C-16.375 26.9375 -16.375 26.9375 -16.375 26.9375 Z M-16.375 47.9375 C-15.375 49.9375 -15.375 49.9375 -15.375 49.9375 Z " fill="#C92439" transform="translate(144.375,34.0625)"/>
<path d="M0 0 C1.2065625 0.0309375 1.2065625 0.0309375 2.4375 0.0625 C5.48985571 10.97571699 -0.61425732 28.16601464 -5.5625 38.0625 C-6.5525 37.7325 -7.5425 37.4025 -8.5625 37.0625 C-10.0475 37.5575 -10.0475 37.5575 -11.5625 38.0625 C-11.94671474 33.96420946 -10.82095573 31.05866861 -9.35766602 27.27392578 C-8.09039588 23.74953742 -7.26301611 20.14878121 -6.4375 16.5 C-6.26863281 15.78392578 -6.09976563 15.06785156 -5.92578125 14.33007812 C-5.13942405 10.92769009 -4.4618315 7.56109687 -4.0078125 4.09765625 C-3.41884628 0.08338649 -3.41884628 0.08338649 0 0 Z " fill="#DA3660" transform="translate(137.5625,33.9375)"/>
<path d="M0 0 C0.53625 0.309375 1.0725 0.61875 1.625 0.9375 C1.625 2.5875 1.625 4.2375 1.625 5.9375 C0.635 6.4325 0.635 6.4325 -0.375 6.9375 C-1.05972665 8.82514903 -1.05972665 8.82514903 -1.5 11 C-1.75136719 12.10021484 -1.75136719 12.10021484 -2.0078125 13.22265625 C-2.12898437 13.78855469 -2.25015625 14.35445312 -2.375 14.9375 C-1.715 14.9375 -1.055 14.9375 -0.375 14.9375 C-0.375 15.5975 -0.375 16.2575 -0.375 16.9375 C-1.365 16.9375 -2.355 16.9375 -3.375 16.9375 C-3.705 18.9175 -4.035 20.8975 -4.375 22.9375 C-3.715 22.9375 -3.055 22.9375 -2.375 22.9375 C-2.375 24.9375 -2.375 24.9375 -4.375 27.0625 C-5.035 27.68125 -5.695 28.3 -6.375 28.9375 C-5.715 28.9375 -5.055 28.9375 -4.375 28.9375 C-4.375 29.9275 -4.375 30.9175 -4.375 31.9375 C-5.035 31.9375 -5.695 31.9375 -6.375 31.9375 C-6.705 31.6075 -7.035 31.2775 -7.375 30.9375 C-7.045 32.9175 -6.715 34.8975 -6.375 36.9375 C-7.365 36.9375 -8.355 36.9375 -9.375 36.9375 C-10.06596471 40.92149958 -10.06596471 40.92149958 -10.375 44.9375 C-10.375 45.5975 -10.375 46.2575 -10.375 46.9375 C-11.86 47.4325 -11.86 47.4325 -13.375 47.9375 C-14.035 48.5975 -14.695 49.2575 -15.375 49.9375 C-16.41087606 46.79416699 -16.37997699 45.16806739 -15.08203125 42.13671875 C-14.78312988 41.41347412 -14.48422852 40.69022949 -14.17626953 39.94506836 C-13.84997559 39.1794458 -13.52368164 38.41382324 -13.1875 37.625 C-10.22462805 30.39922044 -7.94719483 23.26673528 -6.1015625 15.68359375 C-5.375 12.9375 -5.375 12.9375 -4.375 11.9375 C-4.30273498 10.08462498 -4.2911878 8.22916122 -4.3125 6.375 C-4.32152344 5.36308594 -4.33054688 4.35117187 -4.33984375 3.30859375 C-4.35144531 2.52613281 -4.36304688 1.74367187 -4.375 0.9375 C-6.355 0.9375 -8.335 0.9375 -10.375 0.9375 C-10.705 0.2775 -11.035 -0.3825 -11.375 -1.0625 C-7.19546357 -2.45567881 -3.99461785 -1.78706588 0 0 Z " fill="#1B0407" transform="translate(144.375,34.0625)"/>
<path d="M0 0 C1.32 0.33 2.64 0.66 4 1 C4.18488403 6.25207598 3.56947562 10.95009 2.3125 16.0625 C2.13533447 16.79621826 1.95816895 17.52993652 1.77563477 18.28588867 C-2.86015439 36.84708337 -2.86015439 36.84708337 -8 43 C-8.495 41.515 -8.495 41.515 -9 40 C-8.67 39.34 -8.34 38.68 -8 38 C-8.66 38 -9.32 38 -10 38 C-10 37.34 -10 36.68 -10 36 C-8.02 35.505 -8.02 35.505 -6 35 C-6 34.34 -6 33.68 -6 33 C-6.66 33 -7.32 33 -8 33 C-8 32.34 -8 31.68 -8 31 C-6.68 31 -5.36 31 -4 31 C-4 30.01 -4 29.02 -4 28 C-4.66 27.67 -5.32 27.34 -6 27 C-6 25 -6 25 -4 22.875 C-3.34 22.25625 -2.68 21.6375 -2 21 C-2.66 21 -3.32 21 -4 21 C-4 19.68 -4 18.36 -4 17 C-3.34 17 -2.68 17 -2 17 C-1.67 17.33 -1.34 17.66 -1 18 C-0.67 15.69 -0.34 13.38 0 11 C-0.66 11 -1.32 11 -2 11 C-2 10.34 -2 9.68 -2 9 C-1.34 9 -0.68 9 0 9 C0.66 7.02 1.32 5.04 2 3 C1.34 2.67 0.68 2.34 0 2 C0 1.34 0 0.68 0 0 Z M-3 25 C-2 27 -2 27 -2 27 Z " fill="#110303" transform="translate(130,34)"/>
<path d="M0 0 C0.33 0.66 0.66 1.32 1 2 C1.66 2 2.32 2 3 2 C3 3.32 3 4.64 3 6 C2.34 6 1.68 6 1 6 C1.02320313 6.74765625 1.04640625 7.4953125 1.0703125 8.265625 C1.09738281 9.74289063 1.09738281 9.74289063 1.125 11.25 C1.14820313 12.22453125 1.17140625 13.1990625 1.1953125 14.203125 C0.99862781 17.0196498 0.44568916 18.60949036 -1 21 C-1.99 20.67 -2.98 20.34 -4 20 C-4.99 20.33 -5.98 20.66 -7 21 C-7.45788273 16.11591759 -5.78722748 12.4263976 -4 8 C-3.67 7.01 -3.34 6.02 -3 5 C-2.34 5 -1.68 5 -1 5 C-0.67 3.35 -0.34 1.7 0 0 Z " fill="#F52A4D" transform="translate(133,51)"/>
<path d="M0 0 C0.99 1.32 1.98 2.64 3 4 C3.66 4.66 4.32 5.32 5 6 C5.602095 11.900531 4.06625443 16.57608212 2 22 C0 19 0 19 0.375 16.8125 C0.58125 16.214375 0.7875 15.61625 1 15 C1.66 15 2.32 15 3 15 C3 13.68 3 12.36 3 11 C2.01 11 1.02 11 0 11 C-0.33 11.99 -0.66 12.98 -1 14 C-1.66 13.67 -2.32 13.34 -3 13 C-2.01 8.71 -1.02 4.42 0 0 Z " fill="#D53053" transform="translate(133,42)"/>
<path d="M0 0 C-1.30960645 7.26236302 -3.75956186 13.3830748 -7 20 C-7.66 19.01 -8.32 18.02 -9 17 C-8.67 16.34 -8.34 15.68 -8 15 C-8.66 15 -9.32 15 -10 15 C-10 14.34 -10 13.68 -10 13 C-8.68 12.67 -7.36 12.34 -6 12 C-6 11.34 -6 10.68 -6 10 C-6.66 10 -7.32 10 -8 10 C-8 9.34 -8 8.68 -8 8 C-6.68 8 -5.36 8 -4 8 C-4 7.01 -4 6.02 -4 5 C-4.66 4.67 -5.32 4.34 -6 4 C-6 3.34 -6 2.68 -6 2 C-3 0 -3 0 0 0 Z M-3 2 C-2 4 -2 4 -2 4 Z " fill="#1D0507" transform="translate(130,57)"/>
<path d="M0 0 C0.66 0.99 1.32 1.98 2 3 C1.34 3 0.68 3 0 3 C0 3.66 0 4.32 0 5 C-3.90028225 7.60018816 -7.47434569 7.15085514 -12 7 C-11.360625 6.896875 -10.72125 6.79375 -10.0625 6.6875 C-9.381875 6.460625 -8.70125 6.23375 -8 6 C-7.67 5.01 -7.34 4.02 -7 3 C-3.535 2.505 -3.535 2.505 0 2 C0 1.34 0 0.68 0 0 Z " fill="#1E0608" transform="translate(116,99)"/>
<path d="M0 0 C0 0.99 0 1.98 0 3 C0.99 4.485 0.99 4.485 2 6 C1.21625 6.144375 0.4325 6.28875 -0.375 6.4375 C-2.96421018 6.87798925 -2.96421018 6.87798925 -5 8 C-4.67 6.02 -4.34 4.04 -4 2 C-5.32 2.99 -6.64 3.98 -8 5 C-8 3.68 -8 2.36 -8 1 C-5.10765685 0.17361624 -3.11257569 0 0 0 Z " fill="#DC2A30" transform="translate(110,96)"/>
<path d="M0 0 C0.625 2.375 0.625 2.375 1 5 C0.34 5.66 -0.32 6.32 -1 7 C-1.99 7 -2.98 7 -4 7 C-4 6.01 -4 5.02 -4 4 C-4.66 3.67 -5.32 3.34 -6 3 C-6 2.34 -6 1.68 -6 1 C-3.92446352 0.4465236 -2.15634036 0 0 0 Z " fill="#6B171F" transform="translate(120,82)"/>
<path d="M0 0 C0.33 0 0.66 0 1 0 C1 2.97 1 5.94 1 9 C-0.33333333 9 -1.66666667 9 -3 9 C-3 6.69 -3 4.38 -3 2 C-2.34 2 -1.68 2 -1 2 C-0.67 1.34 -0.34 0.68 0 0 Z " fill="#F32E5B" transform="translate(137,39)"/>
<path d="M0 0 C0.99 0.33 1.98 0.66 3 1 C3 4 3 4 1 6.1875 C0.34 6.785625 -0.32 7.38375 -1 8 C-1.66 7.67 -2.32 7.34 -3 7 C-2.38722388 4.03824877 -1.74627478 2.61941217 0 0 Z " fill="#190304" transform="translate(125,87)"/>
<path d="M0 0 C0.99 0.33 1.98 0.66 3 1 C2.75 3.375 2.75 3.375 2 6 C-0.0625 7.3125 -0.0625 7.3125 -2 8 C-1.125 1.125 -1.125 1.125 0 0 Z " fill="#968115" transform="translate(18,96)"/>
<path d="M0 0 C0.99 0.33 1.98 0.66 3 1 C3 2.32 3 3.64 3 5 C2.01 4.67 1.02 4.34 0 4 C-0.99 4.33 -1.98 4.66 -3 5 C-3 4.01 -3 3.02 -3 2 C-2.01 1.34 -1.02 0.68 0 0 Z " fill="#FB2847" transform="translate(129,67)"/>
<path d="M0 0 C0.33 0 0.66 0 1 0 C1 2.64 1 5.28 1 8 C-0.98 8.99 -0.98 8.99 -3 10 C-2.01 6.7 -1.02 3.4 0 0 Z " fill="#D62E45" transform="translate(129,59)"/>
<path d="M0 0 C1.32 0 2.64 0 4 0 C4 0.66 4 1.32 4 2 C4.66 2 5.32 2 6 2 C5.67 2.99 5.34 3.98 5 5 C3.68 4.67 2.36 4.34 1 4 C0.67 2.68 0.34 1.36 0 0 Z " fill="#F02C35" transform="translate(107,6)"/>
<path d="M0 0 C0.125 2.875 0.125 2.875 0 6 C-0.66 6.66 -1.32 7.32 -2 8 C-2.33 7.01 -2.66 6.02 -3 5 C-2.67 4.34 -2.34 3.68 -2 3 C-2.66 3 -3.32 3 -4 3 C-4 2.34 -4 1.68 -4 1 C-2 0 -2 0 0 0 Z " fill="#0F0203" transform="translate(124,69)"/>
<path d="M0 0 C0.82638376 2.89234315 1 4.88742431 1 8 C0.34 8 -0.32 8 -1 8 C-1 7.01 -1 6.02 -1 5 C-1.66 5 -2.32 5 -3 5 C-3 4.34 -3 3.68 -3 3 C-2.34 3 -1.68 3 -1 3 C-0.67 2.01 -0.34 1.02 0 0 Z " fill="#000100" transform="translate(131,40)"/>
<path d="M0 0 C1.98 0.495 1.98 0.495 4 1 C3.67 2.65 3.34 4.3 3 6 C2.01 6 1.02 6 0 6 C-1.125 2.25 -1.125 2.25 0 0 Z " fill="#611213" transform="translate(97,85)"/>
<path d="M0 0 C2.0625 0.4375 2.0625 0.4375 4 1 C4 1.66 4 2.32 4 3 C3.34 3 2.68 3 2 3 C1.67 3.66 1.34 4.32 1 5 C0.34 3.68 -0.32 2.36 -1 1 C-0.67 0.67 -0.34 0.34 0 0 Z " fill="#4A2D07" transform="translate(45,88)"/>
<path d="M0 0 C0.99 0.99 1.98 1.98 3 3 C2.67 3.66 2.34 4.32 2 5 C0.68 4.67 -0.64 4.34 -2 4 C-1.34 2.68 -0.68 1.36 0 0 Z " fill="#390B09" transform="translate(100,91)"/>
<path d="M0 0 C1.32 0 2.64 0 4 0 C3.34 1.65 2.68 3.3 2 5 C0 1.125 0 1.125 0 0 Z " fill="#1D1B08" transform="translate(10,92)"/>
<path d="M0 0 C-0.33 1.32 -0.66 2.64 -1 4 C-2.32 3.34 -3.64 2.68 -5 2 C-2 0 -2 0 0 0 Z " fill="#AB600C" transform="translate(61,87)"/>
<path d="M0 0 C0.66 0 1.32 0 2 0 C3.625 2 3.625 2 5 4 C3.35 3.67 1.7 3.34 0 3 C0 2.01 0 1.02 0 0 Z " fill="#E83137" transform="translate(105,44)"/>
<path d="M0 0 C0.99 0.33 1.98 0.66 3 1 C2.34 1 1.68 1 1 1 C0.67 2.65 0.34 4.3 0 6 C-0.66 5.01 -1.32 4.02 -2 3 C-1.34 2.01 -0.68 1.02 0 0 Z " fill="#531012" transform="translate(106,14)"/>
<path d="M0 0 C2.16874252 0.50603992 3.99967627 0.99983813 6 2 C6 2.66 6 3.32 6 4 C3.53199953 2.84826645 1.95216435 1.95216435 0 0 Z " fill="#8F2E15" transform="translate(85,96)"/>
<path d="M0 0 C0.99 0.33 1.98 0.66 3 1 C3.33 1.99 3.66 2.98 4 4 C2.68 3.67 1.36 3.34 0 3 C0 2.01 0 1.02 0 0 Z " fill="#DFC512" transform="translate(15,77)"/>
<path d="M0 0 C1.32 0 2.64 0 4 0 C3.67 0.99 3.34 1.98 3 3 C2.01 2.67 1.02 2.34 0 2 C0 1.34 0 0.68 0 0 Z " fill="#F5382C" transform="translate(92,92)"/>
<path d="M0 0 C0.33 0.66 0.66 1.32 1 2 C0.34 2.66 -0.32 3.32 -1 4 C-1.99 4 -2.98 4 -4 4 C-4 3.34 -4 2.68 -4 2 C-2.68 1.34 -1.36 0.68 0 0 Z " fill="#2C2008" transform="translate(18,86)"/>
<path d="M0 0 C0.33 0.66 0.66 1.32 1 2 C1.66 2 2.32 2 3 2 C3 2.66 3 3.32 3 4 C1.68 3.67 0.36 3.34 -1 3 C-0.67 2.01 -0.34 1.02 0 0 Z " fill="#FB691A" transform="translate(72,77)"/>
<path d="M0 0 C0.99 0 1.98 0 3 0 C2.67 1.32 2.34 2.64 2 4 C1.34 2.68 0.68 1.36 0 0 Z " fill="#3D0B0B" transform="translate(98,30)"/>
<path d="M0 0 C0.99 0.33 1.98 0.66 3 1 C3 1.66 3 2.32 3 3 C1.68 2.67 0.36 2.34 -1 2 C-0.67 1.34 -0.34 0.68 0 0 Z " fill="#040000" transform="translate(98,103)"/>
<path d="M0 0 C0.99 0 1.98 0 3 0 C2.34 1.32 1.68 2.64 1 4 C0.67 2.68 0.34 1.36 0 0 Z " fill="#634D1A" transform="translate(24,102)"/>
<path d="M0 0 C0.99 0.66 1.98 1.32 3 2 C1.02 2.33 -0.96 2.66 -3 3 C-2.01 2.67 -1.02 2.34 0 2 C0 1.34 0 0.68 0 0 Z " fill="#0B0B06" transform="translate(5,99)"/>
<path d="M0 0 C1.485 0.99 1.485 0.99 3 2 C3 2.66 3 3.32 3 4 C2.01 3.67 1.02 3.34 0 3 C0 2.01 0 1.02 0 0 Z " fill="#D1C51E" transform="translate(12,81)"/>
<path d="M0 0 C0.33 0.66 0.66 1.32 1 2 C0.0625 4.125 0.0625 4.125 -1 6 C-1.33 5.34 -1.66 4.68 -2 4 C-1.0625 1.875 -1.0625 1.875 0 0 Z " fill="#1D0F03" transform="translate(40,67)"/>
<path d="M0 0 C0.33 0.99 0.66 1.98 1 3 C-0.32 2.67 -1.64 2.34 -3 2 C-2.01 1.34 -1.02 0.68 0 0 Z " fill="#FE2B35" transform="translate(111,14)"/>
<path d="M0 0 C0.99 0 1.98 0 3 0 C2.67 1.32 2.34 2.64 2 4 C2 3.34 2 2.68 2 2 C1.34 2 0.68 2 0 2 C0 1.34 0 0.68 0 0 Z " fill="#100406" transform="translate(43,12)"/>
<path d="M0 0 C0.99 0.495 0.99 0.495 2 1 C1.34 2.32 0.68 3.64 0 5 C0 3.35 0 1.7 0 0 Z " fill="#EBC519" transform="translate(19,90)"/>
<path d="M0 0 C0.99 0.33 1.98 0.66 3 1 C2.67 1.66 2.34 2.32 2 3 C1.34 3 0.68 3 0 3 C0 2.01 0 1.02 0 0 Z " fill="#000000" transform="translate(118,75)"/>
<path d="M0 0 C0.99 0 1.98 0 3 0 C2.67 0.99 2.34 1.98 2 3 C1.34 2.67 0.68 2.34 0 2 C0 1.34 0 0.68 0 0 Z " fill="#200A05" transform="translate(65,62)"/>
<path d="M0 0 C0 0.99 0 1.98 0 3 C-0.99 2.67 -1.98 2.34 -3 2 C-2.01 1.34 -1.02 0.68 0 0 Z " fill="#85640C" transform="translate(29,39)"/>
<path d="M0 0 C0.66 0 1.32 0 2 0 C1.67 0.99 1.34 1.98 1 3 C0.34 2.34 -0.32 1.68 -1 1 C-0.67 0.67 -0.34 0.34 0 0 Z " fill="#2E1806" transform="translate(53,103)"/>
<path d="M0 0 C0.99 0 1.98 0 3 0 C3.33 0.99 3.66 1.98 4 3 C3.34 3 2.68 3 2 3 C2 2.34 2 1.68 2 1 C1.34 0.67 0.68 0.34 0 0 Z " fill="#DE9211" transform="translate(40,98)"/>
<path d="M0 0 C0 0.99 0 1.98 0 3 C-0.99 2.34 -1.98 1.68 -3 1 C-2.01 0.67 -1.02 0.34 0 0 Z " fill="#000000" transform="translate(113,89)"/>
<path d="M0 0 C0.33 0.99 0.66 1.98 1 3 C0.01 2.67 -0.98 2.34 -2 2 C-1.34 1.34 -0.68 0.68 0 0 Z " fill="#372009" transform="translate(47,84)"/>
<path d="M0 0 C0.99 0.33 1.98 0.66 3 1 C2.34 1.66 1.68 2.32 1 3 C0.67 2.01 0.34 1.02 0 0 Z " fill="#DFC117" transform="translate(16,73)"/>
<path d="M0 0 C0.33 0.99 0.66 1.98 1 3 C0.01 3 -0.98 3 -2 3 C-1 1 -1 1 0 0 Z " fill="#FA3030" transform="translate(101,69)"/>
<path d="M0 0 C0.33 1.32 0.66 2.64 1 4 C0.67 3.34 0.34 2.68 0 2 C-0.66 1.67 -1.32 1.34 -2 1 C-1.34 0.67 -0.68 0.34 0 0 Z " fill="#3F2404" transform="translate(48,70)"/>
<path d="M0 0 C1.65 0 3.3 0 5 0 C4.01 0.66 3.02 1.32 2 2 C1.34 1.34 0.68 0.68 0 0 Z " fill="#E22833" transform="translate(108,38)"/>
<path d="M0 0 C0.99 0.33 1.98 0.66 3 1 C2.01 1.66 1.02 2.32 0 3 C0 2.01 0 1.02 0 0 Z " fill="#DFA60E" transform="translate(30,13)"/>
<path d="M0 0 C1.485 0.99 1.485 0.99 3 2 C2.01 2.33 1.02 2.66 0 3 C0 2.01 0 1.02 0 0 Z " fill="#3C110E" transform="translate(81,103)"/>
<path d="M0 0 C0.99 0 1.98 0 3 0 C3 0.66 3 1.32 3 2 C2.01 2 1.02 2 0 2 C0 1.34 0 0.68 0 0 Z " fill="#150000" transform="translate(94,101)"/>
<path d="M0 0 C0.66 0.33 1.32 0.66 2 1 C1.34 1.66 0.68 2.32 0 3 C0 2.01 0 1.02 0 0 Z " fill="#0A0101" transform="translate(87,100)"/>
<path d="M0 0 C0.66 0.99 1.32 1.98 2 3 C1.01 2.67 0.02 2.34 -1 2 C-0.67 1.34 -0.34 0.68 0 0 Z " fill="#0C0000" transform="translate(92,96)"/>
<path d="M0 0 C0.66 0.33 1.32 0.66 2 1 C1.01 1.66 0.02 2.32 -1 3 C-0.67 2.01 -0.34 1.02 0 0 Z " fill="#0B0002" transform="translate(70,93)"/>
<path d="M0 0 C0.99 0.33 1.98 0.66 3 1 C2.01 1.33 1.02 1.66 0 2 C0 1.34 0 0.68 0 0 Z " fill="#140905" transform="translate(72,88)"/>
<path d="M0 0 C0.66 0 1.32 0 2 0 C1.67 0.99 1.34 1.98 1 3 C0.67 2.01 0.34 1.02 0 0 Z " fill="#C2C627" transform="translate(10,86)"/>
<path d="M0 0 C1.32 0.33 2.64 0.66 4 1 C2.68 1.33 1.36 1.66 0 2 C0 1.34 0 0.68 0 0 Z " fill="#FC6B18" transform="translate(70,82)"/>
<path d="M0 0 C0 0.99 0 1.98 0 3 C-0.66 2.34 -1.32 1.68 -2 1 C-1.34 0.67 -0.68 0.34 0 0 Z " fill="#45350F" transform="translate(30,70)"/>
<path d="M0 0 C0.99 0.33 1.98 0.66 3 1 C2.01 1.33 1.02 1.66 0 2 C0 1.34 0 0.68 0 0 Z " fill="#100000" transform="translate(107,65)"/>
<path d="M0 0 C1.65 0 3.3 0 5 0 C5 0.33 5 0.66 5 1 C3.35 1 1.7 1 0 1 C0 0.67 0 0.34 0 0 Z " fill="#E6392A" transform="translate(90,44)"/>
<path d="M0 0 C0.66 0 1.32 0 2 0 C2 0.66 2 1.32 2 2 C1.01 1.67 0.02 1.34 -1 1 C-0.67 0.67 -0.34 0.34 0 0 Z " fill="#A5292E" transform="translate(105,40)"/>
<path d="M0 0 C0.66 0.66 1.32 1.32 2 2 C1.34 2.66 0.68 3.32 0 4 C0 2.68 0 1.36 0 0 Z " fill="#380F0F" transform="translate(105,32)"/>
<path d="M0 0 C0.99 0.33 1.98 0.66 3 1 C2.01 1.33 1.02 1.66 0 2 C0 1.34 0 0.68 0 0 Z " fill="#3F2914" transform="translate(42,23)"/>
<path d="M0 0 C0.33 0.99 0.66 1.98 1 3 C0.34 3 -0.32 3 -1 3 C-0.67 2.01 -0.34 1.02 0 0 Z " fill="#3B2C1A" transform="translate(31,23)"/>
<path d="M0 0 C1.65 0 3.3 0 5 0 C5 0.33 5 0.66 5 1 C3.35 1 1.7 1 0 1 C0 0.67 0 0.34 0 0 Z " fill="#F72F35" transform="translate(107,12)"/>
<path d="M0 0 C0.99 0 1.98 0 3 0 C3 0.66 3 1.32 3 2 C2.01 2 1.02 2 0 2 C0 1.34 0 0.68 0 0 Z " fill="#FC2D35" transform="translate(105,3)"/>
<path d="M0 0 C0.99 0.33 1.98 0.66 3 1 C2.01 1 1.02 1 0 1 C0 0.67 0 0.34 0 0 Z " fill="#632A11" transform="translate(74,105)"/>
<path d="M0 0 C0.66 0.66 1.32 1.32 2 2 C1.01 1.67 0.02 1.34 -1 1 C-0.67 0.67 -0.34 0.34 0 0 Z " fill="#0F0802" transform="translate(50,104)"/>
<path d="M0 0 C0.66 0 1.32 0 2 0 C2 0.66 2 1.32 2 2 C1.34 2 0.68 2 0 2 C0 1.34 0 0.68 0 0 Z " fill="#F13431" transform="translate(99,101)"/>
<path d="M0 0 C0.99 0.33 1.98 0.66 3 1 C2.01 1 1.02 1 0 1 C0 0.67 0 0.34 0 0 Z " fill="#421811" transform="translate(83,102)"/>
<path d="M0 0 C0.99 0.495 0.99 0.495 2 1 C1.67 1.66 1.34 2.32 1 3 C0.67 2.01 0.34 1.02 0 0 Z " fill="#010003" transform="translate(41,101)"/>
<path d="M0 0 C4 1 4 1 4 1 Z " fill="#FC8E09" transform="translate(52,101)"/>
<path d="M0 0 C0.33 0.99 0.66 1.98 1 3 C0.34 2.67 -0.32 2.34 -1 2 C-0.67 1.34 -0.34 0.68 0 0 Z " fill="#020101" transform="translate(27,97)"/>
<path d="M0 0 C0.99 0.495 0.99 0.495 2 1 C1.67 1.66 1.34 2.32 1 3 C0.67 2.01 0.34 1.02 0 0 Z " fill="#FBBE0A" transform="translate(24,94)"/>
<path d="M0 0 C4 1 4 1 4 1 Z " fill="#DA2D3F" transform="translate(115,90)"/>
<path d="M0 0 C0.99 1.485 0.99 1.485 2 3 C1.34 3 0.68 3 0 3 C0 2.01 0 1.02 0 0 Z " fill="#FC7610" transform="translate(67,88)"/>
<path d="M0 0 C0.99 0 1.98 0 3 0 C2.67 0.66 2.34 1.32 2 2 C1.34 1.34 0.68 0.68 0 0 Z " fill="#010001" transform="translate(112,87)"/>
<path d="M0 0 C1 4 1 4 1 4 Z " fill="#F3A50A" transform="translate(41,76)"/>
<path d="M0 0 C0.66 0 1.32 0 2 0 C2 0.66 2 1.32 2 2 C1.34 2 0.68 2 0 2 C0 1.34 0 0.68 0 0 Z " fill="#000000" transform="translate(32,73)"/>
<path d="M0 0 C0.66 0 1.32 0 2 0 C2 0.66 2 1.32 2 2 C1.34 2 0.68 2 0 2 C0 1.34 0 0.68 0 0 Z " fill="#7A2B16" transform="translate(79,67)"/>
<path d="M0 0 C0.66 0.66 1.32 1.32 2 2 C1.01 2.495 1.01 2.495 0 3 C0 2.01 0 1.02 0 0 Z " fill="#FC641B" transform="translate(74,67)"/>
<path d="M0 0 C0.99 0 1.98 0 3 0 C2.67 0.66 2.34 1.32 2 2 C1.34 1.34 0.68 0.68 0 0 Z " fill="#4D170F" transform="translate(96,45)"/>
<path d="M0 0 C0.66 0.33 1.32 0.66 2 1 C1.01 1 0.02 1 -1 1 C-0.67 0.67 -0.34 0.34 0 0 Z " fill="#543F0B" transform="translate(28,44)"/>
<path d="M0 0 C0.66 0 1.32 0 2 0 C2 0.66 2 1.32 2 2 C1.34 2 0.68 2 0 2 C0 1.34 0 0.68 0 0 Z " fill="#FC2C36" transform="translate(108,40)"/>
<path d="M0 0 C0.66 0.33 1.32 0.66 2 1 C1.01 1 0.02 1 -1 1 C-0.67 0.67 -0.34 0.34 0 0 Z " fill="#FE2B35" transform="translate(110,32)"/>
<path d="M0 0 C0.66 0.66 1.32 1.32 2 2 C1.34 2 0.68 2 0 2 C0 1.34 0 0.68 0 0 Z " fill="#000000" transform="translate(22,107)"/>
<path d="M0 0 C3 1 3 1 3 1 Z " fill="#000000" transform="translate(67,105)"/>
<path d="M0 0 C3 1 3 1 3 1 Z " fill="#FB681B" transform="translate(71,103)"/>
<path d="M0 0 C0.33 0.66 0.66 1.32 1 2 C0.34 1.67 -0.32 1.34 -1 1 C-0.67 0.67 -0.34 0.34 0 0 Z " fill="#000005" transform="translate(9,98)"/>
<path d="M0 0 C0.33 0.66 0.66 1.32 1 2 C0.34 1.67 -0.32 1.34 -1 1 C-0.67 0.67 -0.34 0.34 0 0 Z " fill="#1A1711" transform="translate(1,96)"/>
<path d="M0 0 C0.66 0 1.32 0 2 0 C1.67 0.66 1.34 1.32 1 2 C0.67 1.34 0.34 0.68 0 0 Z " fill="#1C1810" transform="translate(26,94)"/>
<path d="M0 0 C3 1 3 1 3 1 Z " fill="#A6222B" transform="translate(112,93)"/>
<path d="M0 0 C0.33 0.66 0.66 1.32 1 2 C0.34 1.67 -0.32 1.34 -1 1 C-0.67 0.67 -0.34 0.34 0 0 Z " fill="#472E1C" transform="translate(27,89)"/>
<path d="M0 0 C0.66 0 1.32 0 2 0 C1.67 0.66 1.34 1.32 1 2 C0.67 1.34 0.34 0.68 0 0 Z " fill="#F9362A" transform="translate(92,88)"/>
<path d="M0 0 C0.66 0 1.32 0 2 0 C1.67 0.66 1.34 1.32 1 2 C0.67 1.34 0.34 0.68 0 0 Z " fill="#150202" transform="translate(37,86)"/>
<path d="M0 0 C0.99 0.495 0.99 0.495 2 1 C1.01 1.495 1.01 1.495 0 2 C0 1.34 0 0.68 0 0 Z " fill="#3B090C" transform="translate(89,84)"/>
<path d="M0 0 C0.66 0 1.32 0 2 0 C1.67 0.66 1.34 1.32 1 2 C0.67 1.34 0.34 0.68 0 0 Z " fill="#605B24" transform="translate(16,83)"/>
<path d="" fill="#FDA301" transform="translate(0,0)"/>
<path d="" fill="#000002" transform="translate(0,0)"/>
<path d="" fill="#FD3328" transform="translate(0,0)"/>
<path d="M0 0 C0.66 0 1.32 0 2 0 C1.67 0.66 1.34 1.32 1 2 C0.67 1.34 0.34 0.68 0 0 Z " fill="#020000" transform="translate(38,75)"/>
<path d="M0 0 C3 1 3 1 3 1 Z " fill="#140401" transform="translate(104,72)"/>
<path d="M0 0 C0.66 0 1.32 0 2 0 C1.67 0.66 1.34 1.32 1 2 C0.67 1.34 0.34 0.68 0 0 Z " fill="#F73230" transform="translate(97,72)"/>
<path d="M0 0 C0.66 0.66 1.32 1.32 2 2 C1.34 2 0.68 2 0 2 C0 1.34 0 0.68 0 0 Z " fill="#010004" transform="translate(70,60)"/>
<path d="M0 0 C0.66 0.66 1.32 1.32 2 2 C1.34 2 0.68 2 0 2 C0 1.34 0 0.68 0 0 Z " fill="#F63F2A" transform="translate(91,59)"/>
<path d="M0 0 C0.33 0.66 0.66 1.32 1 2 C0.34 1.67 -0.32 1.34 -1 1 C-0.67 0.67 -0.34 0.34 0 0 Z " fill="#000107" transform="translate(37,58)"/>
<path d="M0 0 C0.99 0.495 0.99 0.495 2 1 C1.01 1.495 1.01 1.495 0 2 C0 1.34 0 0.68 0 0 Z " fill="#FB681B" transform="translate(73,51)"/>
<path d="" fill="#000001" transform="translate(0,0)"/>
<path d="M0 0 C0.99 0.495 0.99 0.495 2 1 C1.01 1.495 1.01 1.495 0 2 C0 1.34 0 0.68 0 0 Z " fill="#824318" transform="translate(69,47)"/>
<path d="M0 0 C3 1 3 1 3 1 Z " fill="#831C1E" transform="translate(96,42)"/>
<path d="" fill="#000100" transform="translate(0,0)"/>
<path d="M0 0 C3 1 3 1 3 1 Z " fill="#140401" transform="translate(112,40)"/>
<path d="M0 0 C3 1 3 1 3 1 Z " fill="#F6C214" transform="translate(22,39)"/>
<path d="M0 0 C3 1 3 1 3 1 Z " fill="#FE2C33" transform="translate(109,29)"/>
<path d="M0 0 C0.33 0.66 0.66 1.32 1 2 C0.34 1.67 -0.32 1.34 -1 1 C-0.67 0.67 -0.34 0.34 0 0 Z " fill="#000006" transform="translate(34,24)"/>
<path d="M0 0 C0.99 0.495 0.99 0.495 2 1 C1.01 1.495 1.01 1.495 0 2 C0 1.34 0 0.68 0 0 Z " fill="#F6AD19" transform="translate(37,20)"/>
<path d="M0 0 C3 1 3 1 3 1 Z " fill="#170205" transform="translate(43,19)"/>
<path d="" fill="#000000" transform="translate(0,0)"/>
<path d="M0 0 C3 1 3 1 3 1 Z " fill="#FABE0F" transform="translate(26,14)"/>
<path d="M0 0 C0.66 0 1.32 0 2 0 C1.67 0.66 1.34 1.32 1 2 C0.67 1.34 0.34 0.68 0 0 Z " fill="#DEA52D" transform="translate(36,13)"/>
<path d="M0 0 C0.66 0.66 1.32 1.32 2 2 C1.34 2 0.68 2 0 2 C0 1.34 0 0.68 0 0 Z " fill="#221114" transform="translate(34,8)"/>
<path d="" fill="#000001" transform="translate(0,0)"/>
<path d="" fill="#FA3131" transform="translate(0,0)"/>
<path d="" fill="#FA3131" transform="translate(0,0)"/>
<path d="M0 0 C2 1 2 1 2 1 Z " fill="#63131D" transform="translate(117,98)"/>
<path d="" fill="#FB2D36" transform="translate(0,0)"/>
<path d="M0 0 C2 1 2 1 2 1 Z " fill="#FD8504" transform="translate(59,98)"/>
<path d="M0 0 C2 1 2 1 2 1 Z " fill="#1A0000" transform="translate(119,97)"/>
<path d="M0 0 C2 1 2 1 2 1 Z " fill="#F72E3B" transform="translate(114,97)"/>
<path d="M0 0 C2 1 2 1 2 1 Z " fill="#010001" transform="translate(74,96)"/>
<path d="M0 0 C2 1 2 1 2 1 Z " fill="#F98810" transform="translate(59,96)"/>
<path d="" fill="#010004" transform="translate(0,0)"/>
<path d="M0 0 C2 1 2 1 2 1 Z " fill="#010001" transform="translate(104,95)"/>
<path d="M0 0 C2 1 2 1 2 1 Z " fill="#F8332C" transform="translate(96,95)"/>
<path d="M0 0 C2 1 2 1 2 1 Z " fill="#FDA201" transform="translate(42,94)"/>
<path d="M0 0 C2 1 2 1 2 1 Z " fill="#FA4D24" transform="translate(88,93)"/>
<path d="M0 0 C2 1 2 1 2 1 Z " fill="#FB293F" transform="translate(119,92)"/>
<path d="M0 0 C2 1 2 1 2 1 Z " fill="#FC7F07" transform="translate(62,92)"/>
<path d="" fill="#000105" transform="translate(0,0)"/>
<path d="M0 0 C2 1 2 1 2 1 Z " fill="#ED4A2E" transform="translate(86,91)"/>
<path d="M0 0 C2 1 2 1 2 1 Z " fill="#010102" transform="translate(2,90)"/>
<path d="" fill="#000000" transform="translate(0,0)"/>
<path d="M0 0 C2 1 2 1 2 1 Z " fill="#010001" transform="translate(128,88)"/>
<path d="" fill="#F3C401" transform="translate(0,0)"/>
<path d="M0 0 C2 1 2 1 2 1 Z " fill="#FB7016" transform="translate(69,87)"/>
<path d="" fill="#FEA501" transform="translate(0,0)"/>
<path d="" fill="#0D0103" transform="translate(0,0)"/>
<path d="M0 0 C2 1 2 1 2 1 Z " fill="#EF4B27" transform="translate(91,83)"/>
<path d="" fill="#FAAF12" transform="translate(0,0)"/>
<path d="" fill="#F7C61C" transform="translate(0,0)"/>
<path d="" fill="#FD3925" transform="translate(0,0)"/>
<path d="M0 0 C2 1 2 1 2 1 Z " fill="#010001" transform="translate(80,80)"/>
<path d="" fill="#1F0209" transform="translate(0,0)"/>
<path d="M0 0 C2 1 2 1 2 1 Z " fill="#010100" transform="translate(102,79)"/>
<path d="" fill="#FD3925" transform="translate(0,0)"/>
<path d="" fill="#060000" transform="translate(0,0)"/>
<path d="" fill="#FB631C" transform="translate(0,0)"/>
<path d="M0 0 C2 1 2 1 2 1 Z " fill="#020207" transform="translate(48,75)"/>
<path d="M0 0 C2 1 2 1 2 1 Z " fill="#FBC005" transform="translate(26,75)"/>
<path d="" fill="#010009" transform="translate(0,0)"/>
<path d="M0 0 C2 1 2 1 2 1 Z " fill="#000000" transform="translate(68,71)"/>
<path d="" fill="#FDA201" transform="translate(0,0)"/>
<path d="M0 0 C2 1 2 1 2 1 Z " fill="#020002" transform="translate(48,66)"/>
<path d="M0 0 C2 1 2 1 2 1 Z " fill="#FB5E1E" transform="translate(77,62)"/>
<path d="" fill="#000101" transform="translate(0,0)"/>
<path d="" fill="#010108" transform="translate(0,0)"/>
<path d="M0 0 C2 1 2 1 2 1 Z " fill="#000000" transform="translate(18,57)"/>
<path d="" fill="#FD3925" transform="translate(0,0)"/>
<path d="" fill="#FD7810" transform="translate(0,0)"/>
<path d="M0 0 C2 1 2 1 2 1 Z " fill="#FD7810" transform="translate(66,53)"/>
<path d="M0 0 C2 1 2 1 2 1 Z " fill="#FDB302" transform="translate(31,53)"/>
<path d="" fill="#F3C837" transform="translate(0,0)"/>
<path d="" fill="#000000" transform="translate(0,0)"/>
<path d="M0 0 C2 1 2 1 2 1 Z " fill="#000001" transform="translate(42,49)"/>
<path d="" fill="#060000" transform="translate(0,0)"/>
<path d="" fill="#FC3C25" transform="translate(0,0)"/>
<path d="M0 0 C2 1 2 1 2 1 Z " fill="#070203" transform="translate(72,47)"/>
<path d="" fill="#010000" transform="translate(0,0)"/>
<path d="M0 0 C2 1 2 1 2 1 Z " fill="#000001" transform="translate(39,46)"/>
<path d="M0 0 C2 1 2 1 2 1 Z " fill="#FE2B35" transform="translate(107,43)"/>
<path d="M0 0 C2 1 2 1 2 1 Z " fill="#FAAF06" transform="translate(34,41)"/>
<path d="" fill="#FD3428" transform="translate(0,0)"/>
<path d="" fill="#FB332C" transform="translate(0,0)"/>
<path d="M0 0 C2 1 2 1 2 1 Z " fill="#000000" transform="translate(46,23)"/>
<path d="M0 0 C2 1 2 1 2 1 Z " fill="#000001" transform="translate(92,15)"/>
<path d="" fill="#000101" transform="translate(0,0)"/>
<path d="" fill="#000100" transform="translate(0,0)"/>
<path d="" fill="#000000" transform="translate(0,0)"/>
<path d="" fill="#F4BA28" transform="translate(0,0)"/>
<path d="M0 0 C2 1 2 1 2 1 Z " fill="#BE2731" transform="translate(109,2)"/>
<path d="" fill="#010009" transform="translate(0,0)"/>
<path d="" fill="#000000" transform="translate(0,0)"/>
<path d="" fill="#ECC232" transform="translate(0,0)"/>
<path d="" fill="#010005" transform="translate(0,0)"/>
<path d="" fill="#000000" transform="translate(0,0)"/>
<path d="" fill="#010104" transform="translate(0,0)"/>
<path d="" fill="#FD9F01" transform="translate(0,0)"/>
<path d="" fill="#FD2A3C" transform="translate(0,0)"/>
<path d="" fill="#E64239" transform="translate(0,0)"/>
<path d="" fill="#000001" transform="translate(0,0)"/>
<path d="" fill="#F8412B" transform="translate(0,0)"/>
<path d="" fill="#FD7D0B" transform="translate(0,0)"/>
<path d="" fill="#FA3131" transform="translate(0,0)"/>
<path d="" fill="#FD7315" transform="translate(0,0)"/>
<path d="" fill="#FD7315" transform="translate(0,0)"/>
<path d="" fill="#FE8806" transform="translate(0,0)"/>
<path d="" fill="#FE8806" transform="translate(0,0)"/>
<path d="" fill="#010203" transform="translate(0,0)"/>
<path d="" fill="#010101" transform="translate(0,0)"/>
<path d="" fill="#424116" transform="translate(0,0)"/>
<path d="" fill="#FE3D23" transform="translate(0,0)"/>
<path d="" fill="#000000" transform="translate(0,0)"/>
<path d="" fill="#B5C82D" transform="translate(0,0)"/>
<path d="" fill="#FD2A3C" transform="translate(0,0)"/>
<path d="" fill="#F14B2B" transform="translate(0,0)"/>
<path d="" fill="#FEA501" transform="translate(0,0)"/>
<path d="" fill="#FA3131" transform="translate(0,0)"/>
<path d="" fill="#FD2A3C" transform="translate(0,0)"/>
<path d="" fill="#010005" transform="translate(0,0)"/>
<path d="" fill="#F92843" transform="translate(0,0)"/>
<path d="" fill="#080000" transform="translate(0,0)"/>
<path d="" fill="#000000" transform="translate(0,0)"/>
<path d="" fill="#F14B2B" transform="translate(0,0)"/>
<path d="" fill="#010009" transform="translate(0,0)"/>
<path d="" fill="#000001" transform="translate(0,0)"/>
<path d="" fill="#F92843" transform="translate(0,0)"/>
<path d="" fill="#B5C82D" transform="translate(0,0)"/>
<path d="" fill="#E52D3A" transform="translate(0,0)"/>
<path d="" fill="#000001" transform="translate(0,0)"/>
<path d="" fill="#E9A514" transform="translate(0,0)"/>
<path d="" fill="#951D12" transform="translate(0,0)"/>
<path d="" fill="#F8412B" transform="translate(0,0)"/>
<path d="" fill="#000001" transform="translate(0,0)"/>
<path d="" fill="#010009" transform="translate(0,0)"/>
<path d="" fill="#B1C427" transform="translate(0,0)"/>
<path d="" fill="#000001" transform="translate(0,0)"/>
<path d="" fill="#FD3627" transform="translate(0,0)"/>
<path d="" fill="#010203" transform="translate(0,0)"/>
<path d="" fill="#000001" transform="translate(0,0)"/>
<path d="" fill="#FDBC04" transform="translate(0,0)"/>
<path d="" fill="#010005" transform="translate(0,0)"/>
<path d="" fill="#FA6E18" transform="translate(0,0)"/>
<path d="" fill="#FEA501" transform="translate(0,0)"/>
<path d="" fill="#010003" transform="translate(0,0)"/>
<path d="" fill="#030001" transform="translate(0,0)"/>
<path d="" fill="#010003" transform="translate(0,0)"/>
<path d="" fill="#FD3229" transform="translate(0,0)"/>
<path d="" fill="#010005" transform="translate(0,0)"/>
<path d="" fill="#010005" transform="translate(0,0)"/>
<path d="" fill="#000000" transform="translate(0,0)"/>
<path d="" fill="#020001" transform="translate(0,0)"/>
<path d="" fill="#040000" transform="translate(0,0)"/>
<path d="" fill="#010003" transform="translate(0,0)"/>
<path d="" fill="#420300" transform="translate(0,0)"/>
<path d="" fill="#FD3229" transform="translate(0,0)"/>
<path d="" fill="#000001" transform="translate(0,0)"/>
<path d="" fill="#010005" transform="translate(0,0)"/>
<path d="" fill="#FCA905" transform="translate(0,0)"/>
<path d="" fill="#C3241F" transform="translate(0,0)"/>
<path d="" fill="#FD9F01" transform="translate(0,0)"/>
<path d="" fill="#FD641A" transform="translate(0,0)"/>
<path d="" fill="#291919" transform="translate(0,0)"/>
<path d="" fill="#FCB600" transform="translate(0,0)"/>
<path d="" fill="#0D0000" transform="translate(0,0)"/>
<path d="" fill="#FA621F" transform="translate(0,0)"/>
<path d="" fill="#FEA501" transform="translate(0,0)"/>
<path d="" fill="#010001" transform="translate(0,0)"/>
<path d="" fill="#010005" transform="translate(0,0)"/>
<path d="" fill="#FD641A" transform="translate(0,0)"/>
<path d="" fill="#010009" transform="translate(0,0)"/>
<path d="" fill="#FD3229" transform="translate(0,0)"/>
<path d="" fill="#FA3131" transform="translate(0,0)"/>
<path d="" fill="#000000" transform="translate(0,0)"/>
<path d="" fill="#040000" transform="translate(0,0)"/>
<path d="" fill="#000001" transform="translate(0,0)"/>
<path d="" fill="#FA621F" transform="translate(0,0)"/>
<path d="" fill="#000001" transform="translate(0,0)"/>
<path d="" fill="#010005" transform="translate(0,0)"/>
<path d="" fill="#000001" transform="translate(0,0)"/>
<path d="" fill="#010001" transform="translate(0,0)"/>
<path d="" fill="#625138" transform="translate(0,0)"/>
<path d="" fill="#000100" transform="translate(0,0)"/>
<path d="" fill="#F76D1E" transform="translate(0,0)"/>
<path d="" fill="#FF6719" transform="translate(0,0)"/>
<path d="" fill="#FD9F01" transform="translate(0,0)"/>
<path d="" fill="#010005" transform="translate(0,0)"/>
<path d="" fill="#040000" transform="translate(0,0)"/>
<path d="" fill="#000000" transform="translate(0,0)"/>
<path d="" fill="#E0A74A" transform="translate(0,0)"/>
<path d="" fill="#020001" transform="translate(0,0)"/>
<path d="" fill="#040000" transform="translate(0,0)"/>
<path d="" fill="#010009" transform="translate(0,0)"/>
<path d="" fill="#FD3627" transform="translate(0,0)"/>
<path d="" fill="#000001" transform="translate(0,0)"/>
<path d="" fill="#E0A74A" transform="translate(0,0)"/>
<path d="" fill="#FD641A" transform="translate(0,0)"/>
<path d="" fill="#FC8203" transform="translate(0,0)"/>
<path d="" fill="#010001" transform="translate(0,0)"/>
<path d="" fill="#FEA501" transform="translate(0,0)"/>
<path d="" fill="#000000" transform="translate(0,0)"/>
<path d="" fill="#020001" transform="translate(0,0)"/>
<path d="" fill="#B7474D" transform="translate(0,0)"/>
<path d="" fill="#FB3B27" transform="translate(0,0)"/>
<path d="" fill="#FD641A" transform="translate(0,0)"/>
<path d="" fill="#010005" transform="translate(0,0)"/>
<path d="" fill="#5C181B" transform="translate(0,0)"/>
<path d="" fill="#FD3627" transform="translate(0,0)"/>
<path d="" fill="#000001" transform="translate(0,0)"/>
<path d="" fill="#040000" transform="translate(0,0)"/>
<path d="" fill="#000001" transform="translate(0,0)"/>
<path d="" fill="#010104" transform="translate(0,0)"/>
<path d="" fill="#110302" transform="translate(0,0)"/>
<path d="" fill="#FD7D0B" transform="translate(0,0)"/>
<path d="" fill="#FEB004" transform="translate(0,0)"/>
<path d="" fill="#FBC102" transform="translate(0,0)"/>
<path d="" fill="#FD3627" transform="translate(0,0)"/>
<path d="" fill="#000000" transform="translate(0,0)"/>
<path d="" fill="#000001" transform="translate(0,0)"/>
<path d="" fill="#030506" transform="translate(0,0)"/>
<path d="" fill="#FD3627" transform="translate(0,0)"/>
<path d="" fill="#100000" transform="translate(0,0)"/>
<path d="" fill="#2B0000" transform="translate(0,0)"/>
<path d="" fill="#FC8203" transform="translate(0,0)"/>
<path d="" fill="#FCC402" transform="translate(0,0)"/>
<path d="" fill="#361919" transform="translate(0,0)"/>
<path d="" fill="#010101" transform="translate(0,0)"/>
<path d="" fill="#010200" transform="translate(0,0)"/>
<path d="" fill="#FD3627" transform="translate(0,0)"/>
<path d="" fill="#000001" transform="translate(0,0)"/>
<path d="" fill="#FCB600" transform="translate(0,0)"/>
<path d="" fill="#390100" transform="translate(0,0)"/>
<path d="" fill="#010003" transform="translate(0,0)"/>
<path d="" fill="#FF6719" transform="translate(0,0)"/>
<path d="" fill="#FC8203" transform="translate(0,0)"/>
<path d="" fill="#000100" transform="translate(0,0)"/>
<path d="" fill="#000001" transform="translate(0,0)"/>
<path d="" fill="#010009" transform="translate(0,0)"/>
<path d="" fill="#FDBC04" transform="translate(0,0)"/>
<path d="" fill="#000000" transform="translate(0,0)"/>
<path d="" fill="#FE3D23" transform="translate(0,0)"/>
<path d="" fill="#16110D" transform="translate(0,0)"/>
<path d="" fill="#FA6E18" transform="translate(0,0)"/>
<path d="" fill="#FD3627" transform="translate(0,0)"/>
<path d="" fill="#FD7315" transform="translate(0,0)"/>
<path d="" fill="#FD3627" transform="translate(0,0)"/>
<path d="" fill="#FD7315" transform="translate(0,0)"/>
<path d="" fill="#FA6E18" transform="translate(0,0)"/>
<path d="" fill="#000109" transform="translate(0,0)"/>
<path d="" fill="#ECC232" transform="translate(0,0)"/>
<path d="" fill="#000000" transform="translate(0,0)"/>
<path d="" fill="#F8C01E" transform="translate(0,0)"/>
<path d="" fill="#000001" transform="translate(0,0)"/>
<path d="" fill="#010005" transform="translate(0,0)"/>
<path d="" fill="#F6AE08" transform="translate(0,0)"/>
<path d="" fill="#000001" transform="translate(0,0)"/>
<path d="" fill="#000109" transform="translate(0,0)"/>
<path d="" fill="#000000" transform="translate(0,0)"/>
<path d="" fill="#FDBC04" transform="translate(0,0)"/>
<path d="" fill="#F8B520" transform="translate(0,0)"/>
<path d="" fill="#030001" transform="translate(0,0)"/>
<path d="" fill="#FCA905" transform="translate(0,0)"/>
<path d="" fill="#000109" transform="translate(0,0)"/>
<path d="" fill="#010003" transform="translate(0,0)"/>
<path d="" fill="#160000" transform="translate(0,0)"/>
<path d="" fill="#1E0602" transform="translate(0,0)"/>
<path d="" fill="#000000" transform="translate(0,0)"/>
<path d="" fill="#FF2D2F" transform="translate(0,0)"/>
<path d="" fill="#040000" transform="translate(0,0)"/>
<path d="" fill="#010104" transform="translate(0,0)"/>
<path d="" fill="#390100" transform="translate(0,0)"/>
<path d="" fill="#010001" transform="translate(0,0)"/>
<path d="" fill="#FD3627" transform="translate(0,0)"/>
<path d="" fill="#682023" transform="translate(0,0)"/>
<path d="" fill="#FDBC04" transform="translate(0,0)"/>
<path d="" fill="#FD2A3C" transform="translate(0,0)"/>
<path d="" fill="#C3241F" transform="translate(0,0)"/>
<path d="" fill="#010001" transform="translate(0,0)"/>
<path d="" fill="#FD3229" transform="translate(0,0)"/>
<path d="" fill="#020001" transform="translate(0,0)"/>
<path d="" fill="#010001" transform="translate(0,0)"/>
<path d="" fill="#FF2D2F" transform="translate(0,0)"/>
<path d="" fill="#010005" transform="translate(0,0)"/>
<path d="" fill="#FEB004" transform="translate(0,0)"/>
<path d="" fill="#FCA905" transform="translate(0,0)"/>
<path d="" fill="#FEA501" transform="translate(0,0)"/>
<path d="" fill="#F6AE08" transform="translate(0,0)"/>
<path d="" fill="#2B0000" transform="translate(0,0)"/>
<path d="" fill="#01020B" transform="translate(0,0)"/>
<path d="" fill="#FDBC04" transform="translate(0,0)"/>
<path d="" fill="#FD3627" transform="translate(0,0)"/>
<path d="" fill="#100000" transform="translate(0,0)"/>
<path d="" fill="#010009" transform="translate(0,0)"/>
<path d="" fill="#FF2D2F" transform="translate(0,0)"/>
<path d="" fill="#130D02" transform="translate(0,0)"/>
<path d="" fill="#000000" transform="translate(0,0)"/>
<path d="" fill="#C64A38" transform="translate(0,0)"/>
<path d="" fill="#DB3D37" transform="translate(0,0)"/>
<path d="" fill="#040000" transform="translate(0,0)"/>
<path d="" fill="#FF2D2F" transform="translate(0,0)"/>
<path d="" fill="#FD3229" transform="translate(0,0)"/>
<path d="" fill="#F8B520" transform="translate(0,0)"/>
<path d="" fill="#000001" transform="translate(0,0)"/>
<path d="" fill="#010005" transform="translate(0,0)"/>
<path d="" fill="#FDBC04" transform="translate(0,0)"/>
<path d="" fill="#FDBC04" transform="translate(0,0)"/>
<path d="" fill="#010001" transform="translate(0,0)"/>
<path d="" fill="#080000" transform="translate(0,0)"/>
<path d="" fill="#FEA501" transform="translate(0,0)"/>
<path d="" fill="#100000" transform="translate(0,0)"/>
<path d="" fill="#010111" transform="translate(0,0)"/>
<path d="" fill="#FCB600" transform="translate(0,0)"/>
<path d="" fill="#100000" transform="translate(0,0)"/>
<path d="" fill="#FCA905" transform="translate(0,0)"/>
<path d="" fill="#030506" transform="translate(0,0)"/>
<path d="" fill="#E52D3A" transform="translate(0,0)"/>
<path d="" fill="#FEA501" transform="translate(0,0)"/>
<path d="" fill="#F6AE08" transform="translate(0,0)"/>
<path d="" fill="#000001" transform="translate(0,0)"/>
<path d="" fill="#010200" transform="translate(0,0)"/>
<path d="" fill="#FA3131" transform="translate(0,0)"/>
<path d="" fill="#010005" transform="translate(0,0)"/>
<path d="" fill="#040000" transform="translate(0,0)"/>
<path d="" fill="#000000" transform="translate(0,0)"/>
<path d="" fill="#000109" transform="translate(0,0)"/>
<path d="" fill="#010009" transform="translate(0,0)"/>
<path d="" fill="#FF2D2F" transform="translate(0,0)"/>
<path d="" fill="#000100" transform="translate(0,0)"/>
<path d="" fill="#010200" transform="translate(0,0)"/>
</svg>
