<?xml version="1.0" encoding="UTF-8"?>
<svg version="1.1" xmlns="http://www.w3.org/2000/svg" width="14" height="14">
<path d="M0 0 C2.79297711 0.44099639 5.31340243 1.10446748 8 2 C7.64212875 4.64824722 7.31760089 6.55535876 5.75 8.75 C3.36294231 10.45504121 1.95659783 11 -1 11 C-3.8125 8.5625 -3.8125 8.5625 -6 6 C-5 3 -5 3 -3 1.875 C-2.34 1.58625 -1.68 1.2975 -1 1 C-0.67 0.67 -0.34 0.34 0 0 Z " fill="#100F09" transform="translate(6,2)"/>
<path d="M0 0 C1.32 0 2.64 0 4 0 C4.625 2.875 4.625 2.875 5 6 C4.34 6.66 3.68 7.32 3 8 C0.375 7.625 0.375 7.625 -2 7 C-2.125 4.625 -2.125 4.625 -2 2 C-1.34 1.34 -0.68 0.68 0 0 Z " fill="#94A82A" transform="translate(6,2)"/>
<path d="M0 0 C1.32 0.33 2.64 0.66 4 1 C3.125 5.75 3.125 5.75 2 8 C1.34 7.67 0.68 7.34 0 7 C0 4.69 0 2.38 0 0 Z " fill="#080705" transform="translate(10,3)"/>
<path d="M0 0 C0 0.99 0 1.98 0 3 C-1.32 3 -2.64 3 -4 3 C-4 2.34 -4 1.68 -4 1 C-2 0 -2 0 0 0 Z " fill="#000001" transform="translate(14,11)"/>
<path d="M0 0 C4 1 4 1 4 1 Z " fill="#000001" transform="translate(6,0)"/>
<path d="M0 0 C0.99 0.495 0.99 0.495 2 1 C1.01 1.495 1.01 1.495 0 2 C0 1.34 0 0.68 0 0 Z " fill="#010006" transform="translate(2,3)"/>
<path d="" fill="#000100" transform="translate(0,0)"/>
<path d="" fill="#010101" transform="translate(0,0)"/>
</svg>
