<?xml version="1.0" encoding="UTF-8"?>
<svg version="1.1" xmlns="http://www.w3.org/2000/svg" width="67" height="63">
<path d="M0 0 C0 0.66 0 1.32 0 2 C0.66 2.33 1.32 2.66 2 3 C0.02 3.33 -1.96 3.66 -4 4 C-4.33 4.99 -4.66 5.98 -5 7 C-3.52652887 9.38561992 -2.52264461 10.73867769 0 12 C-0.804375 12.680625 -1.60875 13.36125 -2.4375 14.0625 C-5.42288711 17.48477302 -5.73781251 19.5428126 -6 24 C-6.66 24 -7.32 24 -8 24 C-8.33 25.65 -8.66 27.3 -9 29 C-5.04 28.505 -5.04 28.505 -1 28 C-0.67 28.66 -0.34 29.32 0 30 C-0.66 30 -1.32 30 -2 30 C-2.66 30.66 -3.32 31.32 -4 32 C-4.66 32.66 -5.32 33.32 -6 34 C-5.34 34.33 -4.68 34.66 -4 35 C-5.98 35.495 -5.98 35.495 -8 36 C-7.67 36.66 -7.34 37.32 -7 38 C-7.66 38.66 -8.32 39.32 -9 40 C-9.12375 40.66 -9.2475 41.32 -9.375 42 C-10 44 -10 44 -11.9375 45.0625 C-12.618125 45.371875 -13.29875 45.68125 -14 46 C-14.66 46.99 -15.32 47.98 -16 49 C-16.33 48.34 -16.66 47.68 -17 47 C-17.99 46.67 -18.98 46.34 -20 46 C-20 44.02 -20 42.04 -20 40 C-20.66 40 -21.32 40 -22 40 C-22 37.03 -22 34.06 -22 31 C-22.66 30.67 -23.32 30.34 -24 30 C-23.34 30 -22.68 30 -22 30 C-22.02320313 29.15695313 -22.04640625 28.31390625 -22.0703125 27.4453125 C-22.08835938 26.34960938 -22.10640625 25.25390625 -22.125 24.125 C-22.14820313 23.03445312 -22.17140625 21.94390625 -22.1953125 20.8203125 C-22 18 -22 18 -20 16 C-20 15.175 -20 14.35 -20 13.5 C-20 11 -20 11 -18 9 C-18 8.01 -18 7.02 -18 6 C-15.75 4.5 -15.75 4.5 -13 3 C-12.34 2.46375 -11.68 1.9275 -11 1.375 C-7.36785502 -1.12209967 -4.13325127 -1.37775042 0 0 Z " fill="#F8800A" transform="translate(59,2)"/>
<path d="M0 0 C0.33 0.99 0.66 1.98 1 3 C2.83284443 4.12516085 2.83284443 4.12516085 5 5 C7.52075165 6.18623607 9.00449854 7.00449854 11 9 C10.34 9 9.68 9 9 9 C8.67 10.65 8.34 12.3 8 14 C5.36 14.66 2.72 15.32 0 16 C-0.33 15.01 -0.66 14.02 -1 13 C-1.928125 12.855625 -2.85625 12.71125 -3.8125 12.5625 C-7.02972639 11.99475417 -9.90543046 11.03152318 -13 10 C-12.01 9.34 -11.02 8.68 -10 8 C-9.27617533 5.94074861 -9.27617533 5.94074861 -9 4 C-7.68 4 -6.36 4 -5 4 C-4.67 3.01 -4.34 2.02 -4 1 C-1.9375 0.3125 -1.9375 0.3125 0 0 Z " fill="#EC6E1A" transform="translate(54,47)"/>
<path d="M0 0 C3 1 3 1 5 3 C5.66 3.33 6.32 3.66 7 4 C6.195625 4.680625 5.39125 5.36125 4.5625 6.0625 C1.57711289 9.48477302 1.26218749 11.5428126 1 16 C0.34 16 -0.32 16 -1 16 C-1.33 17.65 -1.66 19.3 -2 21 C1.96 20.505 1.96 20.505 6 20 C6.33 20.66 6.66 21.32 7 22 C6.34 22 5.68 22 5 22 C4.34 22.66 3.68 23.32 3 24 C2.34 24.66 1.68 25.32 1 26 C1.66 26.33 2.32 26.66 3 27 C1.68 27.33 0.36 27.66 -1 28 C-0.67 28.66 -0.34 29.32 0 30 C-1.9375 30.5625 -1.9375 30.5625 -4 31 C-6.26567469 28.73432531 -5.2327726 23.47598303 -5.25 20.4375 C-5.270625 19.55513672 -5.29125 18.67277344 -5.3125 17.76367188 C-5.34775195 11.80168586 -4.51404393 7.424721 -2 2 C-1.34 1.34 -0.68 0.68 0 0 Z " fill="#271109" transform="translate(52,10)"/>
<path d="M0 0 C0 0.99 0 1.98 0 3 C0.01160156 3.68835938 0.02320313 4.37671875 0.03515625 5.0859375 C0.08429599 9.19963585 0.03613786 12.9849658 -1 17 C-1.33 17 -1.66 17 -2 17 C-2 24.92 -2 32.84 -2 41 C-2.99 41 -3.98 41 -5 41 C-5 39.02 -5 37.04 -5 35 C-5.66 35 -6.32 35 -7 35 C-7 32.03 -7 29.06 -7 26 C-7.66 25.67 -8.32 25.34 -9 25 C-8.34 25 -7.68 25 -7 25 C-7.02320313 24.15695313 -7.04640625 23.31390625 -7.0703125 22.4453125 C-7.08835938 21.34960938 -7.10640625 20.25390625 -7.125 19.125 C-7.14820313 18.03445312 -7.17140625 16.94390625 -7.1953125 15.8203125 C-7 13 -7 13 -5 11 C-5 10.175 -5 9.35 -5 8.5 C-5 6 -5 6 -3 4 C-3 3.01 -3 2.02 -3 1 C-2.01 0.67 -1.02 0.34 0 0 Z " fill="#000005" transform="translate(44,7)"/>
<path d="M0 0 C0.33 0.99 0.66 1.98 1 3 C2.83284443 4.12516085 2.83284443 4.12516085 5 5 C7.52075165 6.18623607 9.00449854 7.00449854 11 9 C10.34 9 9.68 9 9 9 C8.67 10.65 8.34 12.3 8 14 C5.36 14.66 2.72 15.32 0 16 C-0.33 15.01 -0.66 14.02 -1 13 C-0.01 12.67 0.98 12.34 2 12 C2.33 10.35 2.66 8.7 3 7 C2.38125 6.731875 1.7625 6.46375 1.125 6.1875 C-1 5 -1 5 -3 2 C-2.01 1.34 -1.02 0.68 0 0 Z " fill="#A64519" transform="translate(54,47)"/>
<path d="M0 0 C0 0.66 0 1.32 0 2 C0.66 2.33 1.32 2.66 2 3 C0.02 3.33 -1.96 3.66 -4 4 C-4.061875 4.5775 -4.12375 5.155 -4.1875 5.75 C-5.32027301 8.88690987 -7.34197595 10.09167504 -10 12 C-10.33 10.35 -10.66 8.7 -11 7 C-10.34 6.67 -9.68 6.34 -9 6 C-10.65 5.67 -12.3 5.34 -14 5 C-9.73940487 0.25247971 -9.73940487 0.25247971 -6.4375 -0.875 C-4.03229965 -0.99834361 -2.2747145 -0.75823817 0 0 Z " fill="#B05316" transform="translate(59,2)"/>
<path d="M0 0 C0 0.99 0 1.98 0 3 C0.01160156 3.68835938 0.02320313 4.37671875 0.03515625 5.0859375 C0.08429599 9.19963585 0.03613786 12.9849658 -1 17 C-5.44444444 10.33333333 -5.44444444 10.33333333 -5 6 C-4.34 5.34 -3.68 4.68 -3 4 C-3 3.01 -3 2.02 -3 1 C-2.01 0.67 -1.02 0.34 0 0 Z " fill="#643912" transform="translate(44,7)"/>
<path d="M0 0 C0.33 1.32 0.66 2.64 1 4 C3.12364481 4.22609337 3.12364481 4.22609337 4.625 2.5 C5.305625 1.7575 5.305625 1.7575 6 1 C6.66 1.66 7.32 2.32 8 3 C7.875 5 7.875 5 7 7 C5.0625 8.0625 5.0625 8.0625 3 9 C2.01 10.485 2.01 10.485 1 12 C-0.47075246 7.58774263 -1.36884358 4.51718381 0 0 Z " fill="#EC7D15" transform="translate(42,39)"/>
<path d="M0 0 C0.33 0 0.66 0 1 0 C1.33 8.58 1.66 17.16 2 26 C1.01 26 0.02 26 -1 26 C-0.67 17.42 -0.34 8.84 0 0 Z " fill="#735536" transform="translate(40,22)"/>
<path d="M0 0 C1.30062431 3.81516464 0.89369853 7.27561763 0.5625 11.25 C0.46066406 12.51328125 0.35882813 13.7765625 0.25390625 15.078125 C0.17011719 16.04234375 0.08632813 17.0065625 0 18 C-0.33 18 -0.66 18 -1 18 C-1.33 14.37 -1.66 10.74 -2 7 C-2.33 7 -2.66 7 -3 7 C-3.1875 4.625 -3.1875 4.625 -3 2 C-2.01 1.34 -1.02 0.68 0 0 Z " fill="#0C0202" transform="translate(40,18)"/>
<path d="M0 0 C0.33 0 0.66 0 1 0 C1.06058594 0.60328125 1.12117188 1.2065625 1.18359375 1.828125 C1.26738281 2.62734375 1.35117187 3.4265625 1.4375 4.25 C1.51871094 5.03890625 1.59992187 5.8278125 1.68359375 6.640625 C1.93996831 8.97780186 1.93996831 8.97780186 2.59375 11.09375 C3.22156559 14.03965391 2.06009277 16.25623047 1 19 C0.67 19 0.34 19 0 19 C0 12.73 0 6.46 0 0 Z " fill="#FA8E0D" transform="translate(41,21)"/>
<path d="M0 0 C-0.928125 0.680625 -0.928125 0.680625 -1.875 1.375 C-4.05919833 2.97108919 -4.05919833 2.97108919 -6 5 C-5.34 5.33 -4.68 5.66 -4 6 C-7 6 -7 6 -8.6875 4.625 C-10 3 -10 3 -10 1 C-3.71428571 -1.42857143 -3.71428571 -1.42857143 0 0 Z " fill="#8A3D14" transform="translate(59,31)"/>
<path d="M0 0 C1.2077558 3.62326739 0.54311128 4.64146369 -1 8 C-0.34 8 0.32 8 1 8 C0.67 9.65 0.34 11.3 0 13 C-0.66 12.67 -1.32 12.34 -2 12 C-2.05395478 10.37536158 -2.09277195 8.75021459 -2.125 7.125 C-2.14820313 6.22007813 -2.17140625 5.31515625 -2.1953125 4.3828125 C-2 2 -2 2 0 0 Z " fill="#040003" transform="translate(50,26)"/>
<path d="M0 0 C0.33 0.99 0.66 1.98 1 3 C3.00016466 4.20882096 3.00016466 4.20882096 5 5 C5 5.66 5 6.32 5 7 C1.75791433 6.64950425 0.38472296 6.43778819 -1.8125 3.9375 C-2.4003125 2.9784375 -2.4003125 2.9784375 -3 2 C-2.01 1.34 -1.02 0.68 0 0 Z " fill="#110403" transform="translate(54,47)"/>
<path d="M0 0 C0.33 0.99 0.66 1.98 1 3 C0.34 3 -0.32 3 -1 3 C-0.67 2.01 -0.34 1.02 0 0 Z M-5 3 C-3.68 3 -2.36 3 -1 3 C-0.67 4.32 -0.34 5.64 0 7 C-1.65 6.67 -3.3 6.34 -5 6 C-5 5.01 -5 4.02 -5 3 Z " fill="#F77A0F" transform="translate(50,48)"/>
<path d="M0 0 C2.31 1.65 4.62 3.3 7 5 C3.32740566 6.22419811 2.42541582 5.54143712 -1 4 C-1.99 3.67 -2.98 3.34 -4 3 C-2.68 2.01 -1.36 1.02 0 0 Z " fill="#120704" transform="translate(45,54)"/>
<path d="M0 0 C2.97 0.495 2.97 0.495 6 1 C5.01 1.495 5.01 1.495 4 2 C3.34444881 4.52733235 3.34444881 4.52733235 3 7 C2.01 6.67 1.02 6.34 0 6 C0.185625 5.38125 0.37125 4.7625 0.5625 4.125 C1.23686176 1.95839822 1.23686176 1.95839822 0 0 Z " fill="#0C0203" transform="translate(59,54)"/>
<path d="M0 0 C0.66 0.33 1.32 0.66 2 1 C2 1.99 2 2.98 2 4 C0.02 4.33 -1.96 4.66 -4 5 C-4 4.01 -4 3.02 -4 2 C-2.125 0.9375 -2.125 0.9375 0 0 Z " fill="#84530E" transform="translate(30,55)"/>
<path d="M0 0 C1.76462683 3.08809695 2 4.23312136 2 8 C1.01 8 0.02 8 -1 8 C-0.67 5.36 -0.34 2.72 0 0 Z " fill="#140905" transform="translate(40,40)"/>
<path d="M0 0 C1.32 0.33 2.64 0.66 4 1 C3.67 2.32 3.34 3.64 3 5 C2.01 5 1.02 5 0 5 C0 3.33333333 0 1.66666667 0 0 Z " fill="#0F0704" transform="translate(29,45)"/>
<path d="M0 0 C2.475 0.99 2.475 0.99 5 2 C4.01 2.66 3.02 3.32 2 4 C0.68 3.34 -0.64 2.68 -2 2 C-1.34 1.34 -0.68 0.68 0 0 Z " fill="#FA671A" transform="translate(56,7)"/>
<path d="M0 0 C0.99 0.33 1.98 0.66 3 1 C2.34 1.66 1.68 2.32 1 3 C0.34 3 -0.32 3 -1 3 C-0.67 2.01 -0.34 1.02 0 0 Z " fill="#684618" transform="translate(23,53)"/>
<path d="M0 0 C2.125 0.375 2.125 0.375 4 1 C2.02 1.33 0.04 1.66 -2 2 C-1.34 1.34 -0.68 0.68 0 0 Z " fill="#0F0704" transform="translate(57,42)"/>
<path d="M0 0 C0.99 0 1.98 0 3 0 C2.67 0.99 2.34 1.98 2 3 C1.34 2.67 0.68 2.34 0 2 C0 1.34 0 0.68 0 0 Z " fill="#471A0D" transform="translate(62,22)"/>
<path d="M0 0 C0.66 1.32 1.32 2.64 2 4 C1.01 3.67 0.02 3.34 -1 3 C-0.67 2.01 -0.34 1.02 0 0 Z " fill="#040003" transform="translate(65,18)"/>
<path d="M0 0 C0.66 0 1.32 0 2 0 C1.34 1.32 0.68 2.64 0 4 C0 2.68 0 1.36 0 0 Z " fill="#FD671A" transform="translate(56,34)"/>
<path d="M0 0 C1.98 0.99 1.98 0.99 4 2 C3.01 2.33 2.02 2.66 1 3 C0.67 2.01 0.34 1.02 0 0 Z " fill="#FB611D" transform="translate(58,20)"/>
<path d="M0 0 C0.99 0.495 0.99 0.495 2 1 C2 1.66 2 2.32 2 3 C1.34 3 0.68 3 0 3 C0 2.01 0 1.02 0 0 Z " fill="#000002" transform="translate(64,11)"/>
<path d="M0 0 C1.32 0.33 2.64 0.66 4 1 C2.68 1.33 1.36 1.66 0 2 C0 1.34 0 0.68 0 0 Z " fill="#FBB615" transform="translate(12,7)"/>
<path d="M0 0 C0.66 0.66 1.32 1.32 2 2 C1.01 1.67 0.02 1.34 -1 1 C-0.67 0.67 -0.34 0.34 0 0 Z " fill="#100802" transform="translate(33,59)"/>
<path d="M0 0 C0.99 0.33 1.98 0.66 3 1 C2.01 1 1.02 1 0 1 C0 0.67 0 0.34 0 0 Z " fill="#0C0502" transform="translate(38,58)"/>
<path d="M0 0 C0.33 0.66 0.66 1.32 1 2 C0.01 1.67 -0.98 1.34 -2 1 C-1.34 0.67 -0.68 0.34 0 0 Z " fill="#A86416" transform="translate(35,51)"/>
<path d="M0 0 C0 3 0 3 0 3 Z " fill="#000003" transform="translate(62,33)"/>
<path d="M0 0 C0.99 0.33 1.98 0.66 3 1 C2.01 1 1.02 1 0 1 C0 0.67 0 0.34 0 0 Z " fill="#F66724" transform="translate(56,26)"/>
<path d="M0 0 C0.66 0.66 1.32 1.32 2 2 C1.01 1.67 0.02 1.34 -1 1 C-0.67 0.67 -0.34 0.34 0 0 Z " fill="#000006" transform="translate(20,13)"/>
<path d="M0 0 C0.66 0 1.32 0 2 0 C1.67 0.66 1.34 1.32 1 2 C0.67 1.34 0.34 0.68 0 0 Z " fill="#FB900A" transform="translate(37,55)"/>
<path d="M0 0 C3 1 3 1 3 1 Z " fill="#FC8A07" transform="translate(39,51)"/>
<path d="M0 0 C0.33 0.66 0.66 1.32 1 2 C0.34 1.67 -0.32 1.34 -1 1 C-0.67 0.67 -0.34 0.34 0 0 Z " fill="#FC8005" transform="translate(46,47)"/>
<path d="M0 0 C0.99 0.495 0.99 0.495 2 1 C1.01 1.495 1.01 1.495 0 2 C0 1.34 0 0.68 0 0 Z " fill="#FD7611" transform="translate(50,45)"/>
<path d="M0 0 C0.33 0.66 0.66 1.32 1 2 C0.34 1.67 -0.32 1.34 -1 1 C-0.67 0.67 -0.34 0.34 0 0 Z " fill="#050102" transform="translate(60,37)"/>
<path d="M0 0 C0.66 0 1.32 0 2 0 C1.67 0.66 1.34 1.32 1 2 C0.67 1.34 0.34 0.68 0 0 Z " fill="#020000" transform="translate(63,15)"/>
<path d="M0 0 C2 1 2 1 2 1 Z " fill="#F98810" transform="translate(41,53)"/>
<path d="M0 0 C2 1 2 1 2 1 Z " fill="#010001" transform="translate(59,52)"/>
<path d="" fill="#000001" transform="translate(0,0)"/>
<path d="M0 0 C2 1 2 1 2 1 Z " fill="#D47F24" transform="translate(40,49)"/>
<path d="M0 0 C2 1 2 1 2 1 Z " fill="#000000" transform="translate(37,49)"/>
<path d="" fill="#FA7019" transform="translate(0,0)"/>
<path d="M0 0 C2 1 2 1 2 1 Z " fill="#000000" transform="translate(61,39)"/>
<path d="" fill="#000002" transform="translate(0,0)"/>
<path d="" fill="#F2641F" transform="translate(0,0)"/>
<path d="" fill="#070001" transform="translate(0,0)"/>
<path d="M0 0 C2 1 2 1 2 1 Z " fill="#000000" transform="translate(63,6)"/>
<path d="" fill="#F3C837" transform="translate(0,0)"/>
<path d="" fill="#060000" transform="translate(0,0)"/>
<path d="" fill="#010001" transform="translate(0,0)"/>
<path d="" fill="#000000" transform="translate(0,0)"/>
<path d="" fill="#F4881A" transform="translate(0,0)"/>
<path d="" fill="#000000" transform="translate(0,0)"/>
<path d="" fill="#FD9F01" transform="translate(0,0)"/>
<path d="" fill="#FA940D" transform="translate(0,0)"/>
<path d="" fill="#FE8806" transform="translate(0,0)"/>
<path d="" fill="#BC8921" transform="translate(0,0)"/>
<path d="" fill="#FA940D" transform="translate(0,0)"/>
<path d="" fill="#010001" transform="translate(0,0)"/>
<path d="" fill="#D77E39" transform="translate(0,0)"/>
<path d="" fill="#010001" transform="translate(0,0)"/>
<path d="" fill="#000001" transform="translate(0,0)"/>
<path d="" fill="#000001" transform="translate(0,0)"/>
<path d="" fill="#FEA501" transform="translate(0,0)"/>
<path d="" fill="#FEA501" transform="translate(0,0)"/>
<path d="" fill="#000001" transform="translate(0,0)"/>
<path d="" fill="#010104" transform="translate(0,0)"/>
<path d="" fill="#FA6E18" transform="translate(0,0)"/>
<path d="" fill="#FD7315" transform="translate(0,0)"/>
<path d="" fill="#FA6E18" transform="translate(0,0)"/>
<path d="" fill="#010003" transform="translate(0,0)"/>
<path d="" fill="#2B0000" transform="translate(0,0)"/>
<path d="" fill="#F76D1E" transform="translate(0,0)"/>
<path d="" fill="#E9763A" transform="translate(0,0)"/>
<path d="" fill="#FF6719" transform="translate(0,0)"/>
<path d="" fill="#FD7315" transform="translate(0,0)"/>
<path d="" fill="#010003" transform="translate(0,0)"/>
<path d="" fill="#FA621F" transform="translate(0,0)"/>
<path d="" fill="#F76D1E" transform="translate(0,0)"/>
<path d="" fill="#000109" transform="translate(0,0)"/>
<path d="" fill="#000001" transform="translate(0,0)"/>
<path d="" fill="#010003" transform="translate(0,0)"/>
<path d="" fill="#FD5A1E" transform="translate(0,0)"/>
<path d="" fill="#000100" transform="translate(0,0)"/>
<path d="" fill="#FA621F" transform="translate(0,0)"/>
<path d="" fill="#FF6719" transform="translate(0,0)"/>
<path d="" fill="#390100" transform="translate(0,0)"/>
<path d="" fill="#EE5B20" transform="translate(0,0)"/>
<path d="" fill="#000000" transform="translate(0,0)"/>
<path d="" fill="#FD5A1E" transform="translate(0,0)"/>
<path d="" fill="#010101" transform="translate(0,0)"/>
<path d="" fill="#FD5A1E" transform="translate(0,0)"/>
<path d="" fill="#FD641A" transform="translate(0,0)"/>
<path d="" fill="#FF6719" transform="translate(0,0)"/>
<path d="" fill="#010003" transform="translate(0,0)"/>
<path d="" fill="#FDBC04" transform="translate(0,0)"/>
<path d="" fill="#020001" transform="translate(0,0)"/>
<path d="" fill="#FD5A1E" transform="translate(0,0)"/>
<path d="" fill="#010005" transform="translate(0,0)"/>
<path d="" fill="#000001" transform="translate(0,0)"/>
<path d="" fill="#010104" transform="translate(0,0)"/>
<path d="" fill="#000001" transform="translate(0,0)"/>
<path d="" fill="#ECC232" transform="translate(0,0)"/>
<path d="" fill="#000001" transform="translate(0,0)"/>
<path d="" fill="#010101" transform="translate(0,0)"/>
<path d="" fill="#010001" transform="translate(0,0)"/>
</svg>
