<?xml version="1.0" encoding="UTF-8"?>
<svg version="1.1" xmlns="http://www.w3.org/2000/svg" width="33" height="114">
<path d="M0 0 C0.66 0.33 1.32 0.66 2 1 C1.99476318 1.6705542 1.98952637 2.3411084 1.98413086 3.03198242 C1.96328395 6.083812 1.95031531 9.13562656 1.9375 12.1875 C1.92912109 13.24259766 1.92074219 14.29769531 1.91210938 15.38476562 C1.90888672 16.40634766 1.90566406 17.42792969 1.90234375 18.48046875 C1.89710693 19.41785889 1.89187012 20.35524902 1.88647461 21.32104492 C1.99917343 23.98049477 2.40623351 26.40920573 3 29 C2.34 29 1.68 29 1 29 C1.33 29.99 1.66 30.98 2 32 C0.9375 34.625 0.9375 34.625 -1 37 C-3.875 38.125 -3.875 38.125 -7 38 C-9.90738394 35.99713551 -11.60667148 34.42140789 -12.56640625 30.953125 C-13.32958569 25.65917139 -13.32958569 25.65917139 -12 23 C-11.34 23 -10.68 23 -10 23 C-10.66 20.69 -11.32 18.38 -12 16 C-11.34 16 -10.68 16 -10 16 C-10.165 15.401875 -10.33 14.80375 -10.5 14.1875 C-11.05682654 11.7513839 -11 9.48770614 -11 7 C-8.69 7 -6.38 7 -4 7 C-3.67 6.34 -3.34 5.68 -3 5 C-2.34 4.34 -1.68 3.68 -1 3 C-0.67 2.01 -0.34 1.02 0 0 Z M-1 8 C0 10 0 10 0 10 Z M-11 29 C-10 33 -10 33 -10 33 Z " fill="#EAB820" transform="translate(14,76)"/>
<path d="M0 0 C0.66 0.33 1.32 0.66 2 1 C1.99476318 1.6705542 1.98952637 2.3411084 1.98413086 3.03198242 C1.96328395 6.083812 1.95031531 9.13562656 1.9375 12.1875 C1.92912109 13.24259766 1.92074219 14.29769531 1.91210938 15.38476562 C1.90888672 16.40634766 1.90566406 17.42792969 1.90234375 18.48046875 C1.89710693 19.41785889 1.89187012 20.35524902 1.88647461 21.32104492 C1.99917343 23.98049477 2.40623351 26.40920573 3 29 C2.34 29 1.68 29 1 29 C1.33 29.99 1.66 30.98 2 32 C0.9375 34.625 0.9375 34.625 -1 37 C-3.875 38.125 -3.875 38.125 -7 38 C-9.90738394 35.99713551 -11.60667148 34.42140789 -12.56640625 30.953125 C-13.32958569 25.65917139 -13.32958569 25.65917139 -12 23 C-11.34 23 -10.68 23 -10 23 C-10.66 20.69 -11.32 18.38 -12 16 C-11.34 16 -10.68 16 -10 16 C-9.67 15.01 -9.34 14.02 -9 13 C-8.67 19.93 -8.34 26.86 -8 34 C-6.35 34 -4.7 34 -3 34 C-1.39121596 31.53950676 -0.93351399 30.39468513 -1.4296875 27.44921875 C-2.15121726 23.08544627 -2.18408578 18.85208567 -2.1875 14.4375 C-2.19974609 13.60025391 -2.21199219 12.76300781 -2.22460938 11.90039062 C-2.23510627 7.48119928 -2.07919496 4.01868117 0 0 Z M-1 8 C0 10 0 10 0 10 Z M-11 29 C-10 33 -10 33 -10 33 Z " fill="#1B1107" transform="translate(14,76)"/>
<path d="M0 0 C2.07434732 5.11236781 2.24424065 9.46330893 2.125 14.875 C2.11597656 15.65875 2.10695313 16.4425 2.09765625 17.25 C2.07428063 19.16680055 2.03841653 21.08344191 2 23 C1.01 23.33 0.02 23.66 -1 24 C-2 23 -2 23 -2.11352539 20.95874023 C-2.10828857 20.08419189 -2.10305176 19.20964355 -2.09765625 18.30859375 C-2.09443359 17.36435547 -2.09121094 16.42011719 -2.08789062 15.44726562 C-2.07951172 14.45404297 -2.07113281 13.46082031 -2.0625 12.4375 C-2.05798828 11.44041016 -2.05347656 10.44332031 -2.04882812 9.41601562 C-2.03700007 6.94395151 -2.02051849 4.47200482 -2 2 C-2.66 1.67 -3.32 1.34 -4 1 C-2 0 -2 0 0 0 Z " fill="#DEB817" transform="translate(7,87)"/>
<path d="M0 0 C0.33 0 0.66 0 1 0 C1.05411124 2.41696872 1.09372278 4.83271787 1.125 7.25 C1.15013672 8.27287109 1.15013672 8.27287109 1.17578125 9.31640625 C1.21213482 13.0608235 1.07944349 15.82352727 -1 19 C-1.144375 17.865625 -1.28875 16.73125 -1.4375 15.5625 C-1.61171478 12.19222799 -1.61171478 12.19222799 -3 11 C-3.04063832 9.33382885 -3.042721 7.66611905 -3 6 C-3.99 6.33 -4.98 6.66 -6 7 C-6.33 5.35 -6.66 3.7 -7 2 C-4.69 2 -2.38 2 0 2 C0 1.34 0 0.68 0 0 Z " fill="#FBC302" transform="translate(10,81)"/>
<path d="M0 0 C0.33 0 0.66 0 1 0 C1.02505615 0.62044189 1.0501123 1.24088379 1.07592773 1.88012695 C1.19196721 4.69112397 1.31465759 7.50179241 1.4375 10.3125 C1.47681641 11.28896484 1.51613281 12.26542969 1.55664062 13.27148438 C1.59853516 14.20927734 1.64042969 15.14707031 1.68359375 16.11328125 C1.72025146 16.97735596 1.75690918 17.84143066 1.79467773 18.73168945 C1.92747354 21.1647826 1.92747354 21.1647826 3 24 C1.125 23.4375 1.125 23.4375 -1 22 C-2.72461906 17.64738999 -3.36744847 14.51257994 -2 10 C-1.34 10 -0.68 10 0 10 C-0.66 7.69 -1.32 5.38 -2 3 C-1.34 3 -0.68 3 0 3 C0 2.01 0 1.02 0 0 Z M-1 16 C0 20 0 20 0 20 Z " fill="#0B0806" transform="translate(4,89)"/>
<path d="M0 0 C1.98 0 3.96 0 6 0 C6 3.3 6 6.6 6 10 C5.34 9.67 4.68 9.34 4 9 C4 7.35 4 5.7 4 4 C3.01 4.33 2.02 4.66 1 5 C0.67 3.35 0.34 1.7 0 0 Z " fill="#EDC205" transform="translate(3,83)"/>
<path d="M0 0 C0.66 0.33 1.32 0.66 2 1 C1.88658509 3.48020497 1.75985314 5.95844969 1.625 8.4375 C1.5940625 9.14455078 1.563125 9.85160156 1.53125 10.58007812 C1.42719371 12.39239188 1.22080108 14.19817988 1 16 C0.34 16.33 -0.32 16.66 -1 17 C-1.02684679 14.35409986 -1.04676357 11.70846904 -1.0625 9.0625 C-1.07087891 8.30775391 -1.07925781 7.55300781 -1.08789062 6.77539062 C-1.09652441 4.85005687 -1.05224333 2.92464419 -1 1 C-0.67 0.67 -0.34 0.34 0 0 Z " fill="#020103" transform="translate(14,76)"/>
<path d="M0 0 C0.66 0.33 1.32 0.66 2 1 C1.67 3.97 1.34 6.94 1 10 C-1.17766075 5.64467851 -1.03039555 4.53374042 0 0 Z " fill="#000001" transform="translate(2,99)"/>
<path d="M0 0 C1.98 0.495 1.98 0.495 4 1 C4 1.66 4 2.32 4 3 C4.66 3.33 5.32 3.66 6 4 C3.69 3.67 1.38 3.34 -1 3 C-0.67 2.01 -0.34 1.02 0 0 Z " fill="#B08615" transform="translate(14,52)"/>
<path d="M0 0 C0.66 0 1.32 0 2 0 C3.125 3.75 3.125 3.75 2 6 C1.01 5.67 0.02 5.34 -1 5 C-1 2 -1 2 0 0 Z " fill="#0D0902" transform="translate(5,57)"/>
<path d="M0 0 C2.475 0.495 2.475 0.495 5 1 C5 1.99 5 2.98 5 4 C3.35 4 1.7 4 0 4 C0 2.66666667 0 1.33333333 0 0 Z " fill="#1D140E" transform="translate(17,27)"/>
<path d="M0 0 C2 3.75 2 3.75 2 6 C1.01 6 0.02 6 -1 6 C-1.042721 4.33388095 -1.04063832 2.66617115 -1 1 C-0.67 0.67 -0.34 0.34 0 0 Z " fill="#190704" transform="translate(31,16)"/>
<path d="M0 0 C0.66 1.32 1.32 2.64 2 4 C0.68 4.33 -0.64 4.66 -2 5 C-1.34 3.35 -0.68 1.7 0 0 Z " fill="#F8C40F" transform="translate(10,51)"/>
<path d="M0 0 C1.98 0.99 1.98 0.99 4 2 C2.02 2.99 2.02 2.99 0 4 C0 2.68 0 1.36 0 0 Z " fill="#2E2002" transform="translate(24,1)"/>
<path d="M0 0 C0.66 0.99 1.32 1.98 2 3 C0.35 3 -1.3 3 -3 3 C-2.01 2.01 -1.02 1.02 0 0 Z " fill="#927310" transform="translate(11,31)"/>
<path d="M0 0 C0.33 0.99 0.66 1.98 1 3 C-0.32 3.33 -1.64 3.66 -3 4 C-2.01 2.68 -1.02 1.36 0 0 Z " fill="#1D1110" transform="translate(22,15)"/>
<path d="M0 0 C0.66 0 1.32 0 2 0 C2 0.66 2 1.32 2 2 C2.66 2.33 3.32 2.66 4 3 C3.01 3.33 2.02 3.66 1 4 C0.67 2.68 0.34 1.36 0 0 Z " fill="#E2A00D" transform="translate(18,10)"/>
<path d="M0 0 C0.99 0 1.98 0 3 0 C3 0.99 3 1.98 3 3 C2.01 3 1.02 3 0 3 C0 2.01 0 1.02 0 0 Z " fill="#2F210B" transform="translate(20,0)"/>
<path d="M0 0 C0.99 0.33 1.98 0.66 3 1 C2.34 1.66 1.68 2.32 1 3 C0.67 2.01 0.34 1.02 0 0 Z " fill="#DFC117" transform="translate(3,78)"/>
<path d="M0 0 C0.99 0.495 0.99 0.495 2 1 C1.34 2.32 0.68 3.64 0 5 C0 3.35 0 1.7 0 0 Z " fill="#030005" transform="translate(6,51)"/>
<path d="M0 0 C0.66 0 1.32 0 2 0 C2 0.99 2 1.98 2 3 C1.34 2.67 0.68 2.34 0 2 C0 1.34 0 0.68 0 0 Z " fill="#000002" transform="translate(3,66)"/>
<path d="M0 0 C0.66 0.33 1.32 0.66 2 1 C1.01 1.66 0.02 2.32 -1 3 C-0.67 2.01 -0.34 1.02 0 0 Z " fill="#010004" transform="translate(17,45)"/>
<path d="M0 0 C0.66 0.33 1.32 0.66 2 1 C1.01 1 0.02 1 -1 1 C-0.67 0.67 -0.34 0.34 0 0 Z " fill="#000003" transform="translate(1,96)"/>
<path d="M0 0 C1 4 1 4 1 4 Z " fill="#F9C010" transform="translate(10,46)"/>
<path d="M0 0 C0.99 0.33 1.98 0.66 3 1 C2.01 1 1.02 1 0 1 C0 0.67 0 0.34 0 0 Z " fill="#DFB115" transform="translate(13,45)"/>
<path d="M0 0 C0.66 0.33 1.32 0.66 2 1 C1.01 1 0.02 1 -1 1 C-0.67 0.67 -0.34 0.34 0 0 Z " fill="#FAB910" transform="translate(14,16)"/>
<path d="M0 0 C0.66 0 1.32 0 2 0 C2 0.66 2 1.32 2 2 C1.34 2 0.68 2 0 2 C0 1.34 0 0.68 0 0 Z " fill="#050103" transform="translate(28,6)"/>
<path d="M0 0 C0.66 0.66 1.32 1.32 2 2 C1.01 2.495 1.01 2.495 0 3 C0 2.01 0 1.02 0 0 Z " fill="#000005" transform="translate(13,6)"/>
<path d="M0 0 C0.66 0 1.32 0 2 0 C1.67 0.66 1.34 1.32 1 2 C0.67 1.34 0.34 0.68 0 0 Z " fill="#0F0C06" transform="translate(15,50)"/>
<path d="M0 0 C0.66 0.66 1.32 1.32 2 2 C1.34 2 0.68 2 0 2 C0 1.34 0 0.68 0 0 Z " fill="#000002" transform="translate(17,36)"/>
<path d="M0 0 C0.66 0 1.32 0 2 0 C1.67 0.66 1.34 1.32 1 2 C0.67 1.34 0.34 0.68 0 0 Z " fill="#F5BE26" transform="translate(12,23)"/>
<path d="M0 0 C0.66 0 1.32 0 2 0 C1.67 0.66 1.34 1.32 1 2 C0.67 1.34 0.34 0.68 0 0 Z " fill="#DEA52D" transform="translate(23,18)"/>
<path d="M0 0 C0.66 0 1.32 0 2 0 C1.67 0.66 1.34 1.32 1 2 C0.67 1.34 0.34 0.68 0 0 Z " fill="#000002" transform="translate(10,17)"/>
<path d="M0 0 C0.66 0 1.32 0 2 0 C1.67 0.66 1.34 1.32 1 2 C0.67 1.34 0.34 0.68 0 0 Z " fill="#030202" transform="translate(11,15)"/>
<path d="M0 0 C0.33 0.66 0.66 1.32 1 2 C0.34 1.67 -0.32 1.34 -1 1 C-0.67 0.67 -0.34 0.34 0 0 Z " fill="#0E0401" transform="translate(30,10)"/>
<path d="M0 0 C2 1 2 1 2 1 Z " fill="#FCC003" transform="translate(10,75)"/>
<path d="M0 0 C2 1 2 1 2 1 Z " fill="#F7C201" transform="translate(8,69)"/>
<path d="M0 0 C2 1 2 1 2 1 Z " fill="#F3C61E" transform="translate(7,67)"/>
<path d="M0 0 C2 1 2 1 2 1 Z " fill="#FABE11" transform="translate(11,65)"/>
<path d="" fill="#FCC402" transform="translate(0,0)"/>
<path d="" fill="#010004" transform="translate(0,0)"/>
<path d="M0 0 C2 1 2 1 2 1 Z " fill="#6E4D1C" transform="translate(15,43)"/>
<path d="M0 0 C2 1 2 1 2 1 Z " fill="#F9C514" transform="translate(10,40)"/>
<path d="" fill="#FCC402" transform="translate(0,0)"/>
<path d="M0 0 C2 1 2 1 2 1 Z " fill="#FCB902" transform="translate(14,26)"/>
<path d="" fill="#000000" transform="translate(0,0)"/>
<path d="M0 0 C2 1 2 1 2 1 Z " fill="#000004" transform="translate(8,24)"/>
<path d="M0 0 C2 1 2 1 2 1 Z " fill="#FAB812" transform="translate(15,22)"/>
<path d="" fill="#000001" transform="translate(0,0)"/>
<path d="M0 0 C2 1 2 1 2 1 Z " fill="#F2C021" transform="translate(14,14)"/>
<path d="M0 0 C2 1 2 1 2 1 Z " fill="#FDB302" transform="translate(19,7)"/>
<path d="M0 0 C2 1 2 1 2 1 Z " fill="#F2BA38" transform="translate(16,7)"/>
<path d="M0 0 C2 1 2 1 2 1 Z " fill="#010004" transform="translate(15,3)"/>
<path d="" fill="#000001" transform="translate(0,0)"/>
<path d="" fill="#000109" transform="translate(0,0)"/>
<path d="" fill="#DAC715" transform="translate(0,0)"/>
<path d="" fill="#F3C401" transform="translate(0,0)"/>
<path d="" fill="#625138" transform="translate(0,0)"/>
<path d="" fill="#F3C201" transform="translate(0,0)"/>
<path d="" fill="#010104" transform="translate(0,0)"/>
<path d="" fill="#010203" transform="translate(0,0)"/>
<path d="" fill="#FBC102" transform="translate(0,0)"/>
<path d="" fill="#000109" transform="translate(0,0)"/>
<path d="" fill="#4F3818" transform="translate(0,0)"/>
<path d="" fill="#010005" transform="translate(0,0)"/>
<path d="" fill="#010203" transform="translate(0,0)"/>
<path d="" fill="#FDBC04" transform="translate(0,0)"/>
<path d="" fill="#E8CA43" transform="translate(0,0)"/>
<path d="" fill="#F3C837" transform="translate(0,0)"/>
<path d="" fill="#603F10" transform="translate(0,0)"/>
<path d="" fill="#F8C01E" transform="translate(0,0)"/>
<path d="" fill="#9B8C56" transform="translate(0,0)"/>
<path d="" fill="#FEB004" transform="translate(0,0)"/>
<path d="" fill="#746230" transform="translate(0,0)"/>
<path d="" fill="#ECBF51" transform="translate(0,0)"/>
<path d="" fill="#F3C201" transform="translate(0,0)"/>
<path d="" fill="#010111" transform="translate(0,0)"/>
<path d="" fill="#1F080B" transform="translate(0,0)"/>
<path d="" fill="#000100" transform="translate(0,0)"/>
<path d="" fill="#000001" transform="translate(0,0)"/>
<path d="" fill="#000001" transform="translate(0,0)"/>
<path d="" fill="#F7C643" transform="translate(0,0)"/>
<path d="" fill="#FBC102" transform="translate(0,0)"/>
<path d="" fill="#FCC402" transform="translate(0,0)"/>
<path d="" fill="#F3C401" transform="translate(0,0)"/>
<path d="" fill="#010009" transform="translate(0,0)"/>
<path d="" fill="#020001" transform="translate(0,0)"/>
<path d="" fill="#FDBC04" transform="translate(0,0)"/>
<path d="" fill="#F3C837" transform="translate(0,0)"/>
<path d="" fill="#000109" transform="translate(0,0)"/>
<path d="" fill="#010005" transform="translate(0,0)"/>
<path d="" fill="#7A5D28" transform="translate(0,0)"/>
<path d="" fill="#F8C01E" transform="translate(0,0)"/>
<path d="" fill="#000000" transform="translate(0,0)"/>
<path d="" fill="#0D0000" transform="translate(0,0)"/>
<path d="" fill="#FEA501" transform="translate(0,0)"/>
<path d="" fill="#000109" transform="translate(0,0)"/>
<path d="" fill="#FCA905" transform="translate(0,0)"/>
<path d="" fill="#C9AC56" transform="translate(0,0)"/>
<path d="" fill="#040000" transform="translate(0,0)"/>
<path d="" fill="#FEB004" transform="translate(0,0)"/>
<path d="" fill="#FBC102" transform="translate(0,0)"/>
<path d="" fill="#020001" transform="translate(0,0)"/>
<path d="" fill="#FCB600" transform="translate(0,0)"/>
<path d="" fill="#000001" transform="translate(0,0)"/>
<path d="" fill="#010001" transform="translate(0,0)"/>
</svg>
