<?xml version="1.0" encoding="UTF-8"?>
<svg version="1.1" xmlns="http://www.w3.org/2000/svg" width="33" height="113">
<path d="M0 0 C0 0.99 0 1.98 0 3 C0.66 3 1.32 3 2 3 C2 5.31 2 7.62 2 10 C1.01 10.33 0.02 10.66 -1 11 C-1.66 11.66 -2.32 12.32 -3 13 C-5.5625 12.75 -5.5625 12.75 -8 12 C-8.33 11.34 -8.66 10.68 -9 10 C-10.64826111 12.96687001 -11.44271087 15.65626525 -12 19 C-12.66 19 -13.32 19 -14 19 C-13.34 20.98 -12.68 22.96 -12 25 C-12.66 25 -13.32 25 -14 25 C-13.979375 25.7425 -13.95875 26.485 -13.9375 27.25 C-14 30 -14 30 -14.46875 31.6875 C-15.23188908 35.00939954 -15.36690704 38.35758447 -15.5625 41.75 C-15.60568359 42.44738281 -15.64886719 43.14476562 -15.69335938 43.86328125 C-15.79889596 45.57531922 -15.8998991 47.28763561 -16 49 C-16.66 49 -17.32 49 -18 49 C-17.67 50.32 -17.34 51.64 -17 53 C-18.65 53.66 -20.3 54.32 -22 55 C-21.34 54.01 -20.68 53.02 -20 52 C-21.15240982 48.87203049 -22.51158646 45.97682709 -24 43 C-23.5625 40.875 -23.5625 40.875 -23 39 C-23.99 38.67 -24.98 38.34 -26 38 C-25.34 37.34 -24.68 36.68 -24 36 C-23.01422354 33.04267062 -22.66337063 30.53130493 -22.375 27.4375 C-22.27960937 26.46683594 -22.18421875 25.49617188 -22.0859375 24.49609375 C-21.80101867 21.99985883 -21.80101867 21.99985883 -23 20 C-22.360625 19.79375 -21.72125 19.5875 -21.0625 19.375 C-18.6491645 18.11582828 -18.6491645 18.11582828 -18.375 14.9375 C-18.189375 13.4834375 -18.189375 13.4834375 -18 12 C-17.34 11.67 -16.68 11.34 -16 11 C-15.34444881 8.47266765 -15.34444881 8.47266765 -15 6 C-14.34 6 -13.68 6 -13 6 C-12.62875 4.329375 -12.62875 4.329375 -12.25 2.625 C-11 -1 -11 -1 -9.3125 -2.625 C-5.68598308 -3.21308383 -3.20020649 -1.60010325 0 0 Z " fill="#F4BB0B" transform="translate(31,55)"/>
<path d="M0 0 C3 1 3 1 4 3 C6.52733235 3.65555119 6.52733235 3.65555119 9 4 C8.01 5.485 8.01 5.485 7 7 C4.5625 6.625 4.5625 6.625 2 6 C1.67 5.34 1.34 4.68 1 4 C-0.64826111 6.96687001 -1.44271087 9.65626525 -2 13 C-2.66 13 -3.32 13 -4 13 C-3.34 14.98 -2.68 16.96 -2 19 C-2.66 19 -3.32 19 -4 19 C-3.979375 19.7425 -3.95875 20.485 -3.9375 21.25 C-4 24 -4 24 -4.46875 25.6875 C-5.23188908 29.00939954 -5.36690704 32.35758447 -5.5625 35.75 C-5.60568359 36.44738281 -5.64886719 37.14476562 -5.69335938 37.86328125 C-5.79889596 39.57531922 -5.8998991 41.28763561 -6 43 C-6.66 43 -7.32 43 -8 43 C-7.67 44.32 -7.34 45.64 -7 47 C-8.65 47.66 -10.3 48.32 -12 49 C-11.34 48.01 -10.68 47.02 -10 46 C-10 45.01 -10 44.02 -10 43 C-9.86759674 40.49842354 -9.72201233 37.9998201 -9.5625 35.5 C-9.52318359 34.82324219 -9.48386719 34.14648438 -9.44335938 33.44921875 C-9.24973931 30.42874569 -8.96211659 27.88634976 -8 25 C-7.688796 22.7734768 -7.39999082 20.54378517 -7.125 18.3125 C-5.24559464 4.83646748 -5.24559464 4.83646748 0 0 Z " fill="#0E0706" transform="translate(21,61)"/>
<path d="M0 0 C2.35981813 0.93578995 4.69631264 1.93347808 7 3 C7 3.99 7 4.98 7 6 C7.66 6 8.32 6 9 6 C9 8.31 9 10.62 9 13 C5.79937313 14.60031344 3.27728194 13.03173691 0 12 C-0.12375 11.360625 -0.2475 10.72125 -0.375 10.0625 C-0.58125 9.381875 -0.7875 8.70125 -1 8 C-1.66 7.67 -2.32 7.34 -3 7 C-2.625 4.0625 -2.625 4.0625 -2 1 C-1.34 0.67 -0.68 0.34 0 0 Z " fill="#C5830A" transform="translate(24,52)"/>
<path d="M0 0 C1.32 0.66 2.64 1.32 4 2 C3.01 2.495 3.01 2.495 2 3 C2.268125 3.556875 2.53625 4.11375 2.8125 4.6875 C2.874375 5.450625 2.93625 6.21375 3 7 C2.2575 7.70125 1.515 8.4025 0.75 9.125 C-4.33506324 14.44120248 -5.22498369 21.86984998 -6 29 C-6.33 29 -6.66 29 -7 29 C-6.98839844 28.39671875 -6.97679687 27.7934375 -6.96484375 27.171875 C-6.95582031 26.37265625 -6.94679688 25.5734375 -6.9375 24.75 C-6.92589844 23.96109375 -6.91429687 23.1721875 -6.90234375 22.359375 C-6.91298977 20.01639655 -6.91298977 20.01639655 -7.56640625 17.890625 C-8 16 -8 16 -7 13 C-6.34 12.67 -5.68 12.34 -5 12 C-4.34444881 9.47266765 -4.34444881 9.47266765 -4 7 C-3.34 7 -2.68 7 -2 7 C-1.34 4.69 -0.68 2.38 0 0 Z " fill="#E7AA14" transform="translate(20,54)"/>
<path d="M0 0 C3 3.75 3 3.75 3 6 C2.34 6 1.68 6 1 6 C1.061875 7.1446875 1.061875 7.1446875 1.125 8.3125 C1 11 1 11 -1 14 C-1.66 13.67 -2.32 13.34 -3 13 C-2.88610125 11.20759337 -2.75852313 9.41605165 -2.625 7.625 C-2.55539062 6.62726563 -2.48578125 5.62953125 -2.4140625 4.6015625 C-2 2 -2 2 0 0 Z " fill="#080404" transform="translate(16,74)"/>
<path d="M0 0 C3 1 3 1 4 3 C6.52733235 3.65555119 6.52733235 3.65555119 9 4 C8.01 5.485 8.01 5.485 7 7 C4.6875 6.8125 4.6875 6.8125 2 6 C0.1875 3.4375 0.1875 3.4375 -1 1 C-0.67 0.67 -0.34 0.34 0 0 Z " fill="#1F140C" transform="translate(21,61)"/>
<path d="M0 0 C0.66 0 1.32 0 2 0 C2 0.99 2 1.98 2 3 C2.66 3 3.32 3 4 3 C4 5.31 4 7.62 4 10 C3.01 10 2.02 10 1 10 C1 8.68 1 7.36 1 6 C0.38655243 4.31301918 -0.27095914 2.64034193 -1 1 C-0.67 0.67 -0.34 0.34 0 0 Z " fill="#0C0404" transform="translate(29,55)"/>
<path d="M0 0 C2 3 2 3 2 5 C2.66 5.33 3.32 5.66 4 6 C3.34 6 2.68 6 2 6 C2.33 7.32 2.66 8.64 3 10 C1.35 10.66 -0.3 11.32 -2 12 C-1.34 11.01 -0.68 10.02 0 9 C0 8.01 0 7.02 0 6 C0 4 0 2 0 0 Z " fill="#231B0E" transform="translate(11,98)"/>
<path d="M0 0 C0.66 0.66 1.32 1.32 2 2 C1.625 4.125 1.625 4.125 1 6 C-0.65 6 -2.3 6 -4 6 C-4 2.99472353 -2.05564773 2.05564773 0 0 Z " fill="#E09515" transform="translate(29,59)"/>
<path d="M0 0 C1.32 0.66 2.64 1.32 4 2 C3.01 2.495 3.01 2.495 2 3 C1.67 3.99 1.34 4.98 1 6 C0.34 5.67 -0.32 5.34 -1 5 C-0.67 3.35 -0.34 1.7 0 0 Z " fill="#FAAE04" transform="translate(20,54)"/>
<path d="M0 0 C0.66 0.66 1.32 1.32 2 2 C2.99 1.67 3.98 1.34 5 1 C5 1.99 5 2.98 5 4 C3.35 4 1.7 4 0 4 C-0.33 3.01 -0.66 2.02 -1 1 C-0.67 0.67 -0.34 0.34 0 0 Z " fill="#453717" transform="translate(15,27)"/>
<path d="M0 0 C0.33 0.99 0.66 1.98 1 3 C-0.65 3.33 -2.3 3.66 -4 4 C-2 1 -2 1 0 0 Z " fill="#4B3717" transform="translate(20,15)"/>
<path d="M0 0 C0.99 0.33 1.98 0.66 3 1 C3.8125 2.9375 3.8125 2.9375 4 5 C3.34 5.66 2.68 6.32 2 7 C2 5.35 2 3.7 2 2 C1.34 2 0.68 2 0 2 C0 1.34 0 0.68 0 0 Z " fill="#0A0806" transform="translate(3,43)"/>
<path d="M0 0 C0 0.99 0 1.98 0 3 C-1.98 3 -3.96 3 -6 3 C-6 2.67 -6 2.34 -6 2 C-4.02 1.34 -2.04 0.68 0 0 Z " fill="#000002" transform="translate(11,110)"/>
<path d="M0 0 C0.99 0.33 1.98 0.66 3 1 C1.68 1.99 0.36 2.98 -1 4 C-1 1 -1 1 0 0 Z " fill="#837012" transform="translate(3,105)"/>
<path d="M0 0 C1.32 0 2.64 0 4 0 C4 0.99 4 1.98 4 3 C3.01 2.67 2.02 2.34 1 2 C0.67 1.34 0.34 0.68 0 0 Z " fill="#F9B30A" transform="translate(14,55)"/>
<path d="M0 0 C1.65 0 3.3 0 5 0 C3.02 0.99 3.02 0.99 1 2 C0.67 1.34 0.34 0.68 0 0 Z " fill="#000000" transform="translate(18,0)"/>
<path d="M0 0 C0.99 0.33 1.98 0.66 3 1 C2.67 1.99 2.34 2.98 2 4 C1.34 2.68 0.68 1.36 0 0 Z " fill="#010003" transform="translate(0,92)"/>
<path d="M0 0 C0.66 0 1.32 0 2 0 C1.67 0.99 1.34 1.98 1 3 C0.34 2.34 -0.32 1.68 -1 1 C-0.67 0.67 -0.34 0.34 0 0 Z " fill="#392B0D" transform="translate(13,49)"/>
<path d="M0 0 C0.99 0.33 1.98 0.66 3 1 C3 1.66 3 2.32 3 3 C2.34 3 1.68 3 1 3 C0.67 2.01 0.34 1.02 0 0 Z " fill="#241901" transform="translate(14,35)"/>
<path d="M0 0 C0.99 0 1.98 0 3 0 C3 0.66 3 1.32 3 2 C2.01 2 1.02 2 0 2 C0 1.34 0 0.68 0 0 Z " fill="#160605" transform="translate(28,17)"/>
<path d="M0 0 C0.66 0 1.32 0 2 0 C1.67 0.99 1.34 1.98 1 3 C0.34 2.34 -0.32 1.68 -1 1 C-0.67 0.67 -0.34 0.34 0 0 Z " fill="#F4B61F" transform="translate(14,8)"/>
<path d="M0 0 C0.66 0 1.32 0 2 0 C2.33 0.99 2.66 1.98 3 3 C2.01 2.67 1.02 2.34 0 2 C0 1.34 0 0.68 0 0 Z " fill="#060203" transform="translate(25,5)"/>
<path d="M0 0 C0.33 0 0.66 0 1 0 C1 1.65 1 3.3 1 5 C0.67 5 0.34 5 0 5 C0 3.35 0 1.7 0 0 Z " fill="#FBC207" transform="translate(8,46)"/>
<path d="M0 0 C0.99 0.33 1.98 0.66 3 1 C2.34 1.66 1.68 2.32 1 3 C0.67 2.01 0.34 1.02 0 0 Z " fill="#EEBD21" transform="translate(7,42)"/>
<path d="M0 0 C0.99 0 1.98 0 3 0 C3 0.66 3 1.32 3 2 C2.01 1.67 1.02 1.34 0 1 C0 0.67 0 0.34 0 0 Z " fill="#FCB208" transform="translate(16,6)"/>
<path d="M0 0 C0.66 0 1.32 0 2 0 C2 0.66 2 1.32 2 2 C1.34 2 0.68 2 0 2 C0 1.34 0 0.68 0 0 Z " fill="#FBBF02" transform="translate(9,70)"/>
<path d="M0 0 C0.66 0.66 1.32 1.32 2 2 C1.01 1.67 0.02 1.34 -1 1 C-0.67 0.67 -0.34 0.34 0 0 Z " fill="#000005" transform="translate(2,68)"/>
<path d="M0 0 C0.66 0 1.32 0 2 0 C2 0.66 2 1.32 2 2 C1.34 2 0.68 2 0 2 C0 1.34 0 0.68 0 0 Z " fill="#000005" transform="translate(3,57)"/>
<path d="M0 0 C0.66 0 1.32 0 2 0 C2 0.66 2 1.32 2 2 C1.34 2 0.68 2 0 2 C0 1.34 0 0.68 0 0 Z " fill="#6C5107" transform="translate(12,52)"/>
<path d="M0 0 C0.33 0.66 0.66 1.32 1 2 C0.34 1.67 -0.32 1.34 -1 1 C-0.67 0.67 -0.34 0.34 0 0 Z " fill="#F8C616" transform="translate(9,106)"/>
<path d="M0 0 C0.99 0.495 0.99 0.495 2 1 C1.01 1.495 1.01 1.495 0 2 C0 1.34 0 0.68 0 0 Z " fill="#FBC202" transform="translate(8,104)"/>
<path d="" fill="#000000" transform="translate(0,0)"/>
<path d="" fill="#220100" transform="translate(0,0)"/>
<path d="" fill="#000000" transform="translate(0,0)"/>
<path d="M0 0 C3 1 3 1 3 1 Z " fill="#B7871E" transform="translate(9,22)"/>
<path d="M0 0 C0.33 0.66 0.66 1.32 1 2 C0.34 1.67 -0.32 1.34 -1 1 C-0.67 0.67 -0.34 0.34 0 0 Z " fill="#010007" transform="translate(20,19)"/>
<path d="M0 0 C0.66 0 1.32 0 2 0 C1.67 0.66 1.34 1.32 1 2 C0.67 1.34 0.34 0.68 0 0 Z " fill="#DAA125" transform="translate(21,18)"/>
<path d="M0 0 C0.99 0.495 0.99 0.495 2 1 C1.01 1.495 1.01 1.495 0 2 C0 1.34 0 0.68 0 0 Z " fill="#000004" transform="translate(13,3)"/>
<path d="" fill="#000001" transform="translate(0,0)"/>
<path d="M0 0 C2 1 2 1 2 1 Z " fill="#FCC402" transform="translate(7,68)"/>
<path d="M0 0 C2 1 2 1 2 1 Z " fill="#F3C51C" transform="translate(5,67)"/>
<path d="M0 0 C2 1 2 1 2 1 Z " fill="#000000" transform="translate(1,66)"/>
<path d="M0 0 C2 1 2 1 2 1 Z " fill="#FCBE03" transform="translate(9,65)"/>
<path d="" fill="#FBC102" transform="translate(0,0)"/>
<path d="" fill="#F9C826" transform="translate(0,0)"/>
<path d="" fill="#F3C837" transform="translate(0,0)"/>
<path d="" fill="#FCB600" transform="translate(0,0)"/>
<path d="" fill="#010200" transform="translate(0,0)"/>
<path d="" fill="#F9C010" transform="translate(0,0)"/>
<path d="M0 0 C2 1 2 1 2 1 Z " fill="#F4BA28" transform="translate(14,24)"/>
<path d="M0 0 C2 1 2 1 2 1 Z " fill="#FCB600" transform="translate(13,22)"/>
<path d="M0 0 C2 1 2 1 2 1 Z " fill="#FCB600" transform="translate(12,19)"/>
<path d="" fill="#FBB212" transform="translate(0,0)"/>
<path d="M0 0 C2 1 2 1 2 1 Z " fill="#000004" transform="translate(27,9)"/>
<path d="M0 0 C2 1 2 1 2 1 Z " fill="#FDA703" transform="translate(22,7)"/>
<path d="" fill="#000000" transform="translate(0,0)"/>
<path d="" fill="#000000" transform="translate(0,0)"/>
<path d="" fill="#241E17" transform="translate(0,0)"/>
<path d="" fill="#000000" transform="translate(0,0)"/>
<path d="" fill="#F3C401" transform="translate(0,0)"/>
<path d="" fill="#F3C401" transform="translate(0,0)"/>
<path d="" fill="#000000" transform="translate(0,0)"/>
<path d="" fill="#F3C201" transform="translate(0,0)"/>
<path d="" fill="#F3C401" transform="translate(0,0)"/>
<path d="" fill="#F3C401" transform="translate(0,0)"/>
<path d="" fill="#010003" transform="translate(0,0)"/>
<path d="" fill="#FDBC04" transform="translate(0,0)"/>
<path d="" fill="#030001" transform="translate(0,0)"/>
<path d="" fill="#010200" transform="translate(0,0)"/>
<path d="" fill="#010009" transform="translate(0,0)"/>
<path d="" fill="#000001" transform="translate(0,0)"/>
<path d="" fill="#FCB600" transform="translate(0,0)"/>
<path d="" fill="#000000" transform="translate(0,0)"/>
<path d="" fill="#FDBC04" transform="translate(0,0)"/>
<path d="" fill="#000000" transform="translate(0,0)"/>
<path d="" fill="#FCB600" transform="translate(0,0)"/>
<path d="" fill="#FCB600" transform="translate(0,0)"/>
<path d="" fill="#F8C01E" transform="translate(0,0)"/>
<path d="" fill="#F3C837" transform="translate(0,0)"/>
<path d="" fill="#FBC102" transform="translate(0,0)"/>
<path d="" fill="#524917" transform="translate(0,0)"/>
<path d="" fill="#ECBF51" transform="translate(0,0)"/>
<path d="" fill="#020001" transform="translate(0,0)"/>
<path d="" fill="#FBC102" transform="translate(0,0)"/>
<path d="" fill="#F3C401" transform="translate(0,0)"/>
<path d="" fill="#000001" transform="translate(0,0)"/>
<path d="" fill="#FDBC04" transform="translate(0,0)"/>
<path d="" fill="#010005" transform="translate(0,0)"/>
<path d="" fill="#000001" transform="translate(0,0)"/>
<path d="" fill="#FBC102" transform="translate(0,0)"/>
<path d="" fill="#010001" transform="translate(0,0)"/>
<path d="" fill="#000000" transform="translate(0,0)"/>
<path d="" fill="#FDBC04" transform="translate(0,0)"/>
<path d="" fill="#040000" transform="translate(0,0)"/>
<path d="" fill="#F8B520" transform="translate(0,0)"/>
<path d="" fill="#FCC402" transform="translate(0,0)"/>
<path d="" fill="#FCC402" transform="translate(0,0)"/>
<path d="" fill="#000109" transform="translate(0,0)"/>
<path d="" fill="#FCB600" transform="translate(0,0)"/>
<path d="" fill="#FDBC04" transform="translate(0,0)"/>
<path d="" fill="#000001" transform="translate(0,0)"/>
<path d="" fill="#040000" transform="translate(0,0)"/>
<path d="" fill="#875603" transform="translate(0,0)"/>
<path d="" fill="#020001" transform="translate(0,0)"/>
<path d="" fill="#010101" transform="translate(0,0)"/>
<path d="" fill="#000109" transform="translate(0,0)"/>
<path d="" fill="#000001" transform="translate(0,0)"/>
<path d="" fill="#FCC402" transform="translate(0,0)"/>
<path d="" fill="#FCA905" transform="translate(0,0)"/>
<path d="" fill="#000100" transform="translate(0,0)"/>
<path d="" fill="#F8C01E" transform="translate(0,0)"/>
<path d="" fill="#FEA501" transform="translate(0,0)"/>
<path d="" fill="#F7C643" transform="translate(0,0)"/>
<path d="" fill="#010003" transform="translate(0,0)"/>
<path d="" fill="#080000" transform="translate(0,0)"/>
<path d="" fill="#FCB600" transform="translate(0,0)"/>
<path d="" fill="#393324" transform="translate(0,0)"/>
<path d="" fill="#FCB600" transform="translate(0,0)"/>
<path d="" fill="#FEB004" transform="translate(0,0)"/>
<path d="" fill="#000109" transform="translate(0,0)"/>
<path d="" fill="#FEB004" transform="translate(0,0)"/>
<path d="" fill="#010009" transform="translate(0,0)"/>
<path d="" fill="#000000" transform="translate(0,0)"/>
<path d="" fill="#040000" transform="translate(0,0)"/>
<path d="" fill="#040000" transform="translate(0,0)"/>
<path d="" fill="#000000" transform="translate(0,0)"/>
</svg>
