<?xml version="1.0" encoding="UTF-8"?>
<svg version="1.1" xmlns="http://www.w3.org/2000/svg" width="153" height="44">
<path d="M0 0 C0.12375 0.639375 0.2475 1.27875 0.375 1.9375 C0.58125 2.618125 0.7875 3.29875 1 4 C1.66 4.33 2.32 4.66 3 5 C2.01 5.33 1.02 5.66 0 6 C-0.78375 7.010625 -1.5675 8.02125 -2.375 9.0625 C-5 12 -5 12 -7.8125 12.375 C-8.534375 12.25125 -9.25625 12.1275 -10 12 C-11.1875 9.9375 -11.1875 9.9375 -12 7 C-10.75 3.25 -10.75 3.25 -9 0 C-5.93109813 -1.53445094 -3.29905734 -0.54984289 0 0 Z M-9 5 C-8.67 6.65 -8.34 8.3 -8 10 C-7.67 10 -7.34 10 -7 10 C-7 8.35 -7 6.7 -7 5 C-7.66 5 -8.32 5 -9 5 Z " fill="#261945" transform="translate(150,3)"/>
<path d="M0 0 C1.98 0 3.96 0 6 0 C6.8125 2.1875 6.8125 2.1875 7 5 C4.5625 7.8125 4.5625 7.8125 2 10 C2 8.35 2 6.7 2 5 C1.01 5.33 0.02 5.66 -1 6 C-1.33 5.34 -1.66 4.68 -2 4 C-1.0625 1.875 -1.0625 1.875 0 0 Z " fill="#6B4FC6" transform="translate(141,3)"/>
<path d="M0 0 C0.66 0 1.32 0 2 0 C2 0.99 2 1.98 2 3 C0.68 3.33 -0.64 3.66 -2 4 C-1.34 2.68 -0.68 1.36 0 0 Z " fill="#A35C12" transform="translate(20,37)"/>
<path d="M0 0 C0.99 0 1.98 0 3 0 C3 0.66 3 1.32 3 2 C1.02 2.99 1.02 2.99 -1 4 C-0.67 2.68 -0.34 1.36 0 0 Z " fill="#6D2A11" transform="translate(33,7)"/>
<path d="M0 0 C1.32 0 2.64 0 4 0 C4 0.66 4 1.32 4 2 C2.68 1.34 1.36 0.68 0 0 Z " fill="#D83823" transform="translate(50,6)"/>
<path d="M0 0 C0.33 0.66 0.66 1.32 1 2 C0.34 2.66 -0.32 3.32 -1 4 C-0.67 2.68 -0.34 1.36 0 0 Z " fill="#2F1804" transform="translate(1,16)"/>
<path d="M0 0 C0 3 0 3 0 3 Z " fill="#342619" transform="translate(18,29)"/>
<path d="M0 0 C4 1 4 1 4 1 Z " fill="#000001" transform="translate(143,0)"/>
<path d="M0 0 C0.99 0.495 0.99 0.495 2 1 C1.01 1.495 1.01 1.495 0 2 C0 1.34 0 0.68 0 0 Z " fill="#000004" transform="translate(31,42)"/>
<path d="M0 0 C0.99 0.495 0.99 0.495 2 1 C1.01 1.495 1.01 1.495 0 2 C0 1.34 0 0.68 0 0 Z " fill="#F68612" transform="translate(20,29)"/>
<path d="" fill="#000102" transform="translate(0,0)"/>
<path d="M0 0 C0.33 0.66 0.66 1.32 1 2 C0.34 1.67 -0.32 1.34 -1 1 C-0.67 0.67 -0.34 0.34 0 0 Z " fill="#000005" transform="translate(139,15)"/>
<path d="M0 0 C0.99 0.495 0.99 0.495 2 1 C1.01 1.495 1.01 1.495 0 2 C0 1.34 0 0.68 0 0 Z " fill="#FC9B05" transform="translate(6,16)"/>
<path d="M0 0 C3 1 3 1 3 1 Z " fill="#E36625" transform="translate(34,10)"/>
<path d="" fill="#FD3328" transform="translate(0,0)"/>
<path d="M0 0 C0.66 0.66 1.32 1.32 2 2 C1.34 2 0.68 2 0 2 C0 1.34 0 0.68 0 0 Z " fill="#FDA101" transform="translate(3,5)"/>
<path d="M0 0 C0.99 0.495 0.99 0.495 2 1 C1.01 1.495 1.01 1.495 0 2 C0 1.34 0 0.68 0 0 Z " fill="#ED482F" transform="translate(51,3)"/>
<path d="M0 0 C2 1 2 1 2 1 Z " fill="#000000" transform="translate(139,38)"/>
<path d="" fill="#34255C" transform="translate(0,0)"/>
<path d="" fill="#000109" transform="translate(0,0)"/>
<path d="" fill="#010102" transform="translate(0,0)"/>
<path d="" fill="#FDA201" transform="translate(0,0)"/>
<path d="M0 0 C2 1 2 1 2 1 Z " fill="#945D10" transform="translate(18,15)"/>
<path d="M0 0 C2 1 2 1 2 1 Z " fill="#75451D" transform="translate(18,13)"/>
<path d="M0 0 C2 1 2 1 2 1 Z " fill="#8F50E0" transform="translate(135,10)"/>
<path d="M0 0 C2 1 2 1 2 1 Z " fill="#FC3827" transform="translate(53,10)"/>
<path d="" fill="#934DDD" transform="translate(0,0)"/>
<path d="" fill="#9852E3" transform="translate(0,0)"/>
<path d="" fill="#000001" transform="translate(0,0)"/>
<path d="" fill="#040000" transform="translate(0,0)"/>
<path d="" fill="#241E17" transform="translate(0,0)"/>
<path d="" fill="#010101" transform="translate(0,0)"/>
<path d="" fill="#000109" transform="translate(0,0)"/>
<path d="" fill="#01020B" transform="translate(0,0)"/>
<path d="" fill="#000100" transform="translate(0,0)"/>
<path d="" fill="#8C59D6" transform="translate(0,0)"/>
<path d="" fill="#934DDD" transform="translate(0,0)"/>
<path d="" fill="#934DDD" transform="translate(0,0)"/>
<path d="" fill="#000001" transform="translate(0,0)"/>
<path d="" fill="#170E0E" transform="translate(0,0)"/>
<path d="" fill="#FD641A" transform="translate(0,0)"/>
<path d="" fill="#E0A74A" transform="translate(0,0)"/>
<path d="" fill="#000100" transform="translate(0,0)"/>
<path d="" fill="#944EDE" transform="translate(0,0)"/>
<path d="" fill="#FE8806" transform="translate(0,0)"/>
<path d="" fill="#934DDD" transform="translate(0,0)"/>
<path d="" fill="#FB3B27" transform="translate(0,0)"/>
<path d="" fill="#FD641A" transform="translate(0,0)"/>
<path d="" fill="#000000" transform="translate(0,0)"/>
<path d="" fill="#934DDD" transform="translate(0,0)"/>
<path d="" fill="#FB3B27" transform="translate(0,0)"/>
<path d="" fill="#FEA501" transform="translate(0,0)"/>
<path d="" fill="#8B53E3" transform="translate(0,0)"/>
<path d="" fill="#0E0307" transform="translate(0,0)"/>
<path d="" fill="#010005" transform="translate(0,0)"/>
<path d="" fill="#603F10" transform="translate(0,0)"/>
<path d="" fill="#8C59D6" transform="translate(0,0)"/>
<path d="" fill="#FCA905" transform="translate(0,0)"/>
<path d="" fill="#FEA501" transform="translate(0,0)"/>
<path d="" fill="#FD3229" transform="translate(0,0)"/>
<path d="" fill="#FE3D23" transform="translate(0,0)"/>
<path d="" fill="#000000" transform="translate(0,0)"/>
<path d="" fill="#FD3627" transform="translate(0,0)"/>
</svg>
