<?xml version="1.0" encoding="UTF-8"?>
<svg version="1.1" xmlns="http://www.w3.org/2000/svg" width="101" height="63">
<path d="M0 0 C0 0.66 0 1.32 0 2 C0.99 2 1.98 2 3 2 C2.835 2.78375 2.67 3.5675 2.5 4.375 C1.9376293 6.88208039 1.9376293 6.88208039 2 9 C2.66 9 3.32 9 4 9 C4 9.66 4 10.32 4 11 C3.01 11.33 2.02 11.66 1 12 C0.67 12.99 0.34 13.98 0 15 C0.66 15.33 1.32 15.66 2 16 C1.34 16 0.68 16 0 16 C0 16.66 0 17.32 0 18 C-0.66 18 -1.32 18 -2 18 C-2 18.66 -2 19.32 -2 20 C-1.34 20 -0.68 20 0 20 C0 20.99 0 21.98 0 23 C-0.99 22.67 -1.98 22.34 -3 22 C-3.495 23.485 -3.495 23.485 -4 25 C-3.34 25.33 -2.68 25.66 -2 26 C-2.99 26.66 -3.98 27.32 -5 28 C-4.505 29.485 -4.505 29.485 -4 31 C-5.32 31 -6.64 31 -8 31 C-8 31.99 -8 32.98 -8 34 C-8.66 34 -9.32 34 -10 34 C-10.28875 35.27875 -10.5775 36.5575 -10.875 37.875 C-11.54102483 40.82453855 -11.80202597 41.80202597 -14 44 C-15.32 44 -16.64 44 -18 44 C-18 44.99 -18 45.98 -18 47 C-18.680625 47.268125 -19.36125 47.53625 -20.0625 47.8125 C-22.19037315 48.67270404 -24.29221119 49.59824592 -26.375 50.5625 C-29.98254692 51.99307895 -33.1537065 52.60752107 -37 53 C-37.33 52.34 -37.66 51.68 -38 51 C-36.35 51 -34.7 51 -33 51 C-34.65 50.67 -36.3 50.34 -38 50 C-37.67 49.34 -37.34 48.68 -37 48 C-34.9375 47.375 -34.9375 47.375 -33 47 C-34.20381448 44.50638429 -35.45428722 42.31856917 -37 40 C-34.69 40.33 -32.38 40.66 -30 41 C-30 40.34 -30 39.68 -30 39 C-29.21625 38.9175 -28.4325 38.835 -27.625 38.75 C-24.88259887 38.26227992 -24.88259887 38.26227992 -23.625 36.0625 C-22.73128765 33.964604 -22.73128765 33.964604 -24 32 C-22.02 31.67 -20.04 31.34 -18 31 C-19.32 30.34 -20.64 29.68 -22 29 C-21.34 28.34 -20.68 27.68 -20 27 C-20 26.34 -20 25.68 -20 25 C-18.68 24.67 -17.36 24.34 -16 24 C-16.66 23.67 -17.32 23.34 -18 23 C-18 22.34 -18 21.68 -18 21 C-17.01 21 -16.02 21 -15 21 C-15.495 18.525 -15.495 18.525 -16 16 C-15.01 15.34 -14.02 14.68 -13 14 C-13.33 12.68 -13.66 11.36 -14 10 C-13.01 10 -12.02 10 -11 10 C-11.33 8.02 -11.66 6.04 -12 4 C-5.16666667 -0.13596491 -5.16666667 -0.13596491 0 0 Z M-9 5 C-8 8 -8 8 -8 8 Z M-11 11 C-10 13 -10 13 -10 13 Z M-4 19 C-3 21 -3 21 -3 21 Z " fill="#BB431B" transform="translate(97,10)"/>
<path d="M0 0 C0 0.66 0 1.32 0 2 C0.99 2 1.98 2 3 2 C2.835 2.78375 2.67 3.5675 2.5 4.375 C1.9376293 6.88208039 1.9376293 6.88208039 2 9 C2.66 9 3.32 9 4 9 C4 9.66 4 10.32 4 11 C3.01 11.33 2.02 11.66 1 12 C0.67 12.99 0.34 13.98 0 15 C0.66 15.33 1.32 15.66 2 16 C1.34 16 0.68 16 0 16 C0 16.66 0 17.32 0 18 C-0.66 18 -1.32 18 -2 18 C-2 18.66 -2 19.32 -2 20 C-1.34 20 -0.68 20 0 20 C0 20.99 0 21.98 0 23 C-0.99 22.67 -1.98 22.34 -3 22 C-3.33 22.99 -3.66 23.98 -4 25 C-3.34 25.33 -2.68 25.66 -2 26 C-2.99 26.66 -3.98 27.32 -5 28 C-4.67 28.99 -4.34 29.98 -4 31 C-5.32 31 -6.64 31 -8 31 C-8 31.99 -8 32.98 -8 34 C-8.66 34 -9.32 34 -10 34 C-10.28875 35.27875 -10.5775 36.5575 -10.875 37.875 C-11.54102483 40.82453855 -11.80202597 41.80202597 -14 44 C-15.32 44 -16.64 44 -18 44 C-18 44.99 -18 45.98 -18 47 C-19.65 47.66 -21.3 48.32 -23 49 C-23 46 -23 46 -20.9375 43.875 C-20.48375 43.44574219 -20.03 43.01648437 -19.5625 42.57421875 C-13.67783936 36.64542315 -7.47938136 29.17731866 -6.6875 20.625 C-6.84701782 18.02401016 -6.84701782 18.02401016 -8 16 C-8.99 15.67 -9.98 15.34 -11 15 C-11.33 15.99 -11.66 16.98 -12 18 C-13.32 18 -14.64 18 -16 18 C-16 17.34 -16 16.68 -16 16 C-15.01 15.34 -14.02 14.68 -13 14 C-13.33 12.68 -13.66 11.36 -14 10 C-13.01 10 -12.02 10 -11 10 C-11.33 8.02 -11.66 6.04 -12 4 C-5.16666667 -0.13596491 -5.16666667 -0.13596491 0 0 Z M-9 5 C-8 8 -8 8 -8 8 Z M-11 11 C-10 13 -10 13 -10 13 Z M-4 19 C-3 21 -3 21 -3 21 Z " fill="#C4292A" transform="translate(97,10)"/>
<path d="M0 0 C1.9375 0.375 1.9375 0.375 4 1 C5.44656348 3.89312696 5.29947586 5.76566066 5 9 C3.85576759 11.77813634 2.48407171 14.38962387 1 17 C-0.32 16.34 -1.64 15.68 -3 15 C-3.81425425 16.12373096 -4.62634296 17.2490313 -5.4375 18.375 C-5.88996094 19.00148438 -6.34242187 19.62796875 -6.80859375 20.2734375 C-8.05530717 21.99402639 -8.05530717 21.99402639 -9 24 C-12.0625 24.625 -12.0625 24.625 -15 25 C-14.67 24.236875 -14.34 23.47375 -14 22.6875 C-12.82563314 20.00930865 -12.82563314 20.00930865 -13 17 C-11.02 16.67 -9.04 16.34 -7 16 C-8.32 15.34 -9.64 14.68 -11 14 C-10.34 13.34 -9.68 12.68 -9 12 C-9 11.34 -9 10.68 -9 10 C-7.68 9.67 -6.36 9.34 -5 9 C-5.66 8.67 -6.32 8.34 -7 8 C-7 7.34 -7 6.68 -7 6 C-6.01 6 -5.02 6 -4 6 C-4 5.34 -4 4.68 -4 4 C-2.68 3.67 -1.36 3.34 0 3 C0 2.01 0 1.02 0 0 Z " fill="#B42F24" transform="translate(86,25)"/>
<path d="M0 0 C0.66 0.66 1.32 1.32 2 2 C1.67 2.99 1.34 3.98 1 5 C1.66 5.33 2.32 5.66 3 6 C2.01 6.66 1.02 7.32 0 8 C0.33 8.99 0.66 9.98 1 11 C-0.32 11 -1.64 11 -3 11 C-3 11.99 -3 12.98 -3 14 C-3.66 14 -4.32 14 -5 14 C-5.28875 15.27875 -5.5775 16.5575 -5.875 17.875 C-6.54102483 20.82453855 -6.80202597 21.80202597 -9 24 C-10.32 24 -11.64 24 -13 24 C-13 24.99 -13 25.98 -13 27 C-14.65 27.66 -16.3 28.32 -18 29 C-18 26 -18 26 -15.9375 23.875 C-15.25300781 23.22337891 -15.25300781 23.22337891 -14.5546875 22.55859375 C-7.99849626 15.98592967 -3.86483691 8.36673486 0 0 Z " fill="#1B0403" transform="translate(92,30)"/>
<path d="M0 0 C0.99 0.33 1.98 0.66 3 1 C2.50899352 5.71193942 0.56486733 8.22407057 -2.4375 11.8125 C-3.24058594 12.78832031 -4.04367188 13.76414062 -4.87109375 14.76953125 C-5.92490234 15.87361328 -5.92490234 15.87361328 -7 17 C-7.66 17 -8.32 17 -9 17 C-9.33 14.69 -9.66 12.38 -10 10 C-9.40703125 9.75507812 -8.8140625 9.51015625 -8.203125 9.2578125 C-5.63301274 7.79047891 -4.45470034 6.27707775 -2.75 3.875 C-2.22921875 3.15054688 -1.7084375 2.42609375 -1.171875 1.6796875 C-0.78515625 1.12539063 -0.3984375 0.57109375 0 0 Z " fill="#F34225" transform="translate(83,39)"/>
<path d="M0 0 C1.9375 0.375 1.9375 0.375 4 1 C5.36952673 3.73905345 5.12621361 5.97087332 5 9 C4.67 9.66 4.34 10.32 4 11 C2.35 10.67 0.7 10.34 -1 10 C-1.125 3.375 -1.125 3.375 0 0 Z " fill="#E7322E" transform="translate(86,25)"/>
<path d="M0 0 C2.31 0.33 4.62 0.66 7 1 C7 1.99 7 2.98 7 4 C7.185625 5.010625 7.37125 6.02125 7.5625 7.0625 C8 10 8 10 7 12 C4.67843403 12.40729228 2.3431213 12.74438677 0 13 C-0.33 12.34 -0.66 11.68 -1 11 C0.65 11 2.3 11 4 11 C2.35 10.67 0.7 10.34 -1 10 C-0.67 9.34 -0.34 8.68 0 8 C2.0625 7.375 2.0625 7.375 4 7 C2.79618552 4.50638429 1.54571278 2.31856917 0 0 Z " fill="#84340F" transform="translate(60,50)"/>
<path d="M0 0 C0 0.66 0 1.32 0 2 C-0.99 2.33 -1.98 2.66 -3 3 C-3.33 3.99 -3.66 4.98 -4 6 C-3.34 6.33 -2.68 6.66 -2 7 C-2.66 7 -3.32 7 -4 7 C-4 7.66 -4 8.32 -4 9 C-4.66 9 -5.32 9 -6 9 C-6 9.66 -6 10.32 -6 11 C-5.34 11 -4.68 11 -4 11 C-4 11.99 -4 12.98 -4 14 C-4.66 14 -5.32 14 -6 14 C-7.6857258 11.42183113 -8.00779313 10.12469007 -7.8125 7 C-6.41018156 1.82220885 -5.56562511 0 0 0 Z " fill="#170304" transform="translate(101,19)"/>
<path d="M0 0 C1 3 1 3 0.00390625 5.26171875 C-0.47175781 6.06222656 -0.94742188 6.86273438 -1.4375 7.6875 C-2.14712891 8.89986328 -2.14712891 8.89986328 -2.87109375 10.13671875 C-3.42990234 11.05904297 -3.42990234 11.05904297 -4 12 C-5.65 12 -7.3 12 -9 12 C-8.34 11.01 -7.68 10.02 -7 9 C-7 8.34 -7 7.68 -7 7 C-5.68 6.67 -4.36 6.34 -3 6 C-3.66 5.67 -4.32 5.34 -5 5 C-5 4.34 -5 3.68 -5 3 C-4.01 3 -3.02 3 -2 3 C-2 2.34 -2 1.68 -2 1 C-1.34 0.67 -0.68 0.34 0 0 Z " fill="#1E0605" transform="translate(84,28)"/>
<path d="M0 0 C0.99 0.33 1.98 0.66 3 1 C2.5206753 5.31392226 1.2542015 7.16569547 -2 10 C-2 2 -2 2 0 0 Z " fill="#F1362B" transform="translate(83,39)"/>
<path d="M0 0 C0.66 0.66 1.32 1.32 2 2 C1.5359375 3.0828125 1.5359375 3.0828125 1.0625 4.1875 C0.07439461 6.80307309 -0.5287754 9.25118982 -1 12 C-3.12508244 8.81237635 -3.5020163 6.73487777 -4 3 C-2.68 2.01 -1.36 1.02 0 0 Z " fill="#170203" transform="translate(89,11)"/>
<path d="M0 0 C0.99 0.33 1.98 0.66 3 1 C3.8125 2.875 3.8125 2.875 4 5 C3.01 6.485 3.01 6.485 2 8 C0.68 8 -0.64 8 -2 8 C-2 7.34 -2 6.68 -2 6 C-1.01 5.34 -0.02 4.68 1 4 C0.67 2.68 0.34 1.36 0 0 Z " fill="#080101" transform="translate(83,20)"/>
<path d="M0 0 C1.32 0.66 2.64 1.32 4 2 C2.68 2 1.36 2 0 2 C0 2.99 0 3.98 0 5 C-1.65 5.66 -3.3 6.32 -5 7 C-5 6.01 -5 5.02 -5 4 C-2.5 1.8125 -2.5 1.8125 0 0 Z " fill="#0F0202" transform="translate(79,52)"/>
<path d="M0 0 C2.31 0.66 4.62 1.32 7 2 C7.33 3.32 7.66 4.64 8 6 C4.08597051 4.73058503 2.20927127 3.48832306 0 0 Z " fill="#311A0B" transform="translate(50,55)"/>
<path d="M0 0 C-0.33 1.98 -0.66 3.96 -1 6 C-2.65 6 -4.3 6 -6 6 C-5.34 5.01 -4.68 4.02 -4 3 C-4 2.34 -4 1.68 -4 1 C-2 0 -2 0 0 0 Z " fill="#080001" transform="translate(81,34)"/>
<path d="M0 0 C1.98 0.99 1.98 0.99 4 2 C4 3.32 4 4.64 4 6 C2.68 5.67 1.36 5.34 0 5 C0 3.35 0 1.7 0 0 Z " fill="#FD3129" transform="translate(85,30)"/>
<path d="M0 0 C0.33 0.66 0.66 1.32 1 2 C1.99 1.67 2.98 1.34 4 1 C4.66 1.66 5.32 2.32 6 3 C4.35 3.33 2.7 3.66 1 4 C0.34 3.01 -0.32 2.02 -1 1 C-0.67 0.67 -0.34 0.34 0 0 Z " fill="#5A350C" transform="translate(37,57)"/>
<path d="M0 0 C0.99 0.33 1.98 0.66 3 1 C3.33 2.65 3.66 4.3 4 6 C3.01 6.495 3.01 6.495 2 7 C0 5 0 5 -0.125 2.375 C-0.08375 1.59125 -0.0425 0.8075 0 0 Z " fill="#000003" transform="translate(57,11)"/>
<path d="M0 0 C0.99 0 1.98 0 3 0 C3.33 1.32 3.66 2.64 4 4 C2.68 3.67 1.36 3.34 0 3 C0 2.01 0 1.02 0 0 Z " fill="#DFC511" transform="translate(4,32)"/>
<path d="M0 0 C0.33 0.99 0.66 1.98 1 3 C1.66 3.33 2.32 3.66 3 4 C2.34 4 1.68 4 1 4 C1.33 4.99 1.66 5.98 2 7 C1.34 7 0.68 7 0 7 C0 4.69 0 2.38 0 0 Z " fill="#040101" transform="translate(69,10)"/>
<path d="M0 0 C0.33 1.32 0.66 2.64 1 4 C-0.65 4 -2.3 4 -4 4 C-3.01 3.67 -2.02 3.34 -1 3 C-0.67 2.01 -0.34 1.02 0 0 Z " fill="#A1450F" transform="translate(62,1)"/>
<path d="M0 0 C1.32 0.33 2.64 0.66 4 1 C3.01 1.66 2.02 2.32 1 3 C0.67 2.01 0.34 1.02 0 0 Z " fill="#1D0905" transform="translate(54,17)"/>
<path d="M0 0 C0.99 0.33 1.98 0.66 3 1 C2.67 1.99 2.34 2.98 2 4 C1.34 4 0.68 4 0 4 C0 2.68 0 1.36 0 0 Z " fill="#FC6919" transform="translate(61,7)"/>
<path d="M0 0 C0.99 0 1.98 0 3 0 C3 0.66 3 1.32 3 2 C1.35 2 -0.3 2 -2 2 C-1.34 1.34 -0.68 0.68 0 0 Z " fill="#915716" transform="translate(39,51)"/>
<path d="M0 0 C0.66 0.66 1.32 1.32 2 2 C1.34 2.66 0.68 3.32 0 4 C0 2.68 0 1.36 0 0 Z " fill="#2C0B05" transform="translate(58,47)"/>
<path d="M0 0 C0.99 0.33 1.98 0.66 3 1 C1.35 1.66 -0.3 2.32 -2 3 C-1.34 2.01 -0.68 1.02 0 0 Z " fill="#653408" transform="translate(47,44)"/>
<path d="M0 0 C0.66 0.33 1.32 0.66 2 1 C2 1.66 2 2.32 2 3 C1.01 2.67 0.02 2.34 -1 2 C-0.67 1.34 -0.34 0.68 0 0 Z " fill="#FC661B" transform="translate(62,54)"/>
<path d="M0 0 C0.66 0 1.32 0 2 0 C1.67 0.99 1.34 1.98 1 3 C0.67 2.01 0.34 1.02 0 0 Z " fill="#FC8C08" transform="translate(43,54)"/>
<path d="M0 0 C0.33 0.99 0.66 1.98 1 3 C0.34 3 -0.32 3 -1 3 C-0.67 2.01 -0.34 1.02 0 0 Z " fill="#FD790F" transform="translate(55,51)"/>
<path d="M0 0 C0 0.99 0 1.98 0 3 C-0.66 2.34 -1.32 1.68 -2 1 C-1.34 0.67 -0.68 0.34 0 0 Z " fill="#292017" transform="translate(46,35)"/>
<path d="M0 0 C1.32 0.33 2.64 0.66 4 1 C2.68 1.33 1.36 1.66 0 2 C0 1.34 0 0.68 0 0 Z " fill="#F9B611" transform="translate(18,7)"/>
<path d="M0 0 C0 3 0 3 0 3 Z " fill="#000104" transform="translate(46,42)"/>
<path d="M0 0 C4 1 4 1 4 1 Z " fill="#6D3C1C" transform="translate(53,39)"/>
<path d="M0 0 C0.66 0.66 1.32 1.32 2 2 C1.01 2.495 1.01 2.495 0 3 C0 2.01 0 1.02 0 0 Z " fill="#FA621E" transform="translate(66,13)"/>
<path d="M0 0 C0.66 0.66 1.32 1.32 2 2 C1.01 1.67 0.02 1.34 -1 1 C-0.67 0.67 -0.34 0.34 0 0 Z " fill="#030002" transform="translate(64,2)"/>
<path d="M0 0 C0.33 0.66 0.66 1.32 1 2 C0.34 1.67 -0.32 1.34 -1 1 C-0.67 0.67 -0.34 0.34 0 0 Z " fill="#2E1608" transform="translate(29,53)"/>
<path d="M0 0 C0.99 0.495 0.99 0.495 2 1 C1.01 1.495 1.01 1.495 0 2 C0 1.34 0 0.68 0 0 Z " fill="#FC8404" transform="translate(48,35)"/>
<path d="" fill="#F1611F" transform="translate(0,0)"/>
<path d="M0 0 C3 1 3 1 3 1 Z " fill="#53210E" transform="translate(68,22)"/>
<path d="M0 0 C0.99 0.495 0.99 0.495 2 1 C1.01 1.495 1.01 1.495 0 2 C0 1.34 0 0.68 0 0 Z " fill="#000006" transform="translate(59,22)"/>
<path d="M0 0 C0.99 0.495 0.99 0.495 2 1 C1.01 1.495 1.01 1.495 0 2 C0 1.34 0 0.68 0 0 Z " fill="#000001" transform="translate(71,17)"/>
<path d="" fill="#FD790E" transform="translate(0,0)"/>
<path d="M0 0 C0.99 0.495 0.99 0.495 2 1 C1.01 1.495 1.01 1.495 0 2 C0 1.34 0 0.68 0 0 Z " fill="#030002" transform="translate(48,8)"/>
<path d="M0 0 C0.99 0.495 0.99 0.495 2 1 C1.01 1.495 1.01 1.495 0 2 C0 1.34 0 0.68 0 0 Z " fill="#DD6E1D" transform="translate(56,3)"/>
<path d="M0 0 C2 1 2 1 2 1 Z " fill="#010006" transform="translate(45,58)"/>
<path d="" fill="#FB9907" transform="translate(0,0)"/>
<path d="" fill="#FB9907" transform="translate(0,0)"/>
<path d="" fill="#F37427" transform="translate(0,0)"/>
<path d="M0 0 C2 1 2 1 2 1 Z " fill="#F98810" transform="translate(48,51)"/>
<path d="M0 0 C2 1 2 1 2 1 Z " fill="#010001" transform="translate(87,46)"/>
<path d="M0 0 C2 1 2 1 2 1 Z " fill="#FC7F07" transform="translate(50,46)"/>
<path d="M0 0 C2 1 2 1 2 1 Z " fill="#311311" transform="translate(61,43)"/>
<path d="M0 0 C2 1 2 1 2 1 Z " fill="#FD7810" transform="translate(54,43)"/>
<path d="" fill="#FD8504" transform="translate(0,0)"/>
<path d="M0 0 C2 1 2 1 2 1 Z " fill="#F86D1B" transform="translate(61,40)"/>
<path d="M0 0 C2 1 2 1 2 1 Z " fill="#DAC715" transform="translate(4,37)"/>
<path d="M0 0 C2 1 2 1 2 1 Z " fill="#FE601B" transform="translate(63,24)"/>
<path d="M0 0 C2 1 2 1 2 1 Z " fill="#020001" transform="translate(57,20)"/>
<path d="" fill="#FB5E1E" transform="translate(0,0)"/>
<path d="M0 0 C2 1 2 1 2 1 Z " fill="#010001" transform="translate(71,10)"/>
<path d="M0 0 C2 1 2 1 2 1 Z " fill="#220000" transform="translate(58,10)"/>
<path d="M0 0 C2 1 2 1 2 1 Z " fill="#FC641C" transform="translate(65,9)"/>
<path d="M0 0 C2 1 2 1 2 1 Z " fill="#010001" transform="translate(93,8)"/>
<path d="" fill="#010003" transform="translate(0,0)"/>
<path d="M0 0 C2 1 2 1 2 1 Z " fill="#FB7016" transform="translate(58,6)"/>
<path d="" fill="#F9C826" transform="translate(0,0)"/>
<path d="" fill="#010005" transform="translate(0,0)"/>
<path d="" fill="#030000" transform="translate(0,0)"/>
<path d="M0 0 C2 1 2 1 2 1 Z " fill="#452B1A" transform="translate(58,2)"/>
<path d="" fill="#010003" transform="translate(0,0)"/>
<path d="" fill="#010101" transform="translate(0,0)"/>
<path d="" fill="#010001" transform="translate(0,0)"/>
<path d="" fill="#010200" transform="translate(0,0)"/>
<path d="" fill="#010111" transform="translate(0,0)"/>
<path d="" fill="#010200" transform="translate(0,0)"/>
<path d="" fill="#FE8806" transform="translate(0,0)"/>
<path d="" fill="#010005" transform="translate(0,0)"/>
<path d="" fill="#010001" transform="translate(0,0)"/>
<path d="" fill="#FD7315" transform="translate(0,0)"/>
<path d="" fill="#FD7315" transform="translate(0,0)"/>
<path d="" fill="#FD7315" transform="translate(0,0)"/>
<path d="" fill="#FC8203" transform="translate(0,0)"/>
<path d="" fill="#FE8806" transform="translate(0,0)"/>
<path d="" fill="#92450C" transform="translate(0,0)"/>
<path d="" fill="#020001" transform="translate(0,0)"/>
<path d="" fill="#EF8220" transform="translate(0,0)"/>
<path d="" fill="#000001" transform="translate(0,0)"/>
<path d="" fill="#010203" transform="translate(0,0)"/>
<path d="" fill="#010203" transform="translate(0,0)"/>
<path d="" fill="#FD7315" transform="translate(0,0)"/>
<path d="" fill="#010003" transform="translate(0,0)"/>
<path d="" fill="#010005" transform="translate(0,0)"/>
<path d="" fill="#FD7D0B" transform="translate(0,0)"/>
<path d="" fill="#FC8203" transform="translate(0,0)"/>
<path d="" fill="#FA940D" transform="translate(0,0)"/>
<path d="" fill="#FD7315" transform="translate(0,0)"/>
<path d="" fill="#FC8203" transform="translate(0,0)"/>
<path d="" fill="#010001" transform="translate(0,0)"/>
<path d="" fill="#CEC820" transform="translate(0,0)"/>
<path d="" fill="#010005" transform="translate(0,0)"/>
<path d="" fill="#FA6E18" transform="translate(0,0)"/>
<path d="" fill="#FD7D0B" transform="translate(0,0)"/>
<path d="" fill="#CAC325" transform="translate(0,0)"/>
<path d="" fill="#010005" transform="translate(0,0)"/>
<path d="" fill="#030001" transform="translate(0,0)"/>
<path d="" fill="#020001" transform="translate(0,0)"/>
<path d="" fill="#010200" transform="translate(0,0)"/>
<path d="" fill="#040000" transform="translate(0,0)"/>
<path d="" fill="#F3C401" transform="translate(0,0)"/>
<path d="" fill="#FD641A" transform="translate(0,0)"/>
<path d="" fill="#010101" transform="translate(0,0)"/>
<path d="" fill="#FA621F" transform="translate(0,0)"/>
<path d="" fill="#FD641A" transform="translate(0,0)"/>
<path d="" fill="#FE8806" transform="translate(0,0)"/>
<path d="" fill="#110302" transform="translate(0,0)"/>
<path d="" fill="#FA621F" transform="translate(0,0)"/>
<path d="" fill="#000100" transform="translate(0,0)"/>
<path d="" fill="#FD641A" transform="translate(0,0)"/>
<path d="" fill="#EF8220" transform="translate(0,0)"/>
<path d="" fill="#FC8203" transform="translate(0,0)"/>
<path d="" fill="#FD7D0B" transform="translate(0,0)"/>
<path d="" fill="#FD641A" transform="translate(0,0)"/>
<path d="" fill="#291919" transform="translate(0,0)"/>
<path d="" fill="#010104" transform="translate(0,0)"/>
<path d="" fill="#FD7D0B" transform="translate(0,0)"/>
<path d="" fill="#F8C01E" transform="translate(0,0)"/>
<path d="" fill="#FD7315" transform="translate(0,0)"/>
<path d="" fill="#FD7D0B" transform="translate(0,0)"/>
<path d="" fill="#FA621F" transform="translate(0,0)"/>
<path d="" fill="#EF8220" transform="translate(0,0)"/>
<path d="" fill="#010003" transform="translate(0,0)"/>
<path d="" fill="#080501" transform="translate(0,0)"/>
<path d="" fill="#F8C01E" transform="translate(0,0)"/>
<path d="" fill="#000100" transform="translate(0,0)"/>
<path d="" fill="#000001" transform="translate(0,0)"/>
<path d="" fill="#000000" transform="translate(0,0)"/>
<path d="" fill="#000000" transform="translate(0,0)"/>
</svg>
