<?xml version="1.0" encoding="UTF-8"?>
<svg version="1.1" xmlns="http://www.w3.org/2000/svg" width="190" height="109">
<path d="M0 0 C2.3125 -0.25 2.3125 -0.25 5 0 C6.8125 1.75 6.8125 1.75 8 4 C8 5.32 8 6.64 8 8 C8.66 8.33 9.32 8.66 10 9 C9.01 9 8.02 9 7 9 C7.33 9.99 7.66 10.98 8 12 C6.35 12 4.7 12 3 12 C3.99 10.68 4.98 9.36 6 8 C5.34 8 4.68 8 4 8 C3.67 7.01 3.34 6.02 3 5 C1.35 5 -0.3 5 -2 5 C-2 4.34 -2 3.68 -2 3 C-1.34 3 -0.68 3 0 3 C0 2.01 0 1.02 0 0 Z " fill="#08060F" transform="translate(180,51)"/>
<path d="M0 0 C0.99 0.33 1.98 0.66 3 1 C4.1875 3.5625 4.1875 3.5625 5 6 C3.02 6.33 1.04 6.66 -1 7 C-1.04254356 5.00045254 -1.04080783 2.99958364 -1 1 C-0.67 0.67 -0.34 0.34 0 0 Z " fill="#FC2940" transform="translate(117,47)"/>
<path d="M0 0 C1.37478516 0.01740234 1.37478516 0.01740234 2.77734375 0.03515625 C3.69644531 0.04417969 4.61554688 0.05320312 5.5625 0.0625 C6.27277344 0.07410156 6.98304687 0.08570313 7.71484375 0.09765625 C7.38484375 1.08765625 7.05484375 2.07765625 6.71484375 3.09765625 C5.39484375 2.43765625 4.07484375 1.77765625 2.71484375 1.09765625 C2.38484375 2.74765625 2.05484375 4.39765625 1.71484375 6.09765625 C1.38484375 4.77765625 1.05484375 3.45765625 0.71484375 2.09765625 C-0.60515625 1.76765625 -1.92515625 1.43765625 -3.28515625 1.09765625 C-2.28515625 0.09765625 -2.28515625 0.09765625 0 0 Z " fill="#88191D" transform="translate(102.28515625,14.90234375)"/>
<path d="M0 0 C1.32 0.66 2.64 1.32 4 2 C3.54625 2.598125 3.0925 3.19625 2.625 3.8125 C1.36704087 5.50590652 0.17015276 7.24477086 -1 9 C-2.25640898 6.48718205 -2.20872719 4.78302919 -2 2 C-1.34 1.34 -0.68 0.68 0 0 Z M0 1 C1 3 1 3 1 3 Z " fill="#761720" transform="translate(116,77)"/>
<path d="M0 0 C1.98 0.495 1.98 0.495 4 1 C4.33 2.65 4.66 4.3 5 6 C3.68 6.33 2.36 6.66 1 7 C1 6.34 1 5.68 1 5 C0.34 4.67 -0.32 4.34 -1 4 C-0.67 3.34 -0.34 2.68 0 2 C0.66 2.33 1.32 2.66 2 3 C2 2.34 2 1.68 2 1 C1.34 0.67 0.68 0.34 0 0 Z " fill="#481B3C" transform="translate(152,90)"/>
<path d="M0 0 C2.31 0 4.62 0 7 0 C7.33 1.65 7.66 3.3 8 5 C7.34 5 6.68 5 6 5 C5.67 4.01 5.34 3.02 5 2 C3.35 2 1.7 2 0 2 C0 1.34 0 0.68 0 0 Z " fill="#573FA1" transform="translate(178,54)"/>
<path d="M0 0 C1.32 0.33 2.64 0.66 4 1 C4 1.66 4 2.32 4 3 C4.66 2.34 5.32 1.68 6 1 C6 2.32 6 3.64 6 5 C5.01 5.33 4.02 5.66 3 6 C0 2.25 0 2.25 0 0 Z " fill="#A62128" transform="translate(107,31)"/>
<path d="M0 0 C0.66 0 1.32 0 2 0 C2.66 1.98 3.32 3.96 4 6 C1.69 6.33 -0.62 6.66 -3 7 C-2.01 6.34 -1.02 5.68 0 5 C0.25030977 2.41619823 0.25030977 2.41619823 0 0 Z " fill="#451C4F" transform="translate(160,100)"/>
<path d="M0 0 C0.99 0 1.98 0 3 0 C3.33 1.32 3.66 2.64 4 4 C2.35 4.33 0.7 4.66 -1 5 C-0.67 3.35 -0.34 1.7 0 0 Z M0 2 C0.33 2.66 0.66 3.32 1 4 C1.33 3.34 1.66 2.68 2 2 C1.34 2 0.68 2 0 2 Z " fill="#CB5D20" transform="translate(68,78)"/>
<path d="M0 0 C1.32 0.33 2.64 0.66 4 1 C3.67 2.32 3.34 3.64 3 5 C2.01 4.67 1.02 4.34 0 4 C0 2.68 0 1.36 0 0 Z " fill="#FC2940" transform="translate(116,68)"/>
<path d="M0 0 C0.66 0.33 1.32 0.66 2 1 C1.67 1.66 1.34 2.32 1 3 C1.66 3.33 2.32 3.66 3 4 C3.33 4.66 3.66 5.32 4 6 C2.35 5.67 0.7 5.34 -1 5 C-0.67 3.35 -0.34 1.7 0 0 Z " fill="#563A93" transform="translate(177,61)"/>
<path d="M0 0 C2.475 0.99 2.475 0.99 5 2 C5 2.66 5 3.32 5 4 C3.02 4.99 3.02 4.99 1 6 C0.67 4.02 0.34 2.04 0 0 Z " fill="#4D1D0A" transform="translate(68,57)"/>
<path d="M0 0 C2.375 0.3125 2.375 0.3125 5 1 C5.66 1.99 6.32 2.98 7 4 C6.01 4 5.02 4 4 4 C4 3.34 4 2.68 4 2 C2.68 1.67 1.36 1.34 0 1 C0 0.67 0 0.34 0 0 Z " fill="#291029" transform="translate(157,56)"/>
<path d="M0 0 C2.97 0.495 2.97 0.495 6 1 C6 1.66 6 2.32 6 3 C3.69 3.33 1.38 3.66 -1 4 C-0.67 2.68 -0.34 1.36 0 0 Z " fill="#9D1B29" transform="translate(119,56)"/>
<path d="M0 0 C0.99 0.33 1.98 0.66 3 1 C2.34 1 1.68 1 1 1 C1.33 1.99 1.66 2.98 2 4 C1.34 4.66 0.68 5.32 0 6 C-0.66 5.34 -1.32 4.68 -2 4 C-1.34 2.68 -0.68 1.36 0 0 Z " fill="#370D19" transform="translate(140,31)"/>
<path d="M0 0 C0 0.99 0 1.98 0 3 C-1.98 3.66 -3.96 4.32 -6 5 C-2.25 1.125 -2.25 1.125 0 0 Z " fill="#120405" transform="translate(112,102)"/>
<path d="M0 0 C0.66 0.66 1.32 1.32 2 2 C1.625 4.625 1.625 4.625 1 7 C0.34 7 -0.32 7 -1 7 C-1.33 6.01 -1.66 5.02 -2 4 C-1.34 4 -0.68 4 0 4 C0 2.68 0 1.36 0 0 Z " fill="#FA2A43" transform="translate(121,23)"/>
<path d="M0 0 C0.99 0.33 1.98 0.66 3 1 C3.99 1 4.98 1 6 1 C5.34 1.66 4.68 2.32 4 3 C2.68 3 1.36 3 0 3 C0 2.01 0 1.02 0 0 Z " fill="#561626" transform="translate(137,101)"/>
<path d="M0 0 C1.32 1.32 2.64 2.64 4 4 C3.01 4.33 2.02 4.66 1 5 C1 4.34 1 3.68 1 3 C0.34 2.67 -0.32 2.34 -1 2 C-0.67 1.34 -0.34 0.68 0 0 Z " fill="#C545A0" transform="translate(150,94)"/>
<path d="M0 0 C0.99 0 1.98 0 3 0 C3.33 1.32 3.66 2.64 4 4 C2.68 3.67 1.36 3.34 0 3 C0 2.01 0 1.02 0 0 Z " fill="#F62E38" transform="translate(107,22)"/>
<path d="M0 0 C1.65 0 3.3 0 5 0 C4.67 0.99 4.34 1.98 4 3 C3.34 3 2.68 3 2 3 C2 2.34 2 1.68 2 1 C1.34 0.67 0.68 0.34 0 0 Z " fill="#38194B" transform="translate(164,101)"/>
<path d="M0 0 C0.33 0.66 0.66 1.32 1 2 C1.99 2.33 2.98 2.66 4 3 C1.3333581 4.33332095 -0.16680303 3.67102033 -3 3 C-2.01 2.67 -1.02 2.34 0 2 C0 1.34 0 0.68 0 0 Z " fill="#8C306C" transform="translate(151,65)"/>
<path d="M0 0 C0.66 0 1.32 0 2 0 C1.67 1.32 1.34 2.64 1 4 C0.01 4 -0.98 4 -2 4 C-1.34 2.68 -0.68 1.36 0 0 Z " fill="#160513" transform="translate(155,61)"/>
<path d="M0 0 C0.99 0.495 0.99 0.495 2 1 C1.67 2.32 1.34 3.64 1 5 C0.67 5 0.34 5 0 5 C0 3.35 0 1.7 0 0 Z " fill="#954EDA" transform="translate(169,91)"/>
<path d="M0 0 C1.32 0 2.64 0 4 0 C4.33 0.99 4.66 1.98 5 3 C2.525 2.01 2.525 2.01 0 1 C0 0.67 0 0.34 0 0 Z " fill="#DF3826" transform="translate(87,58)"/>
<path d="M0 0 C0.99 0.33 1.98 0.66 3 1 C2.34 2.32 1.68 3.64 1 5 C0.67 5 0.34 5 0 5 C0 3.35 0 1.7 0 0 Z " fill="#954DD9" transform="translate(169,55)"/>
<path d="M0 0 C0 0.99 0 1.98 0 3 C-0.99 3 -1.98 3 -3 3 C-2.01 2.01 -1.02 1.02 0 0 Z " fill="#33080C" transform="translate(124,52)"/>
<path d="M0 0 C0.66 0.33 1.32 0.66 2 1 C1.67 1.66 1.34 2.32 1 3 C0.01 3.33 -0.98 3.66 -2 4 C-1.34 2.68 -0.68 1.36 0 0 Z " fill="#611723" transform="translate(132,36)"/>
<path d="M0 0 C0.66 0 1.32 0 2 0 C2.33 1.32 2.66 2.64 3 4 C2.01 3.67 1.02 3.34 0 3 C0 2.01 0 1.02 0 0 Z " fill="#370C14" transform="translate(136,0)"/>
<path d="M0 0 C0.66 0 1.32 0 2 0 C2 1.65 2 3.3 2 5 C0 1.125 0 1.125 0 0 Z " fill="#B646B5" transform="translate(156,98)"/>
<path d="M0 0 C1.65 0 3.3 0 5 0 C5 0.66 5 1.32 5 2 C3.35 1.67 1.7 1.34 0 1 C0 0.67 0 0.34 0 0 Z " fill="#F52B42" transform="translate(116,43)"/>
<path d="M0 0 C0.33 0.66 0.66 1.32 1 2 C1.99 2.33 2.98 2.66 4 3 C2.68 3.33 1.36 3.66 0 4 C0 2.68 0 1.36 0 0 Z " fill="#CA305B" transform="translate(137,25)"/>
<path d="M0 0 C1.65 0 3.3 0 5 0 C2 2 2 2 0 2 C0 1.34 0 0.68 0 0 Z " fill="#300408" transform="translate(111,22)"/>
<path d="M0 0 C2.475 0.495 2.475 0.495 5 1 C3.68 1.33 2.36 1.66 1 2 C0.67 1.34 0.34 0.68 0 0 Z " fill="#B0500F" transform="translate(65,91)"/>
<path d="M0 0 C1.32 0.33 2.64 0.66 4 1 C3.34 1.66 2.68 2.32 2 3 C2 2.34 2 1.68 2 1 C1.34 0.67 0.68 0.34 0 0 Z " fill="#0E0101" transform="translate(124,86)"/>
<path d="M0 0 C0.33 0.99 0.66 1.98 1 3 C0.01 2.67 -0.98 2.34 -2 2 C-1.34 1.34 -0.68 0.68 0 0 Z " fill="#382107" transform="translate(45,85)"/>
<path d="M0 0 C0.99 0 1.98 0 3 0 C2.67 1.32 2.34 2.64 2 4 C2 3.01 2 2.02 2 1 C1.34 0.67 0.68 0.34 0 0 Z " fill="#2E1024" transform="translate(150,77)"/>
<path d="M0 0 C0.66 0 1.32 0 2 0 C1.67 0.99 1.34 1.98 1 3 C0.34 2.67 -0.32 2.34 -1 2 C-0.67 1.34 -0.34 0.68 0 0 Z " fill="#F62D3F" transform="translate(117,73)"/>
<path d="M0 0 C0.66 0 1.32 0 2 0 C2 0.99 2 1.98 2 3 C1.34 3 0.68 3 0 3 C0 2.01 0 1.02 0 0 Z " fill="#A64480" transform="translate(147,61)"/>
<path d="M0 0 C0.66 0 1.32 0 2 0 C1.67 0.99 1.34 1.98 1 3 C0.34 2.34 -0.32 1.68 -1 1 C-0.67 0.67 -0.34 0.34 0 0 Z " fill="#9D2635" transform="translate(128,55)"/>
<path d="M0 0 C1.32 0.33 2.64 0.66 4 1 C3.01 1.33 2.02 1.66 1 2 C0.67 1.34 0.34 0.68 0 0 Z " fill="#FB641C" transform="translate(72,55)"/>
<path d="M0 0 C1.65 0 3.3 0 5 0 C4.01 0.66 3.02 1.32 2 2 C1.34 1.34 0.68 0.68 0 0 Z " fill="#A04AD8" transform="translate(165,53)"/>
<path d="M0 0 C0.66 0 1.32 0 2 0 C1.67 1.32 1.34 2.64 1 4 C0.67 2.68 0.34 1.36 0 0 Z " fill="#A12232" transform="translate(123,29)"/>
<path d="M0 0 C0 0.99 0 1.98 0 3 C-0.66 3 -1.32 3 -2 3 C-2 2.34 -2 1.68 -2 1 C-1.34 0.67 -0.68 0.34 0 0 Z " fill="#070100" transform="translate(143,23)"/>
<path d="M0 0 C1.32 0.33 2.64 0.66 4 1 C3.01 1.33 2.02 1.66 1 2 C0.67 1.34 0.34 0.68 0 0 Z " fill="#35110D" transform="translate(81,103)"/>
<path d="M0 0 C0.33 1.32 0.66 2.64 1 4 C0.34 3.34 -0.32 2.68 -1 2 C-0.67 1.34 -0.34 0.68 0 0 Z " fill="#E7376F" transform="translate(139,98)"/>
<path d="M0 0 C0.66 0 1.32 0 2 0 C2.33 0.99 2.66 1.98 3 3 C2.34 3 1.68 3 1 3 C0.67 2.01 0.34 1.02 0 0 Z " fill="#1B080F" transform="translate(151,84)"/>
<path d="M0 0 C0.66 0 1.32 0 2 0 C1.67 1.32 1.34 2.64 1 4 C0.67 2.68 0.34 1.36 0 0 Z " fill="#2F150C" transform="translate(44,80)"/>
<path d="M0 0 C0.66 0.66 1.32 1.32 2 2 C1.34 2.66 0.68 3.32 0 4 C0 2.68 0 1.36 0 0 Z " fill="#E02E43" transform="translate(123,71)"/>
<path d="M0 0 C0.99 0 1.98 0 3 0 C2.67 0.66 2.34 1.32 2 2 C1.34 2 0.68 2 0 2 C0 1.34 0 0.68 0 0 Z " fill="#784C15" transform="translate(44,72)"/>
<path d="M0 0 C0 0.99 0 1.98 0 3 C-0.66 2.34 -1.32 1.68 -2 1 C-1.34 0.67 -0.68 0.34 0 0 Z " fill="#463411" transform="translate(28,71)"/>
<path d="M0 0 C0.33 0.66 0.66 1.32 1 2 C0.34 2.66 -0.32 3.32 -1 4 C-0.67 2.68 -0.34 1.36 0 0 Z " fill="#2F1804" transform="translate(38,68)"/>
<path d="M0 0 C0.99 0 1.98 0 3 0 C3 0.66 3 1.32 3 2 C2.01 1.67 1.02 1.34 0 1 C0 0.67 0 0.34 0 0 Z " fill="#D13050" transform="translate(130,47)"/>
<path d="M0 0 C0.66 0.66 1.32 1.32 2 2 C1.01 2 0.02 2 -1 2 C-0.67 1.34 -0.34 0.68 0 0 Z " fill="#070000" transform="translate(124,45)"/>
<path d="M0 0 C0.99 0 1.98 0 3 0 C2.67 0.99 2.34 1.98 2 3 C2 2.34 2 1.68 2 1 C1.34 0.67 0.68 0.34 0 0 Z " fill="#F03162" transform="translate(134,39)"/>
<path d="M0 0 C1.32 0.33 2.64 0.66 4 1 C3.01 1.33 2.02 1.66 1 2 C0.67 1.34 0.34 0.68 0 0 Z " fill="#30090B" transform="translate(123,35)"/>
<path d="M0 0 C1.485 0.99 1.485 0.99 3 2 C2.01 2.33 1.02 2.66 0 3 C0 2.01 0 1.02 0 0 Z " fill="#E12F28" transform="translate(99,12)"/>
<path d="M0 0 C0.66 0 1.32 0 2 0 C1.67 1.32 1.34 2.64 1 4 C0.67 2.68 0.34 1.36 0 0 Z " fill="#F82A51" transform="translate(130,4)"/>
<path d="M0 0 C1.485 0.99 1.485 0.99 3 2 C2.01 2 1.02 2 0 2 C0 1.34 0 0.68 0 0 Z " fill="#20080D" transform="translate(133,105)"/>
<path d="M0 0 C4 1 4 1 4 1 Z " fill="#F22F59" transform="translate(131,103)"/>
<path d="M0 0 C0.66 0.33 1.32 0.66 2 1 C1.01 1 0.02 1 -1 1 C-0.67 0.67 -0.34 0.34 0 0 Z " fill="#EB3461" transform="translate(135,98)"/>
<path d="M0 0 C0.66 0 1.32 0 2 0 C1.67 0.99 1.34 1.98 1 3 C0.67 2.01 0.34 1.02 0 0 Z " fill="#9A4BD5" transform="translate(167,96)"/>
<path d="M0 0 C4 1 4 1 4 1 Z " fill="#FC2C36" transform="translate(106,98)"/>
<path d="M0 0 C0.66 0 1.32 0 2 0 C2 0.66 2 1.32 2 2 C1.34 2 0.68 2 0 2 C0 1.34 0 0.68 0 0 Z " fill="#9949CE" transform="translate(167,88)"/>
<path d="M0 0 C1.485 0.99 1.485 0.99 3 2 C2.01 2 1.02 2 0 2 C0 1.34 0 0.68 0 0 Z " fill="#471627" transform="translate(138,87)"/>
<path d="M0 0 C0.66 0.66 1.32 1.32 2 2 C1.01 1.67 0.02 1.34 -1 1 C-0.67 0.67 -0.34 0.34 0 0 Z " fill="#DA3F87" transform="translate(144,84)"/>
<path d="M0 0 C4 1 4 1 4 1 Z " fill="#9250D8" transform="translate(170,82)"/>
<path d="M0 0 C0.66 0 1.32 0 2 0 C2 0.66 2 1.32 2 2 C1.34 2 0.68 2 0 2 C0 1.34 0 0.68 0 0 Z " fill="#090001" transform="translate(130,73)"/>
<path d="M0 0 C0 3 0 3 0 3 Z " fill="#040002" transform="translate(154,69)"/>
<path d="M0 0 C4 1 4 1 4 1 Z " fill="#B52637" transform="translate(123,69)"/>
<path d="M0 0 C0.99 0.33 1.98 0.66 3 1 C2.01 1 1.02 1 0 1 C0 0.67 0 0.34 0 0 Z " fill="#FD2842" transform="translate(117,64)"/>
<path d="M0 0 C0.99 0.495 0.99 0.495 2 1 C1.34 1.66 0.68 2.32 0 3 C0 2.01 0 1.02 0 0 Z " fill="#010101" transform="translate(134,64)"/>
<path d="M0 0 C0.99 0.33 1.98 0.66 3 1 C2.01 1.33 1.02 1.66 0 2 C0 1.34 0 0.68 0 0 Z " fill="#FA601E" transform="translate(74,63)"/>
<path d="M0 0 C0.66 0.33 1.32 0.66 2 1 C1.01 1 0.02 1 -1 1 C-0.67 0.67 -0.34 0.34 0 0 Z " fill="#554013" transform="translate(26,45)"/>
<path d="M0 0 C0.99 0.495 0.99 0.495 2 1 C1.34 1.66 0.68 2.32 0 3 C0 2.01 0 1.02 0 0 Z " fill="#000001" transform="translate(126,29)"/>
<path d="M0 0 C0.66 0 1.32 0 2 0 C2 0.66 2 1.32 2 2 C1.34 2 0.68 2 0 2 C0 1.34 0 0.68 0 0 Z " fill="#FE2B35" transform="translate(107,19)"/>
<path d="M0 0 C1 4 1 4 1 4 Z " fill="#010104" transform="translate(130,12)"/>
<path d="M0 0 C0.99 0.495 0.99 0.495 2 1 C1.01 1.495 1.01 1.495 0 2 C0 1.34 0 0.68 0 0 Z " fill="#996314" transform="translate(45,104)"/>
<path d="M0 0 C0.66 0.66 1.32 1.32 2 2 C1.34 2 0.68 2 0 2 C0 1.34 0 0.68 0 0 Z " fill="#1C190F" transform="translate(3,100)"/>
<path d="" fill="#FE2842" transform="translate(0,0)"/>
<path d="M0 0 C0.99 0.495 0.99 0.495 2 1 C1.01 1.495 1.01 1.495 0 2 C0 1.34 0 0.68 0 0 Z " fill="#954FDF" transform="translate(170,87)"/>
<path d="" fill="#984CDD" transform="translate(0,0)"/>
<path d="M0 0 C0.66 0.66 1.32 1.32 2 2 C1.34 2 0.68 2 0 2 C0 1.34 0 0.68 0 0 Z " fill="#3D102D" transform="translate(151,81)"/>
<path d="M0 0 C0.66 0 1.32 0 2 0 C1.67 0.66 1.34 1.32 1 2 C0.67 1.34 0.34 0.68 0 0 Z " fill="#D7418C" transform="translate(144,82)"/>
<path d="" fill="#010102" transform="translate(0,0)"/>
<path d="M0 0 C0.66 0 1.32 0 2 0 C1.67 0.66 1.34 1.32 1 2 C0.67 1.34 0.34 0.68 0 0 Z " fill="#944DD4" transform="translate(168,75)"/>
<path d="M0 0 C0.99 0.495 0.99 0.495 2 1 C1.01 1.495 1.01 1.495 0 2 C0 1.34 0 0.68 0 0 Z " fill="#54193C" transform="translate(151,74)"/>
<path d="M0 0 C3 1 3 1 3 1 Z " fill="#130204" transform="translate(102,73)"/>
<path d="M0 0 C0.66 0 1.32 0 2 0 C1.67 0.66 1.34 1.32 1 2 C0.67 1.34 0.34 0.68 0 0 Z " fill="#F32C4F" transform="translate(127,72)"/>
<path d="M0 0 C0.66 0 1.32 0 2 0 C1.67 0.66 1.34 1.32 1 2 C0.67 1.34 0.34 0.68 0 0 Z " fill="#FC3629" transform="translate(92,71)"/>
<path d="M0 0 C3 1 3 1 3 1 Z " fill="#954FDA" transform="translate(169,70)"/>
<path d="M0 0 C0.33 0.66 0.66 1.32 1 2 C0.34 1.67 -0.32 1.34 -1 1 C-0.67 0.67 -0.34 0.34 0 0 Z " fill="#8E53DC" transform="translate(173,67)"/>
<path d="M0 0 C0.99 0.495 0.99 0.495 2 1 C1.01 1.495 1.01 1.495 0 2 C0 1.34 0 0.68 0 0 Z " fill="#14110C" transform="translate(54,67)"/>
<path d="M0 0 C0.66 0 1.32 0 2 0 C1.67 0.66 1.34 1.32 1 2 C0.67 1.34 0.34 0.68 0 0 Z " fill="#F32D49" transform="translate(126,64)"/>
<path d="M0 0 C0.66 0.66 1.32 1.32 2 2 C1.34 2 0.68 2 0 2 C0 1.34 0 0.68 0 0 Z " fill="#000003" transform="translate(164,62)"/>
<path d="" fill="#010001" transform="translate(0,0)"/>
<path d="M0 0 C0.33 0.66 0.66 1.32 1 2 C0.34 1.67 -0.32 1.34 -1 1 C-0.67 0.67 -0.34 0.34 0 0 Z " fill="#000101" transform="translate(137,59)"/>
<path d="M0 0 C0.66 0.66 1.32 1.32 2 2 C1.34 2 0.68 2 0 2 C0 1.34 0 0.68 0 0 Z " fill="#FDA301" transform="translate(40,57)"/>
<path d="M0 0 C0.99 0.495 0.99 0.495 2 1 C1.01 1.495 1.01 1.495 0 2 C0 1.34 0 0.68 0 0 Z " fill="#EE462F" transform="translate(88,55)"/>
<path d="M0 0 C3 1 3 1 3 1 Z " fill="#FD7611" transform="translate(63,54)"/>
<path d="M0 0 C0.66 0.66 1.32 1.32 2 2 C1.34 2 0.68 2 0 2 C0 1.34 0 0.68 0 0 Z " fill="#EC325B" transform="translate(133,41)"/>
<path d="M0 0 C0.99 0.495 0.99 0.495 2 1 C1.01 1.495 1.01 1.495 0 2 C0 1.34 0 0.68 0 0 Z " fill="#000007" transform="translate(28,41)"/>
<path d="M0 0 C0.66 0.66 1.32 1.32 2 2 C1.34 2 0.68 2 0 2 C0 1.34 0 0.68 0 0 Z " fill="#2F0509" transform="translate(139,38)"/>
<path d="M0 0 C3 1 3 1 3 1 Z " fill="#DB3C69" transform="translate(136,37)"/>
<path d="M0 0 C3 1 3 1 3 1 Z " fill="#251B15" transform="translate(38,37)"/>
<path d="M0 0 C3 1 3 1 3 1 Z " fill="#FC2841" transform="translate(120,32)"/>
<path d="" fill="#FE2C33" transform="translate(0,0)"/>
<path d="M0 0 C0.66 0 1.32 0 2 0 C1.67 0.66 1.34 1.32 1 2 C0.67 1.34 0.34 0.68 0 0 Z " fill="#040000" transform="translate(141,15)"/>
<path d="M0 0 C0.66 0.66 1.32 1.32 2 2 C1.34 2 0.68 2 0 2 C0 1.34 0 0.68 0 0 Z " fill="#FD302B" transform="translate(96,9)"/>
<path d="M0 0 C0.66 0 1.32 0 2 0 C1.67 0.66 1.34 1.32 1 2 C0.67 1.34 0.34 0.68 0 0 Z " fill="#F92846" transform="translate(126,9)"/>
<path d="M0 0 C3 1 3 1 3 1 Z " fill="#1E0809" transform="translate(139,8)"/>
<path d="M0 0 C2 1 2 1 2 1 Z " fill="#000000" transform="translate(126,107)"/>
<path d="M0 0 C2 1 2 1 2 1 Z " fill="#010203" transform="translate(155,105)"/>
<path d="M0 0 C2 1 2 1 2 1 Z " fill="#000000" transform="translate(80,105)"/>
<path d="M0 0 C2 1 2 1 2 1 Z " fill="#000003" transform="translate(152,104)"/>
<path d="M0 0 C2 1 2 1 2 1 Z " fill="#EC335E" transform="translate(134,101)"/>
<path d="M0 0 C2 1 2 1 2 1 Z " fill="#000100" transform="translate(116,100)"/>
<path d="M0 0 C2 1 2 1 2 1 Z " fill="#FB2D36" transform="translate(108,100)"/>
<path d="M0 0 C2 1 2 1 2 1 Z " fill="#DF3A66" transform="translate(136,96)"/>
<path d="" fill="#000004" transform="translate(0,0)"/>
<path d="M0 0 C2 1 2 1 2 1 Z " fill="#000000" transform="translate(134,94)"/>
<path d="" fill="#B3C62A" transform="translate(0,0)"/>
<path d="M0 0 C2 1 2 1 2 1 Z " fill="#DB3D7D" transform="translate(139,92)"/>
<path d="M0 0 C2 1 2 1 2 1 Z " fill="#000002" transform="translate(174,91)"/>
<path d="M0 0 C2 1 2 1 2 1 Z " fill="#FB293F" transform="translate(118,90)"/>
<path d="M0 0 C2 1 2 1 2 1 Z " fill="#DC3E83" transform="translate(143,87)"/>
<path d="" fill="#010001" transform="translate(0,0)"/>
<path d="" fill="#CE4193" transform="translate(0,0)"/>
<path d="" fill="#FE2941" transform="translate(0,0)"/>
<path d="" fill="#AA4F99" transform="translate(0,0)"/>
<path d="M0 0 C2 1 2 1 2 1 Z " fill="#D7408A" transform="translate(144,80)"/>
<path d="" fill="#944EDE" transform="translate(0,0)"/>
<path d="M0 0 C2 1 2 1 2 1 Z " fill="#000100" transform="translate(130,78)"/>
<path d="" fill="#34255C" transform="translate(0,0)"/>
<path d="" fill="#000002" transform="translate(0,0)"/>
<path d="M0 0 C2 1 2 1 2 1 Z " fill="#FC2844" transform="translate(120,73)"/>
<path d="" fill="#FB312D" transform="translate(0,0)"/>
<path d="M0 0 C2 1 2 1 2 1 Z " fill="#010000" transform="translate(142,71)"/>
<path d="M0 0 C2 1 2 1 2 1 Z " fill="#000002" transform="translate(112,71)"/>
<path d="M0 0 C2 1 2 1 2 1 Z " fill="#EFA625" transform="translate(39,71)"/>
<path d="M0 0 C2 1 2 1 2 1 Z " fill="#D4418F" transform="translate(146,70)"/>
<path d="" fill="#FB293F" transform="translate(0,0)"/>
<path d="M0 0 C2 1 2 1 2 1 Z " fill="#F68513" transform="translate(57,68)"/>
<path d="" fill="#FB631C" transform="translate(0,0)"/>
<path d="" fill="#9C4AD5" transform="translate(0,0)"/>
<path d="M0 0 C2 1 2 1 2 1 Z " fill="#7B4310" transform="translate(55,65)"/>
<path d="" fill="#0B0713" transform="translate(0,0)"/>
<path d="M0 0 C2 1 2 1 2 1 Z " fill="#FE2941" transform="translate(118,62)"/>
<path d="M0 0 C2 1 2 1 2 1 Z " fill="#FABE11" transform="translate(22,61)"/>
<path d="M0 0 C2 1 2 1 2 1 Z " fill="#0E0000" transform="translate(107,60)"/>
<path d="" fill="#A648CE" transform="translate(0,0)"/>
<path d="M0 0 C2 1 2 1 2 1 Z " fill="#F82B52" transform="translate(131,59)"/>
<path d="" fill="#010103" transform="translate(0,0)"/>
<path d="M0 0 C2 1 2 1 2 1 Z " fill="#9947C7" transform="translate(163,57)"/>
<path d="" fill="#000001" transform="translate(0,0)"/>
<path d="M0 0 C2 1 2 1 2 1 Z " fill="#AC47C5" transform="translate(161,53)"/>
<path d="M0 0 C2 1 2 1 2 1 Z " fill="#000100" transform="translate(126,53)"/>
<path d="M0 0 C2 1 2 1 2 1 Z " fill="#000002" transform="translate(138,50)"/>
<path d="M0 0 C2 1 2 1 2 1 Z " fill="#F9C010" transform="translate(22,44)"/>
<path d="" fill="#010003" transform="translate(0,0)"/>
<path d="M0 0 C2 1 2 1 2 1 Z " fill="#FAAF06" transform="translate(32,42)"/>
<path d="" fill="#010007" transform="translate(0,0)"/>
<path d="M0 0 C2 1 2 1 2 1 Z " fill="#FE2941" transform="translate(118,39)"/>
<path d="M0 0 C2 1 2 1 2 1 Z " fill="#AC212B" transform="translate(109,39)"/>
<path d="M0 0 C2 1 2 1 2 1 Z " fill="#020000" transform="translate(39,39)"/>
<path d="" fill="#240601" transform="translate(0,0)"/>
<path d="M0 0 C2 1 2 1 2 1 Z " fill="#D4355B" transform="translate(133,35)"/>
<path d="" fill="#F32F5C" transform="translate(0,0)"/>
<path d="" fill="#010200" transform="translate(0,0)"/>
<path d="M0 0 C2 1 2 1 2 1 Z " fill="#010001" transform="translate(128,26)"/>
<path d="" fill="#020001" transform="translate(0,0)"/>
<path d="" fill="#000100" transform="translate(0,0)"/>
<path d="" fill="#E43869" transform="translate(0,0)"/>
<path d="M0 0 C2 1 2 1 2 1 Z " fill="#8A1E3B" transform="translate(139,21)"/>
<path d="M0 0 C2 1 2 1 2 1 Z " fill="#F22D42" transform="translate(121,20)"/>
<path d="" fill="#EA3564" transform="translate(0,0)"/>
<path d="" fill="#000000" transform="translate(0,0)"/>
<path d="M0 0 C2 1 2 1 2 1 Z " fill="#FC2F30" transform="translate(98,9)"/>
<path d="M0 0 C2 1 2 1 2 1 Z " fill="#ED2D49" transform="translate(124,8)"/>
<path d="M0 0 C2 1 2 1 2 1 Z " fill="#010001" transform="translate(92,7)"/>
<path d="M0 0 C2 1 2 1 2 1 Z " fill="#D93352" transform="translate(125,6)"/>
<path d="" fill="#B52B4F" transform="translate(0,0)"/>
<path d="" fill="#000001" transform="translate(0,0)"/>
<path d="" fill="#010001" transform="translate(0,0)"/>
<path d="" fill="#010003" transform="translate(0,0)"/>
<path d="" fill="#000001" transform="translate(0,0)"/>
<path d="" fill="#000001" transform="translate(0,0)"/>
<path d="" fill="#010005" transform="translate(0,0)"/>
<path d="" fill="#030001" transform="translate(0,0)"/>
<path d="" fill="#000001" transform="translate(0,0)"/>
<path d="" fill="#010200" transform="translate(0,0)"/>
<path d="" fill="#FD2A3C" transform="translate(0,0)"/>
<path d="" fill="#FA294D" transform="translate(0,0)"/>
<path d="" fill="#000000" transform="translate(0,0)"/>
<path d="" fill="#000109" transform="translate(0,0)"/>
<path d="" fill="#010001" transform="translate(0,0)"/>
<path d="" fill="#E8355D" transform="translate(0,0)"/>
<path d="" fill="#F92843" transform="translate(0,0)"/>
<path d="" fill="#FD2A3C" transform="translate(0,0)"/>
<path d="" fill="#010104" transform="translate(0,0)"/>
<path d="" fill="#000000" transform="translate(0,0)"/>
<path d="" fill="#010200" transform="translate(0,0)"/>
<path d="" fill="#010001" transform="translate(0,0)"/>
<path d="" fill="#030001" transform="translate(0,0)"/>
<path d="" fill="#000000" transform="translate(0,0)"/>
<path d="" fill="#D43D4A" transform="translate(0,0)"/>
<path d="" fill="#010001" transform="translate(0,0)"/>
<path d="" fill="#010001" transform="translate(0,0)"/>
<path d="" fill="#EC356B" transform="translate(0,0)"/>
<path d="" fill="#080000" transform="translate(0,0)"/>
<path d="" fill="#000000" transform="translate(0,0)"/>
<path d="" fill="#D63F84" transform="translate(0,0)"/>
<path d="" fill="#000100" transform="translate(0,0)"/>
<path d="" fill="#010003" transform="translate(0,0)"/>
<path d="" fill="#F3C401" transform="translate(0,0)"/>
<path d="" fill="#2F2613" transform="translate(0,0)"/>
<path d="" fill="#A648CE" transform="translate(0,0)"/>
<path d="" fill="#D63F84" transform="translate(0,0)"/>
<path d="" fill="#FF2846" transform="translate(0,0)"/>
<path d="" fill="#010003" transform="translate(0,0)"/>
<path d="" fill="#FF2846" transform="translate(0,0)"/>
<path d="" fill="#000001" transform="translate(0,0)"/>
<path d="" fill="#FD9F01" transform="translate(0,0)"/>
<path d="" fill="#F3C201" transform="translate(0,0)"/>
<path d="" fill="#020001" transform="translate(0,0)"/>
<path d="" fill="#010005" transform="translate(0,0)"/>
<path d="" fill="#8856CA" transform="translate(0,0)"/>
<path d="" fill="#D0418F" transform="translate(0,0)"/>
<path d="" fill="#FF2846" transform="translate(0,0)"/>
<path d="" fill="#F76D1E" transform="translate(0,0)"/>
<path d="" fill="#9852E3" transform="translate(0,0)"/>
<path d="" fill="#B3499E" transform="translate(0,0)"/>
<path d="" fill="#2B0000" transform="translate(0,0)"/>
<path d="" fill="#FD7315" transform="translate(0,0)"/>
<path d="" fill="#000000" transform="translate(0,0)"/>
<path d="" fill="#934DDD" transform="translate(0,0)"/>
<path d="" fill="#A53157" transform="translate(0,0)"/>
<path d="" fill="#F92843" transform="translate(0,0)"/>
<path d="" fill="#010003" transform="translate(0,0)"/>
<path d="" fill="#000100" transform="translate(0,0)"/>
<path d="" fill="#000001" transform="translate(0,0)"/>
<path d="" fill="#100000" transform="translate(0,0)"/>
<path d="" fill="#000000" transform="translate(0,0)"/>
<path d="" fill="#FF2846" transform="translate(0,0)"/>
<path d="" fill="#030001" transform="translate(0,0)"/>
<path d="" fill="#000109" transform="translate(0,0)"/>
<path d="" fill="#000100" transform="translate(0,0)"/>
<path d="" fill="#010005" transform="translate(0,0)"/>
<path d="" fill="#CD4297" transform="translate(0,0)"/>
<path d="" fill="#010001" transform="translate(0,0)"/>
<path d="" fill="#FD641A" transform="translate(0,0)"/>
<path d="" fill="#D0418F" transform="translate(0,0)"/>
<path d="" fill="#170E0E" transform="translate(0,0)"/>
<path d="" fill="#FD641A" transform="translate(0,0)"/>
<path d="" fill="#040000" transform="translate(0,0)"/>
<path d="" fill="#F92843" transform="translate(0,0)"/>
<path d="" fill="#000001" transform="translate(0,0)"/>
<path d="" fill="#944EDE" transform="translate(0,0)"/>
<path d="" fill="#DAC715" transform="translate(0,0)"/>
<path d="" fill="#000001" transform="translate(0,0)"/>
<path d="" fill="#000100" transform="translate(0,0)"/>
<path d="" fill="#F92843" transform="translate(0,0)"/>
<path d="" fill="#D0418F" transform="translate(0,0)"/>
<path d="" fill="#1B0000" transform="translate(0,0)"/>
<path d="" fill="#FA621F" transform="translate(0,0)"/>
<path d="" fill="#080000" transform="translate(0,0)"/>
<path d="" fill="#010200" transform="translate(0,0)"/>
<path d="" fill="#FA621F" transform="translate(0,0)"/>
<path d="" fill="#100000" transform="translate(0,0)"/>
<path d="" fill="#DB3D37" transform="translate(0,0)"/>
<path d="" fill="#000001" transform="translate(0,0)"/>
<path d="" fill="#795333" transform="translate(0,0)"/>
<path d="" fill="#010005" transform="translate(0,0)"/>
<path d="" fill="#FC8203" transform="translate(0,0)"/>
<path d="" fill="#FD9F01" transform="translate(0,0)"/>
<path d="" fill="#FD9F01" transform="translate(0,0)"/>
<path d="" fill="#010009" transform="translate(0,0)"/>
<path d="" fill="#944EDE" transform="translate(0,0)"/>
<path d="" fill="#CD4297" transform="translate(0,0)"/>
<path d="" fill="#040000" transform="translate(0,0)"/>
<path d="" fill="#010101" transform="translate(0,0)"/>
<path d="" fill="#1F080B" transform="translate(0,0)"/>
<path d="" fill="#E7B348" transform="translate(0,0)"/>
<path d="" fill="#010009" transform="translate(0,0)"/>
<path d="" fill="#944EDE" transform="translate(0,0)"/>
<path d="" fill="#F62D58" transform="translate(0,0)"/>
<path d="" fill="#FF2846" transform="translate(0,0)"/>
<path d="" fill="#010005" transform="translate(0,0)"/>
<path d="" fill="#D0418F" transform="translate(0,0)"/>
<path d="" fill="#7E2133" transform="translate(0,0)"/>
<path d="" fill="#FD2A3C" transform="translate(0,0)"/>
<path d="" fill="#210000" transform="translate(0,0)"/>
<path d="" fill="#FC8203" transform="translate(0,0)"/>
<path d="" fill="#010104" transform="translate(0,0)"/>
<path d="" fill="#FD3627" transform="translate(0,0)"/>
<path d="" fill="#FB3B27" transform="translate(0,0)"/>
<path d="" fill="#954ED0" transform="translate(0,0)"/>
<path d="" fill="#C545A6" transform="translate(0,0)"/>
<path d="" fill="#FA294D" transform="translate(0,0)"/>
<path d="" fill="#010104" transform="translate(0,0)"/>
<path d="" fill="#010005" transform="translate(0,0)"/>
<path d="" fill="#FE3D23" transform="translate(0,0)"/>
<path d="" fill="#000100" transform="translate(0,0)"/>
<path d="" fill="#8C59D6" transform="translate(0,0)"/>
<path d="" fill="#934DDD" transform="translate(0,0)"/>
<path d="" fill="#663E5F" transform="translate(0,0)"/>
<path d="" fill="#010001" transform="translate(0,0)"/>
<path d="" fill="#8C59D6" transform="translate(0,0)"/>
<path d="" fill="#FF2846" transform="translate(0,0)"/>
<path d="" fill="#FE3D23" transform="translate(0,0)"/>
<path d="" fill="#FCA905" transform="translate(0,0)"/>
<path d="" fill="#755BE9" transform="translate(0,0)"/>
<path d="" fill="#010009" transform="translate(0,0)"/>
<path d="" fill="#100000" transform="translate(0,0)"/>
<path d="" fill="#010104" transform="translate(0,0)"/>
<path d="" fill="#4F3818" transform="translate(0,0)"/>
<path d="" fill="#8B53E3" transform="translate(0,0)"/>
<path d="" fill="#FA294D" transform="translate(0,0)"/>
<path d="" fill="#BD46AB" transform="translate(0,0)"/>
<path d="" fill="#FEA501" transform="translate(0,0)"/>
<path d="" fill="#A648CE" transform="translate(0,0)"/>
<path d="" fill="#B247BD" transform="translate(0,0)"/>
<path d="" fill="#FF6719" transform="translate(0,0)"/>
<path d="" fill="#FCA905" transform="translate(0,0)"/>
<path d="" fill="#030001" transform="translate(0,0)"/>
<path d="" fill="#FD2A3C" transform="translate(0,0)"/>
<path d="" fill="#FD3627" transform="translate(0,0)"/>
<path d="" fill="#C545A6" transform="translate(0,0)"/>
<path d="" fill="#FD3627" transform="translate(0,0)"/>
<path d="" fill="#010001" transform="translate(0,0)"/>
<path d="" fill="#000000" transform="translate(0,0)"/>
<path d="" fill="#FD3229" transform="translate(0,0)"/>
<path d="" fill="#010111" transform="translate(0,0)"/>
<path d="" fill="#000000" transform="translate(0,0)"/>
<path d="" fill="#000000" transform="translate(0,0)"/>
<path d="" fill="#000000" transform="translate(0,0)"/>
<path d="" fill="#010005" transform="translate(0,0)"/>
<path d="" fill="#FDBC04" transform="translate(0,0)"/>
<path d="" fill="#040000" transform="translate(0,0)"/>
<path d="" fill="#FD2A3C" transform="translate(0,0)"/>
<path d="" fill="#000100" transform="translate(0,0)"/>
<path d="" fill="#1F080B" transform="translate(0,0)"/>
<path d="" fill="#010203" transform="translate(0,0)"/>
<path d="" fill="#010001" transform="translate(0,0)"/>
<path d="" fill="#110302" transform="translate(0,0)"/>
<path d="" fill="#000000" transform="translate(0,0)"/>
<path d="" fill="#010200" transform="translate(0,0)"/>
<path d="" fill="#ECBF51" transform="translate(0,0)"/>
<path d="" fill="#000001" transform="translate(0,0)"/>
<path d="" fill="#FA3131" transform="translate(0,0)"/>
<path d="" fill="#040000" transform="translate(0,0)"/>
<path d="" fill="#F8C01E" transform="translate(0,0)"/>
<path d="" fill="#FF2846" transform="translate(0,0)"/>
<path d="" fill="#D43D4A" transform="translate(0,0)"/>
<path d="" fill="#390100" transform="translate(0,0)"/>
<path d="" fill="#FCA905" transform="translate(0,0)"/>
<path d="" fill="#010101" transform="translate(0,0)"/>
<path d="" fill="#FF2D2F" transform="translate(0,0)"/>
<path d="" fill="#FEA501" transform="translate(0,0)"/>
<path d="" fill="#000000" transform="translate(0,0)"/>
<path d="" fill="#F92843" transform="translate(0,0)"/>
<path d="" fill="#F2333A" transform="translate(0,0)"/>
<path d="" fill="#000100" transform="translate(0,0)"/>
<path d="" fill="#FD2A3C" transform="translate(0,0)"/>
<path d="" fill="#010101" transform="translate(0,0)"/>
<path d="" fill="#EC356B" transform="translate(0,0)"/>
<path d="" fill="#280412" transform="translate(0,0)"/>
<path d="" fill="#000001" transform="translate(0,0)"/>
<path d="" fill="#010203" transform="translate(0,0)"/>
<path d="" fill="#160D16" transform="translate(0,0)"/>
<path d="" fill="#000001" transform="translate(0,0)"/>
<path d="" fill="#C83D4B" transform="translate(0,0)"/>
<path d="" fill="#010101" transform="translate(0,0)"/>
<path d="" fill="#100000" transform="translate(0,0)"/>
<path d="" fill="#000000" transform="translate(0,0)"/>
<path d="" fill="#210000" transform="translate(0,0)"/>
<path d="" fill="#E13B76" transform="translate(0,0)"/>
<path d="" fill="#F92843" transform="translate(0,0)"/>
<path d="" fill="#FF2846" transform="translate(0,0)"/>
<path d="" fill="#FF2846" transform="translate(0,0)"/>
<path d="" fill="#FF2846" transform="translate(0,0)"/>
<path d="" fill="#030001" transform="translate(0,0)"/>
<path d="" fill="#FA3131" transform="translate(0,0)"/>
<path d="" fill="#000000" transform="translate(0,0)"/>
<path d="" fill="#FF2846" transform="translate(0,0)"/>
<path d="" fill="#000001" transform="translate(0,0)"/>
<path d="" fill="#F92843" transform="translate(0,0)"/>
<path d="" fill="#FA294D" transform="translate(0,0)"/>
<path d="" fill="#F13160" transform="translate(0,0)"/>
<path d="" fill="#000001" transform="translate(0,0)"/>
<path d="" fill="#D73F70" transform="translate(0,0)"/>
<path d="" fill="#F62D58" transform="translate(0,0)"/>
<path d="" fill="#010001" transform="translate(0,0)"/>
</svg>
