<?xml version="1.0" encoding="UTF-8"?>
<svg version="1.1" xmlns="http://www.w3.org/2000/svg" width="175" height="57">
<path d="M0 0 C0.66 0 1.32 0 2 0 C3 1 4 2 5 3 C5.66 3 6.32 3 7 3 C7 2.34 7 1.68 7 1 C7.66 1 8.32 1 9 1 C8.14285714 9.57142857 8.14285714 9.57142857 6 13 C4.5 11.8125 4.5 11.8125 3 10 C2.8125 7.3125 2.8125 7.3125 3 5 C2.34 4.67 1.68 4.34 1 4 C0.375 1.9375 0.375 1.9375 0 0 Z " fill="#551D41" transform="translate(145,14)"/>
<path d="M0 0 C0.66 1.32 1.32 2.64 2 4 C1.34 4 0.68 4 0 4 C0 4.99 0 5.98 0 7 C-0.928125 7.12375 -0.928125 7.12375 -1.875 7.25 C-4.18437567 7.81258459 -4.18437567 7.81258459 -5.25 10.0625 C-5.4975 10.701875 -5.745 11.34125 -6 12 C-7.32 12 -8.64 12 -10 12 C-10.66 10.68 -11.32 9.36 -12 8 C-11.01 8 -10.02 8 -9 8 C-9 8.99 -9 9.98 -9 11 C-8.67 10.34 -8.34 9.68 -8 9 C-7.01 9 -6.02 9 -5 9 C-5 8.34 -5 7.68 -5 7 C-4.34 7 -3.68 7 -3 7 C-3.33 6.01 -3.66 5.02 -4 4 C-3.67 3.34 -3.34 2.68 -3 2 C-2.01 2 -1.02 2 0 2 C0 1.34 0 0.68 0 0 Z " fill="#611D34" transform="translate(145,42)"/>
<path d="M0 0 C0.433125 0.61875 0.86625 1.2375 1.3125 1.875 C2.99740483 4.2197245 2.99740483 4.2197245 6 6 C6 6.66 6 7.32 6 8 C5.34 8 4.68 8 4 8 C4 7.34 4 6.68 4 6 C3.34 6 2.68 6 2 6 C2 6.66 2 7.32 2 8 C1.34 8 0.68 8 0 8 C0 7.34 0 6.68 0 6 C-0.66 5.67 -1.32 5.34 -2 5 C-1.34 3.35 -0.68 1.7 0 0 Z " fill="#582154" transform="translate(155,2)"/>
<path d="M0 0 C0.99 0 1.98 0 3 0 C3.33 1.65 3.66 3.3 4 5 C3.34 4.67 2.68 4.34 2 4 C0.7763932 3.9254644 0.7763932 3.9254644 -1 5 C-0.67 3.35 -0.34 1.7 0 0 Z " fill="#CB5D20" transform="translate(66,28)"/>
<path d="M0 0 C1.98 0.495 1.98 0.495 4 1 C3.34 2.32 2.68 3.64 2 5 C1.01 5 0.02 5 -1 5 C-1 4.34 -1 3.68 -1 3 C-0.34 2.67 0.32 2.34 1 2 C0.67 1.34 0.34 0.68 0 0 Z " fill="#2E133E" transform="translate(163,50)"/>
<path d="M0 0 C1.65 0.33 3.3 0.66 5 1 C4.67 1.66 4.34 2.32 4 3 C2.35 3 0.7 3 -1 3 C-0.67 2.01 -0.34 1.02 0 0 Z " fill="#2A1130" transform="translate(156,54)"/>
<path d="M0 0 C0.66 0 1.32 0 2 0 C3.125 3.75 3.125 3.75 2 6 C0.68 5.67 -0.64 5.34 -2 5 C-1.01 5 -0.02 5 1 5 C0.67 3.35 0.34 1.7 0 0 Z " fill="#994CD8" transform="translate(166,41)"/>
<path d="M0 0 C0.66 0.33 1.32 0.66 2 1 C1.67 2.65 1.34 4.3 1 6 C0.01 5.67 -0.98 5.34 -2 5 C-1.34 3.35 -0.68 1.7 0 0 Z " fill="#48190B" transform="translate(76,7)"/>
<path d="M0 0 C0.66 0.33 1.32 0.66 2 1 C2 1.66 2 2.32 2 3 C0.68 3.33 -0.64 3.66 -2 4 C-2 3.01 -2 2.02 -2 1 C-1.34 0.67 -0.68 0.34 0 0 Z " fill="#8B500E" transform="translate(55,39)"/>
<path d="M0 0 C0.66 1.32 1.32 2.64 2 4 C1.01 4 0.02 4 -1 4 C-1 1 -1 1 0 0 Z " fill="#673891" transform="translate(166,23)"/>
<path d="M0 0 C0.66 0 1.32 0 2 0 C1.67 1.65 1.34 3.3 1 5 C0.34 4.67 -0.32 4.34 -1 4 C-0.67 2.68 -0.34 1.36 0 0 Z " fill="#8E52D6" transform="translate(170,32)"/>
<path d="M0 0 C0.33 0.66 0.66 1.32 1 2 C0.34 2 -0.32 2 -1 2 C-1.33 2.66 -1.66 3.32 -2 4 C-2.66 4 -3.32 4 -4 4 C-4 3.34 -4 2.68 -4 2 C-2.68 1.34 -1.36 0.68 0 0 Z " fill="#CCC620" transform="translate(10,34)"/>
<path d="M0 0 C0.99 0.33 1.98 0.66 3 1 C2.01 1.99 1.02 2.98 0 4 C-0.33 3.34 -0.66 2.68 -1 2 C-0.67 1.34 -0.34 0.68 0 0 Z " fill="#DBC31E" transform="translate(12,24)"/>
<path d="M0 0 C1.65 0 3.3 0 5 0 C4.67 0.66 4.34 1.32 4 2 C3.01 2.33 2.02 2.66 1 3 C0.67 2.01 0.34 1.02 0 0 Z " fill="#FB2E33" transform="translate(99,9)"/>
<path d="M0 0 C1.485 0.99 1.485 0.99 3 2 C3 2.66 3 3.32 3 4 C2.01 4 1.02 4 0 4 C0 2.68 0 1.36 0 0 Z " fill="#801E2A" transform="translate(123,12)"/>
<path d="M0 0 C1.32 0 2.64 0 4 0 C3.67 0.99 3.34 1.98 3 3 C2.01 2.01 1.02 1.02 0 0 Z " fill="#632752" transform="translate(147,3)"/>
<path d="M0 0 C0.66 0.33 1.32 0.66 2 1 C1.67 1.99 1.34 2.98 1 4 C0.34 3.01 -0.32 2.02 -1 1 C-0.67 0.67 -0.34 0.34 0 0 Z " fill="#040103" transform="translate(152,39)"/>
<path d="M0 0 C0.66 0.66 1.32 1.32 2 2 C1.01 2.66 0.02 3.32 -1 4 C-0.67 2.68 -0.34 1.36 0 0 Z " fill="#3B2610" transform="translate(53,34)"/>
<path d="M0 0 C0.33 0.66 0.66 1.32 1 2 C-0.32 2.33 -1.64 2.66 -3 3 C-3.33 2.34 -3.66 1.68 -4 1 C-2.68 0.67 -1.36 0.34 0 0 Z " fill="#934FDD" transform="translate(171,29)"/>
<path d="M0 0 C0.99 0.33 1.98 0.66 3 1 C1.02 1.99 1.02 1.99 -1 3 C-0.67 2.01 -0.34 1.02 0 0 Z " fill="#AA481A" transform="translate(69,17)"/>
<path d="M0 0 C1.32 0 2.64 0 4 0 C4 0.66 4 1.32 4 2 C2.68 2 1.36 2 0 2 C0 1.34 0 0.68 0 0 Z " fill="#FBB50F" transform="translate(25,3)"/>
<path d="M0 0 C1.32 0.33 2.64 0.66 4 1 C3.01 1.33 2.02 1.66 1 2 C0.67 1.34 0.34 0.68 0 0 Z " fill="#C645A5" transform="translate(148,9)"/>
<path d="M0 0 C1.98 0.99 1.98 0.99 4 2 C2.68 2 1.36 2 0 2 C0 1.34 0 0.68 0 0 Z " fill="#A148CD" transform="translate(161,6)"/>
<path d="M0 0 C0.99 0 1.98 0 3 0 C3 0.66 3 1.32 3 2 C2.01 1.67 1.02 1.34 0 1 C0 0.67 0 0.34 0 0 Z " fill="#A53052" transform="translate(134,44)"/>
<path d="M0 0 C0.99 1.485 0.99 1.485 2 3 C1.01 3.495 1.01 3.495 0 4 C0 2.68 0 1.36 0 0 Z " fill="#120C1E" transform="translate(170,41)"/>
<path d="M0 0 C0.99 0.495 0.99 0.495 2 1 C1.01 2.485 1.01 2.485 0 4 C0 2.68 0 1.36 0 0 Z " fill="#944EDE" transform="translate(168,37)"/>
<path d="M0 0 C1.65 0 3.3 0 5 0 C5 0.33 5 0.66 5 1 C3.35 1 1.7 1 0 1 C0 0.67 0 0.34 0 0 Z " fill="#FA3B28" transform="translate(86,37)"/>
<path d="M0 0 C0.33 0 0.66 0 1 0 C1 1.65 1 3.3 1 5 C0.67 5 0.34 5 0 5 C0 3.35 0 1.7 0 0 Z " fill="#040000" transform="translate(150,32)"/>
<path d="M0 0 C0.99 0.33 1.98 0.66 3 1 C2.67 1.66 2.34 2.32 2 3 C1.34 2.01 0.68 1.02 0 0 Z " fill="#93851A" transform="translate(11,33)"/>
<path d="M0 0 C0.66 0.99 1.32 1.98 2 3 C1.01 2.67 0.02 2.34 -1 2 C-0.67 1.34 -0.34 0.68 0 0 Z " fill="#A24086" transform="translate(148,29)"/>
<path d="M0 0 C0.99 0.33 1.98 0.66 3 1 C2.34 1.66 1.68 2.32 1 3 C0.67 2.01 0.34 1.02 0 0 Z " fill="#14050C" transform="translate(149,28)"/>
<path d="M0 0 C0.33 0.66 0.66 1.32 1 2 C0.34 2.66 -0.32 3.32 -1 4 C-0.67 2.68 -0.34 1.36 0 0 Z " fill="#2F1804" transform="translate(36,18)"/>
<path d="M0 0 C0.33 1.32 0.66 2.64 1 4 C0.34 3.01 -0.32 2.02 -1 1 C-0.67 0.67 -0.34 0.34 0 0 Z " fill="#FC284A" transform="translate(127,12)"/>
<path d="M0 0 C0.99 0.33 1.98 0.66 3 1 C1.68 1.33 0.36 1.66 -1 2 C-0.67 1.34 -0.34 0.68 0 0 Z " fill="#FB661B" transform="translate(70,5)"/>
<path d="M0 0 C1.32 0.33 2.64 0.66 4 1 C3.01 1.495 3.01 1.495 2 2 C1.34 1.34 0.68 0.68 0 0 Z " fill="#F97718" transform="translate(61,4)"/>
<path d="M0 0 C0.33 0.66 0.66 1.32 1 2 C-0.32 1.67 -1.64 1.34 -3 1 C-2.01 0.67 -1.02 0.34 0 0 Z " fill="#250E20" transform="translate(152,0)"/>
<path d="M0 0 C0.99 0.33 1.98 0.66 3 1 C2.01 1 1.02 1 0 1 C0 0.67 0 0.34 0 0 Z " fill="#000102" transform="translate(150,54)"/>
<path d="M0 0 C0.33 0.99 0.66 1.98 1 3 C0.34 2.67 -0.32 2.34 -1 2 C-0.67 1.34 -0.34 0.68 0 0 Z " fill="#BB47B4" transform="translate(155,51)"/>
<path d="M0 0 C0.66 0 1.32 0 2 0 C2 0.66 2 1.32 2 2 C1.34 2 0.68 2 0 2 C0 1.34 0 0.68 0 0 Z " fill="#FD7810" transform="translate(61,44)"/>
<path d="M0 0 C0 3 0 3 0 3 Z " fill="#821818" transform="translate(94,39)"/>
<path d="M0 0 C0.66 0 1.32 0 2 0 C2 0.66 2 1.32 2 2 C1.34 2 0.68 2 0 2 C0 1.34 0 0.68 0 0 Z " fill="#E1C611" transform="translate(12,29)"/>
<path d="M0 0 C0.66 0.66 1.32 1.32 2 2 C1.01 2.495 1.01 2.495 0 3 C0 2.01 0 1.02 0 0 Z " fill="#0A0104" transform="translate(145,6)"/>
<path d="M0 0 C0.66 0 1.32 0 2 0 C1.67 0.66 1.34 1.32 1 2 C0.67 1.34 0.34 0.68 0 0 Z " fill="#AA47C8" transform="translate(158,50)"/>
<path d="M0 0 C0.66 0 1.32 0 2 0 C1.67 0.66 1.34 1.32 1 2 C0.67 1.34 0.34 0.68 0 0 Z " fill="#000104" transform="translate(145,50)"/>
<path d="" fill="#000003" transform="translate(0,0)"/>
<path d="M0 0 C3 1 3 1 3 1 Z " fill="#C245A7" transform="translate(149,48)"/>
<path d="M0 0 C3 1 3 1 3 1 Z " fill="#EA3C32" transform="translate(88,45)"/>
<path d="M0 0 C0.66 0 1.32 0 2 0 C1.67 0.66 1.34 1.32 1 2 C0.67 1.34 0.34 0.68 0 0 Z " fill="#030001" transform="translate(153,44)"/>
<path d="" fill="#BCC62A" transform="translate(0,0)"/>
<path d="M0 0 C0.33 0.66 0.66 1.32 1 2 C0.34 1.67 -0.32 1.34 -1 1 C-0.67 0.67 -0.34 0.34 0 0 Z " fill="#000002" transform="translate(1,37)"/>
<path d="" fill="#944EDF" transform="translate(0,0)"/>
<path d="" fill="#B24D99" transform="translate(0,0)"/>
<path d="" fill="#CBC423" transform="translate(0,0)"/>
<path d="M0 0 C0.66 0.66 1.32 1.32 2 2 C1.34 2 0.68 2 0 2 C0 1.34 0 0.68 0 0 Z " fill="#FB621D" transform="translate(72,25)"/>
<path d="M0 0 C3 1 3 1 3 1 Z " fill="#FB2847" transform="translate(124,22)"/>
<path d="M0 0 C3 1 3 1 3 1 Z " fill="#CE5621" transform="translate(68,22)"/>
<path d="M0 0 C3 1 3 1 3 1 Z " fill="#974CDD" transform="translate(167,20)"/>
<path d="M0 0 C0.99 0.495 0.99 0.495 2 1 C1.01 1.495 1.01 1.495 0 2 C0 1.34 0 0.68 0 0 Z " fill="#FC9B05" transform="translate(41,18)"/>
<path d="" fill="#010004" transform="translate(0,0)"/>
<path d="M0 0 C0.66 0.66 1.32 1.32 2 2 C1.34 2 0.68 2 0 2 C0 1.34 0 0.68 0 0 Z " fill="#C744A1" transform="translate(148,13)"/>
<path d="" fill="#010001" transform="translate(0,0)"/>
<path d="M0 0 C0.33 0.66 0.66 1.32 1 2 C0.34 1.67 -0.32 1.34 -1 1 C-0.67 0.67 -0.34 0.34 0 0 Z " fill="#2D181A" transform="translate(145,10)"/>
<path d="M0 0 C0.66 0.66 1.32 1.32 2 2 C1.34 2 0.68 2 0 2 C0 1.34 0 0.68 0 0 Z " fill="#FA631E" transform="translate(73,9)"/>
<path d="M0 0 C0.33 0.66 0.66 1.32 1 2 C0.34 1.67 -0.32 1.34 -1 1 C-0.67 0.67 -0.34 0.34 0 0 Z " fill="#FC7B0B" transform="translate(61,8)"/>
<path d="M0 0 C3 1 3 1 3 1 Z " fill="#C745A4" transform="translate(148,7)"/>
<path d="M0 0 C0.66 0 1.32 0 2 0 C1.67 0.66 1.34 1.32 1 2 C0.67 1.34 0.34 0.68 0 0 Z " fill="#0F080C" transform="translate(146,5)"/>
<path d="" fill="#000000" transform="translate(0,0)"/>
<path d="M0 0 C2 1 2 1 2 1 Z " fill="#000000" transform="translate(88,49)"/>
<path d="M0 0 C2 1 2 1 2 1 Z " fill="#E43A78" transform="translate(137,46)"/>
<path d="" fill="#F8352B" transform="translate(0,0)"/>
<path d="M0 0 C2 1 2 1 2 1 Z " fill="#0A0404" transform="translate(65,44)"/>
<path d="" fill="#C84594" transform="translate(0,0)"/>
<path d="M0 0 C2 1 2 1 2 1 Z " fill="#000102" transform="translate(172,41)"/>
<path d="M0 0 C2 1 2 1 2 1 Z " fill="#ADC629" transform="translate(3,40)"/>
<path d="" fill="#E53739" transform="translate(0,0)"/>
<path d="M0 0 C2 1 2 1 2 1 Z " fill="#944EDE" transform="translate(167,33)"/>
<path d="M0 0 C2 1 2 1 2 1 Z " fill="#0B051C" transform="translate(172,31)"/>
<path d="M0 0 C2 1 2 1 2 1 Z " fill="#010108" transform="translate(62,31)"/>
<path d="" fill="#934DDD" transform="translate(0,0)"/>
<path d="M0 0 C2 1 2 1 2 1 Z " fill="#FB631C" transform="translate(70,27)"/>
<path d="" fill="#010004" transform="translate(0,0)"/>
<path d="" fill="#0C0807" transform="translate(0,0)"/>
<path d="M0 0 C2 1 2 1 2 1 Z " fill="#F92848" transform="translate(122,23)"/>
<path d="M0 0 C2 1 2 1 2 1 Z " fill="#D4418F" transform="translate(144,20)"/>
<path d="" fill="#FDA201" transform="translate(0,0)"/>
<path d="" fill="#FB5E1E" transform="translate(0,0)"/>
<path d="" fill="#010200" transform="translate(0,0)"/>
<path d="" fill="#F82B52" transform="translate(0,0)"/>
<path d="M0 0 C2 1 2 1 2 1 Z " fill="#230304" transform="translate(133,8)"/>
<path d="M0 0 C2 1 2 1 2 1 Z " fill="#110113" transform="translate(164,1)"/>
<path d="" fill="#000100" transform="translate(0,0)"/>
<path d="" fill="#010200" transform="translate(0,0)"/>
<path d="" fill="#010003" transform="translate(0,0)"/>
<path d="" fill="#010104" transform="translate(0,0)"/>
<path d="" fill="#000109" transform="translate(0,0)"/>
<path d="" fill="#F4881A" transform="translate(0,0)"/>
<path d="" fill="#B247BD" transform="translate(0,0)"/>
<path d="" fill="#BD46AB" transform="translate(0,0)"/>
<path d="" fill="#000000" transform="translate(0,0)"/>
<path d="" fill="#010001" transform="translate(0,0)"/>
<path d="" fill="#A648CE" transform="translate(0,0)"/>
<path d="" fill="#E8355D" transform="translate(0,0)"/>
<path d="" fill="#241E17" transform="translate(0,0)"/>
<path d="" fill="#8856CA" transform="translate(0,0)"/>
<path d="" fill="#A648CE" transform="translate(0,0)"/>
<path d="" fill="#EC356B" transform="translate(0,0)"/>
<path d="" fill="#F13160" transform="translate(0,0)"/>
<path d="" fill="#01020B" transform="translate(0,0)"/>
<path d="" fill="#9F49DB" transform="translate(0,0)"/>
<path d="" fill="#030001" transform="translate(0,0)"/>
<path d="" fill="#A648CE" transform="translate(0,0)"/>
<path d="" fill="#000000" transform="translate(0,0)"/>
<path d="" fill="#DD3F85" transform="translate(0,0)"/>
<path d="" fill="#000001" transform="translate(0,0)"/>
<path d="" fill="#954ED0" transform="translate(0,0)"/>
<path d="" fill="#170E0E" transform="translate(0,0)"/>
<path d="" fill="#CD4297" transform="translate(0,0)"/>
<path d="" fill="#B5C82D" transform="translate(0,0)"/>
<path d="" fill="#000000" transform="translate(0,0)"/>
<path d="" fill="#FD3627" transform="translate(0,0)"/>
<path d="" fill="#C545A6" transform="translate(0,0)"/>
<path d="" fill="#DD3F85" transform="translate(0,0)"/>
<path d="" fill="#000001" transform="translate(0,0)"/>
<path d="" fill="#CD4297" transform="translate(0,0)"/>
<path d="" fill="#FD3229" transform="translate(0,0)"/>
<path d="" fill="#080000" transform="translate(0,0)"/>
<path d="" fill="#030001" transform="translate(0,0)"/>
<path d="" fill="#010001" transform="translate(0,0)"/>
<path d="" fill="#FA6E18" transform="translate(0,0)"/>
<path d="" fill="#FE8806" transform="translate(0,0)"/>
<path d="" fill="#010003" transform="translate(0,0)"/>
<path d="" fill="#000000" transform="translate(0,0)"/>
<path d="" fill="#330100" transform="translate(0,0)"/>
<path d="" fill="#FA6E18" transform="translate(0,0)"/>
<path d="" fill="#000001" transform="translate(0,0)"/>
<path d="" fill="#010009" transform="translate(0,0)"/>
<path d="" fill="#FE8806" transform="translate(0,0)"/>
<path d="" fill="#FCC402" transform="translate(0,0)"/>
<path d="" fill="#010200" transform="translate(0,0)"/>
<path d="" fill="#CEC820" transform="translate(0,0)"/>
<path d="" fill="#ECC232" transform="translate(0,0)"/>
<path d="" fill="#010001" transform="translate(0,0)"/>
<path d="" fill="#FA6E18" transform="translate(0,0)"/>
<path d="" fill="#E8C50D" transform="translate(0,0)"/>
<path d="" fill="#FA621F" transform="translate(0,0)"/>
<path d="" fill="#D0418F" transform="translate(0,0)"/>
<path d="" fill="#100000" transform="translate(0,0)"/>
<path d="" fill="#F76D1E" transform="translate(0,0)"/>
<path d="" fill="#D0418F" transform="translate(0,0)"/>
<path d="" fill="#A25694" transform="translate(0,0)"/>
<path d="" fill="#FF2846" transform="translate(0,0)"/>
<path d="" fill="#FD7315" transform="translate(0,0)"/>
<path d="" fill="#040000" transform="translate(0,0)"/>
<path d="" fill="#040000" transform="translate(0,0)"/>
<path d="" fill="#934DDD" transform="translate(0,0)"/>
<path d="" fill="#F92843" transform="translate(0,0)"/>
<path d="" fill="#010005" transform="translate(0,0)"/>
<path d="" fill="#FD641A" transform="translate(0,0)"/>
<path d="" fill="#01020B" transform="translate(0,0)"/>
<path d="" fill="#944EDE" transform="translate(0,0)"/>
<path d="" fill="#954ED0" transform="translate(0,0)"/>
<path d="" fill="#625138" transform="translate(0,0)"/>
<path d="" fill="#FD641A" transform="translate(0,0)"/>
<path d="" fill="#FD641A" transform="translate(0,0)"/>
<path d="" fill="#000001" transform="translate(0,0)"/>
<path d="" fill="#C1499A" transform="translate(0,0)"/>
<path d="" fill="#D84290" transform="translate(0,0)"/>
<path d="" fill="#E0A74A" transform="translate(0,0)"/>
<path d="" fill="#CD4297" transform="translate(0,0)"/>
<path d="" fill="#240000" transform="translate(0,0)"/>
<path d="" fill="#000000" transform="translate(0,0)"/>
<path d="" fill="#010009" transform="translate(0,0)"/>
<path d="" fill="#FD5A1E" transform="translate(0,0)"/>
<path d="" fill="#C1499A" transform="translate(0,0)"/>
<path d="" fill="#FD641A" transform="translate(0,0)"/>
<path d="" fill="#010005" transform="translate(0,0)"/>
<path d="" fill="#1B0000" transform="translate(0,0)"/>
<path d="" fill="#FF2D2F" transform="translate(0,0)"/>
<path d="" fill="#010200" transform="translate(0,0)"/>
<path d="" fill="#FC8203" transform="translate(0,0)"/>
<path d="" fill="#FA294D" transform="translate(0,0)"/>
<path d="" fill="#010200" transform="translate(0,0)"/>
<path d="" fill="#240000" transform="translate(0,0)"/>
<path d="" fill="#C545A6" transform="translate(0,0)"/>
<path d="" fill="#000100" transform="translate(0,0)"/>
<path d="" fill="#FD641A" transform="translate(0,0)"/>
<path d="" fill="#C545A6" transform="translate(0,0)"/>
<path d="" fill="#A648CE" transform="translate(0,0)"/>
<path d="" fill="#F8C01E" transform="translate(0,0)"/>
<path d="" fill="#B247BD" transform="translate(0,0)"/>
<path d="" fill="#A648CE" transform="translate(0,0)"/>
<path d="" fill="#A648CE" transform="translate(0,0)"/>
</svg>
