<?xml version="1.0" encoding="UTF-8"?>
<svg version="1.1" xmlns="http://www.w3.org/2000/svg" width="78" height="62">
<path d="M0 0 C3.375 1.5 3.375 1.5 6 3 C6 3.99 6 4.98 6 6 C6.17472474 10.33722781 6.17472474 10.33722781 8 14 C7.57699017 17.73658685 7.01457095 21.37653234 6 25 C6.66 25 7.32 25 8 25 C8 25.66 8 26.32 8 27 C7.34 27 6.68 27 6 27 C6 27.99 6 28.98 6 30 C5.34 30 4.68 30 4 30 C3.20046862 33.28696233 2.90341064 34.71023192 4 38 C0.25 41 0.25 41 -2 41 C-2 41.99 -2 42.98 -2 44 C-2.66 44 -3.32 44 -4 44 C-4 44.66 -4 45.32 -4 46 C-4.66 46 -5.32 46 -6 46 C-6 46.66 -6 47.32 -6 48 C-6.66 48 -7.32 48 -8 48 C-8 48.99 -8 49.98 -8 51 C-8.66 51 -9.32 51 -10 51 C-10.33 51.66 -10.66 52.32 -11 53 C-16.46840714 56.17095819 -21.74532555 57.54511459 -28 58 C-28.33 57.34 -28.66 56.68 -29 56 C-28.1875 53.625 -28.1875 53.625 -27 51 C-26.71125 50.278125 -26.4225 49.55625 -26.125 48.8125 C-24.70695301 46.52786874 -23.40222811 46.16679651 -21 45 C-19.700625 43.700625 -19.700625 43.700625 -18.375 42.375 C-17.59125 41.59125 -16.8075 40.8075 -16 40 C-15.34 40 -14.68 40 -14 40 C-13.34 37.69 -12.68 35.38 -12 33 C-11.34 33 -10.68 33 -10 33 C-10 31.68 -10 30.36 -10 29 C-9.34 29 -8.68 29 -8 29 C-7.855625 28.4225 -7.71125 27.845 -7.5625 27.25 C-7.04166667 25.16666667 -6.52083333 23.08333333 -6 21 C-6.66 21 -7.32 21 -8 21 C-8 20.01 -8 19.02 -8 18 C-7.34 18 -6.68 18 -6 18 C-6 16.68 -6 15.36 -6 14 C-6.66 14 -7.32 14 -8 14 C-8 13.34 -8 12.68 -8 12 C-7.34 12 -6.68 12 -6 12 C-6 11.01 -6 10.02 -6 9 C-6.66 9 -7.32 9 -8 9 C-8 8.34 -8 7.68 -8 7 C-8.66 6.67 -9.32 6.34 -10 6 C-9.6875 4.125 -9.6875 4.125 -9 2 C-5.47089647 -0.35273568 -4.15685632 -0.40753493 0 0 Z " fill="#F1621F" transform="translate(70,4)"/>
<path d="M0 0 C4.87664009 -0.34833144 7.77050005 0.58314288 12 3 C12 3.99 12 4.98 12 6 C12.17472474 10.33722781 12.17472474 10.33722781 14 14 C13.57699017 17.73658685 13.01457095 21.37653234 12 25 C12.66 25 13.32 25 14 25 C14 25.66 14 26.32 14 27 C13.34 27 12.68 27 12 27 C12 27.99 12 28.98 12 30 C11.34 30 10.68 30 10 30 C9.20046862 33.28696233 8.90341064 34.71023192 10 38 C6.25 41 6.25 41 4 41 C4 41.99 4 42.98 4 44 C3.34 44 2.68 44 2 44 C2 44.66 2 45.32 2 46 C1.34 46 0.68 46 0 46 C0 46.66 0 47.32 0 48 C-0.66 48 -1.32 48 -2 48 C-2 48.99 -2 49.98 -2 51 C-2.66 51 -3.32 51 -4 51 C-4.33 51.66 -4.66 52.32 -5 53 C-7.06640625 54.0703125 -7.06640625 54.0703125 -9.5625 55.125 C-10.38878906 55.47820313 -11.21507812 55.83140625 -12.06640625 56.1953125 C-13.02353516 56.59363281 -13.02353516 56.59363281 -14 57 C-14.66 56.34 -15.32 55.68 -16 55 C-14.56429734 54.18432826 -13.12636566 53.37257907 -11.6875 52.5625 C-10.88699219 52.11003906 -10.08648437 51.65757813 -9.26171875 51.19140625 C-7 50 -7 50 -4 49 C-4 48.34 -4 47.68 -4 47 C-3.34 47 -2.68 47 -2 47 C-1.7525 46.46375 -1.505 45.9275 -1.25 45.375 C0 43 0 43 1.8125 40.5625 C4.71040178 36.3572741 6.21007512 31.49561462 7.94921875 26.73046875 C9 24 9 24 10 23 C10.05829765 15.05986042 9.13294625 8.79936319 5 2 C3.35 2 1.7 2 0 2 C0 1.34 0 0.68 0 0 Z " fill="#150604" transform="translate(64,4)"/>
<path d="M0 0 C2 3 2 3 2.75 5.8125 C2 9 2 9 -0.1640625 10.72265625 C-7.18173759 15 -7.18173759 15 -10 15 C-10 15.66 -10 16.32 -10 17 C-11.98 17.33 -13.96 17.66 -16 18 C-16.33 17.34 -16.66 16.68 -17 16 C-16.1875 13.625 -16.1875 13.625 -15 11 C-14.731875 10.278125 -14.46375 9.55625 -14.1875 8.8125 C-12.53041382 6.28326319 -10.83938205 5.92444997 -8 5 C-4.59904483 3.78537315 -2.37770633 2.75313365 0 0 Z " fill="#F17E0E" transform="translate(58,44)"/>
<path d="M0 0 C0.99 0 1.98 0 3 0 C2.79375 0.928125 2.5875 1.85625 2.375 2.8125 C1.63307034 6.15173402 1.63307034 6.15173402 4 9 C4.66 9 5.32 9 6 9 C5.66951441 14.28776943 2.51647805 18.24100622 -1 22 C-1.66 22 -2.32 22 -3 22 C-3.66 20.02 -4.32 18.04 -5 16 C-6.98 17.65 -8.96 19.3 -11 21 C-11.66 20.34 -12.32 19.68 -13 19 C-11.71034824 17.62437146 -10.37310707 16.29233607 -9 15 C-8.34 15 -7.68 15 -7 15 C-6.34 12.69 -5.68 10.38 -5 8 C-4.34 8 -3.68 8 -3 8 C-3 6.68 -3 5.36 -3 4 C-2.34 4 -1.68 4 -1 4 C-0.67 2.68 -0.34 1.36 0 0 Z " fill="#EB6F1B" transform="translate(63,29)"/>
<path d="M0 0 C4.87664009 -0.34833144 7.77050005 0.58314288 12 3 C12 3.99 12 4.98 12 6 C12.17472474 10.33722781 12.17472474 10.33722781 14 14 C13.57699017 17.73658685 13.01457095 21.37653234 12 25 C12.66 25 13.32 25 14 25 C14 25.66 14 26.32 14 27 C13.34 27 12.68 27 12 27 C12 27.99 12 28.98 12 30 C11.34 30 10.68 30 10 30 C9.98598145 29.15405273 9.98598145 29.15405273 9.97167969 28.29101562 C9.91742514 25.69318008 9.83389317 23.09704081 9.75 20.5 C9.73582031 19.613125 9.72164062 18.72625 9.70703125 17.8125 C9.4762054 11.53403696 8.17238699 7.43112653 5 2 C3.35 2 1.7 2 0 2 C0 1.34 0 0.68 0 0 Z " fill="#0A0202" transform="translate(64,4)"/>
<path d="M0 0 C2 1 2 1 3.0625 3.9375 C3.371875 4.948125 3.68125 5.95875 4 7 C4.33 7.66 4.66 8.32 5 9 C5.14800918 11.16321108 5.22122021 13.33192237 5.25 15.5 C5.28867188 17.24796875 5.28867188 17.24796875 5.328125 19.03125 C5.21984375 20.0109375 5.1115625 20.990625 5 22 C4.01 22.66 3.02 23.32 2 24 C2 22.68 2 21.36 2 20 C1.34 20 0.68 20 0 20 C0 19.01 0 18.02 0 17 C0.66 17 1.32 17 2 17 C2 15.68 2 14.36 2 13 C1.34 13 0.68 13 0 13 C0 12.34 0 11.68 0 11 C0.66 11 1.32 11 2 11 C2 10.01 2 9.02 2 8 C1.34 8 0.68 8 0 8 C0 7.34 0 6.68 0 6 C-0.66 5.67 -1.32 5.34 -2 5 C-1.125 1.125 -1.125 1.125 0 0 Z " fill="#100405" transform="translate(62,5)"/>
<path d="M0 0 C0.66 0.66 1.32 1.32 2 2 C1.01 3.485 1.01 3.485 0 5 C-0.39387788 7.32387947 -0.73486085 9.65793749 -1 12 C-2.98 12.33 -4.96 12.66 -7 13 C-7.33 12.34 -7.66 11.68 -8 11 C-7.1875 8.625 -7.1875 8.625 -6 6 C-5.71125 5.278125 -5.4225 4.55625 -5.125 3.8125 C-3.73918442 1.57979713 -2.40534558 0.96213823 0 0 Z " fill="#A7620C" transform="translate(49,49)"/>
<path d="M0 0 C0.99 0 1.98 0 3 0 C0.29384966 9.59453303 0.29384966 9.59453303 -4 13 C-4.33 11.35 -4.66 9.7 -5 8 C-4.34 8 -3.68 8 -3 8 C-3 6.68 -3 5.36 -3 4 C-2.34 4 -1.68 4 -1 4 C-0.67 2.68 -0.34 1.36 0 0 Z " fill="#0E0404" transform="translate(63,29)"/>
<path d="M0 0 C0.66 0.33 1.32 0.66 2 1 C1 8.42857143 1 8.42857143 0 12 C0.66 12 1.32 12 2 12 C2 12.66 2 13.32 2 14 C1.34 14 0.68 14 0 14 C0 14.99 0 15.98 0 17 C-0.66 17 -1.32 17 -2 17 C-2.02689216 15.52093108 -2.04634621 14.04172517 -2.0625 12.5625 C-2.07410156 11.73878906 -2.08570312 10.91507813 -2.09765625 10.06640625 C-2 8 -2 8 -1 7 C-0.63239269 4.67182036 -0.29758419 2.3381615 0 0 Z " fill="#010001" transform="translate(76,17)"/>
<path d="M0 0 C3.20762554 4.81143831 3.119958 9.12415752 3.0625 14.8125 C3.05347656 15.97394531 3.04445313 17.13539062 3.03515625 18.33203125 C3.02355469 19.21246094 3.01195313 20.09289062 3 21 C2.67 21 2.34 21 2 21 C1.92652344 19.75283203 1.92652344 19.75283203 1.8515625 18.48046875 C1.77679688 17.39378906 1.70203125 16.30710937 1.625 15.1875 C1.55539063 14.10855469 1.48578125 13.02960937 1.4140625 11.91796875 C1.18804267 8.81373814 1.18804267 8.81373814 -1 6 C-1.1875 3.375 -1.1875 3.375 -1 1 C-0.67 0.67 -0.34 0.34 0 0 Z " fill="#C76A2D" transform="translate(65,5)"/>
<path d="M0 0 C4.87664009 -0.34833144 7.77050005 0.58314288 12 3 C11.01 3.495 11.01 3.495 10 4 C10 5.98 10 7.96 10 10 C8 7 8 7 6.6875 4.3125 C6.130625 3.549375 5.57375 2.78625 5 2 C2.37305578 1.58219121 2.37305578 1.58219121 0 2 C0 1.34 0 0.68 0 0 Z " fill="#250703" transform="translate(64,4)"/>
<path d="M0 0 C0.66 0.66 1.32 1.32 2 2 C-2.625 7.875 -2.625 7.875 -6 9 C-6 6 -6 6 -4.625 4.3125 C-3 3 -3 3 -1 3 C-0.67 2.01 -0.34 1.02 0 0 Z " fill="#110806" transform="translate(57,41)"/>
<path d="M0 0 C0.66 0.33 1.32 0.66 2 1 C-1.12621626 4.39417765 -3.56541027 6.6062718 -8 8 C-8.66 7.34 -9.32 6.68 -10 6 C-9.36191406 5.65066406 -8.72382812 5.30132812 -8.06640625 4.94140625 C-7.24011719 4.48636719 -6.41382813 4.03132813 -5.5625 3.5625 C-4.73878906 3.11003906 -3.91507813 2.65757813 -3.06640625 2.19140625 C-1.07691202 1.16337603 -1.07691202 1.16337603 0 0 Z " fill="#251206" transform="translate(58,53)"/>
<path d="M0 0 C1.485 0.99 1.485 0.99 3 2 C3.66 1.34 4.32 0.68 5 0 C5 1.32 5 2.64 5 4 C3.35 4.66 1.7 5.32 0 6 C-0.38218767 4.34385343 -0.71395102 2.67542976 -1 1 C-0.67 0.67 -0.34 0.34 0 0 Z " fill="#FA8B0B" transform="translate(49,53)"/>
<path d="M0 0 C0.33 0 0.66 0 1 0 C1.25 3.25 1.25 3.25 1 7 C-0.32 8.32 -1.64 9.64 -3 11 C-2.01 7.37 -1.02 3.74 0 0 Z " fill="#340B07" transform="translate(73,28)"/>
<path d="M0 0 C1 3 1 3 1 7 C-0.32 7 -1.64 7 -3 7 C-2.38722388 4.03824877 -1.74627478 2.61941217 0 0 Z " fill="#010003" transform="translate(73,35)"/>
<path d="M0 0 C0.66 0.33 1.32 0.66 2 1 C1.34 2.65 0.68 4.3 0 6 C-0.66 5.67 -1.32 5.34 -2 5 C-2 4.01 -2 3.02 -2 2 C-1.34 2 -0.68 2 0 2 C0 1.34 0 0.68 0 0 Z " fill="#13100B" transform="translate(4,50)"/>
<path d="M0 0 C1 2 1 2 1 6 C0.01 6 -0.98 6 -2 6 C-1.125 1.125 -1.125 1.125 0 0 Z " fill="#724909" transform="translate(40,56)"/>
<path d="M0 0 C1.32 0 2.64 0 4 0 C4 0.66 4 1.32 4 2 C2.68 1.34 1.36 0.68 0 0 Z " fill="#2D300F" transform="translate(4,48)"/>
<path d="M0 0 C0.66 0 1.32 0 2 0 C1.67 0.99 1.34 1.98 1 3 C0.67 2.01 0.34 1.02 0 0 Z " fill="#C2C627" transform="translate(4,42)"/>
<path d="M0 0 C2 1 2 1 2 1 Z " fill="#010004" transform="translate(36,5)"/>
<path d="" fill="#000100" transform="translate(0,0)"/>
<path d="" fill="#040000" transform="translate(0,0)"/>
<path d="" fill="#030001" transform="translate(0,0)"/>
<path d="" fill="#FEA501" transform="translate(0,0)"/>
<path d="" fill="#010003" transform="translate(0,0)"/>
<path d="" fill="#FD9F01" transform="translate(0,0)"/>
<path d="" fill="#524917" transform="translate(0,0)"/>
<path d="" fill="#A6C526" transform="translate(0,0)"/>
<path d="" fill="#A6C526" transform="translate(0,0)"/>
<path d="" fill="#1B0000" transform="translate(0,0)"/>
<path d="" fill="#B5C82D" transform="translate(0,0)"/>
<path d="" fill="#0D0000" transform="translate(0,0)"/>
<path d="" fill="#010005" transform="translate(0,0)"/>
<path d="" fill="#010001" transform="translate(0,0)"/>
<path d="" fill="#010001" transform="translate(0,0)"/>
<path d="" fill="#FCB600" transform="translate(0,0)"/>
</svg>
