<?xml version="1.0" encoding="UTF-8"?>
<svg version="1.1" xmlns="http://www.w3.org/2000/svg" width="48" height="107">
<path d="M0 0 C1.65 0 3.3 0 5 0 C5 0.66 5 1.32 5 2 C6.32 2.66 7.64 3.32 9 4 C9 4.66 9 5.32 9 6 C9.66 6 10.32 6 11 6 C10.875 7.875 10.875 7.875 10 10 C6.9375 11.25 6.9375 11.25 4 12 C4 12.99 4 13.98 4 15 C3.29787234 21.55319149 3.29787234 21.55319149 1 25 C-1.30649516 26.33925525 -3.45823237 27.15274412 -6 28 C-8.6875 26.5 -8.6875 26.5 -11 24 C-11.3125 20.25 -11.3125 20.25 -11 17 C-10.34 16.67 -9.68 16.34 -9 16 C-9.04125 15.113125 -9.0825 14.22625 -9.125 13.3125 C-9.00102754 10.02722987 -8.38612096 7.94550705 -7 5 C-6.34 5 -5.68 5 -5 5 C-5 4.34 -5 3.68 -5 3 C-4.360625 2.87625 -3.72125 2.7525 -3.0625 2.625 C-2.381875 2.41875 -1.70125 2.2125 -1 2 C-0.67 1.34 -0.34 0.68 0 0 Z " fill="#D79E11" transform="translate(33,0)"/>
<path d="M0 0 C0.12375 0.598125 0.2475 1.19625 0.375 1.8125 C0.95475985 4.26231348 0.95475985 4.26231348 3 7 C0.54752852 12.64068441 0.54752852 12.64068441 -2 14.3125 C-3.66349042 14.88432483 -5.3312383 15.4437461 -7 16 C-7.33 15.01 -7.66 14.02 -8 13 C-7.21238281 12.78601562 -6.42476562 12.57203125 -5.61328125 12.3515625 C-2.7767034 11.23122363 -2.7767034 11.23122363 -1.85546875 8.3984375 C-1.52482422 6.90183594 -1.52482422 6.90183594 -1.1875 5.375 C-0.83751953 3.87066406 -0.83751953 3.87066406 -0.48046875 2.3359375 C-0.32191406 1.56507812 -0.16335937 0.79421875 0 0 Z " fill="#20150A" transform="translate(34,12)"/>
<path d="M0 0 C0.99 0.33 1.98 0.66 3 1 C4.1875 4.0625 4.1875 4.0625 5 7 C3.35 7.33 1.7 7.66 0 8 C0 8.99 0 9.98 0 11 C-0.66 11.66 -1.32 12.32 -2 13 C-2.33 11.02 -2.66 9.04 -3 7 C-2.34 7 -1.68 7 -1 7 C-1.33 6.01 -1.66 5.02 -2 4 C-1.0625 1.8125 -1.0625 1.8125 0 0 Z " fill="#DB9612" transform="translate(37,4)"/>
<path d="M0 0 C1.65 0 3.3 0 5 0 C5 0.66 5 1.32 5 2 C6.32 2.66 7.64 3.32 9 4 C9 4.66 9 5.32 9 6 C9.66 6 10.32 6 11 6 C10.67 7.32 10.34 8.64 10 10 C9.34 10 8.68 10 8 10 C7.814375 9.21625 7.62875 8.4325 7.4375 7.625 C6.16038373 4.60623658 6.16038373 4.60623658 2.375 3.6875 C1.26125 3.460625 0.1475 3.23375 -1 3 C-0.67 2.01 -0.34 1.02 0 0 Z " fill="#180E06" transform="translate(33,0)"/>
<path d="M0 0 C0.99 0.66 1.98 1.32 3 2 C2.88541307 3.43836751 2.75790884 4.87570966 2.625 6.3125 C2.55539063 7.11300781 2.48578125 7.91351563 2.4140625 8.73828125 C2 11 2 11 0 14 C-0.66 13.67 -1.32 13.34 -2 13 C-1.814375 11.906875 -1.62875 10.81375 -1.4375 9.6875 C-0.7421932 6.06375867 -0.7421932 6.06375867 -2 3 C-1.34 3 -0.68 3 0 3 C0 2.01 0 1.02 0 0 Z M0 3 C1 5 1 5 1 5 Z " fill="#4A2E0A" transform="translate(42,28)"/>
<path d="M0 0 C0.66 0 1.32 0 2 0 C2 0.99 2 1.98 2 3 C2.99 3.33 3.98 3.66 5 4 C4.67 5.65 4.34 7.3 4 9 C2.35 8.67 0.7 8.34 -1 8 C-0.67 5.36 -0.34 2.72 0 0 Z " fill="#1B0A05" transform="translate(43,16)"/>
<path d="M0 0 C2.475 0.99 2.475 0.99 5 2 C4.01 2.495 4.01 2.495 3 3 C3 4.32 3 5.64 3 7 C2.01 7.33 1.02 7.66 0 8 C-0.33 8.66 -0.66 9.32 -1 10 C-1.33 9.01 -1.66 8.02 -2 7 C-1.34 6.01 -0.68 5.02 0 4 C0 2.68 0 1.36 0 0 Z " fill="#433110" transform="translate(35,53)"/>
<path d="M0 0 C0.99 0.33 1.98 0.66 3 1 C3.33 3.31 3.66 5.62 4 8 C3.01 8 2.02 8 1 8 C0 7 0 7 -0.0625 3.4375 C-0.041875 2.303125 -0.02125 1.16875 0 0 Z " fill="#050105" transform="translate(22,17)"/>
<path d="M0 0 C0.99 0 1.98 0 3 0 C2.34 2.97 1.68 5.94 1 9 C-1 7 -1 7 -1.1875 3.9375 C-1 1 -1 1 0 0 Z " fill="#150D08" transform="translate(25,9)"/>
<path d="M0 0 C0.66 0 1.32 0 2 0 C2.625 1.875 2.625 1.875 3 4 C2.34 4.66 1.68 5.32 1 6 C-1.125 5.625 -1.125 5.625 -3 5 C-1.625 2.5 -1.625 2.5 0 0 Z " fill="#F4B410" transform="translate(29,19)"/>
<path d="M0 0 C0.66 0.33 1.32 0.66 2 1 C1.34 2.65 0.68 4.3 0 6 C-0.66 5.67 -1.32 5.34 -2 5 C-2 4.01 -2 3.02 -2 2 C-1.34 2 -0.68 2 0 2 C0 1.34 0 0.68 0 0 Z " fill="#12110A" transform="translate(10,99)"/>
<path d="M0 0 C1.32 0.66 2.64 1.32 4 2 C2.68 2.99 1.36 3.98 0 5 C-0.66 4.67 -1.32 4.34 -2 4 C-2 3.34 -2 2.68 -2 2 C-1.34 2 -0.68 2 0 2 C0 1.34 0 0.68 0 0 Z " fill="#63530C" transform="translate(19,83)"/>
<path d="M0 0 C-0.3125 1.875 -0.3125 1.875 -1 4 C-1.99 4.66 -2.98 5.32 -4 6 C-4 4.35 -4 2.7 -4 1 C-2 0 -2 0 0 0 Z " fill="#825B09" transform="translate(38,27)"/>
<path d="M0 0 C0.99 0.99 1.98 1.98 3 3 C2.67 3.99 2.34 4.98 2 6 C1.34 6 0.68 6 0 6 C0 4.02 0 2.04 0 0 Z " fill="#D0C61E" transform="translate(12,86)"/>
<path d="M0 0 C1.32 0 2.64 0 4 0 C3.67 1.32 3.34 2.64 3 4 C2.01 2.68 1.02 1.36 0 0 Z " fill="#684F0A" transform="translate(26,72)"/>
<path d="M0 0 C-1.65 0.66 -3.3 1.32 -5 2 C-5.33 1.34 -5.66 0.68 -6 0 C-3.50907189 -1.24546405 -2.58919267 -0.7767578 0 0 Z " fill="#77590B" transform="translate(31,58)"/>
<path d="M0 0 C0 0.99 0 1.98 0 3 C-1.32 2.67 -2.64 2.34 -4 2 C-2.68 1.34 -1.36 0.68 0 0 Z " fill="#856218" transform="translate(32,49)"/>
<path d="M0 0 C1.485 0.99 1.485 0.99 3 2 C1.68 2.33 0.36 2.66 -1 3 C-0.67 2.01 -0.34 1.02 0 0 Z " fill="#0D0804" transform="translate(43,10)"/>
<path d="M0 0 C0.99 0.33 1.98 0.66 3 1 C2.67 1.66 2.34 2.32 2 3 C1.34 3 0.68 3 0 3 C0 2.01 0 1.02 0 0 Z " fill="#030003" transform="translate(39,48)"/>
<path d="M0 0 C0.99 0.33 1.98 0.66 3 1 C2.34 1.66 1.68 2.32 1 3 C0.67 2.01 0.34 1.02 0 0 Z " fill="#3E2B14" transform="translate(32,63)"/>
<path d="M0 0 C0 0.99 0 1.98 0 3 C-0.66 2.67 -1.32 2.34 -2 2 C-1.34 1.34 -0.68 0.68 0 0 Z " fill="#FBB403" transform="translate(32,52)"/>
<path d="M0 0 C0.66 0.66 1.32 1.32 2 2 C1.01 2.33 0.02 2.66 -1 3 C-0.67 2.01 -0.34 1.02 0 0 Z " fill="#3C2B05" transform="translate(33,38)"/>
<path d="M0 0 C0 3 0 3 0 3 Z " fill="#060300" transform="translate(17,89)"/>
<path d="M0 0 C0 3 0 3 0 3 Z " fill="#2E210E" transform="translate(21,70)"/>
<path d="M0 0 C0.99 0.33 1.98 0.66 3 1 C2.01 1 1.02 1 0 1 C0 0.67 0 0.34 0 0 Z " fill="#010002" transform="translate(28,47)"/>
<path d="M0 0 C4 1 4 1 4 1 Z " fill="#FBAD05" transform="translate(34,46)"/>
<path d="M0 0 C0.99 0.33 1.98 0.66 3 1 C2.01 1.33 1.02 1.66 0 2 C0 1.34 0 0.68 0 0 Z " fill="#A57213" transform="translate(41,14)"/>
<path d="M0 0 C3 1 3 1 3 1 Z " fill="#000003" transform="translate(2,106)"/>
<path d="M0 0 C0.33 0.66 0.66 1.32 1 2 C0.34 1.67 -0.32 1.34 -1 1 C-0.67 0.67 -0.34 0.34 0 0 Z " fill="#1D1A11" transform="translate(1,101)"/>
<path d="M0 0 C0.99 0.495 0.99 0.495 2 1 C1.01 1.495 1.01 1.495 0 2 C0 1.34 0 0.68 0 0 Z " fill="#C4C626" transform="translate(11,93)"/>
<path d="M0 0 C3 1 3 1 3 1 Z " fill="#D9C517" transform="translate(15,82)"/>
<path d="M0 0 C0.33 0.66 0.66 1.32 1 2 C0.34 1.67 -0.32 1.34 -1 1 C-0.67 0.67 -0.34 0.34 0 0 Z " fill="#59460C" transform="translate(26,76)"/>
<path d="M0 0 C0.99 0.495 0.99 0.495 2 1 C1.01 1.495 1.01 1.495 0 2 C0 1.34 0 0.68 0 0 Z " fill="#FAAD05" transform="translate(35,50)"/>
<path d="M0 0 C0.33 0.66 0.66 1.32 1 2 C0.34 1.67 -0.32 1.34 -1 1 C-0.67 0.67 -0.34 0.34 0 0 Z " fill="#000004" transform="translate(42,42)"/>
<path d="M0 0 C0.66 0 1.32 0 2 0 C1.67 0.66 1.34 1.32 1 2 C0.67 1.34 0.34 0.68 0 0 Z " fill="#391B05" transform="translate(33,34)"/>
<path d="M0 0 C0.99 0.495 0.99 0.495 2 1 C1.01 1.495 1.01 1.495 0 2 C0 1.34 0 0.68 0 0 Z " fill="#FBAF0D" transform="translate(36,32)"/>
<path d="M0 0 C0.66 0.66 1.32 1.32 2 2 C1.34 2 0.68 2 0 2 C0 1.34 0 0.68 0 0 Z " fill="#000000" transform="translate(46,27)"/>
<path d="" fill="#B1C427" transform="translate(0,0)"/>
<path d="M0 0 C2 1 2 1 2 1 Z " fill="#FCBE03" transform="translate(24,75)"/>
<path d="" fill="#FAC210" transform="translate(0,0)"/>
<path d="M0 0 C2 1 2 1 2 1 Z " fill="#F4BF1B" transform="translate(26,62)"/>
<path d="M0 0 C2 1 2 1 2 1 Z " fill="#010007" transform="translate(26,55)"/>
<path d="" fill="#000002" transform="translate(0,0)"/>
<path d="M0 0 C2 1 2 1 2 1 Z " fill="#57351D" transform="translate(37,51)"/>
<path d="M0 0 C2 1 2 1 2 1 Z " fill="#000005" transform="translate(30,43)"/>
<path d="M0 0 C2 1 2 1 2 1 Z " fill="#FCAF02" transform="translate(34,42)"/>
<path d="" fill="#FEA501" transform="translate(0,0)"/>
<path d="" fill="#010001" transform="translate(0,0)"/>
<path d="" fill="#010001" transform="translate(0,0)"/>
<path d="" fill="#010104" transform="translate(0,0)"/>
<path d="" fill="#010005" transform="translate(0,0)"/>
<path d="" fill="#B1C427" transform="translate(0,0)"/>
<path d="" fill="#010003" transform="translate(0,0)"/>
<path d="" fill="#010009" transform="translate(0,0)"/>
<path d="" fill="#010003" transform="translate(0,0)"/>
<path d="" fill="#010003" transform="translate(0,0)"/>
<path d="" fill="#000100" transform="translate(0,0)"/>
<path d="" fill="#E8CA43" transform="translate(0,0)"/>
<path d="" fill="#010005" transform="translate(0,0)"/>
<path d="" fill="#E8C50D" transform="translate(0,0)"/>
<path d="" fill="#000001" transform="translate(0,0)"/>
<path d="" fill="#020001" transform="translate(0,0)"/>
<path d="" fill="#F3C201" transform="translate(0,0)"/>
<path d="" fill="#FBC102" transform="translate(0,0)"/>
<path d="" fill="#F7C643" transform="translate(0,0)"/>
<path d="" fill="#F3C401" transform="translate(0,0)"/>
<path d="" fill="#FBC102" transform="translate(0,0)"/>
<path d="" fill="#16110D" transform="translate(0,0)"/>
<path d="" fill="#010200" transform="translate(0,0)"/>
<path d="" fill="#010001" transform="translate(0,0)"/>
<path d="" fill="#000109" transform="translate(0,0)"/>
<path d="" fill="#000000" transform="translate(0,0)"/>
<path d="" fill="#F8B520" transform="translate(0,0)"/>
<path d="" fill="#000001" transform="translate(0,0)"/>
<path d="" fill="#000109" transform="translate(0,0)"/>
<path d="" fill="#FEB004" transform="translate(0,0)"/>
<path d="" fill="#FCB600" transform="translate(0,0)"/>
<path d="" fill="#000001" transform="translate(0,0)"/>
<path d="" fill="#F8B520" transform="translate(0,0)"/>
<path d="" fill="#FEB004" transform="translate(0,0)"/>
<path d="" fill="#FEB004" transform="translate(0,0)"/>
<path d="" fill="#010005" transform="translate(0,0)"/>
<path d="" fill="#534730" transform="translate(0,0)"/>
<path d="" fill="#000109" transform="translate(0,0)"/>
<path d="" fill="#000000" transform="translate(0,0)"/>
<path d="" fill="#FCB600" transform="translate(0,0)"/>
<path d="" fill="#FCB600" transform="translate(0,0)"/>
<path d="" fill="#000000" transform="translate(0,0)"/>
<path d="" fill="#020001" transform="translate(0,0)"/>
<path d="" fill="#FEB004" transform="translate(0,0)"/>
<path d="" fill="#FCA905" transform="translate(0,0)"/>
<path d="" fill="#C9AC56" transform="translate(0,0)"/>
<path d="" fill="#FCA905" transform="translate(0,0)"/>
<path d="" fill="#010009" transform="translate(0,0)"/>
<path d="" fill="#FCA905" transform="translate(0,0)"/>
<path d="" fill="#000000" transform="translate(0,0)"/>
<path d="" fill="#FEB004" transform="translate(0,0)"/>
<path d="" fill="#01020B" transform="translate(0,0)"/>
<path d="" fill="#000001" transform="translate(0,0)"/>
<path d="" fill="#FEA501" transform="translate(0,0)"/>
<path d="" fill="#010003" transform="translate(0,0)"/>
<path d="" fill="#FEB004" transform="translate(0,0)"/>
<path d="" fill="#010003" transform="translate(0,0)"/>
<path d="" fill="#010005" transform="translate(0,0)"/>
<path d="" fill="#FEA501" transform="translate(0,0)"/>
<path d="" fill="#030506" transform="translate(0,0)"/>
<path d="" fill="#FCA905" transform="translate(0,0)"/>
<path d="" fill="#FCA905" transform="translate(0,0)"/>
<path d="" fill="#FCA905" transform="translate(0,0)"/>
<path d="" fill="#F8B520" transform="translate(0,0)"/>
<path d="" fill="#FCA905" transform="translate(0,0)"/>
<path d="" fill="#000000" transform="translate(0,0)"/>
<path d="" fill="#FCA905" transform="translate(0,0)"/>
<path d="" fill="#FEA501" transform="translate(0,0)"/>
<path d="" fill="#F8B520" transform="translate(0,0)"/>
<path d="" fill="#FCA905" transform="translate(0,0)"/>
<path d="" fill="#010005" transform="translate(0,0)"/>
</svg>
