<?xml version="1.0" encoding="UTF-8"?>
<svg version="1.1" xmlns="http://www.w3.org/2000/svg" width="26" height="32">
<path d="M0 0 C0 1.32 0 2.64 0 4 C-0.66 4 -1.32 4 -2 4 C-2.33 5.65 -2.66 7.3 -3 9 C-3.99 9.33 -4.98 9.66 -6 10 C-6 10.99 -6 11.98 -6 13 C-6.66 13 -7.32 13 -8 13 C-8 13.66 -8 14.32 -8 15 C-9.98 15.99 -9.98 15.99 -12 17 C-12 16.34 -12 15.68 -12 15 C-12.639375 14.87625 -13.27875 14.7525 -13.9375 14.625 C-14.9584375 14.315625 -14.9584375 14.315625 -16 14 C-16.33 13.34 -16.66 12.68 -17 12 C-17.99 12 -18.98 12 -20 12 C-20 11.01 -20 10.02 -20 9 C-19.34 9 -18.68 9 -18 9 C-18 8.01 -18 7.02 -18 6 C-17.34 6 -16.68 6 -16 6 C-16 5.01 -16 4.02 -16 3 C-15.34 3 -14.68 3 -14 3 C-13.67 2.01 -13.34 1.02 -13 0 C-9.07214431 -3.02142745 -4.23873427 -2.11936713 0 0 Z " fill="#928218" transform="translate(26,3)"/>
<path d="M0 0 C2.97 0.495 2.97 0.495 6 1 C5.34 2.65 4.68 4.3 4 6 C8.12612615 6.44844853 8.12612615 6.44844853 10.75 3.5 C11.4925 2.675 12.235 1.85 13 1 C13.66 1.66 14.32 2.32 15 3 C14.01 3.33 13.02 3.66 12 4 C12 4.99 12 5.98 12 7 C11.34 7 10.68 7 10 7 C10 7.66 10 8.32 10 9 C8.02 9.99 8.02 9.99 6 11 C6 10.34 6 9.68 6 9 C5.360625 8.87625 4.72125 8.7525 4.0625 8.625 C3.381875 8.41875 2.70125 8.2125 2 8 C1.67 7.34 1.34 6.68 1 6 C0.01 6 -0.98 6 -2 6 C-2 5.01 -2 4.02 -2 3 C-1.34 3 -0.68 3 0 3 C0 2.01 0 1.02 0 0 Z " fill="#767621" transform="translate(8,9)"/>
<path d="M0 0 C6.75 0.875 6.75 0.875 9 2 C9 3.32 9 4.64 9 6 C8.34 6 7.68 6 7 6 C7 6.99 7 7.98 7 9 C6.01 8.67 5.02 8.34 4 8 C4.33 6.02 4.66 4.04 5 2 C3.02 2 1.04 2 -1 2 C-0.67 1.34 -0.34 0.68 0 0 Z " fill="#1F190C" transform="translate(17,1)"/>
<path d="M0 0 C-0.33 1.98 -0.66 3.96 -1 6 C-2.65 6.33 -4.3 6.66 -6 7 C-6.33 6.34 -6.66 5.68 -7 5 C-2.25 0 -2.25 0 0 0 Z " fill="#D4C21B" transform="translate(18,9)"/>
<path d="M0 0 C0.66 0.66 1.32 1.32 2 2 C1.01 2.33 0.02 2.66 -1 3 C-1 3.99 -1 4.98 -1 6 C-1.66 6 -2.32 6 -3 6 C-3 6.66 -3 7.32 -3 8 C-4.98 8.99 -4.98 8.99 -7 10 C-5.6062718 5.56541027 -3.39417765 3.12621626 0 0 Z " fill="#090705" transform="translate(21,10)"/>
<path d="M0 0 C1.98 0 3.96 0 6 0 C6 1.65 6 3.3 6 5 C5.01 5 4.02 5 3 5 C2.87625 4.360625 2.7525 3.72125 2.625 3.0625 C2.315625 2.0415625 2.315625 2.0415625 2 1 C1.34 0.67 0.68 0.34 0 0 Z " fill="#E5BD1C" transform="translate(16,3)"/>
<path d="M0 0 C0.99 0.495 0.99 0.495 2 1 C1.01 1.495 1.01 1.495 0 2 C0 1.34 0 0.68 0 0 Z " fill="#000005" transform="translate(11,25)"/>
<path d="M0 0 C0.66 0.66 1.32 1.32 2 2 C1.34 2 0.68 2 0 2 C0 1.34 0 0.68 0 0 Z " fill="#525716" transform="translate(11,21)"/>
<path d="M0 0 C0.99 0.495 0.99 0.495 2 1 C1.01 1.495 1.01 1.495 0 2 C0 1.34 0 0.68 0 0 Z " fill="#CAC325" transform="translate(10,19)"/>
<path d="M0 0 C0.66 0 1.32 0 2 0 C1.67 0.66 1.34 1.32 1 2 C0.67 1.34 0.34 0.68 0 0 Z " fill="#000002" transform="translate(4,15)"/>
<path d="M0 0 C2 1 2 1 2 1 Z " fill="#020308" transform="translate(5,30)"/>
<path d="M0 0 C2 1 2 1 2 1 Z " fill="#000102" transform="translate(9,28)"/>
<path d="M0 0 C2 1 2 1 2 1 Z " fill="#B3C62A" transform="translate(7,22)"/>
<path d="M0 0 C2 1 2 1 2 1 Z " fill="#ADC629" transform="translate(6,18)"/>
<path d="" fill="#010003" transform="translate(0,0)"/>
<path d="" fill="#010203" transform="translate(0,0)"/>
<path d="" fill="#030506" transform="translate(0,0)"/>
<path d="" fill="#010101" transform="translate(0,0)"/>
<path d="" fill="#A6C526" transform="translate(0,0)"/>
<path d="" fill="#130D02" transform="translate(0,0)"/>
<path d="" fill="#010005" transform="translate(0,0)"/>
<path d="" fill="#B5C82D" transform="translate(0,0)"/>
<path d="" fill="#A6C526" transform="translate(0,0)"/>
<path d="" fill="#010009" transform="translate(0,0)"/>
<path d="" fill="#B1C427" transform="translate(0,0)"/>
<path d="" fill="#010005" transform="translate(0,0)"/>
<path d="" fill="#010009" transform="translate(0,0)"/>
<path d="" fill="#000001" transform="translate(0,0)"/>
<path d="" fill="#000100" transform="translate(0,0)"/>
<path d="" fill="#000100" transform="translate(0,0)"/>
</svg>
