<?xml version="1.0" encoding="UTF-8"?>
<svg version="1.1" xmlns="http://www.w3.org/2000/svg" width="182" height="59">
<path d="M0 0 C0.103125 0.61875 0.20625 1.2375 0.3125 1.875 C0.87525373 4.36526484 0.87525373 4.36526484 4 6 C1.33192804 12.64179615 -0.92148586 16.94765724 -7 21 C-9.15625 21.23046875 -9.15625 21.23046875 -11.5 21.1875 C-12.2734375 21.18105469 -13.046875 21.17460938 -13.84375 21.16796875 C-16 21 -16 21 -19 20 C-19.33 19.34 -19.66 18.68 -20 18 C-22.01669827 16.86649466 -22.01669827 16.86649466 -24 16 C-23.67 15.34 -23.34 14.68 -23 14 C-23.66 14 -24.32 14 -25 14 C-25 12.02 -25 10.04 -25 8 C-23.96359375 8.06960937 -22.9271875 8.13921875 -21.859375 8.2109375 C-20.48964826 8.26722764 -19.11985127 8.32182648 -17.75 8.375 C-17.06808594 8.42527344 -16.38617188 8.47554687 -15.68359375 8.52734375 C-13.38365363 8.6568371 -13.38365363 8.6568371 -10 8 C-7.45813043 5.12763931 -7.45813043 5.12763931 -6 2 C-5.67 2.66 -5.34 3.32 -5 4 C-4.67 3.34 -4.34 2.68 -4 2 C-1.9375 0.875 -1.9375 0.875 0 0 Z M-14 10 C-10 11 -10 11 -10 11 Z " fill="#763695" transform="translate(175,38)"/>
<path d="M0 0 C4.08378283 0.74250597 8.01939223 1.82923301 12 3 C12 5.31 12 7.62 12 10 C5.97463002 10.602537 5.97463002 10.602537 3.19921875 8.88671875 C1.74400545 7.65378147 0.36520843 6.33191067 -1 5 C-0.67 3.35 -0.34 1.7 0 0 Z " fill="#B145A1" transform="translate(154,47)"/>
<path d="M0 0 C0.103125 0.61875 0.20625 1.2375 0.3125 1.875 C0.87525373 4.36526484 0.87525373 4.36526484 4 6 C3.01 7.485 3.01 7.485 2 9 C1.34 9 0.68 9 0 9 C0 9.66 0 10.32 0 11 C-2.375 11.625 -2.375 11.625 -5 12 C-5.66 11.34 -6.32 10.68 -7 10 C-6.34 10 -5.68 10 -5 10 C-5.020625 9.05125 -5.04125 8.1025 -5.0625 7.125 C-5 4 -5 4 -4 2 C-1.9375 0.875 -1.9375 0.875 0 0 Z " fill="#6E3BA4" transform="translate(175,38)"/>
<path d="M0 0 C5.77807024 -0.2358396 10.51324804 0.13216954 16 2 C16 2.66 16 3.32 16 4 C13.125 4.125 13.125 4.125 10 4 C9.34 3.34 8.68 2.68 8 2 C6.68 2 5.36 2 4 2 C4.165 2.763125 4.33 3.52625 4.5 4.3125 C5 7 5 7 5 10 C3.68 9.34 2.36 8.68 1 8 C1.33 7.34 1.66 6.68 2 6 C1.34 6 0.68 6 0 6 C0 4.02 0 2.04 0 0 Z M11 2 C15 3 15 3 15 3 Z " fill="#1E0B18" transform="translate(150,46)"/>
<path d="M0 0 C0.66 0.66 1.32 1.32 2 2 C0.49589387 5.76026532 -0.44041127 7.65472185 -3.9375 9.8125 C-4.948125 10.204375 -5.95875 10.59625 -7 11 C-7.61875 11.2475 -8.2375 11.495 -8.875 11.75 C-12.32550984 12.15594233 -15.57222576 11.51416614 -19 11 C-19 10.01 -19 9.02 -19 8 C-18.01 8.33 -17.02 8.66 -16 9 C-11.80828319 9.39544498 -9.51924698 9.26960901 -5.75 7.3125 C-3.04392427 5.03693632 -1.57000682 3.14001365 0 0 Z " fill="#110519" transform="translate(175,47)"/>
<path d="M0 0 C0 2.31 0 4.62 0 7 C-1.65 6.67 -3.3 6.34 -5 6 C-5.33 4.35 -5.66 2.7 -6 1 C-3.92446352 0.4465236 -2.15634036 0 0 0 Z " fill="#AE46BB" transform="translate(166,50)"/>
<path d="M0 0 C0.66 0 1.32 0 2 0 C4 3 4 3 4 7 C2.125 7.625 2.125 7.625 0 8 C-0.66 7.34 -1.32 6.68 -2 6 C-1.34 6 -0.68 6 0 6 C0 4.02 0 2.04 0 0 Z " fill="#9F49D9" transform="translate(170,42)"/>
<path d="M0 0 C1.32 0 2.64 0 4 0 C3.67 0.99 3.34 1.98 3 3 C3.38932856 5.14255793 3.38932856 5.14255793 4 7 C2.68 6.67 1.36 6.34 0 6 C-0.38218767 4.34385343 -0.71395102 2.67542976 -1 1 C-0.67 0.67 -0.34 0.34 0 0 Z " fill="#BE489D" transform="translate(154,47)"/>
<path d="M0 0 C1.8141927 0.28094582 3.62635001 0.57506433 5.4375 0.875 C6.95150391 1.11863281 6.95150391 1.11863281 8.49609375 1.3671875 C9.32238281 1.57601562 10.14867187 1.78484375 11 2 C11.33 2.66 11.66 3.32 12 4 C10.56260487 4.02712066 9.12506137 4.04645067 7.6875 4.0625 C6.48673828 4.07990234 6.48673828 4.07990234 5.26171875 4.09765625 C3 4 3 4 0 3 C0 2.01 0 1.02 0 0 Z " fill="#0B040C" transform="translate(156,55)"/>
<path d="M0 0 C0.33 1.32 0.66 2.64 1 4 C2.32 3.67 3.64 3.34 5 3 C5.33 4.65 5.66 6.3 6 8 C3.69 7.34 1.38 6.68 -1 6 C-0.67 4.02 -0.34 2.04 0 0 Z " fill="#60265F" transform="translate(161,4)"/>
<path d="M0 0 C0.99 0 1.98 0 3 0 C3.33 2.31 3.66 4.62 4 7 C3.67 6.34 3.34 5.68 3 5 C1.68 5 0.36 5 -1 5 C-1.33 4.01 -1.66 3.02 -2 2 C-1.34 1.34 -0.68 0.68 0 0 Z M0 1 C1 3 1 3 1 3 Z " fill="#B12231" transform="translate(120,29)"/>
<path d="M0 0 C0.99 0 1.98 0 3 0 C2.6875 2.375 2.6875 2.375 2 5 C1.01 5.66 0.02 6.32 -1 7 C-0.67 4.69 -0.34 2.38 0 0 Z " fill="#190818" transform="translate(159,11)"/>
<path d="M0 0 C1.32 0 2.64 0 4 0 C3.67 1.32 3.34 2.64 3 4 C1.68 3.67 0.36 3.34 -1 3 C-0.67 2.01 -0.34 1.02 0 0 Z " fill="#402565" transform="translate(177,18)"/>
<path d="M0 0 C0.66 0.66 1.32 1.32 2 2 C1.01 2.99 0.02 3.98 -1 5 C-1.99 4.67 -2.98 4.34 -4 4 C-3.34 3.01 -2.68 2.02 -2 1 C-1.34 1.33 -0.68 1.66 0 2 C0 1.34 0 0.68 0 0 Z " fill="#924FD7" transform="translate(175,33)"/>
<path d="M0 0 C0.66 0.33 1.32 0.66 2 1 C2 1.66 2 2.32 2 3 C1.01 3 0.02 3 -1 3 C-1.33 3.66 -1.66 4.32 -2 5 C-2 3.68 -2 2.36 -2 1 C-1.34 0.67 -0.68 0.34 0 0 Z " fill="#7E480E" transform="translate(61,41)"/>
<path d="M0 0 C0.66 0.66 1.32 1.32 2 2 C1.01 2 0.02 2 -1 2 C-1.33 2.66 -1.66 3.32 -2 4 C-2.66 4 -3.32 4 -4 4 C-4 3.34 -4 2.68 -4 2 C-2.68 1.34 -1.36 0.68 0 0 Z " fill="#D1C51C" transform="translate(16,36)"/>
<path d="M0 0 C0.33 0.66 0.66 1.32 1 2 C1.66 2 2.32 2 3 2 C2.67 2.66 2.34 3.32 2 4 C0.68 3.67 -0.64 3.34 -2 3 C-1 1 -1 1 0 0 Z " fill="#3B1A48" transform="translate(168,0)"/>
<path d="M0 0 C0.33 0.99 0.66 1.98 1 3 C1.66 3.33 2.32 3.66 3 4 C1.68 4.33 0.36 4.66 -1 5 C-0.67 3.35 -0.34 1.7 0 0 Z " fill="#B12137" transform="translate(133,54)"/>
<path d="M0 0 C0.99 0.495 0.99 0.495 2 1 C1.67 2.32 1.34 3.64 1 5 C0.67 3.35 0.34 1.7 0 0 Z " fill="#F83D29" transform="translate(93,10)"/>
<path d="M0 0 C1.98 0.99 1.98 0.99 4 2 C2.68 2.33 1.36 2.66 0 3 C0 2.01 0 1.02 0 0 Z " fill="#F5302E" transform="translate(101,53)"/>
<path d="M0 0 C0.66 0.66 1.32 1.32 2 2 C1.01 2.66 0.02 3.32 -1 4 C-0.67 2.68 -0.34 1.36 0 0 Z " fill="#392610" transform="translate(59,36)"/>
<path d="M0 0 C2.475 0.99 2.475 0.99 5 2 C3.68 2.33 2.36 2.66 1 3 C0.67 2.01 0.34 1.02 0 0 Z " fill="#552F86" transform="translate(176,31)"/>
<path d="M0 0 C1.32 0 2.64 0 4 0 C3.67 0.66 3.34 1.32 3 2 C2.01 1.67 1.02 1.34 0 1 C0 0.67 0 0.34 0 0 Z " fill="#210809" transform="translate(102,57)"/>
<path d="M0 0 C0.66 0.33 1.32 0.66 2 1 C1.67 1.66 1.34 2.32 1 3 C0.01 2.67 -0.98 2.34 -2 2 C-1.34 2 -0.68 2 0 2 C0 1.34 0 0.68 0 0 Z " fill="#000000" transform="translate(168,34)"/>
<path d="M0 0 C0.66 0 1.32 0 2 0 C1.67 0.99 1.34 1.98 1 3 C0.34 2.67 -0.32 2.34 -1 2 C-0.67 1.34 -0.34 0.68 0 0 Z " fill="#F82C3F" transform="translate(121,25)"/>
<path d="M0 0 C0.33 0.66 0.66 1.32 1 2 C1.99 2.33 2.98 2.66 4 3 C2.68 3 1.36 3 0 3 C0 2.01 0 1.02 0 0 Z " fill="#A148D6" transform="translate(169,7)"/>
<path d="M0 0 C1.65 0 3.3 0 5 0 C5 0.33 5 0.66 5 1 C3.35 1 1.7 1 0 1 C0 0.67 0 0.34 0 0 Z " fill="#F83B29" transform="translate(92,39)"/>
<path d="M0 0 C0.66 1.32 1.32 2.64 2 4 C1.34 3.67 0.68 3.34 0 3 C0 2.01 0 1.02 0 0 Z " fill="#000102" transform="translate(118,35)"/>
<path d="M0 0 C0.99 0.495 0.99 0.495 2 1 C1.67 1.99 1.34 2.98 1 4 C0.67 2.68 0.34 1.36 0 0 Z " fill="#E2C510" transform="translate(18,31)"/>
<path d="M0 0 C0.99 0.495 0.99 0.495 2 1 C1.01 2.485 1.01 2.485 0 4 C0 2.68 0 1.36 0 0 Z " fill="#964EDB" transform="translate(173,10)"/>
<path d="M0 0 C0.99 0 1.98 0 3 0 C2.67 0.66 2.34 1.32 2 2 C1.34 1.34 0.68 0.68 0 0 Z " fill="#D58D17" transform="translate(42,51)"/>
<path d="M0 0 C0.66 0 1.32 0 2 0 C1.67 0.99 1.34 1.98 1 3 C0.67 2.01 0.34 1.02 0 0 Z " fill="#230400" transform="translate(123,51)"/>
<path d="M0 0 C0 3 0 3 0 3 Z " fill="#841916" transform="translate(100,41)"/>
<path d="M0 0 C0.66 0 1.32 0 2 0 C2 0.66 2 1.32 2 2 C1.34 2 0.68 2 0 2 C0 1.34 0 0.68 0 0 Z " fill="#080004" transform="translate(134,25)"/>
<path d="M0 0 C0.99 0.33 1.98 0.66 3 1 C2.01 1.33 1.02 1.66 0 2 C0 1.34 0 0.68 0 0 Z " fill="#000000" transform="translate(157,0)"/>
<path d="M0 0 C0.33 0.66 0.66 1.32 1 2 C0.34 1.67 -0.32 1.34 -1 1 C-0.67 0.67 -0.34 0.34 0 0 Z " fill="#090000" transform="translate(100,56)"/>
<path d="M0 0 C3 1 3 1 3 1 Z " fill="#FA6A1A" transform="translate(73,56)"/>
<path d="M0 0 C0.66 0.66 1.32 1.32 2 2 C1.34 2 0.68 2 0 2 C0 1.34 0 0.68 0 0 Z " fill="#1C190C" transform="translate(9,51)"/>
<path d="M0 0 C0.99 0.495 0.99 0.495 2 1 C1.01 1.495 1.01 1.495 0 2 C0 1.34 0 0.68 0 0 Z " fill="#FD2848" transform="translate(129,51)"/>
<path d="M0 0 C3 1 3 1 3 1 Z " fill="#E7382F" transform="translate(94,47)"/>
<path d="M0 0 C0.99 0.495 0.99 0.495 2 1 C1.01 1.495 1.01 1.495 0 2 C0 1.34 0 0.68 0 0 Z " fill="#000004" transform="translate(72,46)"/>
<path d="" fill="#C4C626" transform="translate(0,0)"/>
<path d="M0 0 C0.99 0.495 0.99 0.495 2 1 C1.01 1.495 1.01 1.495 0 2 C0 1.34 0 0.68 0 0 Z " fill="#0B0003" transform="translate(39,39)"/>
<path d="M0 0 C0.33 0.66 0.66 1.32 1 2 C0.34 1.67 -0.32 1.34 -1 1 C-0.67 0.67 -0.34 0.34 0 0 Z " fill="#000005" transform="translate(7,39)"/>
<path d="" fill="#CCC621" transform="translate(0,0)"/>
<path d="M0 0 C0.99 0.495 0.99 0.495 2 1 C1.01 1.495 1.01 1.495 0 2 C0 1.34 0 0.68 0 0 Z " fill="#D9C629" transform="translate(17,28)"/>
<path d="M0 0 C0.99 0.495 0.99 0.495 2 1 C1.01 1.495 1.01 1.495 0 2 C0 1.34 0 0.68 0 0 Z " fill="#994BD8" transform="translate(172,16)"/>
<path d="M0 0 C3 1 3 1 3 1 Z " fill="#0D0210" transform="translate(172,5)"/>
<path d="M0 0 C2 1 2 1 2 1 Z " fill="#000000" transform="translate(70,58)"/>
<path d="M0 0 C2 1 2 1 2 1 Z " fill="#000007" transform="translate(7,53)"/>
<path d="M0 0 C2 1 2 1 2 1 Z " fill="#000100" transform="translate(94,51)"/>
<path d="M0 0 C2 1 2 1 2 1 Z " fill="#0A0703" transform="translate(11,49)"/>
<path d="M0 0 C2 1 2 1 2 1 Z " fill="#B5C82D" transform="translate(9,48)"/>
<path d="" fill="#F8332C" transform="translate(0,0)"/>
<path d="M0 0 C2 1 2 1 2 1 Z " fill="#FC7F07" transform="translate(64,45)"/>
<path d="M0 0 C2 1 2 1 2 1 Z " fill="#000001" transform="translate(180,42)"/>
<path d="M0 0 C2 1 2 1 2 1 Z " fill="#B3C62A" transform="translate(9,42)"/>
<path d="" fill="#E73933" transform="translate(0,0)"/>
<path d="" fill="#010004" transform="translate(0,0)"/>
<path d="M0 0 C2 1 2 1 2 1 Z " fill="#954FE0" transform="translate(173,32)"/>
<path d="M0 0 C2 1 2 1 2 1 Z " fill="#FC2844" transform="translate(123,28)"/>
<path d="" fill="#010009" transform="translate(0,0)"/>
<path d="M0 0 C2 1 2 1 2 1 Z " fill="#F92848" transform="translate(128,25)"/>
<path d="M0 0 C2 1 2 1 2 1 Z " fill="#FC2844" transform="translate(124,25)"/>
<path d="" fill="#FC3827" transform="translate(0,0)"/>
<path d="M0 0 C2 1 2 1 2 1 Z " fill="#FC3827" transform="translate(94,16)"/>
<path d="M0 0 C2 1 2 1 2 1 Z " fill="#A13227" transform="translate(91,14)"/>
<path d="M0 0 C2 1 2 1 2 1 Z " fill="#FD3726" transform="translate(96,11)"/>
<path d="" fill="#A248D4" transform="translate(0,0)"/>
<path d="" fill="#040000" transform="translate(0,0)"/>
<path d="" fill="#FD7315" transform="translate(0,0)"/>
<path d="" fill="#010200" transform="translate(0,0)"/>
<path d="" fill="#000001" transform="translate(0,0)"/>
<path d="" fill="#000001" transform="translate(0,0)"/>
<path d="" fill="#FA294D" transform="translate(0,0)"/>
<path d="" fill="#FD3229" transform="translate(0,0)"/>
<path d="" fill="#FA3131" transform="translate(0,0)"/>
<path d="" fill="#010005" transform="translate(0,0)"/>
<path d="" fill="#010001" transform="translate(0,0)"/>
<path d="" fill="#FD2A3C" transform="translate(0,0)"/>
<path d="" fill="#010009" transform="translate(0,0)"/>
<path d="" fill="#000000" transform="translate(0,0)"/>
<path d="" fill="#FD9F01" transform="translate(0,0)"/>
<path d="" fill="#B5C82D" transform="translate(0,0)"/>
<path d="" fill="#010003" transform="translate(0,0)"/>
<path d="" fill="#160000" transform="translate(0,0)"/>
<path d="" fill="#010005" transform="translate(0,0)"/>
<path d="" fill="#251A0A" transform="translate(0,0)"/>
<path d="" fill="#010009" transform="translate(0,0)"/>
<path d="" fill="#000001" transform="translate(0,0)"/>
<path d="" fill="#B1C427" transform="translate(0,0)"/>
<path d="" fill="#FD3229" transform="translate(0,0)"/>
<path d="" fill="#000000" transform="translate(0,0)"/>
<path d="" fill="#FD3627" transform="translate(0,0)"/>
<path d="" fill="#01020B" transform="translate(0,0)"/>
<path d="" fill="#FD2A3C" transform="translate(0,0)"/>
<path d="" fill="#420300" transform="translate(0,0)"/>
<path d="" fill="#000100" transform="translate(0,0)"/>
<path d="" fill="#FEA501" transform="translate(0,0)"/>
<path d="" fill="#000001" transform="translate(0,0)"/>
<path d="" fill="#010101" transform="translate(0,0)"/>
<path d="" fill="#FC8203" transform="translate(0,0)"/>
<path d="" fill="#CAC325" transform="translate(0,0)"/>
<path d="" fill="#CAC325" transform="translate(0,0)"/>
<path d="" fill="#03011A" transform="translate(0,0)"/>
<path d="" fill="#010104" transform="translate(0,0)"/>
<path d="" fill="#944EDE" transform="translate(0,0)"/>
<path d="" fill="#954ED0" transform="translate(0,0)"/>
<path d="" fill="#010003" transform="translate(0,0)"/>
<path d="" fill="#020001" transform="translate(0,0)"/>
<path d="" fill="#010009" transform="translate(0,0)"/>
<path d="" fill="#16110D" transform="translate(0,0)"/>
<path d="" fill="#010005" transform="translate(0,0)"/>
<path d="" fill="#9852E3" transform="translate(0,0)"/>
<path d="" fill="#EC3342" transform="translate(0,0)"/>
<path d="" fill="#010101" transform="translate(0,0)"/>
<path d="" fill="#FF2846" transform="translate(0,0)"/>
<path d="" fill="#934DDD" transform="translate(0,0)"/>
<path d="" fill="#934DDD" transform="translate(0,0)"/>
<path d="" fill="#210000" transform="translate(0,0)"/>
<path d="" fill="#000000" transform="translate(0,0)"/>
<path d="" fill="#FD3627" transform="translate(0,0)"/>
<path d="" fill="#944EDE" transform="translate(0,0)"/>
<path d="" fill="#954ED0" transform="translate(0,0)"/>
<path d="" fill="#58193B" transform="translate(0,0)"/>
<path d="" fill="#010200" transform="translate(0,0)"/>
<path d="" fill="#020001" transform="translate(0,0)"/>
<path d="" fill="#A648CE" transform="translate(0,0)"/>
<path d="" fill="#010203" transform="translate(0,0)"/>
<path d="" fill="#A648CE" transform="translate(0,0)"/>
<path d="" fill="#010003" transform="translate(0,0)"/>
<path d="" fill="#010003" transform="translate(0,0)"/>
<path d="" fill="#1B0000" transform="translate(0,0)"/>
<path d="" fill="#BD46AB" transform="translate(0,0)"/>
<path d="" fill="#000000" transform="translate(0,0)"/>
<path d="" fill="#010009" transform="translate(0,0)"/>
<path d="" fill="#000100" transform="translate(0,0)"/>
<path d="" fill="#BD46AB" transform="translate(0,0)"/>
<path d="" fill="#A648CE" transform="translate(0,0)"/>
<path d="" fill="#B247BD" transform="translate(0,0)"/>
<path d="" fill="#000000" transform="translate(0,0)"/>
<path d="" fill="#B247BD" transform="translate(0,0)"/>
<path d="" fill="#080000" transform="translate(0,0)"/>
<path d="" fill="#000000" transform="translate(0,0)"/>
<path d="" fill="#4F1B68" transform="translate(0,0)"/>
</svg>
