<?xml version="1.0" encoding="UTF-8"?>
<svg version="1.1" xmlns="http://www.w3.org/2000/svg" width="71" height="34">
<path d="M0 0 C2.31 0.33 4.62 0.66 7 1 C5 3 5 3 2.375 3.125 C1.59125 3.08375 0.8075 3.0425 0 3 C0 2.01 0 1.02 0 0 Z " fill="#301F0B" transform="translate(2,31)"/>
<path d="M0 0 C0.66 0 1.32 0 2 0 C2 0.99 2 1.98 2 3 C0.68 3.33 -0.64 3.66 -2 4 C-1.34 2.68 -0.68 1.36 0 0 Z " fill="#A45D11" transform="translate(14,16)"/>
<path d="M0 0 C0.66 0.66 1.32 1.32 2 2 C1.01 2.495 1.01 2.495 0 3 C0 2.01 0 1.02 0 0 Z " fill="#0B0607" transform="translate(11,12)"/>
<path d="M0 0 C0 3 0 3 0 3 Z " fill="#33281C" transform="translate(12,8)"/>
<path d="M0 0 C0.99 0.495 0.99 0.495 2 1 C1.01 1.495 1.01 1.495 0 2 C0 1.34 0 0.68 0 0 Z " fill="#FC8404" transform="translate(14,8)"/>
<path d="" fill="#010009" transform="translate(0,0)"/>
<path d="" fill="#010001" transform="translate(0,0)"/>
<path d="" fill="#000001" transform="translate(0,0)"/>
<path d="" fill="#010009" transform="translate(0,0)"/>
</svg>
