<?xml version="1.0" encoding="UTF-8"?>
<svg version="1.1" xmlns="http://www.w3.org/2000/svg" width="102" height="108">
<path d="M0 0 C2.91780427 2.26940332 4.55134433 4.61980343 6 8 C6.66 8 7.32 8 8 8 C8 9.32 8 10.64 8 12 C7.34 12 6.68 12 6 12 C6.020625 12.7425 6.04125 13.485 6.0625 14.25 C5.98126624 17.82428548 5.1263636 20.62090921 4 24 C4.66 24 5.32 24 6 24 C6 26.97 6 29.94 6 33 C6.66 33.33 7.32 33.66 8 34 C8 35.98 8 37.96 8 40 C6.515 40.495 6.515 40.495 5 41 C4.26676204 43.01508358 4.26676204 43.01508358 4 45 C3.34 45 2.68 45 2 45 C2 45.66 2 46.32 2 47 C3.32 47.33 4.64 47.66 6 48 C6 49.32 6 50.64 6 52 C5.34 52 4.68 52 4 52 C4 51.01 4 50.02 4 49 C3.855625 49.763125 3.71125 50.52625 3.5625 51.3125 C3 54 3 54 2 57 C2.66 57.33 3.32 57.66 4 58 C4 58.66 4 59.32 4 60 C-0.75 62 -0.75 62 -3 62 C-3 62.66 -3 63.32 -3 64 C-3.99 64 -4.98 64 -6 64 C-6 62.68 -6 61.36 -6 60 C-6.99 60.495 -6.99 60.495 -8 61 C-8 60.34 -8 59.68 -8 59 C-8.66 59 -9.32 59 -10 59 C-9.855625 58.175 -9.71125 57.35 -9.5625 56.5 C-8.94746848 52.67313722 -8.46439363 48.84783293 -8 45 C-8.66 45 -9.32 45 -10 45 C-10 43.35 -10 41.7 -10 40 C-9.34 40 -8.68 40 -8 40 C-7.67 40.33 -7.34 40.66 -7 41 C-7.020625 40.154375 -7.04125 39.30875 -7.0625 38.4375 C-6.99779008 34.87845463 -6.51189484 31.51927705 -6 28 C-5.96377667 26.33372702 -5.95100158 24.66594626 -6 23 C-6 21.66666667 -6 20.33333333 -6 19 C-6.66 18.34 -7.32 17.68 -8 17 C-7.01 17 -6.02 17 -5 17 C-5.56410871 13.05123902 -6.65735794 10.24365824 -9 7 C-9.99 6.67 -10.98 6.34 -12 6 C-12 5.01 -12 4.02 -12 3 C-11.01 2.67 -10.02 2.34 -9 2 C-5.50875983 -0.32749345 -4.10777749 -0.50299316 0 0 Z M4 27 C5 29 5 29 5 29 Z M-4 60 C-3 62 -3 62 -3 62 Z " fill="#E4313B" transform="translate(94,0)"/>
<path d="M0 0 C0.66 0 1.32 0 2 0 C2.15298709 11.37204047 1.68416471 22.65019611 1 34 C1.66 34 2.32 34 3 34 C3 34.99 3 35.98 3 37 C3.66 37 4.32 37 5 37 C5.33 35.35 5.66 33.7 6 32 C7.65 32.33 9.3 32.66 11 33 C11 34.32 11 35.64 11 37 C10.34 37 9.68 37 9 37 C9 36.01 9 35.02 9 34 C8.855625 34.763125 8.71125 35.52625 8.5625 36.3125 C8 39 8 39 7 42 C7.66 42.33 8.32 42.66 9 43 C9 43.66 9 44.32 9 45 C4.25 47 4.25 47 2 47 C2 47.66 2 48.32 2 49 C1.01 49 0.02 49 -1 49 C-1 47.68 -1 46.36 -1 45 C-1.99 45.495 -1.99 45.495 -3 46 C-3 45.34 -3 44.68 -3 44 C-3.66 44 -4.32 44 -5 44 C-4.855625 43.175 -4.71125 42.35 -4.5625 41.5 C-3.94746848 37.67313722 -3.46439363 33.84783293 -3 30 C-3.66 30 -4.32 30 -5 30 C-5 28.35 -5 26.7 -5 25 C-4.34 25 -3.68 25 -3 25 C-2.67 25.33 -2.34 25.66 -2 26 C-2.020625 25.154375 -2.04125 24.30875 -2.0625 23.4375 C-1.99779008 19.87845463 -1.51189484 16.51927705 -1 13 C-0.96377667 11.33372702 -0.95100158 9.66594626 -1 8 C-1 6.66666667 -1 5.33333333 -1 4 C-1.66 3.34 -2.32 2.68 -3 2 C-2.01 2 -1.02 2 0 2 C0 1.34 0 0.68 0 0 Z M1 45 C2 47 2 47 2 47 Z " fill="#D92F33" transform="translate(89,15)"/>
<path d="M0 0 C0.33 0 0.66 0 1 0 C1.05901588 4.39577504 1.09393248 8.79144562 1.125 13.1875 C1.14175781 14.41404297 1.15851563 15.64058594 1.17578125 16.90429688 C1.27888381 36.44223238 1.27888381 36.44223238 -2 43 C-2.66 43 -3.32 43 -4 43 C-4 42.01 -4 41.02 -4 40 C-4.66 40 -5.32 40 -6 40 C-6.02685412 37.68756208 -6.04632841 35.3750373 -6.0625 33.0625 C-6.07410156 31.77472656 -6.08570312 30.48695312 -6.09765625 29.16015625 C-6 26 -6 26 -5 25 C-4.76277062 21.6336022 -4.60391333 18.27447239 -4.48242188 14.90234375 C-4.30045482 11.13253568 -4.13757139 9.20635708 -2 6 C-1.67 6 -1.34 6 -1 6 C-0.67 4.02 -0.34 2.04 0 0 Z " fill="#F02E36" transform="translate(96,9)"/>
<path d="M0 0 C2.34058637 2.12780579 3.70700306 4.11562221 5 7 C5.66 7 6.32 7 7 7 C7 8.32 7 9.64 7 11 C6.34 11 5.68 11 5 11 C5.020625 11.7425 5.04125 12.485 5.0625 13.25 C4.98126624 16.82428548 4.1263636 19.62090921 3 23 C3.66 23 4.32 23 5 23 C5 25.97 5 28.94 5 32 C5.66 32.33 6.32 32.66 7 33 C7 34.98 7 36.96 7 39 C5.515 39.495 5.515 39.495 4 40 C3.26676204 42.01508358 3.26676204 42.01508358 3 44 C2.34 44 1.68 44 1 44 C1.01047363 42.83952148 1.02094727 41.67904297 1.03173828 40.48339844 C1.06795983 36.17467335 1.09090836 31.86596171 1.10986328 27.55712891 C1.11991593 25.69284806 1.13356005 23.82858297 1.15087891 21.96435547 C1.17515953 19.28348909 1.18649047 16.60283134 1.1953125 13.921875 C1.20563507 13.08944275 1.21595764 12.2570105 1.22659302 11.39935303 C1.26878207 5.91762763 1.26878207 5.91762763 -1 1 C-0.67 0.67 -0.34 0.34 0 0 Z M3 26 C4 28 4 28 4 28 Z " fill="#320406" transform="translate(95,1)"/>
<path d="M0 0 C0.66 0 1.32 0 2 0 C2.27256607 10.53922138 1.53370124 20.57904782 0 31 C-0.33 31 -0.66 31 -1 31 C-1.73258384 24.76740213 -2.12025122 19.22361792 -1 13 C-0.96377667 11.33372702 -0.95100158 9.66594626 -1 8 C-1 6.66666667 -1 5.33333333 -1 4 C-1.66 3.34 -2.32 2.68 -3 2 C-2.01 2 -1.02 2 0 2 C0 1.34 0 0.68 0 0 Z " fill="#130303" transform="translate(89,15)"/>
<path d="M0 0 C2.34058637 2.12780579 3.70700306 4.11562221 5 7 C5.66 7 6.32 7 7 7 C7 8.32 7 9.64 7 11 C6.34 11 5.68 11 5 11 C5 12.65 5 14.3 5 16 C4.34 15.67 3.68 15.34 3 15 C2.76863488 13.04992259 2.54173248 11.09905603 2.3515625 9.14453125 C1.85111577 6.09180619 0.52983813 3.66058805 -1 1 C-0.67 0.67 -0.34 0.34 0 0 Z " fill="#080000" transform="translate(95,1)"/>
<path d="M0 0 C0.99 0.33 1.98 0.66 3 1 C3.144375 1.804375 3.28875 2.60875 3.4375 3.4375 C3.74135249 5.92103706 3.74135249 5.92103706 5 7 C5.04063832 8.66617115 5.042721 10.33388095 5 12 C2.9754262 10.06745228 1.57894208 8.36841312 0 6 C-0.99 5.67 -1.98 5.34 -3 5 C-3 4.01 -3 3.02 -3 2 C-2.01 1.67 -1.02 1.34 0 1 C0 0.67 0 0.34 0 0 Z " fill="#140404" transform="translate(85,1)"/>
<path d="M0 0 C1.98 0 3.96 0 6 0 C6.66 2.31 7.32 4.62 8 7 C6.35 6.67 4.7 6.34 3 6 C2.67 4.68 2.34 3.36 2 2 C1.34 2 0.68 2 0 2 C0 1.34 0 0.68 0 0 Z " fill="#C1252C" transform="translate(88,0)"/>
<path d="M0 0 C0.66 0 1.32 0 2 0 C4.48351814 5.55139349 3.85330338 10.16524985 3 16 C0.21362367 11.8204355 1.20437488 9.85331323 2 5 C1.34 5 0.68 5 0 5 C0 3.35 0 1.7 0 0 Z " fill="#110202" transform="translate(84,40)"/>
<path d="M0 0 C0.99 0 1.98 0 3 0 C3.103125 0.639375 3.20625 1.27875 3.3125 1.9375 C3.539375 2.618125 3.76625 3.29875 4 4 C4.99 4.33 5.98 4.66 7 5 C7 5.66 7 6.32 7 7 C6.34 7 5.68 7 5 7 C5 7.66 5 8.32 5 9 C4.34 9 3.68 9 3 9 C0.56839395 5.63316085 0 4.26649636 0 0 Z " fill="#E83136" transform="translate(87,2)"/>
<path d="M0 0 C0.66 0.33 1.32 0.66 2 1 C2.625 4.0625 2.625 4.0625 3 7 C1.35 7.33 -0.3 7.66 -2 8 C-2.33 8.99 -2.66 9.98 -3 11 C-3.99 10.67 -4.98 10.34 -6 10 C-4.625 8.5 -4.625 8.5 -3 7 C-2.34 7 -1.68 7 -1 7 C-1.33 6.01 -1.66 5.02 -2 4 C-1.0625 1.8125 -1.0625 1.8125 0 0 Z " fill="#2E0808" transform="translate(91,66)"/>
<path d="M0 0 C1.65 0.33 3.3 0.66 5 1 C5 2.32 5 3.64 5 5 C4.34 5 3.68 5 3 5 C3 4.01 3 3.02 3 2 C2.87625 2.78375 2.7525 3.5675 2.625 4.375 C2 7 2 7 0 9 C-0.33 8.67 -0.66 8.34 -1 8 C-0.82364548 5.30917128 -0.38164079 2.67148554 0 0 Z " fill="#190204" transform="translate(95,47)"/>
<path d="M0 0 C0.66 0 1.32 0 2 0 C2 4.95 2 9.9 2 15 C1.67 15 1.34 15 1 15 C0.77213542 13.01432292 0.54427083 11.02864583 0.31640625 9.04296875 C-0.16731455 5.91968506 -0.74396526 4.25603474 -3 2 C-2.01 2 -1.02 2 0 2 C0 1.34 0 0.68 0 0 Z " fill="#4F0806" transform="translate(89,15)"/>
<path d="M0 0 C0.66 0 1.32 0 2 0 C2.33 1.65 2.66 3.3 3 5 C0 7 0 7 -2.6875 6.625 C-3.450625 6.41875 -4.21375 6.2125 -5 6 C-3.68 5.67 -2.36 5.34 -1 5 C-1 4.34 -1 3.68 -1 3 C-1.99 3.33 -2.98 3.66 -4 4 C-4 3.34 -4 2.68 -4 2 C-2.68 1.67 -1.36 1.34 0 1 C0 0.67 0 0.34 0 0 Z " fill="#612012" transform="translate(71,98)"/>
<path d="M0 0 C0.33 0 0.66 0 1 0 C1.19466332 1.79090253 1.38051213 3.58276505 1.5625 5.375 C1.66691406 6.37273438 1.77132812 7.37046875 1.87890625 8.3984375 C2 11 2 11 1 13 C0.34 13 -0.32 13 -1 13 C-1.07654536 8.48382401 -1.10228696 4.40914783 0 0 Z " fill="#310507" transform="translate(97,32)"/>
<path d="M0 0 C2.5 1.375 2.5 1.375 5 3 C5 3.66 5 4.32 5 5 C3.35 5.66 1.7 6.32 0 7 C-1.04449911 3.86650268 -0.93423645 3.01031744 0 0 Z " fill="#230605" transform="translate(93,55)"/>
<path d="M0 0 C1.32 0.33 2.64 0.66 4 1 C4 1.66 4 2.32 4 3 C2.02 3.33 0.04 3.66 -2 4 C-1.34 2.68 -0.68 1.36 0 0 Z " fill="#FB661B" transform="translate(57,101)"/>
<path d="M0 0 C2.475 0.99 2.475 0.99 5 2 C5 2.99 5 3.98 5 5 C4.34 5 3.68 5 3 5 C3 4.01 3 3.02 3 2 C2.01 1.67 1.02 1.34 0 1 C0 0.67 0 0.34 0 0 Z " fill="#74221A" transform="translate(72,82)"/>
<path d="M0 0 C0.99 0.33 1.98 0.66 3 1 C2.34 2.32 1.68 3.64 1 5 C0.34 5 -0.32 5 -1 5 C-0.67 3.35 -0.34 1.7 0 0 Z " fill="#050101" transform="translate(79,70)"/>
<path d="M0 0 C0.66 0.66 1.32 1.32 2 2 C1.34 2 0.68 2 0 2 C0.33 3.32 0.66 4.64 1 6 C0.01 5.67 -0.98 5.34 -2 5 C-1.34 3.35 -0.68 1.7 0 0 Z " fill="#070001" transform="translate(83,59)"/>
<path d="M0 0 C0.99 0.33 1.98 0.66 3 1 C2.01 2.485 2.01 2.485 1 4 C0.01 3.67 -0.98 3.34 -2 3 C-1.34 2.01 -0.68 1.02 0 0 Z " fill="#1B0403" transform="translate(77,94)"/>
<path d="M0 0 C1.65 1.32 3.3 2.64 5 4 C3.35 3.67 1.7 3.34 0 3 C0 2.01 0 1.02 0 0 Z " fill="#59370F" transform="translate(32,103)"/>
<path d="M0 0 C0.66 0.33 1.32 0.66 2 1 C1.34 2.32 0.68 3.64 0 5 C-0.33 4.01 -0.66 3.02 -1 2 C-0.67 1.34 -0.34 0.68 0 0 Z " fill="#090000" transform="translate(86,79)"/>
<path d="M0 0 C0.99 0.33 1.98 0.66 3 1 C3 1.99 3 2.98 3 4 C2.01 3.67 1.02 3.34 0 3 C0 2.01 0 1.02 0 0 Z " fill="#010001" transform="translate(82,52)"/>
<path d="M0 0 C0.99 0 1.98 0 3 0 C3 0.66 3 1.32 3 2 C1.35 2 -0.3 2 -2 2 C-1.34 1.34 -0.68 0.68 0 0 Z " fill="#925A19" transform="translate(34,97)"/>
<path d="M0 0 C1.485 0.99 1.485 0.99 3 2 C1.68 2.33 0.36 2.66 -1 3 C-0.67 2.01 -0.34 1.02 0 0 Z " fill="#320E0D" transform="translate(65,104)"/>
<path d="M0 0 C1.32 0.99 2.64 1.98 4 3 C2.68 2.67 1.36 2.34 0 2 C0 1.34 0 0.68 0 0 Z " fill="#000000" transform="translate(82,87)"/>
<path d="M0 0 C0.33 0.66 0.66 1.32 1 2 C0.34 2.66 -0.32 3.32 -1 4 C-1.33 3.01 -1.66 2.02 -2 1 C-1.34 0.67 -0.68 0.34 0 0 Z " fill="#231912" transform="translate(41,81)"/>
<path d="M0 0 C1.32 0.33 2.64 0.66 4 1 C3.01 1.495 3.01 1.495 2 2 C1.34 1.34 0.68 0.68 0 0 Z " fill="#BEA215" transform="translate(1,102)"/>
<path d="M0 0 C0.66 0 1.32 0 2 0 C2 0.99 2 1.98 2 3 C1.34 2.67 0.68 2.34 0 2 C0 1.34 0 0.68 0 0 Z " fill="#281304" transform="translate(60,97)"/>
<path d="M0 0 C0.99 0.495 0.99 0.495 2 1 C1.67 1.99 1.34 2.98 1 4 C0.67 2.68 0.34 1.36 0 0 Z " fill="#100A0B" transform="translate(70,87)"/>
<path d="M0 0 C0.33 0.66 0.66 1.32 1 2 C-0.32 1.67 -1.64 1.34 -3 1 C-2.01 0.67 -1.02 0.34 0 0 Z " fill="#70201C" transform="translate(78,79)"/>
<path d="M0 0 C0.99 0 1.98 0 3 0 C3 0.66 3 1.32 3 2 C2.01 1.67 1.02 1.34 0 1 C0 0.67 0 0.34 0 0 Z " fill="#C7332C" transform="translate(80,73)"/>
<path d="M0 0 C0.99 0.495 0.99 0.495 2 1 C2 1.66 2 2.32 2 3 C1.34 3 0.68 3 0 3 C0 2.01 0 1.02 0 0 Z " fill="#FD6519" transform="translate(58,68)"/>
<path d="M0 0 C0.99 0.495 0.99 0.495 2 1 C1.01 2.485 1.01 2.485 0 4 C0 2.68 0 1.36 0 0 Z " fill="#F2601F" transform="translate(62,68)"/>
<path d="M0 0 C0.99 0.33 1.98 0.66 3 1 C1.68 1.33 0.36 1.66 -1 2 C-0.67 1.34 -0.34 0.68 0 0 Z " fill="#000001" transform="translate(93,64)"/>
<path d="M0 0 C4 1 4 1 4 1 Z " fill="#FC8E09" transform="translate(36,102)"/>
<path d="M0 0 C0.99 0 1.98 0 3 0 C2.67 0.66 2.34 1.32 2 2 C1.34 1.34 0.68 0.68 0 0 Z " fill="#F9551E" transform="translate(64,98)"/>
<path d="M0 0 C0.66 0 1.32 0 2 0 C2 0.66 2 1.32 2 2 C1.34 2 0.68 2 0 2 C0 1.34 0 0.68 0 0 Z " fill="#000000" transform="translate(84,85)"/>
<path d="M0 0 C4 1 4 1 4 1 Z " fill="#8A441F" transform="translate(49,85)"/>
<path d="M0 0 C0.66 0 1.32 0 2 0 C2 0.66 2 1.32 2 2 C1.34 2 0.68 2 0 2 C0 1.34 0 0.68 0 0 Z " fill="#E93532" transform="translate(83,69)"/>
<path d="M0 0 C0.99 0 1.98 0 3 0 C2.67 0.66 2.34 1.32 2 2 C1.34 1.34 0.68 0.68 0 0 Z " fill="#000000" transform="translate(78,66)"/>
<path d="M0 0 C0 3 0 3 0 3 Z " fill="#FC641B" transform="translate(60,65)"/>
<path d="M0 0 C0.33 0.66 0.66 1.32 1 2 C0.34 1.67 -0.32 1.34 -1 1 C-0.67 0.67 -0.34 0.34 0 0 Z " fill="#2F1507" transform="translate(24,99)"/>
<path d="M0 0 C0.66 0.66 1.32 1.32 2 2 C1.34 2 0.68 2 0 2 C0 1.34 0 0.68 0 0 Z " fill="#EDC315" transform="translate(3,99)"/>
<path d="M0 0 C0.66 0.66 1.32 1.32 2 2 C1.34 2 0.68 2 0 2 C0 1.34 0 0.68 0 0 Z " fill="#030203" transform="translate(74,98)"/>
<path d="M0 0 C0.66 0 1.32 0 2 0 C1.67 0.66 1.34 1.32 1 2 C0.67 1.34 0.34 0.68 0 0 Z " fill="#270103" transform="translate(79,91)"/>
<path d="M0 0 C0.99 0.495 0.99 0.495 2 1 C1.01 1.495 1.01 1.495 0 2 C0 1.34 0 0.68 0 0 Z " fill="#F68612" transform="translate(43,81)"/>
<path d="" fill="#FE2E2D" transform="translate(0,0)"/>
<path d="M0 0 C3 1 3 1 3 1 Z " fill="#FC312B" transform="translate(79,81)"/>
<path d="M0 0 C0.33 0.66 0.66 1.32 1 2 C0.34 1.67 -0.32 1.34 -1 1 C-0.67 0.67 -0.34 0.34 0 0 Z " fill="#000001" transform="translate(89,77)"/>
<path d="M0 0 C0.99 0.495 0.99 0.495 2 1 C1.01 1.495 1.01 1.495 0 2 C0 1.34 0 0.68 0 0 Z " fill="#000002" transform="translate(76,76)"/>
<path d="M0 0 C0.33 0.66 0.66 1.32 1 2 C0.34 1.67 -0.32 1.34 -1 1 C-0.67 0.67 -0.34 0.34 0 0 Z " fill="#F2342F" transform="translate(86,63)"/>
<path d="" fill="#000000" transform="translate(0,0)"/>
<path d="M0 0 C2 1 2 1 2 1 Z " fill="#000003" transform="translate(40,104)"/>
<path d="M0 0 C2 1 2 1 2 1 Z " fill="#FB5E1E" transform="translate(62,103)"/>
<path d="" fill="#FB9907" transform="translate(0,0)"/>
<path d="M0 0 C2 1 2 1 2 1 Z " fill="#FC8E09" transform="translate(38,100)"/>
<path d="" fill="#FB9907" transform="translate(0,0)"/>
<path d="" fill="#000002" transform="translate(0,0)"/>
<path d="M0 0 C2 1 2 1 2 1 Z " fill="#FD8504" transform="translate(43,97)"/>
<path d="" fill="#EF4132" transform="translate(0,0)"/>
<path d="M0 0 C2 1 2 1 2 1 Z " fill="#8B321A" transform="translate(69,92)"/>
<path d="M0 0 C2 1 2 1 2 1 Z " fill="#331809" transform="translate(56,89)"/>
<path d="M0 0 C2 1 2 1 2 1 Z " fill="#FD3925" transform="translate(75,88)"/>
<path d="M0 0 C2 1 2 1 2 1 Z " fill="#FD8208" transform="translate(46,87)"/>
<path d="M0 0 C2 1 2 1 2 1 Z " fill="#FB312D" transform="translate(84,66)"/>
<path d="" fill="#010003" transform="translate(0,0)"/>
<path d="M0 0 C2 1 2 1 2 1 Z " fill="#010001" transform="translate(84,38)"/>
<path d="M0 0 C2 1 2 1 2 1 Z " fill="#010001" transform="translate(100,17)"/>
<path d="" fill="#000001" transform="translate(0,0)"/>
<path d="" fill="#FEA501" transform="translate(0,0)"/>
<path d="M0 0 C2 1 2 1 2 1 Z " fill="#010001" transform="translate(98,3)"/>
<path d="" fill="#040000" transform="translate(0,0)"/>
<path d="" fill="#010001" transform="translate(0,0)"/>
<path d="" fill="#000000" transform="translate(0,0)"/>
<path d="" fill="#080000" transform="translate(0,0)"/>
<path d="" fill="#F4881A" transform="translate(0,0)"/>
<path d="" fill="#030506" transform="translate(0,0)"/>
<path d="" fill="#010009" transform="translate(0,0)"/>
<path d="" fill="#010104" transform="translate(0,0)"/>
<path d="" fill="#000100" transform="translate(0,0)"/>
<path d="" fill="#F4881A" transform="translate(0,0)"/>
<path d="" fill="#010009" transform="translate(0,0)"/>
<path d="" fill="#FD5A1E" transform="translate(0,0)"/>
<path d="" fill="#010001" transform="translate(0,0)"/>
<path d="" fill="#FE3D23" transform="translate(0,0)"/>
<path d="" fill="#D77E39" transform="translate(0,0)"/>
<path d="" fill="#FE3D23" transform="translate(0,0)"/>
<path d="" fill="#000000" transform="translate(0,0)"/>
<path d="" fill="#E94932" transform="translate(0,0)"/>
<path d="" fill="#FE3D23" transform="translate(0,0)"/>
<path d="" fill="#010009" transform="translate(0,0)"/>
<path d="" fill="#000001" transform="translate(0,0)"/>
<path d="" fill="#FD3627" transform="translate(0,0)"/>
<path d="" fill="#FB3B27" transform="translate(0,0)"/>
<path d="" fill="#240000" transform="translate(0,0)"/>
<path d="" fill="#FD3229" transform="translate(0,0)"/>
<path d="" fill="#FB3B27" transform="translate(0,0)"/>
<path d="" fill="#FD3229" transform="translate(0,0)"/>
<path d="" fill="#FE8806" transform="translate(0,0)"/>
<path d="" fill="#030001" transform="translate(0,0)"/>
<path d="" fill="#F33530" transform="translate(0,0)"/>
<path d="" fill="#FC8203" transform="translate(0,0)"/>
<path d="" fill="#0D0000" transform="translate(0,0)"/>
<path d="" fill="#E64239" transform="translate(0,0)"/>
<path d="" fill="#951D12" transform="translate(0,0)"/>
<path d="" fill="#FD3229" transform="translate(0,0)"/>
<path d="" fill="#FF2D2F" transform="translate(0,0)"/>
<path d="" fill="#FE3D23" transform="translate(0,0)"/>
<path d="" fill="#FD3229" transform="translate(0,0)"/>
<path d="" fill="#FA3131" transform="translate(0,0)"/>
<path d="" fill="#000000" transform="translate(0,0)"/>
<path d="" fill="#FA3131" transform="translate(0,0)"/>
<path d="" fill="#FD3627" transform="translate(0,0)"/>
<path d="" fill="#080000" transform="translate(0,0)"/>
<path d="" fill="#010001" transform="translate(0,0)"/>
<path d="" fill="#F3C201" transform="translate(0,0)"/>
<path d="" fill="#FA3131" transform="translate(0,0)"/>
<path d="" fill="#010104" transform="translate(0,0)"/>
<path d="" fill="#F2333A" transform="translate(0,0)"/>
<path d="" fill="#FF2D2F" transform="translate(0,0)"/>
<path d="" fill="#FD641A" transform="translate(0,0)"/>
<path d="" fill="#FA3131" transform="translate(0,0)"/>
<path d="" fill="#240000" transform="translate(0,0)"/>
<path d="" fill="#000001" transform="translate(0,0)"/>
<path d="" fill="#000100" transform="translate(0,0)"/>
<path d="" fill="#000000" transform="translate(0,0)"/>
<path d="" fill="#ECBF51" transform="translate(0,0)"/>
<path d="" fill="#000100" transform="translate(0,0)"/>
<path d="" fill="#FEA501" transform="translate(0,0)"/>
<path d="" fill="#291919" transform="translate(0,0)"/>
<path d="" fill="#FEB004" transform="translate(0,0)"/>
<path d="" fill="#865E3E" transform="translate(0,0)"/>
<path d="" fill="#010001" transform="translate(0,0)"/>
</svg>
