<?xml version="1.0" encoding="UTF-8"?>
<svg version="1.1" xmlns="http://www.w3.org/2000/svg" width="20" height="22">
<path d="M0 0 C3.25295114 -0.22179212 5.42797793 -0.28601103 8.375 1.1875 C10 3 10 3 10.25 5.6875 C10.1675 6.450625 10.085 7.21375 10 8 C9.34 8 8.68 8 8 8 C8 8.99 8 9.98 8 11 C7.34 11 6.68 11 6 11 C5.855625 11.61875 5.71125 12.2375 5.5625 12.875 C5 15 5 15 4 17 C2.125 16.75 2.125 16.75 0 16 C-1.25 13.9375 -1.25 13.9375 -2 12 C-2.99 12.33 -3.98 12.66 -5 13 C-6 10 -6 10 -6 7 C-5.34 7 -4.68 7 -4 7 C-4 6.01 -4 5.02 -4 4 C-3.34 4 -2.68 4 -2 4 C-1.34 2.68 -0.68 1.36 0 0 Z " fill="#818D24" transform="translate(10,0)"/>
<path d="M0 0 C0.99 0 1.98 0 3 0 C3 0.99 3 1.98 3 3 C2.34 3 1.68 3 1 3 C0.7834375 3.928125 0.7834375 3.928125 0.5625 4.875 C0 7 0 7 -1 9 C-1.99 8.67 -2.98 8.34 -4 8 C-2.87548273 5.0280615 -1.77706209 2.66559313 0 0 Z " fill="#0C0B05" transform="translate(15,8)"/>
<path d="M0 0 C0.66 0 1.32 0 2 0 C1.6875 3.375 1.6875 3.375 1 7 C0.01 7.66 -0.98 8.32 -2 9 C-2.125 5.625 -2.125 5.625 -2 2 C-1.34 1.34 -0.68 0.68 0 0 Z " fill="#C5C125" transform="translate(14,3)"/>
<path d="M0 0 C1.32 0.66 2.64 1.32 4 2 C4 3.65 4 5.3 4 7 C2.68 7 1.36 7 0 7 C-0.38133299 5.0085944 -0.71325582 3.00720923 -1 1 C-0.67 0.67 -0.34 0.34 0 0 Z " fill="#110F0A" transform="translate(16,1)"/>
<path d="M0 0 C1.98 0 3.96 0 6 0 C4.35 1.65 2.7 3.3 1 5 C0.01 4.67 -0.98 4.34 -2 4 C-1.34 2.68 -0.68 1.36 0 0 Z " fill="#2A2911" transform="translate(10,0)"/>
<path d="M0 0 C1.98 0.495 1.98 0.495 4 1 C4 1.66 4 2.32 4 3 C2.35 3.33 0.7 3.66 -1 4 C-0.67 2.68 -0.34 1.36 0 0 Z " fill="#252A0D" transform="translate(8,16)"/>
<path d="M0 0 C0 0.99 0 1.98 0 3 C-1.32 3 -2.64 3 -4 3 C-4 2.34 -4 1.68 -4 1 C-2 0 -2 0 0 0 Z " fill="#000000" transform="translate(14,19)"/>
<path d="M0 0 C0 3 0 3 0 3 Z " fill="#16130D" transform="translate(3,15)"/>
<path d="M0 0 C0.99 0.495 0.99 0.495 2 1 C1.34 1.66 0.68 2.32 0 3 C0 2.01 0 1.02 0 0 Z " fill="#000006" transform="translate(2,10)"/>
<path d="M0 0 C2 1 2 1 2 1 Z " fill="#000001" transform="translate(18,0)"/>
<path d="" fill="#010104" transform="translate(0,0)"/>
<path d="" fill="#16110D" transform="translate(0,0)"/>
<path d="" fill="#000001" transform="translate(0,0)"/>
<path d="" fill="#010003" transform="translate(0,0)"/>
<path d="" fill="#010001" transform="translate(0,0)"/>
<path d="" fill="#191406" transform="translate(0,0)"/>
</svg>
