<?xml version="1.0" encoding="UTF-8"?>
<svg version="1.1" xmlns="http://www.w3.org/2000/svg" width="107" height="110">
<path d="M0 0 C0.66 0 1.32 0 2 0 C2 0.66 2 1.32 2 2 C2.99 2.33 3.98 2.66 5 3 C5 3.66 5 4.32 5 5 C5.99 5.33 6.98 5.66 8 6 C7.67 6.66 7.34 7.32 7 8 C6.01 8.33 5.02 8.66 4 9 C3.67 9.66 3.34 10.32 3 11 C1.35857037 12.0409066 -0.30712215 13.04504326 -2 14 C-1.79375 14.721875 -1.5875 15.44375 -1.375 16.1875 C-0.93582213 19.48133402 -1.46342885 21.08860203 -3 24 C-3.66 24.33 -4.32 24.66 -5 25 C-5.65555119 27.52733235 -5.65555119 27.52733235 -6 30 C-5.34 30 -4.68 30 -4 30 C-4 31.65 -4 33.3 -4 35 C-4.66 35 -5.32 35 -6 35 C-6.12375 35.5775 -6.2475 36.155 -6.375 36.75 C-7 39 -7 39 -8.0625 41.0625 C-9.21778046 43.09134681 -9.21778046 43.09134681 -9 46 C-8.01 46 -7.02 46 -6 46 C-6 46.99 -6 47.98 -6 49 C-6.66 49 -7.32 49 -8 49 C-7.896875 50.27875 -7.79375 51.5575 -7.6875 52.875 C-7.62949219 53.59429687 -7.57148437 54.31359375 -7.51171875 55.0546875 C-7.12606964 57.39519216 -7.12606964 57.39519216 -4 59 C-4 59.66 -4 60.32 -4 61 C-5.32 61.66 -6.64 62.32 -8 63 C-8 63.99 -8 64.98 -8 66 C-8.66 66 -9.32 66 -10 66 C-10.495 66.99 -10.495 66.99 -11 68 C-14.79019466 69.26339822 -16.37522384 68.49719015 -20 67 C-20.33 66.34 -20.66 65.68 -21 65 C-21.99 64.34 -22.98 63.68 -24 63 C-23.34 63 -22.68 63 -22 63 C-21.67 60.36 -21.34 57.72 -21 55 C-20.67 55 -20.34 55 -20 55 C-20 54.0925 -20 53.185 -20 52.25 C-20 49.83333333 -20 47.41666667 -20 45 C-20.66 45 -21.32 45 -22 45 C-22 42.03 -22 39.06 -22 36 C-20.02 35.505 -20.02 35.505 -18 35 C-17.67 33.35 -17.34 31.7 -17 30 C-17.99 30 -18.98 30 -20 30 C-20 26 -20 26 -18 23.75 C-17.34 23.1725 -16.68 22.595 -16 22 C-16.66 21.34 -17.32 20.68 -18 20 C-18 19.01 -18 18.02 -18 17 C-16 15.3125 -16 15.3125 -14 14 C-14.66 13.67 -15.32 13.34 -16 13 C-16 12.01 -16 11.02 -16 10 C-14.68 10 -13.36 10 -12 10 C-12 9.34 -12 8.68 -12 8 C-12.66 7.67 -13.32 7.34 -14 7 C-13.01 6.67 -12.02 6.34 -11 6 C-10.67 5.34 -10.34 4.68 -10 4 C-9.34 4 -8.68 4 -8 4 C-8 3.34 -8 2.68 -8 2 C-6.865625 1.855625 -5.73125 1.71125 -4.5625 1.5625 C-1.19222799 1.38828522 -1.19222799 1.38828522 0 0 Z M3 4 C4 6 4 6 4 6 Z M1 6 C1.33 6.66 1.66 7.32 2 8 C2.66 7.67 3.32 7.34 4 7 C3.01 6.67 2.02 6.34 1 6 Z M-13 12 C-12 14 -12 14 -12 14 Z M-15 18 C-14 20 -14 20 -14 20 Z M-8 30 C-7 33 -7 33 -7 33 Z M-19 40 C-18 43 -18 43 -18 43 Z M-10 47 C-9 51 -9 51 -9 51 Z " fill="#EB362B" transform="translate(97,1)"/>
<path d="M0 0 C0.66 0 1.32 0 2 0 C2 0.66 2 1.32 2 2 C2.99 2.33 3.98 2.66 5 3 C5 3.66 5 4.32 5 5 C5.99 5.33 6.98 5.66 8 6 C7.67 6.66 7.34 7.32 7 8 C6.01 8.33 5.02 8.66 4 9 C3.67 9.66 3.34 10.32 3 11 C1.35857037 12.0409066 -0.30712215 13.04504326 -2 14 C-1.79375 14.721875 -1.5875 15.44375 -1.375 16.1875 C-0.93582213 19.48133402 -1.46342885 21.08860203 -3 24 C-3.66 24.33 -4.32 24.66 -5 25 C-5.65555119 27.52733235 -5.65555119 27.52733235 -6 30 C-5.34 30 -4.68 30 -4 30 C-4 31.65 -4 33.3 -4 35 C-4.66 35 -5.32 35 -6 35 C-6.144375 35.598125 -6.28875 36.19625 -6.4375 36.8125 C-6.8872439 38.56150404 -7.42892341 40.28677023 -8 42 C-8.66 42 -9.32 42 -10 42 C-10.25173958 35.58064072 -10.25173958 35.58064072 -8.98046875 32.6484375 C-7.79985341 29.45936499 -7.89819792 27.18769093 -8.1875 23.8125 C-8.26355469 22.76707031 -8.33960937 21.72164062 -8.41796875 20.64453125 C-8.75365797 17.66345897 -8.75365797 17.66345897 -12 16 C-12.33 16.66 -12.66 17.32 -13 18 C-13.66 18 -14.32 18 -15 18 C-14.814375 19.051875 -14.62875 20.10375 -14.4375 21.1875 C-14.04920669 24.57119882 -14.11752515 26.76425888 -15 30 C-16.65 30 -18.3 30 -20 30 C-20 26 -20 26 -18 23.75 C-17.34 23.1725 -16.68 22.595 -16 22 C-16.66 21.34 -17.32 20.68 -18 20 C-18 19.01 -18 18.02 -18 17 C-16 15.3125 -16 15.3125 -14 14 C-14.66 13.67 -15.32 13.34 -16 13 C-16 12.01 -16 11.02 -16 10 C-14.68 10 -13.36 10 -12 10 C-12 9.34 -12 8.68 -12 8 C-12.66 7.67 -13.32 7.34 -14 7 C-13.01 6.67 -12.02 6.34 -11 6 C-10.67 5.34 -10.34 4.68 -10 4 C-9.34 4 -8.68 4 -8 4 C-8 3.34 -8 2.68 -8 2 C-6.2984375 1.7834375 -6.2984375 1.7834375 -4.5625 1.5625 C-1.19222799 1.38828522 -1.19222799 1.38828522 0 0 Z M3 4 C4 6 4 6 4 6 Z M1 6 C1.33 6.66 1.66 7.32 2 8 C2.66 7.67 3.32 7.34 4 7 C3.01 6.67 2.02 6.34 1 6 Z M-13 12 C-12 14 -12 14 -12 14 Z " fill="#D32B2C" transform="translate(97,1)"/>
<path d="M0 0 C0.66 0.33 1.32 0.66 2 1 C2 1.99 2 2.98 2 4 C2.99 4 3.98 4 5 4 C5 4.99 5 5.98 5 7 C4.34 7 3.68 7 3 7 C3.103125 8.27875 3.20625 9.5575 3.3125 10.875 C3.37050781 11.59429687 3.42851563 12.31359375 3.48828125 13.0546875 C3.87393036 15.39519216 3.87393036 15.39519216 7 17 C7 17.66 7 18.32 7 19 C5.02 19.99 5.02 19.99 3 21 C3 21.99 3 22.98 3 24 C2.34 24 1.68 24 1 24 C0.67 24.66 0.34 25.32 0 26 C-2 24 -2 24 -2.04345703 21.56982422 C-1.94919434 20.5748291 -1.85493164 19.57983398 -1.7578125 18.5546875 C-1.66113281 17.47832031 -1.56445312 16.40195312 -1.46484375 15.29296875 C-1.35269531 14.16503906 -1.24054688 13.03710938 -1.125 11.875 C-1.02058594 10.73933594 -0.91617188 9.60367188 -0.80859375 8.43359375 C-0.54863892 5.62135509 -0.27870489 2.81043228 0 0 Z M1 5 C2 9 2 9 2 9 Z " fill="#330A0A" transform="translate(86,43)"/>
<path d="M0 0 C2.31325301 6.93975904 2.31325301 6.93975904 1.1875 10.75 C0 13 0 13 -2 14 C-2.65555119 16.52733235 -2.65555119 16.52733235 -3 19 C-2.34 19 -1.68 19 -1 19 C-1 20.65 -1 22.3 -1 24 C-1.66 24 -2.32 24 -3 24 C-3.144375 24.598125 -3.28875 25.19625 -3.4375 25.8125 C-3.8872439 27.56150404 -4.42892341 29.28677023 -5 31 C-5.66 31 -6.32 31 -7 31 C-7.18334023 26.32482415 -6.73272093 23.28083995 -5 19 C-4.82267355 17.58692989 -4.68036304 16.16926746 -4.5625 14.75 C-4.14117717 10.18439257 -3.38917903 3.38917903 0 0 Z " fill="#190303" transform="translate(94,12)"/>
<path d="M0 0 C0.33 0 0.66 0 1 0 C1 5.94 1 11.88 1 18 C2.98 18.66 4.96 19.32 7 20 C5 21 5 21 1.9375 20.1875 C-1 19 -1 19 -2 17 C-2.99 16.34 -3.98 15.68 -5 15 C-4.34 15 -3.68 15 -3 15 C-2.67 12.36 -2.34 9.72 -2 7 C-1.67 7 -1.34 7 -1 7 C-1.020625 6.030625 -1.04125 5.06125 -1.0625 4.0625 C-1 1 -1 1 0 0 Z " fill="#1A0E0C" transform="translate(78,49)"/>
<path d="M0 0 C0.33 0 0.66 0 1 0 C0.67 5.28 0.34 10.56 0 16 C-0.99 16.33 -1.98 16.66 -3 17 C-3 16.34 -3 15.68 -3 15 C-3.66 15 -4.32 15 -5 15 C-5 12.03 -5 9.06 -5 6 C-3.68 5.67 -2.36 5.34 -1 5 C-0.67 3.35 -0.34 1.7 0 0 Z M-2 10 C-1 13 -1 13 -1 13 Z " fill="#110202" transform="translate(80,31)"/>
<path d="M0 0 C0.33 0.66 0.66 1.32 1 2 C0.67 2.66 0.34 3.32 0 4 C-0.66 4 -1.32 4 -2 4 C-1.814375 5.051875 -1.62875 6.10375 -1.4375 7.1875 C-1.04920669 10.57119882 -1.11752515 12.76425888 -2 16 C-3.65 16 -5.3 16 -7 16 C-7 12 -7 12 -5 9.75 C-4.34 9.1725 -3.68 8.595 -3 8 C-3.66 7.34 -4.32 6.68 -5 6 C-5 5.01 -5 4.02 -5 3 C-2.5 1.3125 -2.5 1.3125 0 0 Z " fill="#170403" transform="translate(84,15)"/>
<path d="M0 0 C0.33 0.66 0.66 1.32 1 2 C1.66 2 2.32 2 3 2 C3 2.66 3 3.32 3 4 C2.34 4 1.68 4 1 4 C1.2784375 4.9590625 1.2784375 4.9590625 1.5625 5.9375 C1.706875 6.618125 1.85125 7.29875 2 8 C1 9 1 9 -2.0625 9.0625 C-3.031875 9.041875 -4.00125 9.02125 -5 9 C-4.01 6.69 -3.02 4.38 -2 2 C-1.34 2 -0.68 2 0 2 C0 1.34 0 0.68 0 0 Z " fill="#F44C24" transform="translate(76,93)"/>
<path d="M0 0 C0 3 0 3 -1.6875 5.0625 C-4.12173208 7.10199174 -5.94433786 8.15969291 -9 9 C-11.3125 8.625 -11.3125 8.625 -13 8 C-8.76946537 5.1108544 -4.47014404 2.50328066 0 0 Z " fill="#34120A" transform="translate(78,101)"/>
<path d="M0 0 C1.32 0.33 2.64 0.66 4 1 C3.01 1.33 2.02 1.66 1 2 C2.98 2.66 4.96 3.32 7 4 C4.38058783 5.74627478 2.96175123 6.38722388 0 7 C-0.66 5.68 -1.32 4.36 -2 3 C-1.34 2.01 -0.68 1.02 0 0 Z " fill="#E42B34" transform="translate(97,13)"/>
<path d="M0 0 C0.66 0 1.32 0 2 0 C2 0.66 2 1.32 2 2 C2.99 2.33 3.98 2.66 5 3 C5 3.66 5 4.32 5 5 C5.99 5.33 6.98 5.66 8 6 C7.67 6.66 7.34 7.32 7 8 C4.03824877 7.38722388 2.61941217 6.74627478 0 5 C-0.1875 2.375 -0.1875 2.375 0 0 Z M3 4 C4 6 4 6 4 6 Z " fill="#3E0D0F" transform="translate(97,1)"/>
<path d="M0 0 C0.66 0.33 1.32 0.66 2 1 C2 3.97 2 6.94 2 10 C0.35 9.67 -1.3 9.34 -3 9 C-2.34 8.67 -1.68 8.34 -1 8 C-0.53476937 6.10466658 -0.53476937 6.10466658 -0.375 3.9375 C-0.25125 2.638125 -0.1275 1.33875 0 0 Z " fill="#040000" transform="translate(76,56)"/>
<path d="M0 0 C1.32 0.33 2.64 0.66 4 1 C3.67 2.32 3.34 3.64 3 5 C2.34 5 1.68 5 1 5 C0.67 5.66 0.34 6.32 0 7 C-0.66 6.67 -1.32 6.34 -2 6 C-2 5.01 -2 4.02 -2 3 C-0.68 3 0.64 3 2 3 C2 2.34 2 1.68 2 1 C1.34 0.67 0.68 0.34 0 0 Z " fill="#040001" transform="translate(83,8)"/>
<path d="M0 0 C0.93423645 3.01031744 1.04449911 3.86650268 0 7 C-0.99 7 -1.98 7 -3 7 C-3 3 -3 3 -1.5 1.25 C-1.005 0.8375 -0.51 0.425 0 0 Z " fill="#000001" transform="translate(80,24)"/>
<path d="M0 0 C0.33 1.32 0.66 2.64 1 4 C0.01 4.33 -0.98 4.66 -2 5 C-2.33 5.66 -2.66 6.32 -3 7 C-3.33 6.34 -3.66 5.68 -4 5 C-2.68 3.35 -1.36 1.7 0 0 Z " fill="#8B4D12" transform="translate(49,89)"/>
<path d="M0 0 C0.99 0.33 1.98 0.66 3 1 C1.35 2.32 -0.3 3.64 -2 5 C-2.33 4.01 -2.66 3.02 -3 2 C-2.01 1.34 -1.02 0.68 0 0 Z " fill="#360E0A" transform="translate(82,96)"/>
<path d="M0 0 C0.33 0.99 0.66 1.98 1 3 C0.34 3 -0.32 3 -1 3 C-1 4.65 -1 6.3 -1 8 C-1.99 7.67 -2.98 7.34 -4 7 C-1.125 1.125 -1.125 1.125 0 0 Z " fill="#1E0303" transform="translate(97,68)"/>
<path d="M0 0 C0.99 0 1.98 0 3 0 C3.33 1.32 3.66 2.64 4 4 C2.68 3.67 1.36 3.34 0 3 C0 2.01 0 1.02 0 0 Z " fill="#DEC512" transform="translate(4,80)"/>
<path d="M0 0 C0.66 0 1.32 0 2 0 C3.625 2 3.625 2 5 4 C3.35 3.67 1.7 3.34 0 3 C0 2.01 0 1.02 0 0 Z " fill="#E83137" transform="translate(94,47)"/>
<path d="M0 0 C0.99 0.33 1.98 0.66 3 1 C2.01 2.485 2.01 2.485 1 4 C0.34 4 -0.32 4 -1 4 C-0.67 2.68 -0.34 1.36 0 0 Z " fill="#1B0200" transform="translate(87,88)"/>
<path d="M0 0 C0.66 0 1.32 0 2 0 C2.33 1.32 2.66 2.64 3 4 C1.68 3.34 0.36 2.68 -1 2 C-0.67 1.34 -0.34 0.68 0 0 Z " fill="#F73C29" transform="translate(80,88)"/>
<path d="M0 0 C0.66 0 1.32 0 2 0 C2.33 1.32 2.66 2.64 3 4 C2.01 3.67 1.02 3.34 0 3 C0 2.01 0 1.02 0 0 Z " fill="#EE3732" transform="translate(88,70)"/>
<path d="M0 0 C0.33 0.66 0.66 1.32 1 2 C0.01 3.485 0.01 3.485 -1 5 C-1 1 -1 1 0 0 Z " fill="#4F1112" transform="translate(98,61)"/>
<path d="M0 0 C0.99 0.33 1.98 0.66 3 1 C2.67 1.99 2.34 2.98 2 4 C1.34 3.34 0.68 2.68 0 2 C0 1.34 0 0.68 0 0 Z " fill="#160201" transform="translate(102,12)"/>
<path d="M0 0 C0.99 0.495 0.99 0.495 2 1 C1.34 2.32 0.68 3.64 0 5 C0 3.35 0 1.7 0 0 Z " fill="#010000" transform="translate(91,81)"/>
<path d="M0 0 C0.99 0.33 1.98 0.66 3 1 C2.01 2.485 2.01 2.485 1 4 C0.67 2.68 0.34 1.36 0 0 Z " fill="#483417" transform="translate(23,11)"/>
<path d="M0 0 C0.33 1.32 0.66 2.64 1 4 C0.01 4.495 0.01 4.495 -1 5 C-0.67 3.35 -0.34 1.7 0 0 Z " fill="#F8332F" transform="translate(88,81)"/>
<path d="M0 0 C1.32 0.33 2.64 0.66 4 1 C3.01 1.495 3.01 1.495 2 2 C1.34 1.34 0.68 0.68 0 0 Z " fill="#BDA218" transform="translate(6,104)"/>
<path d="M0 0 C0.33 0.66 0.66 1.32 1 2 C1.66 2.33 2.32 2.66 3 3 C2.01 3 1.02 3 0 3 C0 2.01 0 1.02 0 0 Z " fill="#8B2626" transform="translate(91,76)"/>
<path d="M0 0 C0.66 0.33 1.32 0.66 2 1 C1.67 1.66 1.34 2.32 1 3 C0.34 2.67 -0.32 2.34 -1 2 C-0.67 1.34 -0.34 0.68 0 0 Z " fill="#EE372F" transform="translate(86,76)"/>
<path d="M0 0 C0.66 0 1.32 0 2 0 C2 0.66 2 1.32 2 2 C1.01 1.67 0.02 1.34 -1 1 C-0.67 0.67 -0.34 0.34 0 0 Z " fill="#A5292E" transform="translate(94,43)"/>
<path d="M0 0 C0.33 0.99 0.66 1.98 1 3 C0.34 3 -0.32 3 -1 3 C-0.67 2.01 -0.34 1.02 0 0 Z " fill="#000000" transform="translate(90,42)"/>
<path d="M0 0 C1.32 0.33 2.64 0.66 4 1 C2.68 1.33 1.36 1.66 0 2 C0 1.34 0 0.68 0 0 Z " fill="#841E21" transform="translate(94,34)"/>
<path d="M0 0 C0.66 0 1.32 0 2 0 C1.67 0.99 1.34 1.98 1 3 C0.67 2.01 0.34 1.02 0 0 Z " fill="#FBB908" transform="translate(19,16)"/>
<path d="M0 0 C4 1 4 1 4 1 Z " fill="#8D4315" transform="translate(54,87)"/>
<path d="M0 0 C0.99 0.495 0.99 0.495 2 1 C1.67 1.66 1.34 2.32 1 3 C0.67 2.01 0.34 1.02 0 0 Z " fill="#FD312A" transform="translate(87,73)"/>
<path d="M0 0 C0.66 0 1.32 0 2 0 C2 0.66 2 1.32 2 2 C1.34 2 0.68 2 0 2 C0 1.34 0 0.68 0 0 Z " fill="#E93736" transform="translate(90,64)"/>
<path d="M0 0 C0.66 0 1.32 0 2 0 C2 0.66 2 1.32 2 2 C1.34 2 0.68 2 0 2 C0 1.34 0 0.68 0 0 Z " fill="#FC2C36" transform="translate(97,43)"/>
<path d="M0 0 C0.99 0.33 1.98 0.66 3 1 C2.01 1 1.02 1 0 1 C0 0.67 0 0.34 0 0 Z " fill="#3B2513" transform="translate(21,15)"/>
<path d="M0 0 C0.99 0.33 1.98 0.66 3 1 C2.01 1.33 1.02 1.66 0 2 C0 1.34 0 0.68 0 0 Z " fill="#FDB302" transform="translate(20,9)"/>
<path d="M0 0 C0.66 0.66 1.32 1.32 2 2 C1.34 2 0.68 2 0 2 C0 1.34 0 0.68 0 0 Z " fill="#EBC51B" transform="translate(8,101)"/>
<path d="M0 0 C0.99 0.495 0.99 0.495 2 1 C1.01 1.495 1.01 1.495 0 2 C0 1.34 0 0.68 0 0 Z " fill="#14110D" transform="translate(45,87)"/>
<path d="M0 0 C0.66 0.66 1.32 1.32 2 2 C1.34 2 0.68 2 0 2 C0 1.34 0 0.68 0 0 Z " fill="#772922" transform="translate(80,85)"/>
<path d="" fill="#010002" transform="translate(0,0)"/>
<path d="M0 0 C0.66 0 1.32 0 2 0 C1.67 0.66 1.34 1.32 1 2 C0.67 1.34 0.34 0.68 0 0 Z " fill="#FC2D34" transform="translate(93,62)"/>
<path d="" fill="#000000" transform="translate(0,0)"/>
<path d="" fill="#000000" transform="translate(0,0)"/>
<path d="M0 0 C3 1 3 1 3 1 Z " fill="#170205" transform="translate(32,22)"/>
<path d="M0 0 C3 1 3 1 3 1 Z " fill="#FD2B37" transform="translate(98,20)"/>
<path d="" fill="#000000" transform="translate(0,0)"/>
<path d="M0 0 C0.99 0.495 0.99 0.495 2 1 C1.01 1.495 1.01 1.495 0 2 C0 1.34 0 0.68 0 0 Z " fill="#FBB90D" transform="translate(16,17)"/>
<path d="M0 0 C0.66 0 1.32 0 2 0 C1.67 0.66 1.34 1.32 1 2 C0.67 1.34 0.34 0.68 0 0 Z " fill="#DEA52D" transform="translate(25,16)"/>
<path d="" fill="#010101" transform="translate(0,0)"/>
<path d="M0 0 C2 1 2 1 2 1 Z " fill="#FB5E1E" transform="translate(67,105)"/>
<path d="M0 0 C2 1 2 1 2 1 Z " fill="#FD4B20" transform="translate(71,103)"/>
<path d="" fill="#FA621F" transform="translate(0,0)"/>
<path d="M0 0 C2 1 2 1 2 1 Z " fill="#000000" transform="translate(81,101)"/>
<path d="M0 0 C2 1 2 1 2 1 Z " fill="#FD5A1E" transform="translate(69,100)"/>
<path d="" fill="#000000" transform="translate(0,0)"/>
<path d="M0 0 C2 1 2 1 2 1 Z " fill="#000102" transform="translate(69,97)"/>
<path d="M0 0 C2 1 2 1 2 1 Z " fill="#FC7F07" transform="translate(51,95)"/>
<path d="M0 0 C2 1 2 1 2 1 Z " fill="#000000" transform="translate(87,94)"/>
<path d="" fill="#020002" transform="translate(0,0)"/>
<path d="M0 0 C2 1 2 1 2 1 Z " fill="#311311" transform="translate(61,91)"/>
<path d="M0 0 C2 1 2 1 2 1 Z " fill="#010001" transform="translate(89,90)"/>
<path d="M0 0 C2 1 2 1 2 1 Z " fill="#FC8203" transform="translate(51,89)"/>
<path d="M0 0 C2 1 2 1 2 1 Z " fill="#D9C419" transform="translate(4,85)"/>
<path d="M0 0 C2 1 2 1 2 1 Z " fill="#010001" transform="translate(69,83)"/>
<path d="" fill="#E7352A" transform="translate(0,0)"/>
<path d="" fill="#020000" transform="translate(0,0)"/>
<path d="M0 0 C2 1 2 1 2 1 Z " fill="#000000" transform="translate(97,74)"/>
<path d="" fill="#010005" transform="translate(0,0)"/>
<path d="M0 0 C2 1 2 1 2 1 Z " fill="#FE2B35" transform="translate(96,46)"/>
<path d="M0 0 C2 1 2 1 2 1 Z " fill="#000000" transform="translate(105,13)"/>
<path d="" fill="#F8BA1F" transform="translate(0,0)"/>
<path d="M0 0 C2 1 2 1 2 1 Z " fill="#000000" transform="translate(105,10)"/>
<path d="M0 0 C2 1 2 1 2 1 Z " fill="#000004" transform="translate(14,8)"/>
<path d="M0 0 C2 1 2 1 2 1 Z " fill="#000001" transform="translate(95,0)"/>
<path d="" fill="#080501" transform="translate(0,0)"/>
<path d="" fill="#FD641A" transform="translate(0,0)"/>
<path d="" fill="#000000" transform="translate(0,0)"/>
<path d="" fill="#FD5A1E" transform="translate(0,0)"/>
<path d="" fill="#FA621F" transform="translate(0,0)"/>
<path d="" fill="#FD5A1E" transform="translate(0,0)"/>
<path d="" fill="#020001" transform="translate(0,0)"/>
<path d="" fill="#170E0E" transform="translate(0,0)"/>
<path d="" fill="#F33530" transform="translate(0,0)"/>
<path d="" fill="#2B0000" transform="translate(0,0)"/>
<path d="" fill="#000001" transform="translate(0,0)"/>
<path d="" fill="#FE3D23" transform="translate(0,0)"/>
<path d="" fill="#FB3B27" transform="translate(0,0)"/>
<path d="" fill="#010005" transform="translate(0,0)"/>
<path d="" fill="#010101" transform="translate(0,0)"/>
<path d="" fill="#FD3627" transform="translate(0,0)"/>
<path d="" fill="#010001" transform="translate(0,0)"/>
<path d="" fill="#DB3D37" transform="translate(0,0)"/>
<path d="" fill="#010101" transform="translate(0,0)"/>
<path d="" fill="#CAC325" transform="translate(0,0)"/>
<path d="" fill="#FD3229" transform="translate(0,0)"/>
<path d="" fill="#000001" transform="translate(0,0)"/>
<path d="" fill="#010101" transform="translate(0,0)"/>
<path d="" fill="#FC8203" transform="translate(0,0)"/>
<path d="" fill="#CEC820" transform="translate(0,0)"/>
<path d="" fill="#010005" transform="translate(0,0)"/>
<path d="" fill="#080000" transform="translate(0,0)"/>
<path d="" fill="#890E07" transform="translate(0,0)"/>
<path d="" fill="#040000" transform="translate(0,0)"/>
<path d="" fill="#010003" transform="translate(0,0)"/>
<path d="" fill="#FA3131" transform="translate(0,0)"/>
<path d="" fill="#010005" transform="translate(0,0)"/>
<path d="" fill="#000000" transform="translate(0,0)"/>
<path d="" fill="#040000" transform="translate(0,0)"/>
<path d="" fill="#0D0000" transform="translate(0,0)"/>
<path d="" fill="#FF2D2F" transform="translate(0,0)"/>
<path d="" fill="#FF2D2F" transform="translate(0,0)"/>
<path d="" fill="#010101" transform="translate(0,0)"/>
<path d="" fill="#FA621F" transform="translate(0,0)"/>
<path d="" fill="#010101" transform="translate(0,0)"/>
<path d="" fill="#FF2D2F" transform="translate(0,0)"/>
<path d="" fill="#020001" transform="translate(0,0)"/>
<path d="" fill="#FCA905" transform="translate(0,0)"/>
<path d="" fill="#010104" transform="translate(0,0)"/>
<path d="" fill="#000000" transform="translate(0,0)"/>
<path d="" fill="#000000" transform="translate(0,0)"/>
<path d="" fill="#000109" transform="translate(0,0)"/>
<path d="" fill="#000000" transform="translate(0,0)"/>
<path d="" fill="#000000" transform="translate(0,0)"/>
<path d="" fill="#000000" transform="translate(0,0)"/>
<path d="" fill="#FD2A3C" transform="translate(0,0)"/>
<path d="" fill="#000001" transform="translate(0,0)"/>
<path d="" fill="#000001" transform="translate(0,0)"/>
<path d="" fill="#F8B520" transform="translate(0,0)"/>
<path d="" fill="#010005" transform="translate(0,0)"/>
<path d="" fill="#FDBC04" transform="translate(0,0)"/>
<path d="" fill="#FCA905" transform="translate(0,0)"/>
<path d="" fill="#FCB600" transform="translate(0,0)"/>
<path d="" fill="#FCA905" transform="translate(0,0)"/>
<path d="" fill="#000001" transform="translate(0,0)"/>
<path d="" fill="#F3C837" transform="translate(0,0)"/>
<path d="" fill="#F8B520" transform="translate(0,0)"/>
<path d="" fill="#330100" transform="translate(0,0)"/>
</svg>
