<?xml version="1.0" encoding="UTF-8"?>
<svg version="1.1" xmlns="http://www.w3.org/2000/svg" width="122" height="84">
<path d="M0 0 C2.1875 0.3125 2.1875 0.3125 4 1 C3.01 1.99 2.02 2.98 1 4 C1.33 4.66 1.66 5.32 2 6 C2.99 6 3.98 6 5 6 C5.87890625 12.15234375 5.87890625 12.15234375 6 14 C5.67 14.33 5.34 14.66 5 15 C4.92820036 16.51928038 4.91607993 18.04167482 4.9375 19.5625 C4.94652344 20.38878906 4.95554687 21.21507813 4.96484375 22.06640625 C4.97644531 22.70449219 4.98804687 23.34257812 5 24 C4.34 24 3.68 24 3 24 C3 27.3 3 30.6 3 34 C2.34 33.67 1.68 33.34 1 33 C1 31.68 1 30.36 1 29 C0.01 32.465 0.01 32.465 -1 36 C-0.34 36 0.32 36 1 36 C1 38.97 1 41.94 1 45 C0.01 45.495 0.01 45.495 -1 46 C-1.12469099 51.57830016 -1.12469099 51.57830016 0 57 C-0.99 57.495 -0.99 57.495 -2 58 C-1.34 58.99 -0.68 59.98 0 61 C-0.66 61.99 -1.32 62.98 -2 64 C-1.34 64.66 -0.68 65.32 0 66 C0.69748583 67.31747324 1.36959957 68.64914193 2 70 C1.484375 70.103125 0.96875 70.20625 0.4375 70.3125 C-2.86026435 71.24263866 -5.86633332 72.61395512 -9 74 C-9 73.34 -9 72.68 -9 72 C-10.485 72.495 -10.485 72.495 -12 73 C-13.76462683 69.91190305 -14 68.76687864 -14 65 C-14.99 64.67 -15.98 64.34 -17 64 C-17 60.04 -17 56.08 -17 52 C-16.01 51.505 -16.01 51.505 -15 51 C-15.33 48.69 -15.66 46.38 -16 44 C-15.34 44 -14.68 44 -14 44 C-12.76917466 38.30743279 -13.31111742 34.59442354 -15 29 C-14.525625 28.54625 -14.05125 28.0925 -13.5625 27.625 C-11.90972192 26.06741796 -11.90972192 26.06741796 -11 24 C-11.66 23.67 -12.32 23.34 -13 23 C-13 21.02 -13 19.04 -13 17 C-12.01 16.67 -11.02 16.34 -10 16 C-9.67 15.34 -9.34 14.68 -9 14 C-9.66 14 -10.32 14 -11 14 C-11 13.01 -11 12.02 -11 11 C-10.01 11 -9.02 11 -8 11 C-7.67 9.68 -7.34 8.36 -7 7 C-7.66 7 -8.32 7 -9 7 C-9 6.34 -9 5.68 -9 5 C-7.68 5 -6.36 5 -5 5 C-3.04123994 3.10891573 -3.04123994 3.10891573 -1.625 1.3125 C-0.820625 0.6628125 -0.820625 0.6628125 0 0 Z M-1 4 C0 6 0 6 0 6 Z M-8 12 C-7 14 -7 14 -7 14 Z M0 26 C1 28 1 28 1 28 Z M-2 43 C-1 45 -1 45 -1 45 Z M-14 52 C-13 54 -13 54 -13 54 Z M-14 55 C-14.33 57.31 -14.66 59.62 -15 62 C-14.34 62 -13.68 62 -13 62 C-13 59.69 -13 57.38 -13 55 C-13.33 55 -13.66 55 -14 55 Z " fill="#CD263C" transform="translate(106,5)"/>
<path d="M0 0 C0.99 0 1.98 0 3 0 C3.02740022 1.85408125 3.04657422 3.70828469 3.0625 5.5625 C3.07410156 6.59503906 3.08570312 7.62757812 3.09765625 8.69140625 C3 12 3 12 2.5 15.09375 C1.78095387 20.71129789 1.89569558 26.28104075 1.9375 31.9375 C1.94201172 33.09830078 1.94652344 34.25910156 1.95117188 35.45507812 C1.96289353 38.30343934 1.9793024 41.15169222 2 44 C2.66 43.01 3.32 42.02 4 41 C5.95216435 42.95216435 6.84826645 44.53199953 8 47 C7.2265625 47.1546875 7.2265625 47.1546875 6.4375 47.3125 C3.13973565 48.24263866 0.13366668 49.61395512 -3 51 C-3 50.34 -3 49.68 -3 49 C-4.485 49.495 -4.485 49.495 -6 50 C-7.76462683 46.91190305 -8 45.76687864 -8 42 C-8.99 41.67 -9.98 41.34 -11 41 C-11 37.04 -11 33.08 -11 29 C-10.34 28.67 -9.68 28.34 -9 28 C-9.33 25.69 -9.66 23.38 -10 21 C-9.34 21 -8.68 21 -8 21 C-7.896875 20.34 -7.79375 19.68 -7.6875 19 C-6.96054375 15.82782728 -5.87428305 12.96400707 -4.69921875 9.9375 C-3.87626085 7.65712505 -3.37396084 5.39334935 -3 3 C-2.34 3 -1.68 3 -1 3 C-0.67 2.01 -0.34 1.02 0 0 Z M-8 29 C-7 31 -7 31 -7 31 Z M-8 32 C-8.33 34.31 -8.66 36.62 -9 39 C-8.34 39 -7.68 39 -7 39 C-7 36.69 -7 34.38 -7 32 C-7.33 32 -7.66 32 -8 32 Z " fill="#F12B41" transform="translate(100,28)"/>
<path d="M0 0 C2.18491741 3.47016295 1.86932413 5.0880414 1 9 C0.90398106 12.00185519 0.94112799 14.99752773 1 18 C0.34 18 -0.32 18 -1 18 C-1 21.3 -1 24.6 -1 28 C-1.66 27.67 -2.32 27.34 -3 27 C-3 25.68 -3 24.36 -3 23 C-3.66 25.31 -4.32 27.62 -5 30 C-4.34 30 -3.68 30 -3 30 C-3 32.97 -3 35.94 -3 39 C-3.99 39.495 -3.99 39.495 -5 40 C-5.12469099 45.57830016 -5.12469099 45.57830016 -4 51 C-4.99 51.495 -4.99 51.495 -6 52 C-5.34 52.99 -4.68 53.98 -4 55 C-4.66 55.66 -5.32 56.32 -6 57 C-6.71408334 58.98356483 -7.38617742 60.98315437 -8 63 C-8.33 63 -8.66 63 -9 63 C-9.02918634 58.64584756 -9.04686145 54.29172052 -9.0625 49.9375 C-9.07087891 48.70837891 -9.07925781 47.47925781 -9.08789062 46.21289062 C-9.11974442 34.39513221 -9.11974442 34.39513221 -8 29 C-7.67 28.67 -7.34 28.34 -7 28 C-6.86390087 26.27305325 -6.76750772 24.54295278 -6.6875 22.8125 C-6.15345316 15.63732233 -5.28197039 5.28197039 0 0 Z M-4 20 C-3 22 -3 22 -3 22 Z M-6 37 C-5 39 -5 39 -5 39 Z " fill="#080101" transform="translate(110,11)"/>
<path d="M0 0 C0.33 0 0.66 0 1 0 C1 10.89 1 21.78 1 33 C3.97 32.505 3.97 32.505 7 32 C7 32.66 7 33.32 7 34 C5.68 34.66 4.36 35.32 3 36 C3 35.34 3 34.68 3 34 C1.515 34.495 1.515 34.495 0 35 C-1.76462683 31.91190305 -2 30.76687864 -2 27 C-2.99 26.67 -3.98 26.34 -5 26 C-5 22.04 -5 18.08 -5 14 C-4.34 13.67 -3.68 13.34 -3 13 C-3.33 10.69 -3.66 8.38 -4 6 C-3.34 6 -2.68 6 -2 6 C-1.855625 5.195625 -1.71125 4.39125 -1.5625 3.5625 C-1 1 -1 1 0 0 Z M-2 14 C-1 16 -1 16 -1 16 Z M-2 17 C-2.33 19.31 -2.66 21.62 -3 24 C-2.34 24 -1.68 24 -1 24 C-1 21.69 -1 19.38 -1 17 C-1.33 17 -1.66 17 -2 17 Z " fill="#000000" transform="translate(94,43)"/>
<path d="M0 0 C0.99 0 1.98 0 3 0 C3 2.31 3 4.62 3 7 C2.34 7 1.68 7 1 7 C1 10.63 1 14.26 1 18 C-0.65 18.66 -2.3 19.32 -4 20 C-5 19 -5 19 -5.1875 16 C-5.14100631 11.52730709 -4.09624245 7.31645464 -3 3 C-2.34 3 -1.68 3 -1 3 C-0.67 2.01 -0.34 1.02 0 0 Z " fill="#FC2843" transform="translate(100,28)"/>
<path d="M0 0 C0.99 0.33 1.98 0.66 3 1 C4.4858864 5.91638922 3.55838585 10.24985308 2.6875 15.1875 C2.55666016 16.00669922 2.42582031 16.82589844 2.29101562 17.66992188 C1.25620815 23.74379185 1.25620815 23.74379185 -1 26 C-4 20.25 -4 20.25 -4 18 C-3.02149805 16.97895449 -2.02019573 15.9793879 -1 15 C-0.67 14.34 -0.34 13.68 0 13 C-0.66 12.67 -1.32 12.34 -2 12 C-2 10.02 -2 8.04 -2 6 C-1.01 5.67 -0.02 5.34 1 5 C1.33 4.34 1.66 3.68 2 3 C1.34 3 0.68 3 0 3 C0 2.01 0 1.02 0 0 Z " fill="#1B0505" transform="translate(95,16)"/>
<path d="M0 0 C0.33 0 0.66 0 1 0 C1.0272415 1.41655793 1.04650467 2.83327045 1.0625 4.25 C1.07410156 5.03890625 1.08570312 5.8278125 1.09765625 6.640625 C1.00347111 8.9161381 0.57537619 10.80722776 0 13 C0 13.99 0 14.98 0 16 C-0.66 16 -1.32 16 -2 16 C-2.33 17.98 -2.66 19.96 -3 22 C-3.66 21.67 -4.32 21.34 -5 21 C-5.08074203 18.37438891 -5.1403623 15.75124324 -5.1875 13.125 C-5.21263672 12.37863281 -5.23777344 11.63226563 -5.26367188 10.86328125 C-5.29296875 8.6953125 -5.29296875 8.6953125 -5 5 C-4.01 4.34 -3.02 3.68 -2 3 C-1.34 2.01 -0.68 1.02 0 0 Z " fill="#FC2940" transform="translate(100,47)"/>
<path d="M0 0 C0.66 0 1.32 0 2 0 C1.67 3.96 1.34 7.92 1 12 C0.34 11.67 -0.32 11.34 -1 11 C-0.67 7.37 -0.34 3.74 0 0 Z M-3 11 C-2.34 11.66 -1.68 12.32 -1 13 C-1.375 15.125 -1.375 15.125 -2 17 C-2.99 17 -3.98 17 -5 17 C-5.33 24.26 -5.66 31.52 -6 39 C-6.33 39 -6.66 39 -7 39 C-7.05784708 34.87505849 -7.09354407 30.75022056 -7.125 26.625 C-7.14175781 25.449375 -7.15851563 24.27375 -7.17578125 23.0625 C-7.18222656 21.94101562 -7.18867187 20.81953125 -7.1953125 19.6640625 C-7.20578613 18.62717285 -7.21625977 17.5902832 -7.22705078 16.52197266 C-7 14 -7 14 -5 12 C-4.34 11.67 -3.68 11.34 -3 11 Z " fill="#B3303D" transform="translate(101,35)"/>
<path d="M0 0 C0.33 0 0.66 0 1 0 C0.98428955 0.68102783 0.9685791 1.36205566 0.95239258 2.0637207 C0.89006778 5.14656281 0.85101742 8.22927244 0.8125 11.3125 C0.78736328 12.38435547 0.76222656 13.45621094 0.73632812 14.56054688 C0.72666016 15.58857422 0.71699219 16.61660156 0.70703125 17.67578125 C0.6913208 18.62364502 0.67561035 19.57150879 0.65942383 20.5480957 C1.05524357 23.39771408 1.77824719 24.24976105 4 26 C3.34 26.66 2.68 27.32 2 28 C1.28591666 29.98356483 0.61382258 31.98315437 0 34 C-0.33 34 -0.66 34 -1 34 C-1.02918634 29.64584756 -1.04686145 25.29172052 -1.0625 20.9375 C-1.07087891 19.70837891 -1.07925781 18.47925781 -1.08789062 17.21289062 C-1.10363389 11.37213863 -1.08469508 5.74802983 0 0 Z " fill="#36070A" transform="translate(102,40)"/>
<path d="M0 0 C0.33 0 0.66 0 1 0 C1 10.89 1 21.78 1 33 C3.97 32.505 3.97 32.505 7 32 C7 32.66 7 33.32 7 34 C5.68 34.66 4.36 35.32 3 36 C3 35.34 3 34.68 3 34 C1.515 34.495 1.515 34.495 0 35 C-1.17379972 31.47860084 -1.12953037 28.67584274 -1.1328125 24.9609375 C-1.13376923 24.27947662 -1.13472595 23.59801575 -1.13571167 22.89590454 C-1.13639115 21.45859688 -1.13455304 20.02128612 -1.13037109 18.58398438 C-1.125003 16.37623272 -1.1303323 14.16868297 -1.13671875 11.9609375 C-1.13605825 10.56510372 -1.13477767 9.16927006 -1.1328125 7.7734375 C-1.13168457 6.49903809 -1.13055664 5.22463867 -1.12939453 3.91162109 C-1 1 -1 1 0 0 Z " fill="#220303" transform="translate(94,43)"/>
<path d="M0 0 C0.99 0.33 1.98 0.66 3 1 C2.979375 1.721875 2.95875 2.44375 2.9375 3.1875 C2.99820559 5.91925138 3.39258535 8.34256091 4 11 C2.0625 11.5625 2.0625 11.5625 0 12 C-1 11 -1 11 -1.125 7.6875 C-1.02893262 4.85351237 -0.85249568 2.66404901 0 0 Z " fill="#E92E40" transform="translate(96,36)"/>
<path d="M0 0 C1.76462683 3.08809695 2 4.23312136 2 8 C0.35 8 -1.3 8 -3 8 C-2.25 2.25 -2.25 2.25 0 0 Z " fill="#250507" transform="translate(110,11)"/>
<path d="M0 0 C0 3.3 0 6.6 0 10 C-3.08669204 6.91330796 -3.44855089 6.08072342 -4 2 C-1 0 -1 0 0 0 Z " fill="#000000" transform="translate(95,32)"/>
<path d="M0 0 C1.32 0 2.64 0 4 0 C4 1.98 4 3.96 4 6 C2.35 6 0.7 6 -1 6 C-1.042721 4.33388095 -1.04063832 2.66617115 -1 1 C-0.67 0.67 -0.34 0.34 0 0 Z M2 2 C3 4 3 4 3 4 Z " fill="#5F172C" transform="translate(118,20)"/>
<path d="M0 0 C2 3.75 2 3.75 2 6 C3.98 5.67 5.96 5.34 8 5 C8 5.66 8 6.32 8 7 C6.02 7.99 6.02 7.99 4 9 C4 8.34 4 7.68 4 7 C3.01 7.33 2.02 7.66 1 8 C0.02391783 5.07175348 -0.08226668 3.04386724 0 0 Z " fill="#28080A" transform="translate(93,70)"/>
<path d="M0 0 C0.33 0 0.66 0 1 0 C1.19573608 1.43640171 1.38127816 2.87419504 1.5625 4.3125 C1.66691406 5.11300781 1.77132812 5.91351563 1.87890625 6.73828125 C2 9 2 9 1 12 C0.34 12 -0.32 12 -1 12 C-0.67 8.04 -0.34 4.08 0 0 Z " fill="#2E0504" transform="translate(104,27)"/>
<path d="M0 0 C1.98 0 3.96 0 6 0 C5.6875 1.9375 5.6875 1.9375 5 4 C4.01 4.33 3.02 4.66 2 5 C2 4.34 2 3.68 2 3 C1.34 2.67 0.68 2.34 0 2 C0 1.34 0 0.68 0 0 Z " fill="#EC2D35" transform="translate(83,14)"/>
<path d="M0 0 C1.9451 2.91765 2.45276317 4.62537285 3 8 C1.68 7.01 0.36 6.02 -1 5 C-0.67 3.35 -0.34 1.7 0 0 Z " fill="#0B0204" transform="translate(118,2)"/>
<path d="M0 0 C1.98 0 3.96 0 6 0 C6 0.66 6 1.32 6 2 C5.01 2.33 4.02 2.66 3 3 C2.01 2.01 1.02 1.02 0 0 Z " fill="#5A1422" transform="translate(110,0)"/>
<path d="M0 0 C2.97 0 5.94 0 9 0 C7 2 7 2 3.875 2.125 C2.451875 2.063125 2.451875 2.063125 1 2 C0.67 1.34 0.34 0.68 0 0 Z " fill="#A11C34" transform="translate(107,62)"/>
<path d="M0 0 C1.32 0.33 2.64 0.66 4 1 C4 1.66 4 2.32 4 3 C2.68 2.67 1.36 2.34 0 2 C0 1.34 0 0.68 0 0 Z " fill="#FB312C" transform="translate(75,73)"/>
<path d="M0 0 C3 1 3 1 4 3 C2.68 3 1.36 3 0 3 C0 2.01 0 1.02 0 0 Z " fill="#F92D36" transform="translate(86,24)"/>
<path d="M0 0 C0.99 0.33 1.98 0.66 3 1 C2.01 1.99 1.02 2.98 0 4 C-0.33 3.34 -0.66 2.68 -1 2 C-0.67 1.34 -0.34 0.68 0 0 Z " fill="#1F0305" transform="translate(107,78)"/>
<path d="M0 0 C0.33 0.66 0.66 1.32 1 2 C1.99 2.33 2.98 2.66 4 3 C3.01 3.495 3.01 3.495 2 4 C1.01 3.01 0.02 2.02 -1 1 C-0.67 0.67 -0.34 0.34 0 0 Z " fill="#7A1D1E" transform="translate(79,13)"/>
<path d="M0 0 C1.65 0 3.3 0 5 0 C4.34 0.66 3.68 1.32 3 2 C2.01 1.34 1.02 0.68 0 0 Z " fill="#E22930" transform="translate(85,40)"/>
<path d="M0 0 C0.99 0 1.98 0 3 0 C3 0.66 3 1.32 3 2 C2.01 2 1.02 2 0 2 C0 1.34 0 0.68 0 0 Z " fill="#FE2B35" transform="translate(86,21)"/>
<path d="M0 0 C0.66 0 1.32 0 2 0 C1.67 0.99 1.34 1.98 1 3 C0.67 2.01 0.34 1.02 0 0 Z " fill="#060003" transform="translate(109,74)"/>
<path d="M0 0 C0.66 0.99 1.32 1.98 2 3 C1.01 2.67 0.02 2.34 -1 2 C-0.67 1.34 -0.34 0.68 0 0 Z " fill="#39150A" transform="translate(57,68)"/>
<path d="M0 0 C1.32 0 2.64 0 4 0 C3.67 0.66 3.34 1.32 3 2 C2.01 1.34 1.02 0.68 0 0 Z " fill="#0B0102" transform="translate(89,42)"/>
<path d="M0 0 C0.99 0.33 1.98 0.66 3 1 C2.01 1.33 1.02 1.66 0 2 C0 1.34 0 0.68 0 0 Z " fill="#FD2B36" transform="translate(86,37)"/>
<path d="M0 0 C0.33 1.32 0.66 2.64 1 4 C0.34 3.01 -0.32 2.02 -1 1 C-0.67 0.67 -0.34 0.34 0 0 Z " fill="#EF3264" transform="translate(116,7)"/>
<path d="M0 0 C0.99 0.33 1.98 0.66 3 1 C2.01 1 1.02 1 0 1 C0 0.67 0 0.34 0 0 Z " fill="#4A0D15" transform="translate(110,68)"/>
<path d="M0 0 C0.99 0.33 1.98 0.66 3 1 C2.01 1.33 1.02 1.66 0 2 C0 1.34 0 0.68 0 0 Z " fill="#090001" transform="translate(115,55)"/>
<path d="M0 0 C3 1 3 1 3 1 Z " fill="#2A0D10" transform="translate(115,53)"/>
<path d="M0 0 C0.66 0 1.32 0 2 0 C1.67 0.66 1.34 1.32 1 2 C0.67 1.34 0.34 0.68 0 0 Z " fill="#FD2B37" transform="translate(87,34)"/>
<path d="M0 0 C3 1 3 1 3 1 Z " fill="#FD2B37" transform="translate(85,28)"/>
<path d="" fill="#010104" transform="translate(0,0)"/>
<path d="M0 0 C0.66 0.66 1.32 1.32 2 2 C1.34 2 0.68 2 0 2 C0 1.34 0 0.68 0 0 Z " fill="#030000" transform="translate(119,10)"/>
<path d="M0 0 C0.99 0.495 0.99 0.495 2 1 C1.01 1.495 1.01 1.495 0 2 C0 1.34 0 0.68 0 0 Z " fill="#000101" transform="translate(101,6)"/>
<path d="M0 0 C0.33 0.66 0.66 1.32 1 2 C0.34 1.67 -0.32 1.34 -1 1 C-0.67 0.67 -0.34 0.34 0 0 Z " fill="#F62D58" transform="translate(111,5)"/>
<path d="" fill="#180000" transform="translate(0,0)"/>
<path d="M0 0 C2 1 2 1 2 1 Z " fill="#080000" transform="translate(80,79)"/>
<path d="" fill="#FE2F2C" transform="translate(0,0)"/>
<path d="M0 0 C2 1 2 1 2 1 Z " fill="#FB312D" transform="translate(75,78)"/>
<path d="M0 0 C2 1 2 1 2 1 Z " fill="#010001" transform="translate(89,71)"/>
<path d="" fill="#FC2849" transform="translate(0,0)"/>
<path d="M0 0 C2 1 2 1 2 1 Z " fill="#D63350" transform="translate(104,68)"/>
<path d="M0 0 C2 1 2 1 2 1 Z " fill="#000000" transform="translate(59,68)"/>
<path d="" fill="#FC2849" transform="translate(0,0)"/>
<path d="" fill="#000000" transform="translate(0,0)"/>
<path d="M0 0 C2 1 2 1 2 1 Z " fill="#230304" transform="translate(116,51)"/>
<path d="" fill="#030000" transform="translate(0,0)"/>
<path d="" fill="#EA3564" transform="translate(0,0)"/>
<path d="M0 0 C2 1 2 1 2 1 Z " fill="#FE2B35" transform="translate(86,19)"/>
<path d="M0 0 C2 1 2 1 2 1 Z " fill="#802140" transform="translate(118,18)"/>
<path d="" fill="#DC3D73" transform="translate(0,0)"/>
<path d="M0 0 C2 1 2 1 2 1 Z " fill="#FBBB01" transform="translate(7,15)"/>
<path d="" fill="#300200" transform="translate(0,0)"/>
<path d="M0 0 C2 1 2 1 2 1 Z " fill="#FA294D" transform="translate(107,3)"/>
<path d="M0 0 C2 1 2 1 2 1 Z " fill="#000000" transform="translate(103,3)"/>
<path d="" fill="#F92843" transform="translate(0,0)"/>
<path d="" fill="#FA3131" transform="translate(0,0)"/>
<path d="" fill="#FA294D" transform="translate(0,0)"/>
<path d="" fill="#FA294D" transform="translate(0,0)"/>
<path d="" fill="#030001" transform="translate(0,0)"/>
<path d="" fill="#000000" transform="translate(0,0)"/>
<path d="" fill="#FA294D" transform="translate(0,0)"/>
<path d="" fill="#FA621F" transform="translate(0,0)"/>
<path d="" fill="#F92843" transform="translate(0,0)"/>
<path d="" fill="#652732" transform="translate(0,0)"/>
<path d="" fill="#000001" transform="translate(0,0)"/>
<path d="" fill="#010101" transform="translate(0,0)"/>
<path d="" fill="#080000" transform="translate(0,0)"/>
<path d="" fill="#FF2D2F" transform="translate(0,0)"/>
<path d="" fill="#000000" transform="translate(0,0)"/>
<path d="" fill="#FF2D2F" transform="translate(0,0)"/>
<path d="" fill="#FD3229" transform="translate(0,0)"/>
<path d="" fill="#160000" transform="translate(0,0)"/>
<path d="" fill="#F33530" transform="translate(0,0)"/>
<path d="" fill="#E64239" transform="translate(0,0)"/>
<path d="" fill="#EC356B" transform="translate(0,0)"/>
<path d="" fill="#65373D" transform="translate(0,0)"/>
<path d="" fill="#FCB600" transform="translate(0,0)"/>
<path d="" fill="#080000" transform="translate(0,0)"/>
<path d="" fill="#F62D58" transform="translate(0,0)"/>
<path d="" fill="#100000" transform="translate(0,0)"/>
<path d="" fill="#0D0000" transform="translate(0,0)"/>
<path d="" fill="#000000" transform="translate(0,0)"/>
<path d="" fill="#FA3131" transform="translate(0,0)"/>
<path d="" fill="#B33E5E" transform="translate(0,0)"/>
<path d="" fill="#FF2846" transform="translate(0,0)"/>
<path d="" fill="#E8355D" transform="translate(0,0)"/>
<path d="" fill="#FA294D" transform="translate(0,0)"/>
<path d="" fill="#630003" transform="translate(0,0)"/>
<path d="" fill="#040000" transform="translate(0,0)"/>
<path d="" fill="#F13160" transform="translate(0,0)"/>
<path d="" fill="#F13160" transform="translate(0,0)"/>
<path d="" fill="#010203" transform="translate(0,0)"/>
</svg>
