<?xml version="1.0" encoding="UTF-8"?>
<svg version="1.1" xmlns="http://www.w3.org/2000/svg" width="117" height="109">
<path d="M0 0 C2.97 0.495 2.97 0.495 6 1 C5.67 2.32 5.34 3.64 5 5 C5.99 5 6.98 5 8 5 C8 5.66 8 6.32 8 7 C7.01 7.495 7.01 7.495 6 8 C6.66 8.33 7.32 8.66 8 9 C8 9.66 8 10.32 8 11 C9.65 10.34 11.3 9.68 13 9 C13 8.34 13 7.68 13 7 C14.30582947 5.96434215 15.64377755 4.96873032 17 4 C17.680625 3.1646875 17.680625 3.1646875 18.375 2.3125 C20 1 20 1 23 0.625 C26 1 26 1 27.875 2.5 C28.24625 2.995 28.6175 3.49 29 4 C27.6393389 9.19525146 25.64232612 12.17555757 22 16 C21.34 16 20.68 16 20 16 C20 16.66 20 17.32 20 18 C14.42741495 20.40976651 8.96961064 20.59330993 3 20 C0.0625 18.75 0.0625 18.75 -2 17 C-2.78375 16.4225 -3.5675 15.845 -4.375 15.25 C-6 13 -6 13 -5.6875 9.375 C-5.460625 8.26125 -5.23375 7.1475 -5 6 C-5.33 5.34 -5.66 4.68 -6 4 C-5.38125 3.896875 -4.7625 3.79375 -4.125 3.6875 C-1.63473516 3.12474627 -1.63473516 3.12474627 0 0 Z " fill="#E62A38" transform="translate(87,89)"/>
<path d="M0 0 C0.66 0.33 1.32 0.66 2 1 C1.34 2.65 0.68 4.3 0 6 C0.99 6.66 1.98 7.32 3 8 C2.835 8.928125 2.67 9.85625 2.5 10.8125 C1.92251612 13.95621353 1.92251612 13.95621353 2 17 C1.34 17.66 0.68 18.32 0 19 C-0.66 19 -1.32 19 -2 19 C-1.67 20.65 -1.34 22.3 -1 24 C-2.32 23.34 -3.64 22.68 -5 22 C-4.34 23.32 -3.68 24.64 -3 26 C-3.99 26 -4.98 26 -6 26 C-6.33 27.32 -6.66 28.64 -7 30 C-7.66 30 -8.32 30 -9 30 C-9.33 29.34 -9.66 28.68 -10 28 C-10.99 27.34 -11.98 26.68 -13 26 C-12.34 26 -11.68 26 -11 26 C-10.83346964 21.67021068 -10.84448822 18.77214561 -13 15 C-13 14.01 -13 13.02 -13 12 C-13.66 12 -14.32 12 -15 12 C-15 9.36 -15 6.72 -15 4 C-12.25 2.375 -12.25 2.375 -9 1 C-6.625 1.8125 -6.625 1.8125 -5 3 C-5 3.66 -5 4.32 -5 5 C-4.34 5 -3.68 5 -3 5 C-3 4.01 -3 3.02 -3 2 C-2.34 2 -1.68 2 -1 2 C-0.67 1.34 -0.34 0.68 0 0 Z M-1 13 C0 16 0 16 0 16 Z " fill="#F53B2A" transform="translate(90,61)"/>
<path d="M0 0 C2.97 0.495 2.97 0.495 6 1 C5.67 2.32 5.34 3.64 5 5 C5.99 5 6.98 5 8 5 C8 5.66 8 6.32 8 7 C7.01 7.495 7.01 7.495 6 8 C6.66 8.33 7.32 8.66 8 9 C8 9.66 8 10.32 8 11 C9.65 10.34 11.3 9.68 13 9 C13 8.34 13 7.68 13 7 C14.32 6.34 15.64 5.68 17 5 C17.33 6.32 17.66 7.64 18 9 C16.68 9.33 15.36 9.66 14 10 C14 10.66 14 11.32 14 12 C12.329375 12.4640625 12.329375 12.4640625 10.625 12.9375 C7.2054845 13.82326483 7.2054845 13.82326483 5 15 C4.67 15.99 4.34 16.98 4 18 C7.3 18 10.6 18 14 18 C11.6058839 20.3941161 10.96213689 20.29598923 7.6875 20.3125 C3.63701943 20.21513268 1.23160348 19.58528278 -2 17 C-2.78375 16.4225 -3.5675 15.845 -4.375 15.25 C-6 13 -6 13 -5.6875 9.375 C-5.460625 8.26125 -5.23375 7.1475 -5 6 C-5.33 5.34 -5.66 4.68 -6 4 C-5.38125 3.896875 -4.7625 3.79375 -4.125 3.6875 C-1.63473516 3.12474627 -1.63473516 3.12474627 0 0 Z " fill="#E6312A" transform="translate(87,89)"/>
<path d="M0 0 C1.0394775 3.1184325 1.11494838 5.27475586 1.09765625 8.54296875 C1.09443359 9.61611328 1.09121094 10.68925781 1.08789062 11.79492188 C1.07951172 12.91447266 1.07113281 14.03402344 1.0625 15.1875 C1.05798828 16.31865234 1.05347656 17.44980469 1.04882812 18.61523438 C1.03703498 21.41020927 1.0205765 24.2050782 1 27 C-0.32 26.34 -1.64 25.68 -3 25 C-2.34 25 -1.68 25 -1 25 C-0.83346964 20.67021068 -0.84448822 17.77214561 -3 14 C-3 13.01 -3 12.02 -3 11 C-3.66 11 -4.32 11 -5 11 C-5.44041451 5.62694301 -5.44041451 5.62694301 -5 3 C-2.5 1 -2.5 1 0 0 Z " fill="#190B09" transform="translate(80,62)"/>
<path d="M0 0 C0.66 0.33 1.32 0.66 2 1 C1.690625 1.639375 1.38125 2.27875 1.0625 2.9375 C-0.31935403 6.92049104 -0.6536543 10.81650849 -1 15 C-2.32 15 -3.64 15 -5 15 C-5.66 15.66 -6.32 16.32 -7 17 C-7 13.37 -7 9.74 -7 6 C-5.68 5.67 -4.36 5.34 -3 5 C-3 4.01 -3 3.02 -3 2 C-2.34 2 -1.68 2 -1 2 C-0.67 1.34 -0.34 0.68 0 0 Z " fill="#F93628" transform="translate(90,61)"/>
<path d="M0 0 C0.33 1.32 0.66 2.64 1 4 C0.01 3.67 -0.98 3.34 -2 3 C-2.33 3.99 -2.66 4.98 -3 6 C-5.31 6 -7.62 6 -10 6 C-9.6875 4.125 -9.6875 4.125 -9 2 C-5.5647952 -0.29013653 -4.014669 -0.17842973 0 0 Z " fill="#F82F32" transform="translate(101,101)"/>
<path d="M0 0 C0 4.62 0 9.24 0 14 C-0.66 13.34 -1.32 12.68 -2 12 C-2 11.01 -2 10.02 -2 9 C-2.66 9 -3.32 9 -4 9 C-4 6.36 -4 3.72 -4 1 C-1 0 -1 0 0 0 Z " fill="#000001" transform="translate(79,64)"/>
<path d="M0 0 C0.66 0.33 1.32 0.66 2 1 C1.67 2.32 1.34 3.64 1 5 C0.01 5 -0.98 5 -2 5 C-2 5.66 -2 6.32 -2 7 C-5.05263664 7.98120464 -6.94736336 7.98120464 -10 7 C-9.67 6.01 -9.34 5.02 -9 4 C-8.67 4.66 -8.34 5.32 -8 6 C-6.35 5.34 -4.7 4.68 -3 4 C-3 3.34 -3 2.68 -3 2 C-2.01 1.34 -1.02 0.68 0 0 Z " fill="#6E171B" transform="translate(103,94)"/>
<path d="M0 0 C0.66 0.33 1.32 0.66 2 1 C1.690625 1.680625 1.38125 2.36125 1.0625 3.0625 C-0.14565864 6.07687845 -0.14565864 6.07687845 -0.5 9.75 C-0.665 10.8225 -0.83 11.895 -1 13 C-1.99 13.495 -1.99 13.495 -3 14 C-3 10.04 -3 6.08 -3 2 C-2.34 2 -1.68 2 -1 2 C-0.67 1.34 -0.34 0.68 0 0 Z " fill="#350C0C" transform="translate(90,61)"/>
<path d="M0 0 C0.66 0 1.32 0 2 0 C2 3.96 2 7.92 2 12 C0.68 11.34 -0.64 10.68 -2 10 C-1.34 10 -0.68 10 0 10 C0 9.34 0 8.68 0 8 C-0.99 7.67 -1.98 7.34 -3 7 C-2.01 4.69 -1.02 2.38 0 0 Z " fill="#2C0807" transform="translate(91,29)"/>
<path d="M0 0 C0.66 0.66 1.32 1.32 2 2 C0.625 4 0.625 4 -1 6 C-1.66 6 -2.32 6 -3 6 C-3 6.66 -3 7.32 -3 8 C-4.98 8.66 -6.96 9.32 -9 10 C-9 9.01 -9 8.02 -9 7 C-3.74285714 3 -3.74285714 3 -1 3 C-0.67 2.01 -0.34 1.02 0 0 Z " fill="#1D0405" transform="translate(110,99)"/>
<path d="M0 0 C5.53846154 -0.36923077 5.53846154 -0.36923077 7.875 1.5 C8.24625 1.995 8.6175 2.49 9 3 C8.34 4.98 7.68 6.96 7 9 C6.01 9 5.02 9 4 9 C4.33 6.69 4.66 4.38 5 2 C3.35 2 1.7 2 0 2 C0 1.34 0 0.68 0 0 Z " fill="#2D0607" transform="translate(107,90)"/>
<path d="M0 0 C2.02408755 0.09002398 4.04544287 0.24641038 6.0625 0.4375 C7.71958984 0.59025391 7.71958984 0.59025391 9.41015625 0.74609375 C10.26480469 0.82988281 11.11945313 0.91367188 12 1 C10 3 10 3 7.90625 3.265625 C7.1121875 3.26046875 6.318125 3.2553125 5.5 3.25 C4.7059375 3.25515625 3.911875 3.2603125 3.09375 3.265625 C1 3 1 3 -1 1 C-0.67 0.67 -0.34 0.34 0 0 Z " fill="#1B0708" transform="translate(89,106)"/>
<path d="M0 0 C0.66 0.33 1.32 0.66 2 1 C1.835 1.928125 1.67 2.85625 1.5 3.8125 C0.92251612 6.95621353 0.92251612 6.95621353 1 10 C0.34 10.66 -0.32 11.32 -1 12 C-1.96472235 7.28357961 -2.15253572 4.30507144 0 0 Z " fill="#F0342F" transform="translate(91,68)"/>
<path d="M0 0 C0.66 0 1.32 0 2 0 C3.8597711 2.59240819 5.57205423 5.14410847 7 8 C3 8 3 8 0.6875 6.25 C-1 4 -1 4 -0.75 1.75 C-0.5025 1.1725 -0.255 0.595 0 0 Z " fill="#1D0504" transform="translate(82,98)"/>
<path d="M0 0 C0.99 0 1.98 0 3 0 C2.67 1.32 2.34 2.64 2 4 C2.99 4 3.98 4 5 4 C5 4.66 5 5.32 5 6 C3.35 6 1.7 6 0 6 C-0.38218767 4.34385343 -0.71395102 2.67542976 -1 1 C-0.67 0.67 -0.34 0.34 0 0 Z " fill="#0D0100" transform="translate(90,90)"/>
<path d="M0 0 C2.475 0.99 2.475 0.99 5 2 C4.67 2.66 4.34 3.32 4 4 C2.68 3.67 1.36 3.34 0 3 C0 2.01 0 1.02 0 0 Z " fill="#831A1D" transform="translate(92,14)"/>
<path d="M0 0 C0.66 0 1.32 0 2 0 C3.625 2 3.625 2 5 4 C3.35 3.67 1.7 3.34 0 3 C0 2.01 0 1.02 0 0 Z " fill="#E92F37" transform="translate(96,47)"/>
<path d="M0 0 C0.33 1.32 0.66 2.64 1 4 C0.01 4.33 -0.98 4.66 -2 5 C-2 4.34 -2 3.68 -2 3 C-2.99 2.67 -3.98 2.34 -5 2 C-3.68 2 -2.36 2 -1 2 C-0.67 1.34 -0.34 0.68 0 0 Z " fill="#751B1D" transform="translate(105,34)"/>
<path d="M0 0 C0.66 0 1.32 0 2 0 C1.67 1.65 1.34 3.3 1 5 C0.01 4.34 -0.98 3.68 -2 3 C-1.34 2.01 -0.68 1.02 0 0 Z " fill="#000000" transform="translate(83,17)"/>
<path d="M0 0 C0.66 0 1.32 0 2 0 C2 0.99 2 1.98 2 3 C0.68 3.33 -0.64 3.66 -2 4 C-1.34 2.68 -0.68 1.36 0 0 Z " fill="#A45D11" transform="translate(50,91)"/>
<path d="M0 0 C1.32 0 2.64 0 4 0 C4.33 0.99 4.66 1.98 5 3 C3.0625 2.625 3.0625 2.625 1 2 C0.67 1.34 0.34 0.68 0 0 Z " fill="#F82D37" transform="translate(99,32)"/>
<path d="M0 0 C0.99 0.99 1.98 1.98 3 3 C2.01 3 1.02 3 0 3 C-0.66 3.66 -1.32 4.32 -2 5 C-1.125 1.125 -1.125 1.125 0 0 Z " fill="#711917" transform="translate(85,21)"/>
<path d="M0 0 C0.99 0.33 1.98 0.66 3 1 C2.67 2.32 2.34 3.64 2 5 C2 4.34 2 3.68 2 3 C1.34 3 0.68 3 0 3 C0 2.01 0 1.02 0 0 Z " fill="#B92D20" transform="translate(81,41)"/>
<path d="M0 0 C0.66 0.33 1.32 0.66 2 1 C2 1.99 2 2.98 2 4 C0.68 3.67 -0.64 3.34 -2 3 C-1.34 2.01 -0.68 1.02 0 0 Z " fill="#761618" transform="translate(104,14)"/>
<path d="M0 0 C1.32 0.33 2.64 0.66 4 1 C3.01 2.485 3.01 2.485 2 4 C1.34 2.68 0.68 1.36 0 0 Z " fill="#E83C28" transform="translate(81,47)"/>
<path d="M0 0 C0.99 0.33 1.98 0.66 3 1 C2.67 1.66 2.34 2.32 2 3 C1.01 2.67 0.02 2.34 -1 2 C-0.67 1.34 -0.34 0.68 0 0 Z " fill="#FD2C35" transform="translate(100,39)"/>
<path d="M0 0 C1.32 0.33 2.64 0.66 4 1 C3.01 1.495 3.01 1.495 2 2 C1.67 2.66 1.34 3.32 1 4 C0.67 2.68 0.34 1.36 0 0 Z " fill="#090101" transform="translate(92,24)"/>
<path d="M0 0 C0.99 0.33 1.98 0.66 3 1 C1.02 1.99 1.02 1.99 -1 3 C-0.67 2.01 -0.34 1.02 0 0 Z " fill="#704C1A" transform="translate(31,101)"/>
<path d="M0 0 C0.66 0.99 1.32 1.98 2 3 C1.01 3.33 0.02 3.66 -1 4 C-0.67 2.68 -0.34 1.36 0 0 Z " fill="#F83B28" transform="translate(83,58)"/>
<path d="M0 0 C0.33 0 0.66 0 1 0 C1 1.98 1 3.96 1 6 C0.34 5.34 -0.32 4.68 -1 4 C-0.625 1.875 -0.625 1.875 0 0 Z " fill="#FD302B" transform="translate(89,21)"/>
<path d="M0 0 C0.99 0.33 1.98 0.66 3 1 C3 1.99 3 2.98 3 4 C1 3 1 3 0 0 Z " fill="#FE2B34" transform="translate(99,12)"/>
<path d="M0 0 C0.66 0.33 1.32 0.66 2 1 C1.01 1.99 0.02 2.98 -1 4 C-1.33 3.34 -1.66 2.68 -2 2 C-1.34 2 -0.68 2 0 2 C0 1.34 0 0.68 0 0 Z " fill="#82161F" transform="translate(101,3)"/>
<path d="M0 0 C0.99 0.33 1.98 0.66 3 1 C1.02 1.99 1.02 1.99 -1 3 C-0.67 2.01 -0.34 1.02 0 0 Z " fill="#C42D2D" transform="translate(93,3)"/>
<path d="M0 0 C1.32 0.33 2.64 0.66 4 1 C3.67 1.66 3.34 2.32 3 3 C2.01 2.01 1.02 1.02 0 0 Z " fill="#B12428" transform="translate(95,2)"/>
<path d="M0 0 C0.99 0.33 1.98 0.66 3 1 C2.01 2.485 2.01 2.485 1 4 C0.67 2.68 0.34 1.36 0 0 Z " fill="#0C0608" transform="translate(46,86)"/>
<path d="M0 0 C0.99 0 1.98 0 3 0 C2.67 0.99 2.34 1.98 2 3 C1.34 2.01 0.68 1.02 0 0 Z " fill="#0B0101" transform="translate(88,57)"/>
<path d="M0 0 C0.33 1.32 0.66 2.64 1 4 C0.34 3.67 -0.32 3.34 -1 3 C-0.67 2.01 -0.34 1.02 0 0 Z " fill="#000001" transform="translate(80,37)"/>
<path d="M0 0 C0.33 0.66 0.66 1.32 1 2 C1.66 2.33 2.32 2.66 3 3 C1.68 2.67 0.36 2.34 -1 2 C-0.67 1.34 -0.34 0.68 0 0 Z " fill="#FC2C36" transform="translate(98,6)"/>
<path d="M0 0 C1.65 0 3.3 0 5 0 C5 0.33 5 0.66 5 1 C3.35 1 1.7 1 0 1 C0 0.67 0 0.34 0 0 Z " fill="#010001" transform="translate(108,88)"/>
<path d="M0 0 C0.66 0 1.32 0 2 0 C2 0.66 2 1.32 2 2 C1.01 1.67 0.02 1.34 -1 1 C-0.67 0.67 -0.34 0.34 0 0 Z " fill="#A92C30" transform="translate(96,43)"/>
<path d="M0 0 C0.66 0 1.32 0 2 0 C2 0.66 2 1.32 2 2 C1.01 1.67 0.02 1.34 -1 1 C-0.67 0.67 -0.34 0.34 0 0 Z " fill="#2D0706" transform="translate(89,41)"/>
<path d="M0 0 C0.99 0.33 1.98 0.66 3 1 C2.01 1.33 1.02 1.66 0 2 C0 1.34 0 0.68 0 0 Z " fill="#43070B" transform="translate(104,23)"/>
<path d="M0 0 C0.66 0 1.32 0 2 0 C2 0.66 2 1.32 2 2 C1.01 1.67 0.02 1.34 -1 1 C-0.67 0.67 -0.34 0.34 0 0 Z " fill="#1C0202" transform="translate(93,21)"/>
<path d="M0 0 C0.66 0 1.32 0 2 0 C1.67 0.99 1.34 1.98 1 3 C0.67 2.01 0.34 1.02 0 0 Z " fill="#FBB808" transform="translate(21,16)"/>
<path d="M0 0 C0.99 0.495 0.99 0.495 2 1 C1.67 1.66 1.34 2.32 1 3 C0.67 2.01 0.34 1.02 0 0 Z " fill="#010003" transform="translate(32,104)"/>
<path d="M0 0 C0.99 0.33 1.98 0.66 3 1 C2.01 1 1.02 1 0 1 C0 0.67 0 0.34 0 0 Z " fill="#52110B" transform="translate(88,88)"/>
<path d="M0 0 C0.66 0.66 1.32 1.32 2 2 C1.01 2.495 1.01 2.495 0 3 C0 2.01 0 1.02 0 0 Z " fill="#180703" transform="translate(79,59)"/>
<path d="M0 0 C0.66 0.66 1.32 1.32 2 2 C1.01 2.495 1.01 2.495 0 3 C0 2.01 0 1.02 0 0 Z " fill="#FD3428" transform="translate(85,57)"/>
<path d="M0 0 C0 3 0 3 0 3 Z " fill="#010000" transform="translate(79,55)"/>
<path d="M0 0 C0.66 0 1.32 0 2 0 C1.67 0.99 1.34 1.98 1 3 C0.67 2.01 0.34 1.02 0 0 Z " fill="#FD3229" transform="translate(85,50)"/>
<path d="M0 0 C0.99 1.485 0.99 1.485 2 3 C1.34 3 0.68 3 0 3 C0 2.01 0 1.02 0 0 Z " fill="#010000" transform="translate(89,45)"/>
<path d="M0 0 C0.66 0 1.32 0 2 0 C2 0.66 2 1.32 2 2 C1.34 2 0.68 2 0 2 C0 1.34 0 0.68 0 0 Z " fill="#FC2C36" transform="translate(99,43)"/>
<path d="M0 0 C0.99 0.495 0.99 0.495 2 1 C1.34 1.66 0.68 2.32 0 3 C0 2.01 0 1.02 0 0 Z " fill="#451012" transform="translate(96,36)"/>
<path d="M0 0 C0.66 0 1.32 0 2 0 C2 0.66 2 1.32 2 2 C1.34 2 0.68 2 0 2 C0 1.34 0 0.68 0 0 Z " fill="#030000" transform="translate(80,34)"/>
<path d="M0 0 C0.99 0.495 0.99 0.495 2 1 C1.34 1.66 0.68 2.32 0 3 C0 2.01 0 1.02 0 0 Z " fill="#E03837" transform="translate(89,28)"/>
<path d="M0 0 C0.66 0 1.32 0 2 0 C1.67 0.99 1.34 1.98 1 3 C0.67 2.01 0.34 1.02 0 0 Z " fill="#2C0609" transform="translate(104,26)"/>
<path d="M0 0 C0.66 0.66 1.32 1.32 2 2 C1.01 2.495 1.01 2.495 0 3 C0 2.01 0 1.02 0 0 Z " fill="#000001" transform="translate(81,26)"/>
<path d="M0 0 C0.99 0.33 1.98 0.66 3 1 C2.01 1 1.02 1 0 1 C0 0.67 0 0.34 0 0 Z " fill="#3A250F" transform="translate(23,15)"/>
<path d="M0 0 C0 3 0 3 0 3 Z " fill="#000000" transform="translate(86,10)"/>
<path d="M0 0 C0.66 0 1.32 0 2 0 C2 0.66 2 1.32 2 2 C1.34 2 0.68 2 0 2 C0 1.34 0 0.68 0 0 Z " fill="#000000" transform="translate(99,1)"/>
<path d="M0 0 C0.99 0.495 0.99 0.495 2 1 C1.01 1.495 1.01 1.495 0 2 C0 1.34 0 0.68 0 0 Z " fill="#030300" transform="translate(79,102)"/>
<path d="M0 0 C3 1 3 1 3 1 Z " fill="#FB5122" transform="translate(76,99)"/>
<path d="M0 0 C0.99 0.495 0.99 0.495 2 1 C1.01 1.495 1.01 1.495 0 2 C0 1.34 0 0.68 0 0 Z " fill="#FB3927" transform="translate(83,91)"/>
<path d="M0 0 C0.99 0.495 0.99 0.495 2 1 C1.01 1.495 1.01 1.495 0 2 C0 1.34 0 0.68 0 0 Z " fill="#060500" transform="translate(5,91)"/>
<path d="M0 0 C0.99 0.495 0.99 0.495 2 1 C1.01 1.495 1.01 1.495 0 2 C0 1.34 0 0.68 0 0 Z " fill="#FD8206" transform="translate(51,87)"/>
<path d="M0 0 C0.33 0.66 0.66 1.32 1 2 C0.34 1.67 -0.32 1.34 -1 1 C-0.67 0.67 -0.34 0.34 0 0 Z " fill="#1E0400" transform="translate(95,77)"/>
<path d="M0 0 C0.99 0.495 0.99 0.495 2 1 C1.01 1.495 1.01 1.495 0 2 C0 1.34 0 0.68 0 0 Z " fill="#1F0101" transform="translate(88,60)"/>
<path d="" fill="#FC3A25" transform="translate(0,0)"/>
<path d="M0 0 C3 1 3 1 3 1 Z " fill="#010001" transform="translate(90,44)"/>
<path d="M0 0 C0.33 0.66 0.66 1.32 1 2 C0.34 1.67 -0.32 1.34 -1 1 C-0.67 0.67 -0.34 0.34 0 0 Z " fill="#010001" transform="translate(78,42)"/>
<path d="M0 0 C0.66 0.66 1.32 1.32 2 2 C1.34 2 0.68 2 0 2 C0 1.34 0 0.68 0 0 Z " fill="#000102" transform="translate(81,30)"/>
<path d="" fill="#FD2B37" transform="translate(0,0)"/>
<path d="M0 0 C0.66 0 1.32 0 2 0 C1.67 0.66 1.34 1.32 1 2 C0.67 1.34 0.34 0.68 0 0 Z " fill="#CF352E" transform="translate(84,26)"/>
<path d="M0 0 C3 1 3 1 3 1 Z " fill="#170205" transform="translate(34,22)"/>
<path d="M0 0 C3 1 3 1 3 1 Z " fill="#FE2C33" transform="translate(100,20)"/>
<path d="M0 0 C0.99 0.495 0.99 0.495 2 1 C1.01 1.495 1.01 1.495 0 2 C0 1.34 0 0.68 0 0 Z " fill="#FCB600" transform="translate(18,17)"/>
<path d="M0 0 C0.66 0 1.32 0 2 0 C1.67 0.66 1.34 1.32 1 2 C0.67 1.34 0.34 0.68 0 0 Z " fill="#DAA125" transform="translate(27,16)"/>
<path d="M0 0 C0.33 0.66 0.66 1.32 1 2 C0.34 1.67 -0.32 1.34 -1 1 C-0.67 0.67 -0.34 0.34 0 0 Z " fill="#000000" transform="translate(106,11)"/>
<path d="M0 0 C0.66 0.66 1.32 1.32 2 2 C1.34 2 0.68 2 0 2 C0 1.34 0 0.68 0 0 Z " fill="#FC2D34" transform="translate(97,9)"/>
<path d="M0 0 C0.33 0.66 0.66 1.32 1 2 C0.34 1.67 -0.32 1.34 -1 1 C-0.67 0.67 -0.34 0.34 0 0 Z " fill="#040000" transform="translate(91,3)"/>
<path d="M0 0 C2 1 2 1 2 1 Z " fill="#000000" transform="translate(77,105)"/>
<path d="M0 0 C2 1 2 1 2 1 Z " fill="#010001" transform="translate(81,103)"/>
<path d="M0 0 C2 1 2 1 2 1 Z " fill="#F19C10" transform="translate(33,103)"/>
<path d="M0 0 C2 1 2 1 2 1 Z " fill="#010001" transform="translate(115,97)"/>
<path d="M0 0 C2 1 2 1 2 1 Z " fill="#000000" transform="translate(98,97)"/>
<path d="M0 0 C2 1 2 1 2 1 Z " fill="#F74427" transform="translate(79,96)"/>
<path d="M0 0 C2 1 2 1 2 1 Z " fill="#010003" transform="translate(47,91)"/>
<path d="" fill="#FD3627" transform="translate(0,0)"/>
<path d="M0 0 C2 1 2 1 2 1 Z " fill="#D9C419" transform="translate(5,87)"/>
<path d="M0 0 C2 1 2 1 2 1 Z " fill="#000000" transform="translate(71,83)"/>
<path d="M0 0 C2 1 2 1 2 1 Z " fill="#010001" transform="translate(59,74)"/>
<path d="" fill="#010003" transform="translate(0,0)"/>
<path d="" fill="#000000" transform="translate(0,0)"/>
<path d="M0 0 C2 1 2 1 2 1 Z " fill="#E94932" transform="translate(81,57)"/>
<path d="M0 0 C2 1 2 1 2 1 Z " fill="#FD3229" transform="translate(85,55)"/>
<path d="M0 0 C2 1 2 1 2 1 Z " fill="#7E2B1A" transform="translate(80,54)"/>
<path d="M0 0 C2 1 2 1 2 1 Z " fill="#280201" transform="translate(88,53)"/>
<path d="M0 0 C2 1 2 1 2 1 Z " fill="#330001" transform="translate(88,49)"/>
<path d="" fill="#C33A3F" transform="translate(0,0)"/>
<path d="" fill="#000000" transform="translate(0,0)"/>
<path d="M0 0 C2 1 2 1 2 1 Z " fill="#FE2B35" transform="translate(98,46)"/>
<path d="" fill="#E03F38" transform="translate(0,0)"/>
<path d="M0 0 C2 1 2 1 2 1 Z " fill="#000000" transform="translate(77,45)"/>
<path d="M0 0 C2 1 2 1 2 1 Z " fill="#000000" transform="translate(79,44)"/>
<path d="" fill="#FD3229" transform="translate(0,0)"/>
<path d="M0 0 C2 1 2 1 2 1 Z " fill="#B73B30" transform="translate(82,38)"/>
<path d="M0 0 C2 1 2 1 2 1 Z " fill="#E9353C" transform="translate(98,34)"/>
<path d="M0 0 C2 1 2 1 2 1 Z " fill="#020001" transform="translate(93,32)"/>
<path d="M0 0 C2 1 2 1 2 1 Z " fill="#F13A31" transform="translate(84,31)"/>
<path d="" fill="#8F3E43" transform="translate(0,0)"/>
<path d="M0 0 C2 1 2 1 2 1 Z " fill="#FB312D" transform="translate(88,18)"/>
<path d="" fill="#010005" transform="translate(0,0)"/>
<path d="" fill="#FDA703" transform="translate(0,0)"/>
<path d="M0 0 C2 1 2 1 2 1 Z " fill="#010001" transform="translate(107,13)"/>
<path d="" fill="#FE2F2C" transform="translate(0,0)"/>
<path d="" fill="#954143" transform="translate(0,0)"/>
<path d="M0 0 C2 1 2 1 2 1 Z " fill="#BE2731" transform="translate(102,11)"/>
<path d="M0 0 C2 1 2 1 2 1 Z " fill="#010001" transform="translate(107,10)"/>
<path d="M0 0 C2 1 2 1 2 1 Z " fill="#000000" transform="translate(87,9)"/>
<path d="M0 0 C2 1 2 1 2 1 Z " fill="#FC2F30" transform="translate(95,8)"/>
<path d="M0 0 C2 1 2 1 2 1 Z " fill="#CC3B38" transform="translate(90,8)"/>
<path d="M0 0 C2 1 2 1 2 1 Z " fill="#000005" transform="translate(16,8)"/>
<path d="M0 0 C2 1 2 1 2 1 Z " fill="#060000" transform="translate(103,7)"/>
<path d="M0 0 C2 1 2 1 2 1 Z " fill="#000001" transform="translate(87,7)"/>
<path d="M0 0 C2 1 2 1 2 1 Z " fill="#000000" transform="translate(97,0)"/>
<path d="" fill="#010003" transform="translate(0,0)"/>
<path d="" fill="#F8412B" transform="translate(0,0)"/>
<path d="" fill="#F8412B" transform="translate(0,0)"/>
<path d="" fill="#010101" transform="translate(0,0)"/>
<path d="" fill="#F33530" transform="translate(0,0)"/>
<path d="" fill="#030001" transform="translate(0,0)"/>
<path d="" fill="#010005" transform="translate(0,0)"/>
<path d="" fill="#FF2D2F" transform="translate(0,0)"/>
<path d="" fill="#010104" transform="translate(0,0)"/>
<path d="" fill="#FD3229" transform="translate(0,0)"/>
<path d="" fill="#FA3131" transform="translate(0,0)"/>
<path d="" fill="#FF2D2F" transform="translate(0,0)"/>
<path d="" fill="#000109" transform="translate(0,0)"/>
<path d="" fill="#D02E32" transform="translate(0,0)"/>
<path d="" fill="#010104" transform="translate(0,0)"/>
<path d="" fill="#010003" transform="translate(0,0)"/>
<path d="" fill="#FD641A" transform="translate(0,0)"/>
<path d="" fill="#000001" transform="translate(0,0)"/>
<path d="" fill="#010003" transform="translate(0,0)"/>
<path d="" fill="#FEA501" transform="translate(0,0)"/>
<path d="" fill="#010101" transform="translate(0,0)"/>
<path d="" fill="#FE3D23" transform="translate(0,0)"/>
<path d="" fill="#FD3229" transform="translate(0,0)"/>
<path d="" fill="#010111" transform="translate(0,0)"/>
<path d="" fill="#F14B2B" transform="translate(0,0)"/>
<path d="" fill="#010001" transform="translate(0,0)"/>
<path d="" fill="#FE3D23" transform="translate(0,0)"/>
<path d="" fill="#000100" transform="translate(0,0)"/>
<path d="" fill="#000100" transform="translate(0,0)"/>
<path d="" fill="#D02E32" transform="translate(0,0)"/>
<path d="" fill="#010200" transform="translate(0,0)"/>
<path d="" fill="#010200" transform="translate(0,0)"/>
<path d="" fill="#000001" transform="translate(0,0)"/>
<path d="" fill="#330100" transform="translate(0,0)"/>
<path d="" fill="#E52D3A" transform="translate(0,0)"/>
<path d="" fill="#FD3627" transform="translate(0,0)"/>
<path d="" fill="#FD3229" transform="translate(0,0)"/>
<path d="" fill="#FD3229" transform="translate(0,0)"/>
<path d="" fill="#010200" transform="translate(0,0)"/>
<path d="" fill="#E64239" transform="translate(0,0)"/>
<path d="" fill="#FD3229" transform="translate(0,0)"/>
<path d="" fill="#130D02" transform="translate(0,0)"/>
<path d="" fill="#000000" transform="translate(0,0)"/>
<path d="" fill="#590E00" transform="translate(0,0)"/>
<path d="" fill="#DB3D37" transform="translate(0,0)"/>
<path d="" fill="#682023" transform="translate(0,0)"/>
<path d="" fill="#FA3131" transform="translate(0,0)"/>
<path d="" fill="#FB3B27" transform="translate(0,0)"/>
<path d="" fill="#FF2D2F" transform="translate(0,0)"/>
<path d="" fill="#000000" transform="translate(0,0)"/>
<path d="" fill="#FF2D2F" transform="translate(0,0)"/>
<path d="" fill="#040000" transform="translate(0,0)"/>
<path d="" fill="#FCB600" transform="translate(0,0)"/>
<path d="" fill="#040000" transform="translate(0,0)"/>
<path d="" fill="#010203" transform="translate(0,0)"/>
<path d="" fill="#000001" transform="translate(0,0)"/>
<path d="" fill="#F8C01E" transform="translate(0,0)"/>
<path d="" fill="#000100" transform="translate(0,0)"/>
<path d="" fill="#FD2A3C" transform="translate(0,0)"/>
<path d="" fill="#280409" transform="translate(0,0)"/>
<path d="" fill="#F33530" transform="translate(0,0)"/>
<path d="" fill="#FCA905" transform="translate(0,0)"/>
<path d="" fill="#AF1924" transform="translate(0,0)"/>
<path d="" fill="#FD3229" transform="translate(0,0)"/>
<path d="" fill="#010200" transform="translate(0,0)"/>
<path d="" fill="#F8B520" transform="translate(0,0)"/>
<path d="" fill="#0D0000" transform="translate(0,0)"/>
<path d="" fill="#FF2D2F" transform="translate(0,0)"/>
<path d="" fill="#951D12" transform="translate(0,0)"/>
<path d="" fill="#160D16" transform="translate(0,0)"/>
<path d="" fill="#000000" transform="translate(0,0)"/>
<path d="" fill="#F33530" transform="translate(0,0)"/>
<path d="" fill="#010101" transform="translate(0,0)"/>
<path d="" fill="#393324" transform="translate(0,0)"/>
<path d="" fill="#010203" transform="translate(0,0)"/>
<path d="" fill="#FA3131" transform="translate(0,0)"/>
<path d="" fill="#FD3229" transform="translate(0,0)"/>
<path d="" fill="#DB3D37" transform="translate(0,0)"/>
<path d="" fill="#FCB600" transform="translate(0,0)"/>
<path d="" fill="#010009" transform="translate(0,0)"/>
<path d="" fill="#160000" transform="translate(0,0)"/>
<path d="" fill="#F2333A" transform="translate(0,0)"/>
<path d="" fill="#000001" transform="translate(0,0)"/>
<path d="" fill="#F33530" transform="translate(0,0)"/>
<path d="" fill="#FD2A3C" transform="translate(0,0)"/>
<path d="" fill="#080501" transform="translate(0,0)"/>
<path d="" fill="#010200" transform="translate(0,0)"/>
</svg>
