<?xml version="1.0" encoding="UTF-8"?>
<svg version="1.1" xmlns="http://www.w3.org/2000/svg" width="34" height="44">
<path d="M0 0 C1.03569717 3.24912999 1.15530119 4.63896219 -0.21484375 7.82421875 C-0.78332031 8.76910156 -1.35179688 9.71398438 -1.9375 10.6875 C-4.22300631 14.12556231 -4.22300631 14.12556231 -5 18 C-6.32 18.33 -7.64 18.66 -9 19 C-9 19.66 -9 20.32 -9 21 C-9.99 21 -10.98 21 -12 21 C-12 19.68 -12 18.36 -12 17 C-12.99 17 -13.98 17 -15 17 C-15 16.01 -15 15.02 -15 14 C-15.99 13.67 -16.98 13.34 -18 13 C-17.18796242 11.20812371 -16.37535532 9.41650549 -15.5625 7.625 C-15.11003906 6.62726562 -14.65757813 5.62953125 -14.19140625 4.6015625 C-12.10530275 0.04633321 -12.10530275 0.04633321 -10.4375 -0.6875 C-6.83532854 -1.14931685 -3.58833068 -0.5382496 0 0 Z M-14 7 C-13 9 -13 9 -13 9 Z M-6 11 C-5 13 -5 13 -5 13 Z M-14 14 C-13 16 -13 16 -13 16 Z " fill="#C79910" transform="translate(33,3)"/>
<path d="M0 0 C2.64 0.33 5.28 0.66 8 1 C9.03569717 4.24912999 9.15530119 5.63896219 7.78515625 8.82421875 C7.21667969 9.76910156 6.64820313 10.71398438 6.0625 11.6875 C3.77699369 15.12556231 3.77699369 15.12556231 3 19 C1.68 19.33 0.36 19.66 -1 20 C-1 20.66 -1 21.32 -1 22 C-1.99 21.67 -2.98 21.34 -4 21 C-3.34 21 -2.68 21 -2 21 C-1.87625 20.4225 -1.7525 19.845 -1.625 19.25 C-0.99089935 16.96723766 -0.11228159 15.08552799 1 13 C2.94673183 9.10653635 4 6.43297126 4 2 C2.68 1.34 1.36 0.68 0 0 Z " fill="#170F09" transform="translate(25,2)"/>
<path d="M0 0 C1.65 0.33 3.3 0.66 5 1 C4.5020163 4.73487777 4.12508244 6.81237635 2 10 C0.68 8.02 -0.64 6.04 -2 4 C-1.34 2.68 -0.68 1.36 0 0 Z " fill="#F2B315" transform="translate(25,3)"/>
<path d="M0 0 C2.51083114 1.25541557 2.87125446 2.50063488 4 5 C2.35 5.66 0.7 6.32 -1 7 C-1.66 5.02 -2.32 3.04 -3 1 C-2.01 0.67 -1.02 0.34 0 0 Z " fill="#6B5A0C" transform="translate(16,26)"/>
<path d="M0 0 C1.32 0.33 2.64 0.66 4 1 C2.68 3.31 1.36 5.62 0 8 C-0.66 7.67 -1.32 7.34 -2 7 C-1.125 2.25 -1.125 2.25 0 0 Z " fill="#0D0908" transform="translate(21,3)"/>
<path d="M0 0 C0.99 1.32 1.98 2.64 3 4 C2.34 4.66 1.68 5.32 1 6 C0.67 5.01 0.34 4.02 0 3 C-0.66 2.34 -1.32 1.68 -2 1 C-1.34 0.67 -0.68 0.34 0 0 Z " fill="#CDC520" transform="translate(9,30)"/>
<path d="M0 0 C0.66 0.33 1.32 0.66 2 1 C1.01 1.66 0.02 2.32 -1 3 C-0.67 2.01 -0.34 1.02 0 0 Z " fill="#000002" transform="translate(20,25)"/>
<path d="M0 0 C0.66 0.99 1.32 1.98 2 3 C1.01 2.67 0.02 2.34 -1 2 C-0.67 1.34 -0.34 0.68 0 0 Z " fill="#DFC61D" transform="translate(13,23)"/>
<path d="M0 0 C0.66 0.66 1.32 1.32 2 2 C1.01 1.67 0.02 1.34 -1 1 C-0.67 0.67 -0.34 0.34 0 0 Z " fill="#070501" transform="translate(12,36)"/>
<path d="M0 0 C4 1 4 1 4 1 Z " fill="#010001" transform="translate(25,0)"/>
<path d="M0 0 C2 1 2 1 2 1 Z " fill="#010004" transform="translate(9,43)"/>
<path d="" fill="#BFC623" transform="translate(0,0)"/>
<path d="" fill="#010003" transform="translate(0,0)"/>
<path d="" fill="#000002" transform="translate(0,0)"/>
<path d="" fill="#000003" transform="translate(0,0)"/>
<path d="" fill="#01020B" transform="translate(0,0)"/>
<path d="" fill="#B5C82D" transform="translate(0,0)"/>
<path d="" fill="#010005" transform="translate(0,0)"/>
<path d="" fill="#A6C526" transform="translate(0,0)"/>
<path d="" fill="#010005" transform="translate(0,0)"/>
<path d="" fill="#040000" transform="translate(0,0)"/>
<path d="" fill="#010005" transform="translate(0,0)"/>
<path d="" fill="#0D0000" transform="translate(0,0)"/>
<path d="" fill="#E8C50D" transform="translate(0,0)"/>
<path d="" fill="#DAC715" transform="translate(0,0)"/>
<path d="" fill="#010009" transform="translate(0,0)"/>
<path d="" fill="#CAC325" transform="translate(0,0)"/>
<path d="" fill="#393324" transform="translate(0,0)"/>
<path d="" fill="#FBC102" transform="translate(0,0)"/>
<path d="" fill="#040000" transform="translate(0,0)"/>
<path d="" fill="#ECC232" transform="translate(0,0)"/>
<path d="" fill="#E8C50D" transform="translate(0,0)"/>
<path d="" fill="#625138" transform="translate(0,0)"/>
<path d="" fill="#110302" transform="translate(0,0)"/>
<path d="" fill="#000100" transform="translate(0,0)"/>
</svg>
