<?xml version="1.0" encoding="UTF-8"?>
<svg version="1.1" xmlns="http://www.w3.org/2000/svg" width="36" height="72">
<path d="M0 0 C0.144375 1.11375 0.28875 2.2275 0.4375 3.375 C0.78372035 6.82142047 0.78372035 6.82142047 2 9 C1.34 9 0.68 9 0 9 C-0.0825 10.134375 -0.165 11.26875 -0.25 12.4375 C-0.76652951 16.70646447 -2.20736914 20.1660425 -4.0625 24.01953125 C-5.1100161 26.12991693 -5.1100161 26.12991693 -6 29 C-8.1875 30.3125 -8.1875 30.3125 -11 31 C-13.01584651 30.38290413 -15.01751285 29.71706982 -17 29 C-19.2875976 29.27640014 -19.2875976 29.27640014 -21 30 C-20.625 28.0625 -20.625 28.0625 -20 26 C-19.34 25.67 -18.68 25.34 -18 25 C-17.6451046 23.00371336 -17.31421071 21.00309329 -17 19 C-16.33333333 17.66666667 -15.66666667 16.33333333 -15 15 C-14.61709538 13.00889599 -14.27395385 11.00899487 -14 9 C-14.66 8.67 -15.32 8.34 -16 8 C-15.01 7.34 -14.02 6.68 -13 6 C-12.87625 5.175 -12.7525 4.35 -12.625 3.5 C-12 1 -12 1 -9.875 -0.375 C-6.3289466 -1.14588117 -3.53766637 -0.69366007 0 0 Z M-16 20 C-15 22 -15 22 -15 22 Z " fill="#D29810" transform="translate(34,2)"/>
<path d="M0 0 C0.144375 1.11375 0.28875 2.2275 0.4375 3.375 C0.78372035 6.82142047 0.78372035 6.82142047 2 9 C1.34 9 0.68 9 0 9 C-0.0825 10.134375 -0.165 11.26875 -0.25 12.4375 C-0.76652951 16.70646447 -2.20736914 20.1660425 -4.0625 24.01953125 C-5.1100161 26.12991693 -5.1100161 26.12991693 -6 29 C-8.5625 30.1875 -8.5625 30.1875 -11 31 C-10.72285156 30.33613281 -10.44570313 29.67226563 -10.16015625 28.98828125 C-9.79792969 28.10527344 -9.43570312 27.22226562 -9.0625 26.3125 C-8.52302734 25.00732422 -8.52302734 25.00732422 -7.97265625 23.67578125 C-7.04024117 21.11070363 -6.48913376 18.67921915 -6 16 C-5.67 14.906875 -5.34 13.81375 -5 12.6875 C-3.93165644 8.74798311 -3.42659349 5.05263815 -3 1 C-4.98 1 -6.96 1 -9 1 C-9.66 2.65 -10.32 4.3 -11 6 C-11.33 6 -11.66 6 -12 6 C-12 4.35 -12 2.7 -12 1 C-7.67265609 -1.22923777 -4.71599818 -0.92470553 0 0 Z " fill="#130A06" transform="translate(34,2)"/>
<path d="M0 0 C1.98 0 3.96 0 6 0 C6.19392201 5.52677733 5.7479503 9.75614911 4 15 C2.824375 15.2165625 2.824375 15.2165625 1.625 15.4375 C-0.96421018 15.87798925 -0.96421018 15.87798925 -3 17 C-2.54775239 11.08507728 -1.8417395 5.64800112 0 0 Z " fill="#E6A518" transform="translate(25,3)"/>
<path d="M0 0 C1.98 0 3.96 0 6 0 C6 2.64 6 5.28 6 8 C5.67 7.34 5.34 6.68 5 6 C4.01 6.33 3.02 6.66 2 7 C1.01 6.67 0.02 6.34 -1 6 C-0.67 4.02 -0.34 2.04 0 0 Z " fill="#E5A017" transform="translate(25,3)"/>
<path d="M0 0 C0.33 1.32 0.66 2.64 1 4 C0.34 4 -0.32 4 -1 4 C-1.33 6.31 -1.66 8.62 -2 11 C-2.66 11 -3.32 11 -4 11 C-3.67 7.7 -3.34 4.4 -3 1 C-4.98 1 -6.96 1 -9 1 C-9.66 2.65 -10.32 4.3 -11 6 C-11.33 6 -11.66 6 -12 6 C-12 4.35 -12 2.7 -12 1 C-7.67265609 -1.22923777 -4.71599818 -0.92470553 0 0 Z " fill="#291709" transform="translate(34,2)"/>
<path d="M0 0 C-0.66 3.3 -1.32 6.6 -2 10 C-2.66 9.67 -3.32 9.34 -4 9 C-4 7.02 -4 5.04 -4 3 C-4.66 2.67 -5.32 2.34 -6 2 C-3 0 -3 0 0 0 Z " fill="#0E0806" transform="translate(24,8)"/>
<path d="M0 0 C1.67542976 0.28604898 3.34385343 0.61781233 5 1 C5 2.32 5 3.64 5 5 C3.35 5.33 1.7 5.66 0 6 C-0.38218767 4.34385343 -0.71395102 2.67542976 -1 1 C-0.67 0.67 -0.34 0.34 0 0 Z " fill="#FCAE06" transform="translate(25,8)"/>
<path d="M0 0 C0.66 0.33 1.32 0.66 2 1 C1.38461538 6.53846154 1.38461538 6.53846154 -0.5625 8.875 C-1.036875 9.24625 -1.51125 9.6175 -2 10 C-2.6875 8.375 -2.6875 8.375 -3 6 C-1.5625 2.75 -1.5625 2.75 0 0 Z M-1 5 C0 7 0 7 0 7 Z " fill="#0C0707" transform="translate(19,17)"/>
<path d="M0 0 C0.99 0.33 1.98 0.66 3 1 C3.6875 3.0625 3.6875 3.0625 4 5 C3.34 5 2.68 5 2 5 C1.71125 5.61875 1.4225 6.2375 1.125 6.875 C0 9 0 9 -2 11 C-2 9.68 -2 8.36 -2 7 C-1.34 7 -0.68 7 0 7 C0 4.69 0 2.38 0 0 Z " fill="#010004" transform="translate(32,6)"/>
<path d="M0 0 C0.99 0.66 1.98 1.32 3 2 C3 3.32 3 4.64 3 6 C2.01 6.33 1.02 6.66 0 7 C-0.33 6.01 -0.66 5.02 -1 4 C-1.66 3.34 -2.32 2.68 -3 2 C-2.01 1.34 -1.02 0.68 0 0 Z " fill="#604A0E" transform="translate(18,41)"/>
<path d="M0 0 C2 1 2 1 3 3 C2.01 3.33 1.02 3.66 0 4 C0 2.68 0 1.36 0 0 Z " fill="#F8C115" transform="translate(13,39)"/>
<path d="M0 0 C0.99 0.99 1.98 1.98 3 3 C2.34 3.66 1.68 4.32 1 5 C0.67 3.35 0.34 1.7 0 0 Z " fill="#F9B80B" transform="translate(18,35)"/>
<path d="M0 0 C0.66 0.33 1.32 0.66 2 1 C2 1.99 2 2.98 2 4 C1.01 3.67 0.02 3.34 -1 3 C-0.67 2.01 -0.34 1.02 0 0 Z " fill="#EFBB24" transform="translate(15,34)"/>
<path d="M0 0 C0.99 0.33 1.98 0.66 3 1 C2.01 1.66 1.02 2.32 0 3 C0 2.01 0 1.02 0 0 Z " fill="#020104" transform="translate(23,34)"/>
<path d="M0 0 C0.66 0 1.32 0 2 0 C1.67 0.99 1.34 1.98 1 3 C0.67 2.01 0.34 1.02 0 0 Z " fill="#090707" transform="translate(0,69)"/>
<path d="M0 0 C0 3 0 3 0 3 Z " fill="#2C2313" transform="translate(11,40)"/>
<path d="" fill="#010100" transform="translate(0,0)"/>
<path d="M0 0 C2 1 2 1 2 1 Z " fill="#FCBE03" transform="translate(14,45)"/>
<path d="" fill="#FCC003" transform="translate(0,0)"/>
<path d="" fill="#060000" transform="translate(0,0)"/>
<path d="" fill="#000000" transform="translate(0,0)"/>
<path d="M0 0 C2 1 2 1 2 1 Z " fill="#020105" transform="translate(13,33)"/>
<path d="" fill="#010003" transform="translate(0,0)"/>
<path d="" fill="#010203" transform="translate(0,0)"/>
<path d="" fill="#F3C201" transform="translate(0,0)"/>
<path d="" fill="#130D02" transform="translate(0,0)"/>
<path d="" fill="#FCB600" transform="translate(0,0)"/>
<path d="" fill="#010001" transform="translate(0,0)"/>
<path d="" fill="#C69546" transform="translate(0,0)"/>
<path d="" fill="#FCB600" transform="translate(0,0)"/>
<path d="" fill="#E8CA43" transform="translate(0,0)"/>
<path d="" fill="#010001" transform="translate(0,0)"/>
<path d="" fill="#000001" transform="translate(0,0)"/>
<path d="" fill="#000100" transform="translate(0,0)"/>
</svg>
