<?xml version="1.0" encoding="UTF-8"?>
<svg version="1.1" xmlns="http://www.w3.org/2000/svg" width="173" height="56">
<path d="M0 0 C0.33 0.66 0.66 1.32 1 2 C3.02463255 2.65213292 3.02463255 2.65213292 5 3 C5 3.66 5 4.32 5 5 C5.66 5 6.32 5 7 5 C11.27034122 12.11723537 13.36075437 17.87076426 13.25 26.3125 C13.23767334 27.43809326 13.23767334 27.43809326 13.22509766 28.58642578 C13.11606496 33.99702698 12.9379178 38.89094397 11 44 C8.20097113 45.92433235 6.41161998 47 3 47 C3 46.34 3 45.68 3 45 C2.34 45 1.68 45 1 45 C1 43.02 1 41.04 1 39 C0.01 38.67 -0.98 38.34 -2 38 C-1.01 37.505 -1.01 37.505 0 37 C-0.66 36.34 -1.32 35.68 -2 35 C-0.515 34.505 -0.515 34.505 1 34 C1.10871967 31.45716766 1.18762401 28.91904912 1.25 26.375 C1.28351563 25.66214844 1.31703125 24.94929688 1.3515625 24.21484375 C1.44677981 19.02550009 0.49021217 16.08028401 -3 12 C-3.99 11.67 -4.98 11.34 -6 11 C-6.33 10.01 -6.66 9.02 -7 8 C-6.01 8 -5.02 8 -4 8 C-3.30840599 6.15274948 -3.30840599 6.15274948 -3 4 C-3.66 3.01 -4.32 2.02 -5 1 C-3.35 0.67 -1.7 0.34 0 0 Z " fill="#8F4ED4" transform="translate(157,0)"/>
<path d="M0 0 C0.33 0.66 0.66 1.32 1 2 C3.02463255 2.65213292 3.02463255 2.65213292 5 3 C5 3.66 5 4.32 5 5 C5.66 5 6.32 5 7 5 C9.99481865 9.58031088 9.99481865 9.58031088 11 12 C10.25 14.4375 10.25 14.4375 9 16 C8.525625 14.88625 8.05125 13.7725 7.5625 12.625 C6.74693537 10.73289006 5.92143645 8.84287291 5 7 C4.01 7 3.02 7 2 7 C2 10.3 2 13.6 2 17 C1.34 17 0.68 17 0 17 C-0.474375 16.195625 -0.94875 15.39125 -1.4375 14.5625 C-2.79983672 11.7081924 -2.79983672 11.7081924 -6 11 C-6.33 10.01 -6.66 9.02 -7 8 C-6.01 8 -5.02 8 -4 8 C-3.30840599 6.15274948 -3.30840599 6.15274948 -3 4 C-3.66 3.01 -4.32 2.02 -5 1 C-3.35 0.67 -1.7 0.34 0 0 Z " fill="#6A2F80" transform="translate(157,0)"/>
<path d="M0 0 C2.527536 3.82139371 2.30660572 7.77321355 2.25 12.1875 C2.24178223 12.94691895 2.23356445 13.70633789 2.22509766 14.48876953 C2.11670597 19.93282944 1.94983952 24.85951399 0 30 C-2.79902887 31.92433235 -4.58838002 33 -8 33 C-8 32.34 -8 31.68 -8 31 C-8.66 31 -9.32 31 -10 31 C-10 30.34 -10 29.68 -10 29 C-7.69 29 -5.38 29 -3 29 C-1.98716314 25.96148942 -1.81749367 23.71208965 -1.71875 20.52734375 C-1.68136719 19.46322266 -1.64398438 18.39910156 -1.60546875 17.30273438 C-1.53503395 15.05534237 -1.46472187 12.80794652 -1.39453125 10.56054688 C-1.33845703 8.96629883 -1.33845703 8.96629883 -1.28125 7.33984375 C-1.25095703 6.36394287 -1.22066406 5.38804199 -1.18945312 4.38256836 C-1 2 -1 2 0 0 Z " fill="#110A1F" transform="translate(168,14)"/>
<path d="M0 0 C2.375 0.6875 2.375 0.6875 5 2 C6.3125 4.625 6.3125 4.625 7 7 C6.34 7.66 5.68 8.32 5 9 C4.835 9.66 4.67 10.32 4.5 11 C4 13 4 13 2 15 C1.6648342 12.87528825 1.33192171 10.75022095 1 8.625 C0.814375 7.44164062 0.62875 6.25828125 0.4375 5.0390625 C0 2 0 2 0 0 Z " fill="#9549CC" transform="translate(158,5)"/>
<path d="M0 0 C2.44503999 3.66755999 2.26831152 5.57478137 2.25 9.9375 C2.25515625 11.16339844 2.2603125 12.38929687 2.265625 13.65234375 C2.02083557 16.73741052 1.62728656 18.42346294 0 21 C-1.32 20.01 -2.64 19.02 -4 18 C-3.01 17.67 -2.02 17.34 -1 17 C-1.01160156 15.85660156 -1.02320313 14.71320312 -1.03515625 13.53515625 C-1.04453288 12.04427246 -1.05363321 10.55338691 -1.0625 9.0625 C-1.07087891 8.30775391 -1.07925781 7.55300781 -1.08789062 6.77539062 C-1.09652441 4.85005687 -1.05224333 2.92464419 -1 1 C-0.67 0.67 -0.34 0.34 0 0 Z " fill="#190E21" transform="translate(159,17)"/>
<path d="M0 0 C0.33 0.66 0.66 1.32 1 2 C3.02463255 2.65213292 3.02463255 2.65213292 5 3 C5 3.66 5 4.32 5 5 C5.66 5 6.32 5 7 5 C9.99481865 9.58031088 9.99481865 9.58031088 11 12 C10.25 14.4375 10.25 14.4375 9 16 C8.5875 14.948125 8.175 13.89625 7.75 12.8125 C6.24569642 9.372102 4.72735245 6.65159266 2 4 C-1.62473109 2.64164329 -1.62473109 2.64164329 -5 2 C-5 1.67 -5 1.34 -5 1 C-3.35 0.67 -1.7 0.34 0 0 Z " fill="#13081D" transform="translate(157,0)"/>
<path d="M0 0 C0.33 0 0.66 0 1 0 C1 2.31 1 4.62 1 7 C0.01 7.33 -0.98 7.66 -2 8 C-2.66 7.34 -3.32 6.68 -4 6 C-4 5.01 -4 4.02 -4 3 C-4.99 2.67 -5.98 2.34 -7 2 C-4.69 2 -2.38 2 0 2 C0 1.34 0 0.68 0 0 Z " fill="#6C3696" transform="translate(162,36)"/>
<path d="M0 0 C0.99 0 1.98 0 3 0 C3.33 2.31 3.66 4.62 4 7 C3.01 6.67 2.02 6.34 1 6 C0.34 6.99 -0.32 7.98 -1 9 C-1.80967438 6.08517222 -2.21845993 4.53886783 -1.0625 1.6875 C-0.711875 1.130625 -0.36125 0.57375 0 0 Z M0 1 C1 3 1 3 1 3 Z " fill="#881A25" transform="translate(109,29)"/>
<path d="M0 0 C2.44989101 3.74235319 2.23086143 7.44225419 2.125 11.75 C2.11597656 12.44738281 2.10695312 13.14476562 2.09765625 13.86328125 C2.07419888 15.57566958 2.03833104 17.28788004 2 19 C1.67 19 1.34 19 1 19 C0.93941406 18.10796875 0.87882813 17.2159375 0.81640625 16.296875 C0.73261719 15.12640625 0.64882812 13.9559375 0.5625 12.75 C0.48128906 11.58984375 0.40007812 10.4296875 0.31640625 9.234375 C0.09788188 6.13050083 0.09788188 6.13050083 -0.59765625 3.703125 C-1 2 -1 2 0 0 Z " fill="#000004" transform="translate(168,14)"/>
<path d="M0 0 C0.66 0.66 1.32 1.32 2 2 C1.625 5.125 1.625 5.125 1 8 C-0.32 7.67 -1.64 7.34 -3 7 C-2.34 7 -1.68 7 -1 7 C-1.020625 6.030625 -1.04125 5.06125 -1.0625 4.0625 C-1 1 -1 1 0 0 Z " fill="#934FDE" transform="translate(164,36)"/>
<path d="M0 0 C0.99 0 1.98 0 3 0 C3.33 1.65 3.66 3.3 4 5 C3.34 4.67 2.68 4.34 2 4 C0.7763932 3.9254644 0.7763932 3.9254644 -1 5 C-0.67 3.35 -0.34 1.7 0 0 Z " fill="#CB5D20" transform="translate(61,30)"/>
<path d="M0 0 C0.99 0 1.98 0 3 0 C3 1.98 3 3.96 3 6 C2.01 6.33 1.02 6.66 0 7 C0 4.69 0 2.38 0 0 Z " fill="#C94187" transform="translate(138,20)"/>
<path d="M0 0 C1.65 0 3.3 0 5 0 C4.34 1.32 3.68 2.64 3 4 C1.68 3.34 0.36 2.68 -1 2 C-0.67 1.34 -0.34 0.68 0 0 Z " fill="#441836" transform="translate(144,19)"/>
<path d="M0 0 C0.66 0.33 1.32 0.66 2 1 C1.67 2.65 1.34 4.3 1 6 C0.01 5.67 -0.98 5.34 -2 5 C-1.34 3.35 -0.68 1.7 0 0 Z " fill="#491A0A" transform="translate(71,9)"/>
<path d="M0 0 C0.99 0.99 1.98 1.98 3 3 C2.67 3.66 2.34 4.32 2 5 C0 4 0 4 -2 1 C-1.34 0.67 -0.68 0.34 0 0 Z " fill="#41163A" transform="translate(148,11)"/>
<path d="M0 0 C0.66 0.66 1.32 1.32 2 2 C1.01 2 0.02 2 -1 2 C-1.33 2.66 -1.66 3.32 -2 4 C-2.66 4 -3.32 4 -4 4 C-4 3.34 -4 2.68 -4 2 C-2.68 1.34 -1.36 0.68 0 0 Z " fill="#D1C61E" transform="translate(5,36)"/>
<path d="M0 0 C0.99 0.33 1.98 0.66 3 1 C3 1.66 3 2.32 3 3 C1.35 3 -0.3 3 -2 3 C-1.34 2.67 -0.68 2.34 0 2 C0 1.34 0 0.68 0 0 Z " fill="#C5449C" transform="translate(143,15)"/>
<path d="M0 0 C0.66 0 1.32 0 2 0 C1.67 0.99 1.34 1.98 1 3 C0.34 2.67 -0.32 2.34 -1 2 C-0.67 1.34 -0.34 0.68 0 0 Z " fill="#F62D3F" transform="translate(110,25)"/>
<path d="M0 0 C0.99 0.33 1.98 0.66 3 1 C2.34 1.66 1.68 2.32 1 3 C0.67 2.01 0.34 1.02 0 0 Z " fill="#DFC117" transform="translate(7,26)"/>
<path d="M0 0 C0.66 0 1.32 0 2 0 C2 0.99 2 1.98 2 3 C1.34 3 0.68 3 0 3 C0 2.01 0 1.02 0 0 Z " fill="#F83D29" transform="translate(82,11)"/>
<path d="M0 0 C0.66 0 1.32 0 2 0 C1.67 0.99 1.34 1.98 1 3 C0.67 2.01 0.34 1.02 0 0 Z " fill="#F1890D" transform="translate(50,41)"/>
<path d="M0 0 C0.99 0.33 1.98 0.66 3 1 C1.68 1.33 0.36 1.66 -1 2 C-0.67 1.34 -0.34 0.68 0 0 Z " fill="#FB661B" transform="translate(65,7)"/>
<path d="M0 0 C0.66 0 1.32 0 2 0 C2 0.66 2 1.32 2 2 C1.34 2 0.68 2 0 2 C0 1.34 0 0.68 0 0 Z " fill="#E5C418" transform="translate(8,33)"/>
<path d="M0 0 C0.66 0 1.32 0 2 0 C2 0.66 2 1.32 2 2 C1.34 2 0.68 2 0 2 C0 1.34 0 0.68 0 0 Z " fill="#090001" transform="translate(123,25)"/>
<path d="M0 0 C0.99 0.495 0.99 0.495 2 1 C1.01 1.495 1.01 1.495 0 2 C0 1.34 0 0.68 0 0 Z " fill="#010003" transform="translate(61,46)"/>
<path d="" fill="#BCC62A" transform="translate(0,0)"/>
<path d="M0 0 C0.99 0.495 0.99 0.495 2 1 C1.01 1.495 1.01 1.495 0 2 C0 1.34 0 0.68 0 0 Z " fill="#0E080A" transform="translate(47,38)"/>
<path d="M0 0 C3 1 3 1 3 1 Z " fill="#1E0C06" transform="translate(67,34)"/>
<path d="" fill="#CBC423" transform="translate(0,0)"/>
<path d="M0 0 C0.99 0.495 0.99 0.495 2 1 C1.01 1.495 1.01 1.495 0 2 C0 1.34 0 0.68 0 0 Z " fill="#491C2C" transform="translate(136,24)"/>
<path d="M0 0 C0.66 0.66 1.32 1.32 2 2 C1.34 2 0.68 2 0 2 C0 1.34 0 0.68 0 0 Z " fill="#F6611E" transform="translate(68,11)"/>
<path d="M0 0 C3 1 3 1 3 1 Z " fill="#FA2E37" transform="translate(97,5)"/>
<path d="" fill="#F92848" transform="translate(0,0)"/>
<path d="" fill="#F92848" transform="translate(0,0)"/>
<path d="M0 0 C2 1 2 1 2 1 Z " fill="#010307" transform="translate(57,33)"/>
<path d="M0 0 C2 1 2 1 2 1 Z " fill="#000001" transform="translate(171,30)"/>
<path d="M0 0 C2 1 2 1 2 1 Z " fill="#000001" transform="translate(155,30)"/>
<path d="M0 0 C2 1 2 1 2 1 Z " fill="#FE2941" transform="translate(112,28)"/>
<path d="M0 0 C2 1 2 1 2 1 Z " fill="#000001" transform="translate(171,27)"/>
<path d="M0 0 C2 1 2 1 2 1 Z " fill="#F92848" transform="translate(117,25)"/>
<path d="M0 0 C2 1 2 1 2 1 Z " fill="#F92848" transform="translate(113,25)"/>
<path d="M0 0 C2 1 2 1 2 1 Z " fill="#000000" transform="translate(105,23)"/>
<path d="M0 0 C2 1 2 1 2 1 Z " fill="#CD4297" transform="translate(141,19)"/>
<path d="M0 0 C2 1 2 1 2 1 Z " fill="#000001" transform="translate(155,18)"/>
<path d="" fill="#FB5E1E" transform="translate(0,0)"/>
<path d="M0 0 C2 1 2 1 2 1 Z " fill="#6B2D53" transform="translate(142,8)"/>
<path d="" fill="#000100" transform="translate(0,0)"/>
<path d="" fill="#F92843" transform="translate(0,0)"/>
<path d="" fill="#FA294D" transform="translate(0,0)"/>
<path d="" fill="#330100" transform="translate(0,0)"/>
<path d="" fill="#B5C82D" transform="translate(0,0)"/>
<path d="" fill="#040000" transform="translate(0,0)"/>
<path d="" fill="#FF2846" transform="translate(0,0)"/>
<path d="" fill="#F76D1E" transform="translate(0,0)"/>
<path d="" fill="#2B0000" transform="translate(0,0)"/>
<path d="" fill="#FD7315" transform="translate(0,0)"/>
<path d="" fill="#F92843" transform="translate(0,0)"/>
<path d="" fill="#FE8806" transform="translate(0,0)"/>
<path d="" fill="#FCC402" transform="translate(0,0)"/>
<path d="" fill="#DAC715" transform="translate(0,0)"/>
<path d="" fill="#CEC820" transform="translate(0,0)"/>
<path d="" fill="#FF6719" transform="translate(0,0)"/>
<path d="" fill="#D0418F" transform="translate(0,0)"/>
<path d="" fill="#DD3F85" transform="translate(0,0)"/>
<path d="" fill="#DAC715" transform="translate(0,0)"/>
<path d="" fill="#DD3F85" transform="translate(0,0)"/>
<path d="" fill="#B44E71" transform="translate(0,0)"/>
<path d="" fill="#010001" transform="translate(0,0)"/>
<path d="" fill="#D63F84" transform="translate(0,0)"/>
<path d="" fill="#390100" transform="translate(0,0)"/>
<path d="" fill="#170E0E" transform="translate(0,0)"/>
<path d="" fill="#0D0000" transform="translate(0,0)"/>
<path d="" fill="#E8355D" transform="translate(0,0)"/>
<path d="" fill="#FD2A3C" transform="translate(0,0)"/>
<path d="" fill="#625138" transform="translate(0,0)"/>
<path d="" fill="#5F194C" transform="translate(0,0)"/>
<path d="" fill="#FA621F" transform="translate(0,0)"/>
<path d="" fill="#000001" transform="translate(0,0)"/>
<path d="" fill="#040000" transform="translate(0,0)"/>
<path d="" fill="#000001" transform="translate(0,0)"/>
<path d="" fill="#010101" transform="translate(0,0)"/>
<path d="" fill="#1F080B" transform="translate(0,0)"/>
<path d="" fill="#010003" transform="translate(0,0)"/>
<path d="" fill="#D0418F" transform="translate(0,0)"/>
<path d="" fill="#000100" transform="translate(0,0)"/>
<path d="" fill="#010001" transform="translate(0,0)"/>
<path d="" fill="#FB3B27" transform="translate(0,0)"/>
<path d="" fill="#FA621F" transform="translate(0,0)"/>
<path d="" fill="#432F4A" transform="translate(0,0)"/>
<path d="" fill="#FD3627" transform="translate(0,0)"/>
<path d="" fill="#C1499A" transform="translate(0,0)"/>
<path d="" fill="#000000" transform="translate(0,0)"/>
<path d="" fill="#BD46AB" transform="translate(0,0)"/>
<path d="" fill="#1F080B" transform="translate(0,0)"/>
<path d="" fill="#000000" transform="translate(0,0)"/>
<path d="" fill="#FD5A1E" transform="translate(0,0)"/>
<path d="" fill="#C545A6" transform="translate(0,0)"/>
<path d="" fill="#000000" transform="translate(0,0)"/>
<path d="" fill="#E52D3A" transform="translate(0,0)"/>
<path d="" fill="#BD46AB" transform="translate(0,0)"/>
<path d="" fill="#B247BD" transform="translate(0,0)"/>
<path d="" fill="#000000" transform="translate(0,0)"/>
<path d="" fill="#010200" transform="translate(0,0)"/>
<path d="" fill="#0E0307" transform="translate(0,0)"/>
<path d="" fill="#A648CE" transform="translate(0,0)"/>
</svg>
