<?xml version="1.0" encoding="UTF-8"?>
<svg version="1.1" xmlns="http://www.w3.org/2000/svg" width="142" height="111">
<path d="M0 0 C2.31 0 4.62 0 7 0 C7 0.66 7 1.32 7 2 C7.66 2 8.32 2 9 2 C9 3.32 9 4.64 9 6 C8.34 6 7.68 6 7 6 C7.99 7.485 7.99 7.485 9 9 C10.94074861 8.72382467 10.94074861 8.72382467 13 8 C13.66 7.01 14.32 6.02 15 5 C14.34 4.67 13.68 4.34 13 4 C13.61875 3.855625 14.2375 3.71125 14.875 3.5625 C17.03258322 3.06847775 17.03258322 3.06847775 19 2 C21.3329866 1.95977609 23.66706666 1.95679753 26 2 C27.25 8.625 27.25 8.625 25 12 C24.34 12 23.68 12 23 12 C23.33 13.32 23.66 14.64 24 16 C22.68 16.33 21.36 16.66 20 17 C20 17.66 20 18.32 20 19 C13.25653264 21.570256 8.84108109 22.64041726 2 20 C0 18.5 0 18.5 -1 17 C-1 16.34 -1 15.68 -1 15 C-1.99 14.67 -2.98 14.34 -4 14 C-5.1875 11.4375 -5.1875 11.4375 -6 9 C-5.34 9 -4.68 9 -4 9 C-2.52960109 6.05920218 -1.28809274 3.02421774 0 0 Z M25 4 C26 6 26 6 26 6 Z M12 10 C11.01 10.66 10.02 11.32 9 12 C10.32 12 11.64 12 13 12 C12.67 11.34 12.34 10.68 12 10 Z " fill="#EF2A43" transform="translate(115,88)"/>
<path d="M0 0 C1.25 6.625 1.25 6.625 -1 10 C-1.66 10 -2.32 10 -3 10 C-2.67 11.32 -2.34 12.64 -2 14 C-3.32 14.33 -4.64 14.66 -6 15 C-6 15.66 -6 16.32 -6 17 C-12.74346736 19.570256 -17.15891891 20.64041726 -24 18 C-26 16.5 -26 16.5 -27 15 C-27 14.34 -27 13.68 -27 13 C-27.99 12.67 -28.98 12.34 -30 12 C-29.34 10.68 -28.68 9.36 -28 8 C-27.59007813 8.56589844 -27.18015625 9.13179687 -26.7578125 9.71484375 C-26.21898438 10.44832031 -25.68015625 11.18179688 -25.125 11.9375 C-24.59132813 12.66839844 -24.05765625 13.39929688 -23.5078125 14.15234375 C-22.11987896 16.11098235 -22.11987896 16.11098235 -20 17 C-16.16063232 17.1421988 -12.67983361 17.17754676 -9 16 C-9.33 15.401875 -9.66 14.80375 -10 14.1875 C-11 12 -11 12 -11 9 C-11.99 8.67 -12.98 8.34 -14 8 C-13.01 6.35 -12.02 4.7 -11 3 C-11.66 2.67 -12.32 2.34 -13 2 C-12.38125 1.855625 -11.7625 1.71125 -11.125 1.5625 C-7.11266996 0.50041264 -4.31689628 -0.07994252 0 0 Z M-1 2 C0 4 0 4 0 4 Z " fill="#DA3F82" transform="translate(141,90)"/>
<path d="M0 0 C0.99 0.33 1.98 0.66 3 1 C2.34 1 1.68 1 1 1 C1.33 2.65 1.66 4.3 2 6 C1.67 6 1.34 6 1 6 C0.87625 6.804375 0.7525 7.60875 0.625 8.4375 C0.41875 9.283125 0.2125 10.12875 0 11 C-0.99 11.495 -0.99 11.495 -2 12 C-1.34 12.66 -0.68 13.32 0 14 C-0.639375 14.28875 -1.27875 14.5775 -1.9375 14.875 C-4.15206079 15.82823451 -4.15206079 15.82823451 -5 18 C-7.62113708 18 -9.50935112 17.68707555 -12 17 C-12 16.01 -12 15.02 -12 14 C-11.34 14 -10.68 14 -10 14 C-10.33 10.7 -10.66 7.4 -11 4 C-10.34 3.67 -9.68 3.34 -9 3 C-6.375 3.9375 -6.375 3.9375 -4 5 C-4 4.34 -4 3.68 -4 3 C-2.68 3 -1.36 3 0 3 C0 2.01 0 1.02 0 0 Z " fill="#F22B43" transform="translate(118,71)"/>
<path d="M0 0 C0.66 0 1.32 0 2 0 C3.52963671 9.0248566 3.52963671 9.0248566 1 13 C-1.125 13.8125 -1.125 13.8125 -3 14 C-3 15.32 -3 16.64 -3 18 C-2.01 18.33 -1.02 18.66 0 19 C-1.25 20.5 -1.25 20.5 -3 22 C-4.32 22 -5.64 22 -7 22 C-7 18 -7 18 -5 16 C-4.16507646 13.57540213 -4.16507646 13.57540213 -4 11 C-4.66 10.01 -5.32 9.02 -6 8 C-6.38499891 6.34450469 -6.72793135 4.6777567 -7 3 C-3.125 3.875 -3.125 3.875 -2 5 C-1.34 4.67 -0.68 4.34 0 4 C0 2.68 0 1.36 0 0 Z M-2 10 C-1 12 -1 12 -1 12 Z " fill="#F62940" transform="translate(117,52)"/>
<path d="M0 0 C2.200138 2.200138 4.30706283 4.3651558 6.3125 6.75 C8.87886866 9.31280809 8.87886866 9.31280809 12.5625 9.4375 C15.66792331 9.04226431 17.34768249 8.51561 20 7 C20.99 7 21.98 7 23 7 C23 7.66 23 8.32 23 9 C16.25653264 11.570256 11.84108109 12.64041726 5 10 C3 8.5 3 8.5 2 7 C2 6.34 2 5.68 2 5 C1.01 4.67 0.02 4.34 -1 4 C-0.67 2.68 -0.34 1.36 0 0 Z " fill="#120204" transform="translate(112,98)"/>
<path d="M0 0 C1.32 0 2.64 0 4 0 C4 0.66 4 1.32 4 2 C4.66 2 5.32 2 6 2 C6 3.32 6 4.64 6 6 C5.34 6 4.68 6 4 6 C5.72226496 9.24849977 5.72226496 9.24849977 9 10 C9.33 10.99 9.66 11.98 10 13 C8.02 13 6.04 13 4 13 C1.04952165 8.38987758 -0.5497272 5.63470383 0 0 Z " fill="#220608" transform="translate(118,88)"/>
<path d="M0 0 C0.99 0 1.98 0 3 0 C4.60725635 3.21451269 4.05748185 6.43612536 4 10 C6.31 10.33 8.62 10.66 11 11 C11 11.33 11 11.66 11 12 C8.69 12.33 6.38 12.66 4 13 C2 10 2 10 2 7 C1.01 6.67 0.02 6.34 -1 6 C-0.01 4.35 0.98 2.7 2 1 C1.34 0.67 0.68 0.34 0 0 Z " fill="#AB2D52" transform="translate(128,92)"/>
<path d="M0 0 C2.31 0 4.62 0 7 0 C8.25 6.625 8.25 6.625 6 10 C5.34 10 4.68 10 4 10 C4 10.66 4 11.32 4 12 C3.34 12 2.68 12 2 12 C2.66 8.37 3.32 4.74 4 1 C2.68 0.67 1.36 0.34 0 0 Z M6 2 C7 4 7 4 7 4 Z " fill="#17050B" transform="translate(134,90)"/>
<path d="M0 0 C0.66 0.33 1.32 0.66 2 1 C2.484375 3.65234375 2.484375 3.65234375 2.75 6.9375 C2.84796875 8.01902344 2.9459375 9.10054687 3.046875 10.21484375 C3 13 3 13 1 15 C0.01 14.67 -0.98 14.34 -2 14 C-2 13.01 -2 12.02 -2 11 C-1.34 11 -0.68 11 0 11 C-0.08378906 10.28972656 -0.16757813 9.57945313 -0.25390625 8.84765625 C-0.35574219 7.92855469 -0.45757812 7.00945312 -0.5625 6.0625 C-0.66691406 5.14597656 -0.77132812 4.22945313 -0.87890625 3.28515625 C-0.91886719 2.53105469 -0.95882812 1.77695313 -1 1 C-0.67 0.67 -0.34 0.34 0 0 Z " fill="#0F0505" transform="translate(108,74)"/>
<path d="M0 0 C0.66 0 1.32 0 2 0 C3.47484493 8.70158511 3.47484493 8.70158511 1 13 C0.01 13.495 0.01 13.495 -1 14 C-1.70074844 10.846632 -2 8.27275026 -2 5 C-1.34 4.67 -0.68 4.34 0 4 C0 2.68 0 1.36 0 0 Z " fill="#1D0306" transform="translate(117,52)"/>
<path d="M0 0 C0.66 0 1.32 0 2 0 C3.4606285 2.64738916 4 3.89448334 4 7 C2.02 7.33 0.04 7.66 -2 8 C-2 6.02 -2 4.04 -2 2 C-1.34 2 -0.68 2 0 2 C0 1.34 0 0.68 0 0 Z " fill="#E7315B" transform="translate(128,99)"/>
<path d="M0 0 C1.32 0 2.64 0 4 0 C4 1.65 4 3.3 4 5 C4.66 5.33 5.32 5.66 6 6 C3.69 6 1.38 6 -1 6 C-0.67 4.02 -0.34 2.04 0 0 Z " fill="#E12948" transform="translate(122,102)"/>
<path d="M0 0 C1.32 0.33 2.64 0.66 4 1 C4 2.98 4 4.96 4 7 C2.68 6.67 1.36 6.34 0 6 C0 4.02 0 2.04 0 0 Z " fill="#BA3663" transform="translate(132,91)"/>
<path d="M0 0 C0.33 0.66 0.66 1.32 1 2 C1.66 2 2.32 2 3 2 C3 3.32 3 4.64 3 6 C1.68 6 0.36 6 -1 6 C-1.042721 4.33388095 -1.04063832 2.66617115 -1 1 C-0.67 0.67 -0.34 0.34 0 0 Z " fill="#E23974" transform="translate(133,96)"/>
<path d="M0 0 C2.31 0 4.62 0 7 0 C6.34 2.31 5.68 4.62 5 7 C4.67 7 4.34 7 4 7 C4 5.02 4 3.04 4 1 C2.68 0.67 1.36 0.34 0 0 Z " fill="#69253C" transform="translate(134,90)"/>
<path d="M0 0 C0.625 1.875 0.625 1.875 1 4 C0.34 4.66 -0.32 5.32 -1 6 C-1.99 5.67 -2.98 5.34 -4 5 C-4 4.01 -4 3.02 -4 2 C-2.68 1.34 -1.36 0.68 0 0 Z " fill="#1D0204" transform="translate(110,83)"/>
<path d="M0 0 C0.99 0.33 1.98 0.66 3 1 C3.33 1.99 3.66 2.98 4 4 C1.69 4.66 -0.62 5.32 -3 6 C-3.33 5.34 -3.66 4.68 -4 4 C-3.01 3.67 -2.02 3.34 -1 3 C-0.67 2.01 -0.34 1.02 0 0 Z " fill="#B12233" transform="translate(111,41)"/>
<path d="M0 0 C1.98 0.66 3.96 1.32 6 2 C6 2.99 6 3.98 6 5 C5.21625 4.79375 4.4325 4.5875 3.625 4.375 C2.325625 4.189375 2.325625 4.189375 1 4 C0.34 4.66 -0.32 5.32 -1 6 C-0.67 4.02 -0.34 2.04 0 0 Z " fill="#C0252B" transform="translate(98,15)"/>
<path d="M0 0 C0.66 0.33 1.32 0.66 2 1 C2 2.32 2 3.64 2 5 C1.01 5.33 0.02 5.66 -1 6 C-1 6.66 -1 7.32 -1 8 C-1.66 8 -2.32 8 -3 8 C-2.67 6.35 -2.34 4.7 -2 3 C-1.34 3 -0.68 3 0 3 C0 2.01 0 1.02 0 0 Z " fill="#7B1722" transform="translate(118,36)"/>
<path d="M0 0 C0.99 0.33 1.98 0.66 3 1 C2.6875 2.9375 2.6875 2.9375 2 5 C1.01 5.33 0.02 5.66 -1 6 C-1.042721 4.33388095 -1.04063832 2.66617115 -1 1 C-0.67 0.67 -0.34 0.34 0 0 Z " fill="#521223" transform="translate(134,19)"/>
<path d="M0 0 C0.99 0 1.98 0 3 0 C3.625 1.8125 3.625 1.8125 4 4 C3.01 5.485 3.01 5.485 2 7 C1.01 6.67 0.02 6.34 -1 6 C-0.01 4.35 0.98 2.7 2 1 C1.34 0.67 0.68 0.34 0 0 Z " fill="#0A0304" transform="translate(128,92)"/>
<path d="M0 0 C0.66 0 1.32 0 2 0 C2.33 0.99 2.66 1.98 3 3 C1.5625 5.6875 1.5625 5.6875 0 8 C-0.66 6.68 -1.32 5.36 -2 4 C-1.01 3.67 -0.02 3.34 1 3 C0.67 2.01 0.34 1.02 0 0 Z " fill="#3D0D15" transform="translate(132,44)"/>
<path d="M0 0 C0.1875 2.375 0.1875 2.375 0 5 C-0.99 5.66 -1.98 6.32 -3 7 C-3.6875 5.1875 -3.6875 5.1875 -4 3 C-1.64285714 0 -1.64285714 0 0 0 Z " fill="#350A10" transform="translate(126,12)"/>
<path d="M0 0 C2.64 0 5.28 0 8 0 C6.515 1.485 6.515 1.485 5 3 C5 2.34 5 1.68 5 1 C3.68 1 2.36 1 1 1 C0.67 2.32 0.34 3.64 0 5 C-0.33 4.01 -0.66 3.02 -1 2 C-0.67 1.34 -0.34 0.68 0 0 Z " fill="#9E1B31" transform="translate(123,63)"/>
<path d="M0 0 C1 3 1 3 0 6 C-1.65 6.33 -3.3 6.66 -5 7 C-4.67 6.01 -4.34 5.02 -4 4 C-3.34 4 -2.68 4 -2 4 C-1.34 2.68 -0.68 1.36 0 0 Z " fill="#601629" transform="translate(136,24)"/>
<path d="M0 0 C-0.99 0 -1.98 0 -3 0 C-2.67 1.32 -2.34 2.64 -2 4 C-3.9375 3.6875 -3.9375 3.6875 -6 3 C-6.33 2.01 -6.66 1.02 -7 0 C-3.86650268 -1.04449911 -3.01031744 -0.93423645 0 0 Z " fill="#330A10" transform="translate(124,31)"/>
<path d="M0 0 C0.66 0 1.32 0 2 0 C2 0.66 2 1.32 2 2 C2.66 2 3.32 2 4 2 C3.34 3.98 2.68 5.96 2 8 C1.34 7.67 0.68 7.34 0 7 C0.2784375 6.1028125 0.2784375 6.1028125 0.5625 5.1875 C1.22093687 2.83591238 1.22093687 2.83591238 0 0 Z " fill="#030000" transform="translate(110,18)"/>
<path d="M0 0 C0.33 0 0.66 0 1 0 C1 1.98 1 3.96 1 6 C0.01 6 -0.98 6 -2 6 C-2 3 -2 3 0 0 Z " fill="#300A0F" transform="translate(122,79)"/>
<path d="M0 0 C0.99 0.33 1.98 0.66 3 1 C2.34 1 1.68 1 1 1 C1.33 1.99 1.66 2.98 2 4 C1.34 4.66 0.68 5.32 0 6 C-0.66 5.34 -1.32 4.68 -2 4 C-1.34 2.68 -0.68 1.36 0 0 Z " fill="#360D1A" transform="translate(134,33)"/>
<path d="M0 0 C1.32 0 2.64 0 4 0 C4.33 1.65 4.66 3.3 5 5 C4.566875 4.505 4.13375 4.01 3.6875 3.5 C2.00259517 1.66781808 2.00259517 1.66781808 -1 2 C-0.67 1.34 -0.34 0.68 0 0 Z " fill="#521323" transform="translate(131,6)"/>
<path d="M0 0 C0.66 0.33 1.32 0.66 2 1 C2 1.66 2 2.32 2 3 C2.66 3.66 3.32 4.32 4 5 C2.02 5 0.04 5 -2 5 C-1.34 4.67 -0.68 4.34 0 4 C0 2.68 0 1.36 0 0 Z " fill="#120405" transform="translate(118,42)"/>
<path d="M0 0 C0.99 0.33 1.98 0.66 3 1 C2.67 1.66 2.34 2.32 2 3 C1.34 3 0.68 3 0 3 C-0.33 3.66 -0.66 4.32 -1 5 C-1 2 -1 2 0 0 Z " fill="#927C12" transform="translate(10,103)"/>
<path d="M0 0 C0.66 0.33 1.32 0.66 2 1 C1.01 2.485 1.01 2.485 0 4 C-0.99 3.67 -1.98 3.34 -3 3 C-2 1 -2 1 0 0 Z " fill="#3B2406" transform="translate(40,86)"/>
<path d="M0 0 C1.32 0.33 2.64 0.66 4 1 C4 1.66 4 2.32 4 3 C2.68 2.67 1.36 2.34 0 2 C0 1.34 0 0.68 0 0 Z " fill="#FB312D" transform="translate(90,74)"/>
<path d="M0 0 C0.66 0.99 1.32 1.98 2 3 C1.01 3.66 0.02 4.32 -1 5 C-0.67 3.35 -0.34 1.7 0 0 Z " fill="#D13344" transform="translate(112,34)"/>
<path d="M0 0 C3 1 3 1 4 3 C2.68 3 1.36 3 0 3 C0 2.01 0 1.02 0 0 Z " fill="#F92D37" transform="translate(101,25)"/>
<path d="M0 0 C0.99 0 1.98 0 3 0 C2.67 0.99 2.34 1.98 2 3 C1.01 2.67 0.02 2.34 -1 2 C-0.67 1.34 -0.34 0.68 0 0 Z " fill="#210A04" transform="translate(61,95)"/>
<path d="M0 0 C0.66 0.66 1.32 1.32 2 2 C1.01 2.66 0.02 3.32 -1 4 C-1 1 -1 1 0 0 Z " fill="#34210E" transform="translate(49,86)"/>
<path d="M0 0 C-1.65 0.66 -3.3 1.32 -5 2 C-5.33 1.34 -5.66 0.68 -6 0 C-3 -1 -3 -1 0 0 Z " fill="#8E1B27" transform="translate(113,51)"/>
<path d="M0 0 C0.66 1.32 1.32 2.64 2 4 C1.01 4 0.02 4 -1 4 C-0.67 2.68 -0.34 1.36 0 0 Z " fill="#4D111B" transform="translate(133,39)"/>
<path d="M0 0 C0.33 0.66 0.66 1.32 1 2 C1.99 2.33 2.98 2.66 4 3 C3.01 3.495 3.01 3.495 2 4 C1.01 3.01 0.02 2.02 -1 1 C-0.67 0.67 -0.34 0.34 0 0 Z " fill="#7A1E1F" transform="translate(94,14)"/>
<path d="M0 0 C0.99 0.33 1.98 0.66 3 1 C3.33 1.99 3.66 2.98 4 4 C3.01 4 2.02 4 1 4 C0.67 2.68 0.34 1.36 0 0 Z " fill="#C72E42" transform="translate(116,12)"/>
<path d="M0 0 C0.66 0 1.32 0 2 0 C2.33 1.32 2.66 2.64 3 4 C2.01 3.67 1.02 3.34 0 3 C0 2.01 0 1.02 0 0 Z " fill="#772830" transform="translate(108,65)"/>
<path d="M0 0 C0.33 1.32 0.66 2.64 1 4 C0.01 3.67 -0.98 3.34 -2 3 C-1.34 2.01 -0.68 1.02 0 0 Z " fill="#140000" transform="translate(108,54)"/>
<path d="M0 0 C1.32 0.33 2.64 0.66 4 1 C3.01 1.66 2.02 2.32 1 3 C0.67 2.01 0.34 1.02 0 0 Z " fill="#170203" transform="translate(107,39)"/>
<path d="M0 0 C0.66 0.33 1.32 0.66 2 1 C1.34 1.66 0.68 2.32 0 3 C-0.66 3 -1.32 3 -2 3 C-2 2.34 -2 1.68 -2 1 C-1.34 0.67 -0.68 0.34 0 0 Z " fill="#050001" transform="translate(122,25)"/>
<path d="M0 0 C0 0.99 0 1.98 0 3 C-0.66 3 -1.32 3 -2 3 C-2 2.34 -2 1.68 -2 1 C-1.34 0.67 -0.68 0.34 0 0 Z " fill="#CAC622" transform="translate(4,87)"/>
<path d="M0 0 C1.65 0 3.3 0 5 0 C4.34 0.66 3.68 1.32 3 2 C2.01 1.34 1.02 0.68 0 0 Z " fill="#E22833" transform="translate(100,41)"/>
<path d="M0 0 C0.99 0.33 1.98 0.66 3 1 C2.67 1.66 2.34 2.32 2 3 C1.34 2.67 0.68 2.34 0 2 C0 1.34 0 0.68 0 0 Z " fill="#F9294E" transform="translate(123,5)"/>
<path d="M0 0 C0.66 0.99 1.32 1.98 2 3 C1.01 2.67 0.02 2.34 -1 2 C-0.67 1.34 -0.34 0.68 0 0 Z " fill="#3A1609" transform="translate(72,69)"/>
<path d="M0 0 C0.99 0.33 1.98 0.66 3 1 C2.01 1.33 1.02 1.66 0 2 C0 1.34 0 0.68 0 0 Z " fill="#320B0D" transform="translate(107,59)"/>
<path d="M0 0 C1.65 0 3.3 0 5 0 C5 0.33 5 0.66 5 1 C3.35 1 1.7 1 0 1 C0 0.67 0 0.34 0 0 Z " fill="#FA2840" transform="translate(111,54)"/>
<path d="M0 0 C0.99 0.33 1.98 0.66 3 1 C2.34 1.66 1.68 2.32 1 3 C0.67 2.01 0.34 1.02 0 0 Z " fill="#FE2842" transform="translate(113,49)"/>
<path d="M0 0 C0.99 0.33 1.98 0.66 3 1 C2.01 1.33 1.02 1.66 0 2 C0 1.34 0 0.68 0 0 Z " fill="#FD2C34" transform="translate(101,38)"/>
<path d="M0 0 C0.66 0.66 1.32 1.32 2 2 C1.01 2 0.02 2 -1 2 C-0.67 1.34 -0.34 0.68 0 0 Z " fill="#000000" transform="translate(108,34)"/>
<path d="M0 0 C0.99 0.33 1.98 0.66 3 1 C2.01 1.33 1.02 1.66 0 2 C0 1.34 0 0.68 0 0 Z " fill="#FE2B34" transform="translate(101,22)"/>
<path d="M0 0 C0 3 0 3 0 3 Z " fill="#0F0B04" transform="translate(9,101)"/>
<path d="M0 0 C4 1 4 1 4 1 Z " fill="#8D4315" transform="translate(57,87)"/>
<path d="M0 0 C0.99 0.33 1.98 0.66 3 1 C2.01 1 1.02 1 0 1 C0 0.67 0 0.34 0 0 Z " fill="#B4A627" transform="translate(7,85)"/>
<path d="M0 0 C0.99 0.33 1.98 0.66 3 1 C2.01 1 1.02 1 0 1 C0 0.67 0 0.34 0 0 Z " fill="#D2C41D" transform="translate(4,85)"/>
<path d="M0 0 C0.66 0 1.32 0 2 0 C2 0.66 2 1.32 2 2 C1.34 2 0.68 2 0 2 C0 1.34 0 0.68 0 0 Z " fill="#F72B4B" transform="translate(119,79)"/>
<path d="M0 0 C0.33 0.66 0.66 1.32 1 2 C0.01 1.67 -0.98 1.34 -2 1 C-1.34 0.67 -0.68 0.34 0 0 Z " fill="#FB284B" transform="translate(122,73)"/>
<path d="M0 0 C0.99 0.33 1.98 0.66 3 1 C2.01 1.33 1.02 1.66 0 2 C0 1.34 0 0.68 0 0 Z " fill="#080002" transform="translate(130,56)"/>
<path d="M0 0 C0.66 0.66 1.32 1.32 2 2 C1.01 1.67 0.02 1.34 -1 1 C-0.67 0.67 -0.34 0.34 0 0 Z " fill="#FE2843" transform="translate(113,46)"/>
<path d="M0 0 C0.66 0 1.32 0 2 0 C1.67 0.99 1.34 1.98 1 3 C0.67 2.01 0.34 1.02 0 0 Z " fill="#010203" transform="translate(110,28)"/>
<path d="M0 0 C0.99 0.33 1.98 0.66 3 1 C2.01 1 1.02 1 0 1 C0 0.67 0 0.34 0 0 Z " fill="#39090B" transform="translate(120,23)"/>
<path d="M0 0 C0.99 0.33 1.98 0.66 3 1 C2.01 1 1.02 1 0 1 C0 0.67 0 0.34 0 0 Z " fill="#BD2B3A" transform="translate(114,19)"/>
<path d="M0 0 C0.66 0.33 1.32 0.66 2 1 C1.01 1 0.02 1 -1 1 C-0.67 0.67 -0.34 0.34 0 0 Z " fill="#EB3461" transform="translate(128,9)"/>
<path d="M0 0 C0.66 0.66 1.32 1.32 2 2 C1.01 1.67 0.02 1.34 -1 1 C-0.67 0.67 -0.34 0.34 0 0 Z " fill="#A02734" transform="translate(119,7)"/>
<path d="M0 0 C0.99 0.495 0.99 0.495 2 1 C1.34 1.66 0.68 2.32 0 3 C0 2.01 0 1.02 0 0 Z " fill="#DFAC21" transform="translate(20,6)"/>
<path d="M0 0 C0.99 0 1.98 0 3 0 C2.67 0.66 2.34 1.32 2 2 C1.34 1.34 0.68 0.68 0 0 Z " fill="#56141F" transform="translate(124,1)"/>
<path d="M0 0 C0.99 0.495 0.99 0.495 2 1 C1.01 1.495 1.01 1.495 0 2 C0 1.34 0 0.68 0 0 Z " fill="#FC7412" transform="translate(59,93)"/>
<path d="" fill="#C4C626" transform="translate(0,0)"/>
<path d="M0 0 C3 1 3 1 3 1 Z " fill="#1D0406" transform="translate(124,74)"/>
<path d="M0 0 C3 1 3 1 3 1 Z " fill="#090000" transform="translate(106,70)"/>
<path d="M0 0 C3 1 3 1 3 1 Z " fill="#280B10" transform="translate(130,54)"/>
<path d="M0 0 C0.66 0.66 1.32 1.32 2 2 C1.34 2 0.68 2 0 2 C0 1.34 0 0.68 0 0 Z " fill="#F82C3D" transform="translate(110,47)"/>
<path d="M0 0 C3 1 3 1 3 1 Z " fill="#140401" transform="translate(104,43)"/>
<path d="M0 0 C3 1 3 1 3 1 Z " fill="#FE2842" transform="translate(112,39)"/>
<path d="M0 0 C0.66 0 1.32 0 2 0 C1.67 0.66 1.34 1.32 1 2 C0.67 1.34 0.34 0.68 0 0 Z " fill="#FE2C33" transform="translate(102,35)"/>
<path d="M0 0 C3 1 3 1 3 1 Z " fill="#FE2C33" transform="translate(100,29)"/>
<path d="" fill="#DA3D72" transform="translate(0,0)"/>
<path d="" fill="#080406" transform="translate(0,0)"/>
<path d="M0 0 C0.66 0.66 1.32 1.32 2 2 C1.34 2 0.68 2 0 2 C0 1.34 0 0.68 0 0 Z " fill="#F42A44" transform="translate(121,6)"/>
<path d="M0 0 C0.99 0.495 0.99 0.495 2 1 C1.01 1.495 1.01 1.495 0 2 C0 1.34 0 0.68 0 0 Z " fill="#000100" transform="translate(116,7)"/>
<path d="M0 0 C0.66 0 1.32 0 2 0 C1.67 0.66 1.34 1.32 1 2 C0.67 1.34 0.34 0.68 0 0 Z " fill="#300706" transform="translate(130,3)"/>
<path d="M0 0 C0.66 0.66 1.32 1.32 2 2 C1.34 2 0.68 2 0 2 C0 1.34 0 0.68 0 0 Z " fill="#450C12" transform="translate(128,1)"/>
<path d="M0 0 C2 1 2 1 2 1 Z " fill="#010007" transform="translate(12,110)"/>
<path d="M0 0 C2 1 2 1 2 1 Z " fill="#010001" transform="translate(108,103)"/>
<path d="" fill="#FD2A3C" transform="translate(0,0)"/>
<path d="" fill="#000003" transform="translate(0,0)"/>
<path d="" fill="#FCA403" transform="translate(0,0)"/>
<path d="M0 0 C2 1 2 1 2 1 Z " fill="#000005" transform="translate(66,91)"/>
<path d="M0 0 C2 1 2 1 2 1 Z " fill="#F86D1B" transform="translate(64,88)"/>
<path d="M0 0 C2 1 2 1 2 1 Z " fill="#FDA201" transform="translate(34,87)"/>
<path d="" fill="#FEB004" transform="translate(0,0)"/>
<path d="M0 0 C2 1 2 1 2 1 Z " fill="#FDA201" transform="translate(34,84)"/>
<path d="M0 0 C2 1 2 1 2 1 Z " fill="#0B0000" transform="translate(95,80)"/>
<path d="" fill="#FE2F2C" transform="translate(0,0)"/>
<path d="M0 0 C2 1 2 1 2 1 Z " fill="#FB312D" transform="translate(90,79)"/>
<path d="" fill="#010101" transform="translate(0,0)"/>
<path d="M0 0 C2 1 2 1 2 1 Z " fill="#000001" transform="translate(74,69)"/>
<path d="M0 0 C2 1 2 1 2 1 Z " fill="#8A1B2A" transform="translate(115,67)"/>
<path d="M0 0 C2 1 2 1 2 1 Z " fill="#F82B52" transform="translate(125,61)"/>
<path d="M0 0 C2 1 2 1 2 1 Z " fill="#020001" transform="translate(104,58)"/>
<path d="M0 0 C2 1 2 1 2 1 Z " fill="#FB293F" transform="translate(111,52)"/>
<path d="M0 0 C2 1 2 1 2 1 Z " fill="#160101" transform="translate(117,48)"/>
<path d="" fill="#130000" transform="translate(0,0)"/>
<path d="" fill="#010002" transform="translate(0,0)"/>
<path d="" fill="#000100" transform="translate(0,0)"/>
<path d="M0 0 C2 1 2 1 2 1 Z " fill="#F22D42" transform="translate(113,31)"/>
<path d="M0 0 C2 1 2 1 2 1 Z " fill="#FB2944" transform="translate(114,28)"/>
<path d="" fill="#010001" transform="translate(0,0)"/>
<path d="" fill="#E13B76" transform="translate(0,0)"/>
<path d="M0 0 C2 1 2 1 2 1 Z " fill="#020001" transform="translate(108,27)"/>
<path d="M0 0 C2 1 2 1 2 1 Z " fill="#010001" transform="translate(108,24)"/>
<path d="" fill="#FF2846" transform="translate(0,0)"/>
<path d="M0 0 C2 1 2 1 2 1 Z " fill="#F32E47" transform="translate(120,18)"/>
<path d="M0 0 C2 1 2 1 2 1 Z " fill="#040000" transform="translate(135,17)"/>
<path d="" fill="#F13160" transform="translate(0,0)"/>
<path d="" fill="#FA294D" transform="translate(0,0)"/>
<path d="" fill="#0F0405" transform="translate(0,0)"/>
<path d="M0 0 C2 1 2 1 2 1 Z " fill="#F1304D" transform="translate(125,9)"/>
<path d="M0 0 C2 1 2 1 2 1 Z " fill="#F62D58" transform="translate(125,4)"/>
<path d="M0 0 C2 1 2 1 2 1 Z " fill="#000100" transform="translate(118,4)"/>
<path d="" fill="#010001" transform="translate(0,0)"/>
<path d="" fill="#FD2A3C" transform="translate(0,0)"/>
<path d="" fill="#B1C427" transform="translate(0,0)"/>
<path d="" fill="#F92843" transform="translate(0,0)"/>
<path d="" fill="#040000" transform="translate(0,0)"/>
<path d="" fill="#FD9F01" transform="translate(0,0)"/>
<path d="" fill="#010001" transform="translate(0,0)"/>
<path d="" fill="#FC8203" transform="translate(0,0)"/>
<path d="" fill="#E8C50D" transform="translate(0,0)"/>
<path d="" fill="#AB3C3E" transform="translate(0,0)"/>
<path d="" fill="#FBC102" transform="translate(0,0)"/>
<path d="" fill="#E8C50D" transform="translate(0,0)"/>
<path d="" fill="#010005" transform="translate(0,0)"/>
<path d="" fill="#FD9F01" transform="translate(0,0)"/>
<path d="" fill="#FD3229" transform="translate(0,0)"/>
<path d="" fill="#FCA905" transform="translate(0,0)"/>
<path d="" fill="#040000" transform="translate(0,0)"/>
<path d="" fill="#E0A74A" transform="translate(0,0)"/>
<path d="" fill="#010001" transform="translate(0,0)"/>
<path d="" fill="#EB671F" transform="translate(0,0)"/>
<path d="" fill="#390100" transform="translate(0,0)"/>
<path d="" fill="#010101" transform="translate(0,0)"/>
<path d="" fill="#000000" transform="translate(0,0)"/>
<path d="" fill="#010101" transform="translate(0,0)"/>
<path d="" fill="#F62D58" transform="translate(0,0)"/>
<path d="" fill="#F13160" transform="translate(0,0)"/>
<path d="" fill="#010104" transform="translate(0,0)"/>
<path d="" fill="#010101" transform="translate(0,0)"/>
<path d="" fill="#F62D58" transform="translate(0,0)"/>
<path d="" fill="#000000" transform="translate(0,0)"/>
<path d="" fill="#460508" transform="translate(0,0)"/>
<path d="" fill="#010200" transform="translate(0,0)"/>
<path d="" fill="#F13160" transform="translate(0,0)"/>
<path d="" fill="#000100" transform="translate(0,0)"/>
<path d="" fill="#000100" transform="translate(0,0)"/>
<path d="" fill="#F92843" transform="translate(0,0)"/>
<path d="" fill="#010001" transform="translate(0,0)"/>
<path d="" fill="#010005" transform="translate(0,0)"/>
<path d="" fill="#FD2A3C" transform="translate(0,0)"/>
<path d="" fill="#F92843" transform="translate(0,0)"/>
<path d="" fill="#F13160" transform="translate(0,0)"/>
<path d="" fill="#000001" transform="translate(0,0)"/>
<path d="" fill="#000000" transform="translate(0,0)"/>
<path d="" fill="#FD2A3C" transform="translate(0,0)"/>
<path d="" fill="#FF2846" transform="translate(0,0)"/>
<path d="" fill="#020001" transform="translate(0,0)"/>
<path d="" fill="#000100" transform="translate(0,0)"/>
<path d="" fill="#FA3131" transform="translate(0,0)"/>
<path d="" fill="#1B0000" transform="translate(0,0)"/>
<path d="" fill="#FD3627" transform="translate(0,0)"/>
<path d="" fill="#010001" transform="translate(0,0)"/>
<path d="" fill="#EC356B" transform="translate(0,0)"/>
<path d="" fill="#E8355D" transform="translate(0,0)"/>
<path d="" fill="#DB3D37" transform="translate(0,0)"/>
<path d="" fill="#010003" transform="translate(0,0)"/>
<path d="" fill="#C83D4B" transform="translate(0,0)"/>
<path d="" fill="#E8355D" transform="translate(0,0)"/>
<path d="" fill="#010001" transform="translate(0,0)"/>
<path d="" fill="#010200" transform="translate(0,0)"/>
<path d="" fill="#F92843" transform="translate(0,0)"/>
<path d="" fill="#F13160" transform="translate(0,0)"/>
<path d="" fill="#010001" transform="translate(0,0)"/>
<path d="" fill="#F92843" transform="translate(0,0)"/>
<path d="" fill="#100000" transform="translate(0,0)"/>
<path d="" fill="#F33530" transform="translate(0,0)"/>
<path d="" fill="#000100" transform="translate(0,0)"/>
<path d="" fill="#000001" transform="translate(0,0)"/>
<path d="" fill="#000000" transform="translate(0,0)"/>
<path d="" fill="#EC356B" transform="translate(0,0)"/>
<path d="" fill="#F13160" transform="translate(0,0)"/>
<path d="" fill="#F13160" transform="translate(0,0)"/>
<path d="" fill="#000001" transform="translate(0,0)"/>
<path d="" fill="#080000" transform="translate(0,0)"/>
<path d="" fill="#F62D58" transform="translate(0,0)"/>
<path d="" fill="#000100" transform="translate(0,0)"/>
<path d="" fill="#010001" transform="translate(0,0)"/>
<path d="" fill="#000000" transform="translate(0,0)"/>
<path d="" fill="#000000" transform="translate(0,0)"/>
</svg>
